<?xml version="1.0" encoding="UTF-8" standalone="no"?>
<!-- Created with Inkscape (http://www.inkscape.org/) -->

<svg
        width="400"
        height="400"
        viewBox="0 0 105.83335 105.83333"
        version="1.1"
        id="svg5"
        xml:space="preserve"
        inkscape:version="1.2 (56b05e47e7, 2022-06-09, custom)"
        sodipodi:docname="small_alga"
        xmlns:inkscape="http://www.inkscape.org/namespaces/inkscape"
        xmlns:sodipodi="http://sodipodi.sourceforge.net/DTD/sodipodi-0.dtd"
        xmlns="http://www.w3.org/2000/svg"
><sodipodi:namedview
     id="namedview7"
     pagecolor="#ffffff"
     bordercolor="#000000"
     borderopacity="0.25"
     inkscape:showpageshadow="2"
     inkscape:pageopacity="0.0"
     inkscape:pagecheckerboard="0"
     inkscape:deskcolor="#d1d1d1"
     inkscape:document-units="mm"
     showgrid="false"
     inkscape:zoom="1.9099422"
     inkscape:cx="195.03208"
     inkscape:cy="134.03547"
     inkscape:window-width="1920"
     inkscape:window-height="1013"
     inkscape:window-x="0"
     inkscape:window-y="30"
     inkscape:window-maximized="1"
     inkscape:current-layer="layer1" /><defs
     id="defs2"><inkscape:path-effect
       effect="bspline"
       id="path-effect7879"
       is_visible="true"
       lpeversion="1"
       weight="33.333333"
       steps="2"
       helper_size="0"
       apply_no_weight="true"
       apply_with_weight="true"
       only_selected="false" /><inkscape:path-effect
       effect="bspline"
       id="path-effect7875"
       is_visible="true"
       lpeversion="1"
       weight="33.333333"
       steps="2"
       helper_size="0"
       apply_no_weight="true"
       apply_with_weight="true"
       only_selected="false" /><inkscape:path-effect
       effect="bspline"
       id="path-effect7703"
       is_visible="true"
       lpeversion="1"
       weight="33.333333"
       steps="2"
       helper_size="0"
       apply_no_weight="true"
       apply_with_weight="true"
       only_selected="false" /><inkscape:path-effect
       effect="bspline"
       id="path-effect7549"
       is_visible="true"
       lpeversion="1"
       weight="33.333333"
       steps="2"
       helper_size="0"
       apply_no_weight="true"
       apply_with_weight="true"
       only_selected="false" /></defs><g
     inkscape:label="Layer 1"
     inkscape:groupmode="layer"
     id="layer1"><path
       style="fill:#77ff2c;fill-opacity:1;stroke-width:0.264583"
       d="M 70.843503,59.049117 C 72.062863,57.536159 69.03651,55.232458 67.761261,52.542978 66.486011,49.853497 66.962296,46.778523 66.533975,44.465291 66.105654,42.15206 64.772504,40.60078 62.450774,39.675123 60.129044,38.749466 56.818973,38.449799 54.176879,37.649367 51.534785,36.848936 49.560931,35.54764 48.231666,34.432091 46.9024,33.316542 46.217882,32.386705 45.468985,31.228954 44.720089,30.071203 43.90691,28.685621 43.181768,29.328529 c -0.725142,0.642908 -1.361933,3.314349 -1.131039,6.090171 0.230893,2.775822 1.329276,5.655562 2.84405,7.55393 1.514775,1.898368 3.445556,2.815303 5.440176,3.704806 1.99462,0.889503 4.05283,1.75148 5.486618,2.62499 1.433787,0.87351 2.243059,1.758312 2.511781,3.390437 0.268722,1.632125 -0.0029,4.011467 -0.03281,5.688451 -0.02994,1.676985 0.181673,2.651448 3.020154,2.777306 2.838481,0.125858 8.303441,-0.596544 9.522801,-2.109503 z"
       id="path7547"
       inkscape:path-effect="#path-effect7549"
       inkscape:original-d="m 75.088992,59.839689 c -3.02616,-2.303489 -6.05251,-4.607194 -9.07926,-6.911256 0.47658,-3.074889 0.95286,-6.149864 1.42891,-9.225282 -1.33297,-1.551107 -2.66612,-3.102387 -3.99961,-4.654025 -3.31001,-0.299421 -6.620081,-0.599088 -9.930611,-0.899038 -1.97368,-1.301086 -3.94753,-2.602387 -5.9217,-3.903978 -0.68427,-0.929605 -1.36879,-1.859441 -2.05359,-2.789557 -0.81296,-1.385398 -1.62614,-2.770979 -2.43963,-4.156907 -0.63656,2.671866 -1.27335,5.343307 -1.91045,8.014644 1.09872,2.880175 2.1971,5.759916 3.29528,8.639563 1.93117,0.917256 3.86195,1.834194 5.79259,2.750922 2.0586,0.862293 4.11681,1.724271 6.17487,2.586033 0.80958,0.885118 1.61885,1.769921 2.42791,2.654511 -0.27134,2.379702 -0.54292,4.759044 -0.81478,7.138168 0.21189,0.974768 0.4235,1.949232 0.63485,2.923452 5.465451,-0.72217 10.930411,-1.44457 16.395221,-2.16725 z"
       sodipodi:nodetypes="cccccccccccccccc" /><path
       style="fill:#06d400;fill-opacity:1;stroke-width:0.264583"
       d="m 46.822017,73.306257 c -0.0392,-0.459666 -0.117633,-1.379274 0.51752,-1.881384 0.635153,-0.50211 1.983625,-0.586412 3.216024,-1.077369 1.232399,-0.490957 2.348869,-1.388518 2.899551,-2.30485 0.550682,-0.916332 0.535582,-1.851682 0.241402,-2.966373 -0.294181,-1.114692 -0.867561,-2.408712 -1.103061,-3.882779 -0.2355,-1.474067 -0.132955,-3.128012 0.414758,-4.31302 0.547713,-1.185007 1.540492,-1.90073 3.075971,-2.36249 1.535479,-0.461761 3.613379,-0.669552 5.931663,-1.299214 2.318283,-0.629661 4.876912,-1.681119 6.54717,-3.468979 1.670258,-1.78786 2.452249,-4.31222 2.41621,-6.520984 -0.03604,-2.208765 -0.890286,-4.101966 -3.03679,-7.322821 -2.146504,-3.220856 -5.585187,-7.769121 -6.315877,-8.674197 -0.730691,-0.905077 1.24661,1.833014 2.315808,4.28301 1.069197,2.449997 1.230444,4.611777 0.88146,6.594462 -0.348985,1.982684 -1.208094,3.786328 -2.858371,5.045615 -1.650277,1.259287 -4.091838,1.974318 -6.5307,2.320163 -2.438863,0.345845 -4.874982,0.322439 -6.726709,1.220706 -1.851726,0.898266 -3.118657,2.71808 -3.929801,4.853451 -0.811144,2.135372 -1.166467,4.585995 -1.216602,6.813337 -0.05013,2.227341 0.204848,4.231211 0.03713,6.184008 -0.167723,1.952797 -0.758041,3.854544 -1.261544,5.0392 -0.503502,1.184657 -0.920211,1.652328 -0.15156,2.229583 0.76865,0.577255 2.722261,1.263973 3.698923,1.607282 0.976662,0.343309 0.976632,0.343309 0.937429,-0.116357 z"
       id="path7701"
       inkscape:path-effect="#path-effect7703"
       inkscape:original-d="m 46.86122,73.765923 c -0.0782,-0.91935 -0.1566,-1.83896 -0.23529,-2.75884 1.34878,-0.084 2.69725,-0.16834 4.04548,-0.25291 1.11678,-0.89734 2.23325,-1.7949 3.34948,-2.69274 -0.0148,-0.935116 -0.0299,-1.870466 -0.0453,-2.8061 -0.57313,-1.2938 -1.14651,-2.58782 -1.72017,-3.88213 0.10282,-1.65375 0.20536,-3.307696 0.30764,-4.961945 0.99308,-0.715483 1.98586,-1.431205 2.97839,-2.147205 2.07824,-0.207534 4.15614,-0.415324 6.23382,-0.623385 2.55899,-1.051231 5.117619,-2.102688 7.676032,-3.154431 0.78229,-2.524199 1.56428,-5.048559 2.34602,-7.573235 -0.85401,-1.893009 -1.70826,-3.786208 -2.56279,-5.679708 C 65.795969,32.68511 62.35729,28.136842 58.91827,23.588218 c 1.97765,2.738464 3.95495,5.476555 5.932019,8.214435 0.16152,2.162133 0.32276,4.323913 0.48375,6.48547 -0.85888,1.803982 -1.717989,3.607625 -2.577379,5.411039 -2.44139,0.715324 -4.88295,1.430356 -7.32482,2.145135 -2.43595,-0.02315 -4.87207,-0.04655 -7.3085,-0.07022 -1.26672,1.820151 -2.53365,3.639966 -3.80087,5.459553 -0.35507,2.450989 -0.71039,4.901613 -1.06599,7.352023 0.25526,2.0042 0.51024,4.00807 0.76496,6.0117 -0.59007,1.902094 -1.18039,3.80384 -1.77099,5.70536 -0.41645,0.46794 -0.83316,0.93561 -1.25013,1.40302 1.95394,0.68701 3.90755,1.37373 5.86093,2.06019 z" /><path
       style="fill:#00bd0e;fill-opacity:1;stroke-width:0.264583"
       d="m 25.442584,54.67471 c -0.0391,-1.266956 0.285051,-1.289555 1.565998,-1.374758 1.280947,-0.0852 3.518586,-0.233004 5.567814,-1.281958 2.049228,-1.048954 3.910182,-2.99901 5.55194,-4.351767 1.641757,-1.352756 3.064136,-2.108098 4.610563,-2.277911 1.546426,-0.169813 3.216607,0.245766 4.969992,0.880015 1.753384,0.634249 3.589852,1.487053 5.586999,1.727485 1.997147,0.240432 4.154956,-0.131332 5.725922,-0.252176 1.570967,-0.120844 2.554927,0.0092 3.631907,1.430135 1.07698,1.420978 2.247062,4.132531 3.369514,6.257328 1.122452,2.124796 2.19713,3.662726 3.20804,4.85996 1.010909,1.197234 1.95793,2.053763 2.753566,3.65836 0.795636,1.604597 1.440036,3.957088 0.975122,6.537216 -0.464914,2.580127 -2.038956,5.387956 -2.495928,5.750844 -0.456973,0.362888 0.20313,-1.719211 0.171695,-3.359592 -0.03143,-1.640381 -0.754634,-2.839101 -2.052709,-3.865163 -1.298076,-1.026062 -3.171076,-1.879243 -4.224151,-3.050909 -1.053075,-1.171666 -1.285907,-2.661887 -1.947511,-3.860743 -0.661605,-1.198856 -1.752174,-2.106226 -3.546824,-2.298807 -1.794649,-0.192581 -4.293159,0.329908 -6.004223,-0.221153 -1.711064,-0.551061 -2.634571,-2.175959 -3.719672,-3.438708 -1.085102,-1.262749 -2.331846,-2.163173 -3.513763,-1.850755 -1.181917,0.312419 -2.29861,1.837804 -3.314645,2.930456 -1.016036,1.092652 -1.931439,1.752599 -3.706032,2.148421 -1.774594,0.395821 -4.408465,0.527482 -6.475797,0.558692 -2.067332,0.03121 -3.568041,-0.03805 -4.447671,0.117586 -0.87963,0.155641 -1.137829,0.536132 -1.468167,-0.529027 -0.330337,-1.065159 -0.732879,-3.576116 -0.771979,-4.843071 z"
       id="path7873"
       inkscape:path-effect="#path-effect7875"
       inkscape:original-d="m 25.079087,53.430371 c 0.32442,-0.0223 0.64857,-0.0449 0.97247,-0.0678 2.237991,-0.14754 4.47563,-0.29534 6.71305,-0.44341 1.86129,-1.94986 3.722241,-3.89992 5.582961,-5.85027 1.42269,-0.75511 2.84507,-1.51045 4.2672,-2.26606 1.67051,0.41586 3.340691,0.83144 5.010641,1.24676 1.83681,0.85311 3.67328,1.70591 5.50953,2.55847 2.15815,-0.37151 4.31596,-0.74327 6.47354,-1.11531 0.98427,0.13027 1.96823,0.26027 2.95195,0.39001 1.17039,2.71194 2.34048,5.42349 3.510321,8.13484 1.07499,1.53826 2.149672,3.076187 3.224102,4.613887 0.94732,0.85682 1.89434,1.71335 2.84111,2.56963 0.64469,2.352854 1.28909,4.705345 1.93324,7.057615 -1.57384,2.80821 -3.14788,5.61604 -4.72222,8.42366 0.6604,-2.08192 1.3205,-4.16402 1.98035,-6.24643 -0.72296,-1.1985 -1.44616,-2.39722 -2.16964,-3.59623 -1.872802,-0.85295 -3.745802,-1.706131 -5.619103,-2.559591 -0.23257,-1.490024 -0.46541,-2.980244 -0.69851,-4.470754 -1.09035,-0.90714 -2.18092,-1.81451 -3.27178,-2.72217 -2.49835,0.52278 -4.99686,1.04527 -7.49568,1.5675 -0.92329,-1.62471 -1.8468,-3.249607 -2.77059,-4.874817 -1.24653,-0.90019 -2.49327,-1.80062 -3.740301,-2.70132 -1.11647,1.52571 -2.23317,3.05109 -3.35014,4.57624 -0.91518,0.660237 -1.83058,1.320187 -2.74626,1.979877 -2.63371,0.13193 -5.267581,0.26359 -7.901771,0.39499 -1.5005,-0.069 -3.001209,-0.13827 -4.50221,-0.2078 -0.25794,0.38077 -0.51614,0.76126 -0.77461,1.14149 -0.4023,-2.51079 -0.80484,-5.021747 -1.20765,-7.533007 z" /><path
       style="fill:#3fe900;fill-opacity:1;stroke-width:0.264583"
       d="m 64.120381,41.413294 c -0.052,0.06251 -0.156193,0.18776 -0.486761,0.622163 -0.330568,0.434403 -0.887468,1.177927 -0.96536,2.273682 -0.07789,1.095755 0.323392,2.543412 -0.294476,3.978897 -0.617867,1.435485 -2.255071,2.85895 -3.208059,4.570631 -0.952987,1.71168 -1.221479,3.71137 -1.056081,5.544556 0.165397,1.833187 0.764672,3.499589 0.64813,5.161971 -0.116541,1.662382 -0.948971,3.320912 -2.41881,3.941697 -1.469839,0.620786 -3.577209,0.203531 -5.147138,0.145567 -1.569928,-0.05796 -2.602351,0.243529 -3.185125,0.870162 -0.582775,0.626634 -0.715532,1.578404 -1.417607,2.571439 -0.702075,0.993035 -1.973657,2.027366 -3.408677,2.277178 -1.435019,0.249812 -3.03342,-0.28521 -5.160674,-1.289196 -2.127254,-1.003987 -4.78316,-2.476898 -7.177855,-2.68488 -2.394696,-0.207981 -4.528114,0.849252 -4.795659,0.871078 -0.267546,0.02183 1.33079,-0.991711 2.727733,-1.976543 1.396943,-0.984831 2.592461,-1.940888 4.218336,-2.492634 1.625874,-0.551747 3.681893,-0.699346 5.356422,-1.480788 1.674529,-0.781443 2.967636,-2.196468 3.658609,-3.907779 0.690974,-1.711312 0.779984,-3.71893 1.667379,-5.342752 0.887395,-1.623822 2.572836,-2.86366 4.024741,-3.89266 1.451905,-1.028999 2.670179,-1.847111 3.671193,-3.987161 1.001015,-2.14005 1.78497,-5.601919 3.882602,-6.79499 2.097632,-1.19307 5.50852,-0.117562 7.213843,0.420154 1.705324,0.537716 1.705292,0.537701 1.653294,0.600208 z"
       id="path7877"
       inkscape:path-effect="#path-effect7879"
       inkscape:original-d="m 64.172379,41.350787 c -0.103817,0.125162 -0.208038,0.250394 -0.31257,0.375741 -0.556588,0.743459 -1.113459,1.487004 -1.670747,2.230632 0.401664,1.447635 0.802949,2.895292 1.203876,4.343054 -1.636902,1.423444 -3.274107,2.846908 -4.911714,4.270486 -0.268145,1.999693 -0.536632,3.999383 -0.805494,5.999205 0.599664,1.666378 1.198936,3.332781 1.797855,4.999295 -0.832093,1.658506 -1.664529,3.317033 -2.497336,4.975683 -2.107094,-0.41736 -4.214463,-0.83462 -6.322241,-1.251791 -1.032104,0.301421 -2.064525,0.602921 -3.097341,0.904501 -0.132388,0.95171 -0.265149,1.90348 -0.398274,2.85534 -1.271269,1.03429 -2.542852,2.06862 -3.814829,3.10306 -1.598104,-0.53513 -3.196502,-1.07016 -4.795301,-1.6051 -2.655651,-1.47306 -5.311558,-2.94597 -7.967888,-4.41883 -2.133147,1.05719 -4.266566,2.11442 -6.400394,3.17177 1.598765,-1.01367 3.197105,-2.0272 4.795103,-3.04067 1.195922,-0.956172 2.39144,-1.912229 3.586614,-2.868216 2.05647,-0.147693 4.112488,-0.295297 6.168186,-0.442807 1.293518,-1.415169 2.586628,-2.830191 3.879401,-4.245165 0.08938,-2.007776 0.178386,-4.015394 0.267035,-6.022964 1.685869,-1.239973 3.37131,-2.479811 5.056419,-3.719586 1.218689,-0.818231 2.436962,-1.636344 3.654896,-2.454386 0.784352,-3.462092 1.568305,-6.923962 2.351913,-10.385824 3.411383,1.075471 6.822272,2.150976 10.232863,3.226587 z" /></g></svg>
