<?xml version="1.0" encoding="UTF-8" standalone="no"?>
<!-- Generator: Adobe Illustrator 12.0.0, SVG Export Plug-In . SVG Version: 6.00 Build 51448)  -->

<svg
        version="1.1"
        id="图层_2"
        width="248.949"
        height="218.864"
        viewBox="0 0 248.949 218.864"
        style="overflow:visible;enable-background:new 0 0 248.949 218.864;"
        xml:space="preserve"
        sodipodi:docname="meat_fish"
        inkscape:version="1.2 (56b05e47e7, 2022-06-09, custom)"
        xmlns:inkscape="http://www.inkscape.org/namespaces/inkscape"
        xmlns:sodipodi="http://sodipodi.sourceforge.net/DTD/sodipodi-0.dtd"
        xmlns="http://www.w3.org/2000/svg"
><defs
   id="defs87" />
    <sodipodi:namedview
            id="namedview85"
            pagecolor="#ffffff"
            bordercolor="#000000"
            borderopacity="0.25"
            inkscape:showpageshadow="2"
            inkscape:pageopacity="0.0"
            inkscape:pagecheckerboard="0"
            inkscape:deskcolor="#d1d1d1"
            showgrid="false"
   inkscape:zoom="2.8284271"
   inkscape:cx="152.20473"
   inkscape:cy="98.641396"
   inkscape:window-width="1920"
   inkscape:window-height="1013"
   inkscape:window-x="0"
   inkscape:window-y="30"
   inkscape:window-maximized="1"
   inkscape:current-layer="图层_2" />
<path
   style="fill:#E3AA00;"
   d="M150.751,47.214c-21.65-21.394-60.517-42.546-102.198-4.295  c-7.071,6.488-12.514,16.069-14.479,25.113c-6.12,28.164-41.779,37.946-32.113,62.186c3.891,9.756,25.432,6.708,34.915,29.623  c15.281,36.93,76.019,57.477,132.331,8.798c0,0,25-32.976,38.794-15.091c13.794,17.886,40.949,47.481,40.949-21.267  c0-60.104-12.896-37.949-32.294-29.007c-19.396,8.943-22.448,16.737-47.881-30.771C168.774,72.504,162.928,59.248,150.751,47.214z"
   id="path18" />
	<g
   style="opacity:0.21;"
   id="g24">
	<g
   id="g22">
		<path
   style="fill:#FFFF94;"
   d="M37.188,83.813c1.906-9.044,7.183-18.625,14.036-25.113c40.406-38.251,78.084-17.099,99.071,4.296    c11.805,12.033,17.472,25.289,17.472,25.289c24.654,47.508,27.613,39.715,46.416,30.772c18.804-8.943,31.306-31.098,31.306,29.006    c0,6.795-0.261,12.614-0.737,17.594c2.425-6.734,3.894-17.395,3.894-33.373c0-60.106-12.896-37.95-32.294-29.008    c-19.396,8.944-22.448,16.739-47.881-30.771c0,0-5.847-13.256-18.023-25.29C128.797,25.821,89.93,4.668,48.249,42.919    c-7.07,6.488-12.514,16.068-14.479,25.113c-6.12,28.164-41.779,37.945-32.112,62.186c0.635,1.592,1.747,2.84,3.192,3.919    C8.198,117.649,32.322,106.913,37.188,83.813z"
   id="path20" />
	</g>
</g>
	<path
   style="fill:#cf0000;fill-opacity:1"
   d="M61.811,37.697c0,0,33.533-42.467,88.738-37.253c41.43,3.913,46.094,109.657,24.463,90.098  C156.493,73.797,120.805-1.736,61.811,37.697z"
   id="path26" />
	<path
   style="fill:#e30000;fill-opacity:1"
   d="M73.949,25.177c0,0,37.5-29,73-14c0,0,19.5,9,27,32C183.988,73.962,134.949,15.177,73.949,25.177z"
   id="path28" />
	<g
   id="g38">
	<g
   id="g34">
		
			<ellipse
   transform="matrix(0.8916 0.4529 -0.4529 0.8916 38.262 0.0192)"
   style="fill:#FFFFFF;stroke:#B2B2B2;"
   cx="19.091"
   cy="79.92"
   rx="17.792"
   ry="18.512"
   id="ellipse30" />
		<path
   style="fill:#F7F7F7;"
   d="M27.475,63.415c-8.761-4.45-19.617-0.668-24.247,8.448c-4.63,9.115-1.281,20.113,7.48,24.563    c8.76,4.449,19.616,0.667,24.247-8.448C39.584,78.862,36.236,67.865,27.475,63.415z M11.565,89.848    c-6.892-3.5-9.527-12.152-5.885-19.323c3.642-7.171,12.183-10.147,19.076-6.646c6.892,3.5,9.525,12.153,5.884,19.323    C26.997,90.373,18.456,93.349,11.565,89.848z"
   id="path32" />
	</g>
		<circle
   cx="13.769"
   cy="79.226"
   r="4.037"
   id="circle36" />
</g>
	<path
   style="fill:#cf9b00;fill-opacity:1"
   d="M246.258,99.733L246.258,99.733c3.309,71.057-36.309,62.944-33.354,48.444s0-28.554,0-28.554  c-7.969-2.97-12.305-6.267-14.046-9.633c-7.551-0.305-14.749-8.84-30.084-37.487c0,0-5.847-13.256-18.023-25.289  c-21.65-21.394-60.517-42.547-102.198-4.295c-7.07,6.488-12.514,16.068-14.479,25.113c-6.12,28.163-41.779,37.945-32.112,62.186  c3.891,9.756,25.432,6.708,34.914,29.623c15.281,36.93,76.02,57.477,132.331,8.798c0,0,25-32.976,38.794-15.091  c13.794,17.886,40.949,47.481,40.949-21.267C248.949,116.069,248.009,105.849,246.258,99.733z"
   id="path40" />
	<path
   style="fill:#cf9b00;fill-opacity:1"
   d="M69.191,183.991c0,0,58.772,59.951,90.42,22.643s17.815-67.659-1.741-49.419  C138.315,175.456,120.705,192.524,69.191,183.991z"
   id="path42" />
	<path
   style="fill:#FFBF00;"
   d="M168.774,72.503c0,0-5.847-13.256-18.023-25.289c-21.65-21.394-60.517-42.546-102.198-4.295  c-7.071,6.488-12.514,16.068-14.479,25.113C26.272,103.93-8.551,98.167,1.96,130.218c3.273,9.98,25.432,6.708,34.915,29.623  c15.28,36.93,76.019,57.477,132.331,8.798c0,0,6.108-7.055,13.952-13.043c8.626-11.419,23.583-5.317,26.969-15.419  c8.322-23.5-4.853-30.504-8.067-30.504C193.156,111.679,186.247,105.144,168.774,72.503z"
   id="path44" />
	<path
   style="opacity:0.21;fill:#f41f1f;fill-opacity:1"
   d="M34.076,85.366c1.966-9.045,7.409-18.625,14.48-25.113  c41.685-38.251,80.555-17.098,102.207,4.295c12.178,12.033,18.024,25.289,18.024,25.289c17.474,32.641,26.257,31.014,35.161,29.008  c3.251,0,5.867,0.291,7.973,0.836c-2.229-7.386-7.899-10.007-9.862-10.007c-8.903,2.006-15.813-4.53-33.285-37.17  c0,0-5.847-13.256-18.023-25.289c-21.65-21.394-60.517-42.546-102.198-4.295c-7.071,6.488-12.514,16.068-14.479,25.113  C26.37,103.481-7.68,98.308,1.592,129.039C7.515,115.723,28.271,112.072,34.076,85.366z"
   id="path46" />
	<path
   style="opacity:0.54;fill:#E3AA00;"
   d="M193.915,138.096c-8.305,5.988-14.771,13.043-14.771,13.043  c-59.62,48.679-123.925,28.132-140.103-8.798c-9.998-22.816-43.092,3.503-36.913-29.5c-1.604,4.39-1.641,9.837,0.832,17.377  c3.273,9.98,25.432,6.708,34.915,29.623c15.28,36.93,76.019,57.477,132.331,8.798c0,0,6.108-7.055,13.952-13.043  c8.626-11.419,23.583-5.317,26.969-15.419c1.485-4.193,2.275-7.853,2.57-11.05C207.456,130.688,199.454,131.17,193.915,138.096z"
   id="path48" />
	<path
   style="opacity:0.46;fill:#8B5C29;"
   d="M1.85,130.218c0,0,8.729-0.223,22.951-9.936c7.257-4.957,14.682-7.571,9.794-0.105  c-17.119,26.147-28.5,14.5-28.5,14.5S3.714,133.754,1.85,130.218z"
   id="path50" />
	<g
   id="g58">
	
		<ellipse
   transform="matrix(0.8916 0.4529 -0.4529 0.8916 42.4425 -8.4285)"
   style="opacity:0.16;fill:#8F0000;"
   cx="38.824"
   cy="84.427"
   rx="20.946"
   ry="23.837"
   id="ellipse52" />

		<ellipse
   transform="matrix(0.8916 0.4529 -0.4529 0.8916 40.579 -8.6357)"
   style="fill:#FFFFFF;stroke:#B2B2B2;"
   cx="38.324"
   cy="80.427"
   rx="21.625"
   ry="22.5"
   id="ellipse54" />
		<path
   style="fill:#F7F7F7;"
   d="M48.514,60.367c-10.647-5.408-23.842-0.812-29.47,10.267s-1.557,24.445,9.091,29.854   c10.647,5.408,23.842,0.812,29.47-10.267S59.162,65.775,48.514,60.367z M29.178,92.495c-8.377-4.255-11.579-14.771-7.152-23.485   c4.427-8.716,14.808-12.333,23.185-8.078c8.375,4.254,11.578,14.771,7.151,23.486C47.934,93.132,37.553,96.749,29.178,92.495z"
   id="path56" />
</g>
	<circle
   cx="31.855"
   cy="79.583"
   r="4.906"
   id="circle60" />
	<path
   style="opacity:0.2;fill:#edb200;fill-opacity:1"
   d="M203.06,120.51c-14.293,0-27.11,7.667-27.11,7.667  c-66.338,26.243-106.667,17.836-136.908,1.333c-21.862-11.931-43.092,13-36.916-16.663c-1.601,4.389-2.747,9.834-0.275,17.371  c3.273,9.98,25.844,7.405,35.328,30.32c15.28,36.93,76.716,56.779,133.028,8.1c0,0,6.108-7.054,13.952-13.042  c8.626-11.419,23.583-5.317,26.969-15.419c3.253-9.186,3.215-15.842,1.777-20.554C210.549,118.41,207.394,120.51,203.06,120.51z"
   id="path62" />
	<path
   style="fill:#E3AA00;"
   d="M83.395,196.448c0,0,43.877,3.911,62.554-6.271c31.673-17.266,18.059,12.059-12,17  C114.116,210.438,83.395,196.448,83.395,196.448z"
   id="path64" />
	<path
   style="fill:#CF9B00;"
   d="M213.83,126.261l16.119,5.416c0,0-18.406-2.229-17.161,2.889S213.83,126.261,213.83,126.261z"
   id="path66" />
	<path
   style="opacity:0.29;fill:#5A3D1C;"
   d="M34.595,120.177c4.888-7.466-2.537-4.852-9.794,0.105  c-14.221,9.713-22.951,9.936-22.951,9.936c0.972,1.845,2.083,2.974,2.925,3.636c1.603,0.54,6.158,1.219,12.422-5.045  c7.865-7.864,18.26-11.457,15.606-6.01C33.393,121.967,33.989,121.102,34.595,120.177z"
   id="path68" />
	<circle
   style="fill:#cf0000;fill-opacity:1"
   cx="156.199"
   cy="27.927"
   r="4.25"
   id="circle70" />
	<circle
   style="fill:#cf0000;fill-opacity:1"
   cx="134.764"
   cy="15.617"
   r="1.631"
   id="circle72" />
	<circle
   style="fill:#cf0a00;fill-opacity:1"
   cx="147.953"
   cy="21.318"
   r="2.918"
   id="circle74" />
	<circle
   style="fill:#E3AA00;"
   cx="116.199"
   cy="134.427"
   r="3.25"
   id="circle76" />
	<circle
   style="fill:#E3AA00;"
   cx="129.699"
   cy="131.427"
   r="1.75"
   id="circle78" />
	<circle
   style="opacity:0.47;fill:#E3AA00;"
   cx="128.699"
   cy="120.427"
   r="2.25"
   id="circle80" />
	<circle
   style="fill:#e3aa00;fill-opacity:1"
   cx="99.949"
   cy="137.677"
   r="4"
   id="circle82" />
<path
   id="path1404"
   style="fill:#ff1f1f;fill-opacity:1;stroke-width:0.204169"
   sodipodi:type="inkscape:offset"
   inkscape:radius="0.34279829"
   inkscape:original="M 95.884766 21.953125 C 93.006745 21.992695 90.13508 22.154449 88.404297 22.421875 C 76.210213 24.305999 65.270202 29.400443 53.900391 38.490234 C 46.957557 44.040803 42.841457 48.678814 39.294922 54.947266 L 37.865234 57.472656 L 40.166016 57.603516 C 43.183348 57.772615 45.132016 58.225044 47.703125 59.353516 L 48.857422 59.859375 L 51.072266 57.947266 C 58.41591 51.612243 65.968282 46.837956 73.623047 43.691406 C 90.695 36.673845 108.35854 37.582769 125.94531 46.380859 C 139.19444 53.008964 151.90834 63.9067 160.74219 76.210938 C 163.28682 79.75523 165.72488 83.765126 168.05273 88.232422 C 175.10362 101.76354 181.66031 111.06562 187.40234 115.68164 C 189.35848 117.25417 192.60577 118.92772 194.4707 119.32617 L 194.4707 119.32812 C 196.2394 119.70605 199.0996 119.7003 201.10742 119.31641 C 203.70825 118.81914 205.60247 118.74702 208.61523 119.0293 C 210.16209 119.17461 211.48298 119.23772 211.55078 119.16992 C 211.61855 119.10216 211.41265 118.43196 211.09375 117.68164 C 209.88224 114.83106 207.38162 112.01982 204.82422 110.63281 L 203.55664 109.94531 L 200.28906 109.94531 C 197.50491 109.94504 196.85407 109.88238 195.875 109.52539 C 189.73211 107.28554 183.26728 98.963975 172.29688 79.169922 C 171.12501 77.055526 169.17388 73.421998 167.96094 71.095703 C 163.26671 62.092607 158.37195 55.254755 151.79883 48.515625 C 145.08696 41.634237 137.17277 35.420358 129.83203 31.271484 C 121.28354 26.440011 112.11613 23.297595 103.41211 22.214844 C 101.64854 21.995462 98.762786 21.913555 95.884766 21.953125 z "
   d="m 95.880859,21.611328 c -2.887727,0.0397 -5.762579,0.199678 -7.529297,0.472656 C 76.0959,23.977623 65.090334,29.104903 53.685547,38.222656 46.72158,43.79012 42.562919,48.474981 38.996094,54.779297 l -1.429688,2.525391 a 0.34283257,0.34283257 0 0 0 0.279297,0.509765 l 2.300781,0.130859 c 2.991459,0.167649 4.874352,0.606251 7.417969,1.722657 a 0.34283257,0.34283257 0 0 0 0.002,0 l 1.154297,0.505859 a 0.34283257,0.34283257 0 0 0 0.361328,-0.05469 l 2.214844,-1.91211 C 58.617001,51.892296 66.138585,47.138149 73.753906,44.007812 90.73933,37.02582 108.27793,37.926274 125.79102,46.6875 c 13.19314,6.600098 25.87297,17.467101 34.67187,29.722656 2.53369,3.529055 4.96379,7.525609 7.28516,11.980469 7.06138,13.551255 13.62146,22.881515 19.43945,27.558595 2.00743,1.61376 5.23163,3.2899 7.20898,3.71289 5.3e-4,1.1e-4 0.001,-1.1e-4 0.002,0 a 0.34283257,0.34283257 0 0 0 0,0.002 c 1.84324,0.39386 4.70725,0.38333 6.77344,-0.0117 2.57668,-0.49265 4.41803,-0.56178 7.4121,-0.28125 0.77788,0.0731 1.49744,0.12456 2.03711,0.15039 0.26984,0.0129 0.49304,0.019 0.66211,0.0176 0.0845,-7.2e-4 0.15498,-0.002 0.21875,-0.008 0.0319,-0.003 0.0615,-0.007 0.0996,-0.0156 0.0381,-0.009 0.0841,0.004 0.19141,-0.10351 0.13906,-0.13904 0.11274,-0.22964 0.11328,-0.29102 5.4e-4,-0.0614 -0.006,-0.11174 -0.0156,-0.16601 -0.019,-0.10855 -0.0518,-0.22996 -0.0957,-0.37305 -0.0879,-0.28618 -0.22133,-0.65062 -0.38476,-1.03515 -1.2462,-2.93219 -3.77616,-5.77994 -6.42188,-7.21485 l -1.26758,-0.6875 a 0.34283257,0.34283257 0 0 0 -0.16406,-0.043 h -3.26758 c -2.77901,-2.7e-4 -3.35161,-0.0538 -4.29687,-0.39844 C 190.0333,107.03037 183.56012,98.783646 172.59766,79.003906 171.4283,76.894044 169.47654,73.259919 168.26562,70.9375 163.55913,61.910876 158.63958,55.036598 152.04492,48.275391 145.31103,41.371422 137.3765,35.141741 130,30.972656 121.41555,26.120857 112.21047,22.964141 103.45508,21.875 101.65642,21.651253 98.768531,21.571625 95.880859,21.611328 Z" /><path
   id="path6459"
   style="fill:#ff0000;fill-opacity:1;stroke-width:0.204169"
   sodipodi:type="inkscape:offset"
   inkscape:radius="0.31553996"
   inkscape:original="M 96.572266 39.316406 C 91.930678 39.322035 90.607922 39.393211 88.201172 39.769531 C 76.115699 41.659217 64.959385 46.873796 53.798828 55.847656 C 52.507458 56.886006 50.905419 58.232123 50.240234 58.839844 L 49.03125 59.945312 L 50.037109 60.529297 C 54.629193 63.197076 58.272785 67.977698 59.808594 73.349609 C 60.774228 76.727181 60.92987 79.341853 60.429688 83.740234 C 59.772486 89.519365 58.161806 93.774496 55.052734 97.933594 C 47.884021 107.5234 35.673467 110.51874 26.574219 104.91992 L 25.541016 104.28516 L 25.15625 104.76758 C 22.423495 108.19019 19.226385 111.26227 13.066406 116.38867 C 9.1863313 119.61771 4.7492282 123.9768 3.671875 125.61719 C 2.9227449 126.75782 2.9116032 126.80392 3.2675781 127.19727 C 3.7998555 127.78543 4.8458679 128.01177 7.0429688 128.01172 C 10.128331 128.01165 11.043381 127.77826 14.501953 126.10156 C 18.144375 124.33573 20.159394 123.17331 24.806641 120.1582 C 31.83077 115.60098 35.98344 114.27714 36.201172 116.52539 C 36.236091 116.88596 36.077091 117.60438 35.847656 118.12305 C 35.318325 119.3197 33.225188 122.49993 31.488281 124.74609 L 30.146484 126.48047 L 31.726562 126.82031 C 34.444235 127.40495 36.408436 128.19158 40.833984 130.46875 C 57.467635 139.02764 72.040633 143.26326 89.630859 144.6543 L 89.630859 144.65625 C 92.846746 144.91018 107.38489 144.91608 109.63867 144.66406 C 110.20014 144.60127 112.22187 144.40804 114.13086 144.23438 C 123.79376 143.35533 135.28773 141.16604 146.90039 137.99219 C 157.7207 135.03489 172.81489 129.75711 177.94336 127.13867 C 181.55156 125.29642 186.16629 123.50316 190.08203 122.42188 C 194.17087 121.29281 197.53757 120.77451 202.74023 120.47461 C 204.86172 120.35231 206.68568 120.12298 207.94531 119.81836 L 209.88672 119.34961 L 208.9668 119.20508 C 207.15978 118.92201 203.72075 119.02741 201.31055 119.43945 C 197.51162 120.08891 195.32372 119.93131 192.37695 118.79492 C 185.29506 116.06386 177.49759 106.44258 168.49023 89.324219 C 167.36759 87.190652 165.94018 84.572643 165.31836 83.505859 C 152.95409 62.293889 130.58023 45.14884 109.23047 40.527344 C 104.52232 39.508192 102.44184 39.309306 96.572266 39.316406 z M 128.66211 118.21484 C 129.44663 118.21484 129.69488 118.32183 130.30664 118.93359 C 130.9703 119.59723 131.01732 119.72802 130.91992 120.5918 C 130.84908 121.22023 130.64776 121.69599 130.30664 122.03711 C 129.96552 122.37823 129.48781 122.58154 128.85938 122.65234 C 127.99559 122.7497 127.86677 122.70075 127.20312 122.03711 C 126.59136 121.42535 126.48242 121.17905 126.48242 120.39453 C 126.48242 119.63554 126.59502 119.35812 127.11133 118.8418 C 127.62765 118.32549 127.90312 118.21484 128.66211 118.21484 z M 129.62695 129.64648 C 131.25199 129.64648 132.08886 131.49523 130.96484 132.60156 C 130.06662 133.48564 128.91023 133.43117 128.24023 132.47461 C 127.40904 131.28791 128.21378 129.64648 129.62695 129.64648 z M 115.57617 131.15625 C 116.24906 131.02076 116.96244 131.15106 117.71094 131.54688 C 118.70777 132.07401 119.54102 133.37738 119.54102 134.41211 C 119.54102 135.3116 118.83185 136.62303 118.06445 137.14062 C 117.09269 137.79606 115.93903 137.90653 114.94727 137.43945 C 112.81626 136.43581 112.22101 134.02988 113.68945 132.35742 C 114.27236 131.69353 114.90328 131.29174 115.57617 131.15625 z M 99.935547 133.67578 C 100.6072 133.67426 101.27687 133.77727 101.67578 133.98633 C 104.73257 135.5883 104.76758 139.75018 101.73633 141.30469 C 99.407385 142.49904 96.335004 140.89879 95.943359 138.28711 C 95.692065 136.61137 96.640832 134.7962 98.185547 133.99414 C 98.591642 133.78318 99.263895 133.67731 99.935547 133.67578 z "
   d="m 96.572266,39 c -4.644741,0.0056 -6.001738,0.07892 -8.419922,0.457031 -12.143726,1.898795 -23.356718,7.14373 -34.550782,16.144531 -1.295839,1.041944 -2.894078,2.384475 -3.574218,3.00586 l -1.208985,1.105469 a 0.31557151,0.31557151 0 0 0 0.05469,0.505859 l 1.005859,0.583984 c 4.513194,2.621948 8.113801,7.340149 9.626953,12.632813 0.956267,3.344807 1.107141,5.892401 0.609375,10.269531 -0.652626,5.738899 -2.235885,9.920771 -5.314453,14.039063 -7.084698,9.477419 -19.111386,12.412719 -28.060547,6.906249 l -1.033203,-0.63477 a 0.31557151,0.31557151 0 0 0 -0.412109,0.0723 l -0.384766,0.48242 c -2.715325,3.40078 -5.891323,6.45508 -12.044922,11.57617 -1.948242,1.62135 -4.0321933,3.5218 -5.7675778,5.22657 -1.7353844,1.70476 -3.1120649,3.19117 -3.6894531,4.07031 -0.3752418,0.57134 -0.5787952,0.85518 -0.6582031,1.16602 -0.039704,0.15541 -0.024165,0.33733 0.041016,0.47265 0.065181,0.13533 0.1505867,0.22495 0.2421875,0.32617 0.3216291,0.3554 0.7903516,0.58618 1.4316407,0.72461 0.641289,0.13844 1.468738,0.19534 2.578125,0.19531 3.1012732,-7e-5 4.1278152,-0.26214 7.5957032,-1.94335 3.650229,-1.76962 5.688724,-2.94332 10.339844,-5.96094 3.499949,-2.27075 6.284671,-3.7317 8.173828,-4.33399 0.944578,-0.30114 1.66354,-0.37744 2.09375,-0.27929 0.43021,0.0981 0.595755,0.28277 0.640625,0.74609 0.02218,0.22907 -0.12048,0.97004 -0.328125,1.43945 -0.244254,0.55218 -0.898862,1.65215 -1.701172,2.8711 -0.80231,1.21894 -1.757249,2.57095 -2.619141,3.68554 l -1.341797,1.73438 a 0.31557151,0.31557151 0 0 0 0.183594,0.50195 l 1.580078,0.33985 c 2.691341,0.57897 4.611237,1.34777 9.029297,3.62109 16.662041,8.5735 31.288189,12.82466 48.914063,14.21875 6.57e-4,5e-5 0.0013,-5e-5 0.002,0 a 0.31557151,0.31557151 0 0 0 0,0.002 c 1.644949,0.12989 6.069302,0.1936 10.390625,0.19532 4.321326,0.002 8.476106,-0.0531 9.677736,-0.1875 0.54938,-0.0614 2.57835,-0.25612 4.48633,-0.42969 9.68749,-0.88129 21.19607,-3.07387 32.82422,-6.25195 10.84041,-2.9628 25.9027,-8.22258 31.10156,-10.87696 3.58501,-1.83041 8.18931,-3.61897 12.08008,-4.69336 4.06988,-1.12383 7.40218,-1.63835 12.59179,-1.9375 2.13374,-0.123 3.96962,-0.35159 5.26172,-0.66406 l 1.94141,-0.46875 a 0.31557151,0.31557151 0 0 0 -0.0254,-0.61914 l -0.91993,-0.14453 c -1.87932,-0.2944 -5.30727,-0.18261 -7.75781,0.23633 -3.77073,0.64464 -5.86059,0.49214 -8.76758,-0.62891 -6.92231,-2.66952 -14.7256,-12.2272 -23.7207,-29.322266 -1.12443,-2.136974 -2.5486,-4.750755 -3.17773,-5.830078 C 153.18138,62.056515 130.7598,44.864742 109.29688,40.21875 104.57824,39.197327 102.44906,38.992891 96.572266,39 Z m 32.089844,79.53125 c 0.37792,0 0.58392,0.0259 0.76172,0.10352 0.17779,0.0776 0.36286,0.22419 0.66015,0.52148 0.32714,0.32713 0.46692,0.49806 0.51954,0.64063 0.0526,0.14256 0.0498,0.33525 0.002,0.75976 -0.0654,0.57992 -0.2402,0.97653 -0.52149,1.25781 -0.28129,0.2813 -0.68043,0.45817 -1.25976,0.52344 -0.42431,0.0478 -0.61573,0.049 -0.75781,-0.004 -0.14209,-0.0529 -0.31328,-0.19218 -0.64063,-0.51953 -0.29753,-0.29753 -0.44555,-0.48282 -0.52344,-0.66015 -0.0779,-0.17734 -0.10351,-0.38211 -0.10351,-0.75977 0,-0.72778 0.0426,-0.8375 0.53515,-1.33008 0.49258,-0.49257 0.59981,-0.5332 1.32813,-0.5332 z m 0.96484,11.43164 c 0.69286,0 1.18898,0.38407 1.41211,0.87695 0.22314,0.49289 0.17656,1.07305 -0.29492,1.53711 -0.39855,0.39228 -0.82778,0.55511 -1.21289,0.53711 -0.38511,-0.018 -0.74553,-0.21038 -1.0332,-0.62109 -0.69785,-0.99633 -0.0399,-2.33008 1.1289,-2.33008 z m -13.0664,1.5 c 0.31965,0.0587 0.65167,0.17805 1.00195,0.36328 0.87106,0.46062 1.66211,1.72061 1.66211,2.58594 0,0.36682 -0.15756,0.88694 -0.41211,1.35742 -0.25455,0.47049 -0.6052,0.89447 -0.92383,1.10938 -0.8894,0.59989 -1.91756,0.69411 -2.80664,0.27539 -0.98782,-0.46524 -1.59895,-1.24083 -1.80664,-2.08008 -0.20769,-0.83925 -0.0204,-1.74384 0.65039,-2.50781 0.55008,-0.6265 1.12092,-0.98237 1.71289,-1.10157 0.2961,-0.0596 0.60223,-0.0606 0.92188,-0.002 z m -16.625003,2.5293 c 0.638913,-0.001 1.285693,0.11199 1.593753,0.27343 1.42932,0.74907 2.13351,2.0769 2.14453,3.4004 0.011,1.32349 -0.66859,2.63256 -2.08203,3.35742 -2.12685,1.09071 -4.977385,-0.39218 -5.335941,-2.78321 -0.229063,-1.52749 0.655404,-3.2301 2.074219,-3.96679 0.318002,-0.1652 0.966495,-0.2798 1.605469,-0.28125 z" /><path
   id="path7013"
   style="fill:#f90000;fill-opacity:1;stroke-width:0.204169"
   sodipodi:type="inkscape:offset"
   inkscape:radius="0.76005763"
   inkscape:original="M 210.95117 119.53906 C 210.39934 119.45747 209.42922 119.55882 208.25195 119.82031 C 207.24131 120.04478 205.26694 120.3273 203.86328 120.44922 C 195.86045 121.1443 195.0253 121.26776 190.5918 122.42188 C 187.12224 123.32505 183.22165 124.78093 179.1582 126.6875 C 174.98577 128.64521 172.4815 129.66368 166.70508 131.75195 C 152.51063 136.88348 138.36313 140.67843 125.49609 142.80469 C 116.19674 144.34139 111.49927 144.76581 102.39062 144.89648 C 91.482616 145.05297 85.709651 144.6497 76.972656 143.12109 C 64.685449 140.97134 54.209959 137.31653 40.109375 130.25586 C 36.10247 128.24946 34.450972 127.5837 31.994141 126.99023 L 30.097656 126.5332 L 29.353516 127.42578 C 28.944747 127.91741 27.800451 129.14072 26.810547 130.14453 C 25.820643 131.14834 25.009766 131.9983 25.009766 132.0332 C 25.009766 132.0682 25.212019 132.09766 25.457031 132.09766 C 26.442515 132.09766 29.312485 133.01026 31.253906 133.94141 C 32.841614 134.70291 33.672877 135.26536 34.894531 136.40625 C 36.856046 138.23809 37.791382 139.60109 39.347656 142.89453 C 42.373694 149.29835 46.199019 154.60453 51.335938 159.52148 C 63.229672 170.90591 80.250309 178.03745 98.919922 179.45898 C 102.87921 179.76045 112.41744 179.55424 116.41016 179.08008 C 123.35616 178.2552 128.51553 177.18134 135.16602 175.17578 C 151.57724 170.22672 170.14524 159.61669 181.40039 148.75781 C 185.30073 144.99478 188.94864 141.79747 191.94922 139.51172 C 193.00791 138.70524 194.30659 137.56434 194.83594 136.97461 C 196.90289 134.67191 200.4116 132.54003 203.98438 131.41797 C 205.36712 130.98371 208.6242 130.18014 211.82617 129.48242 L 212.54102 129.32617 L 212.59961 126.47461 C 212.65655 123.77246 212.4999 122.12347 212.02344 120.41992 C 211.8323 119.73652 211.73174 119.65447 210.95117 119.53906 z "
   d="m 211.0625,118.78711 c -0.76942,-0.11376 -1.75164,0.0194 -2.97461,0.29101 -0.93788,0.20831 -2.92699,0.49481 -4.29101,0.61329 -8.00602,0.69535 -8.95326,0.83748 -13.39649,1.99414 -3.52787,0.91834 -7.46637,2.39163 -11.56445,4.31445 -4.15833,1.95109 -6.62051,2.95182 -12.38867,5.03711 -14.15527,5.11737 -28.26229,8.90042 -41.07422,11.01758 -9.28094,1.53366 -13.90535,1.95164 -22.99414,2.08203 -10.885435,0.15616 -16.572032,-0.24095 -25.275394,-1.76367 -12.215392,-2.13719 -22.594577,-5.75667 -36.654297,-12.79688 -4.021479,-2.0137 -5.76997,-2.71854 -8.277344,-3.32422 l -1.896484,-0.45703 a 0.76013363,0.76013363 0 0 0 -0.761719,0.25196 l -0.744141,0.89257 c -0.359225,0.43205 -1.521249,1.67938 -2.5,2.67188 -0.497405,0.50439 -0.950384,0.96945 -1.28125,1.3164 -0.165432,0.17348 -0.299968,0.3159 -0.398437,0.42383 -0.04923,0.054 -0.0871,0.0981 -0.123047,0.14063 -0.01797,0.0213 -0.03416,0.0411 -0.05859,0.0742 -0.01222,0.0166 -0.02652,0.0349 -0.05078,0.0762 -0.01213,0.0206 -0.02838,0.0468 -0.04883,0.0957 -0.01022,0.0244 -0.0331,0.0992 -0.0332,0.0996 -9.9e-5,3.7e-4 -0.02539,0.19504 -0.02539,0.19531 0,0.001 0.01715,0.18468 0.04492,0.26172 0.02777,0.077 0.06369,0.13962 0.09961,0.18946 0.07184,0.0997 0.13906,0.1513 0.191407,0.1875 0.104692,0.0724 0.166224,0.0884 0.216796,0.10546 0.101145,0.0341 0.163242,0.043 0.230469,0.0527 0.134454,0.0194 0.270859,0.0273 0.423828,0.0273 0.258127,0 1.258923,0.20266 2.310547,0.53711 1.051625,0.33445 2.231869,0.78813 3.158203,1.23242 1.549399,0.74313 2.262193,1.22544 3.449219,2.33399 1.912152,1.78574 2.744533,2.99749 4.285156,6.25781 3.06246,6.4809 6.952311,11.87607 12.150391,16.85156 12.040859,11.52526 29.224155,18.713 48.050781,20.14649 4.077592,0.31048 13.530812,0.10502 17.638672,-0.38282 6.97894,-0.82879 12.20204,-1.9144 18.88477,-3.92968 16.54698,-4.99001 35.16525,-15.62248 46.54296,-26.59961 3.88474,-3.74798 7.51742,-6.92885 10.48243,-9.1875 1.09521,-0.83431 2.37556,-1.9478 2.99218,-2.63477 1.93711,-2.15805 5.36462,-4.25762 8.81055,-5.33984 1.31294,-0.41234 4.58727,-1.22327 7.77539,-1.91797 l 0.71484,-0.15625 a 0.76013363,0.76013363 0 0 0 0.59766,-0.72656 l 0.0586,-2.85157 c 0.0577,-2.73801 -0.10443,-4.49093 -0.60352,-6.27539 -0.10276,-0.36739 -0.20803,-0.74252 -0.56445,-1.03515 -0.35643,-0.29263 -0.71752,-0.33175 -1.12891,-0.39258 z" /><path
   id="path7414"
   style="fill:#ed1500;fill-opacity:1;stroke-width:0.204169"
   sodipodi:type="inkscape:offset"
   inkscape:radius="0.75557584"
   inkscape:original="M 212.56641 129.50391 C 212.45886 129.39636 206.4187 130.81619 204.48242 131.4043 C 200.75893 132.53524 197.80691 134.25919 195.08398 136.89258 C 194.12948 137.81568 192.42957 139.29452 191.30664 140.17969 C 187.9436 142.83064 185.34916 145.13619 180.99609 149.33984 C 176.5056 153.67619 167.80847 159.9502 160.47656 164.14453 C 149.19594 170.59778 138.49861 174.84448 127.0957 177.39258 C 114.78699 180.14307 101.93459 180.50434 90.140625 178.43164 C 71.271555 175.11555 54.936092 165.74532 45.009766 152.54492 C 43.111516 150.02055 41.542832 147.4326 39.546875 143.53125 C 37.35167 139.24046 36.749682 138.34447 34.904297 136.62109 C 32.745543 134.60505 29.211502 132.87839 26.080078 132.31055 L 24.851562 132.08789 L 23.144531 133.37305 C 21.299962 134.76152 18.802519 136.12877 17.111328 136.67773 C 16.52861 136.86688 15.171355 137.13225 14.09375 137.26758 L 12.132812 137.51367 L 16.042969 139.24023 C 22.56062 142.11672 26.068752 144.3082 29.744141 147.79688 C 33.18759 151.06538 35.683668 154.74296 37.861328 159.76172 C 42.671745 170.84808 50.277818 179.50617 61.236328 186.36719 C 65.329113 188.92964 71.386354 191.74306 76.300781 193.36328 C 78.423224 194.06303 84.30961 195.59375 84.875 195.59375 C 85.076584 195.59375 85.240234 195.67283 85.240234 195.76953 C 85.240234 195.86623 85.47122 195.90136 85.751953 195.84766 C 86.032686 195.79396 86.261719 195.83743 86.261719 195.94336 C 86.261719 196.04908 86.536168 196.09627 86.873047 196.04688 C 87.209926 195.99742 87.486328 196.04305 87.486328 196.14844 C 87.486328 196.25384 87.785438 196.34461 88.150391 196.34961 C 88.515343 196.355 89.227104 196.41748 89.732422 196.48828 C 90.237741 196.55904 91.143631 196.65703 91.746094 196.70703 C 92.348558 196.75704 92.887099 196.84409 92.943359 196.90039 C 92.999624 196.95661 95.915321 197.00958 99.421875 197.01758 C 108.19447 197.03797 113.26676 196.44537 121.32812 194.46094 C 133.99771 191.34213 146.88854 185.24137 158.83984 176.70703 C 164.32954 172.78688 167.59533 170.00928 172.58984 165.00977 C 175.24836 162.3486 178.57111 159.21542 179.97461 158.04883 C 181.37811 156.88224 183.30903 155.13689 184.26562 154.16992 C 187.80567 150.59144 190.26973 149.40693 198.34961 147.39258 C 204.64951 145.82197 206.36445 145.13164 207.9707 143.52539 C 208.50014 142.99595 209.15886 142.11448 209.43555 141.56641 C 209.99384 140.4606 210.95752 137.56016 211.5957 135.05859 C 212.0335 133.34251 212.68378 129.62128 212.56641 129.50391 z "
   d="m 212.5625,128.74219 c -0.14067,-0.003 -0.55617,0.0656 -0.41797,0.043 -0.19854,0.0329 -0.4563,0.0837 -0.76758,0.14843 -0.62255,0.12945 -1.45271,0.3149 -2.33984,0.52344 -1.77426,0.41708 -3.75804,0.9162 -4.77344,1.22461 -3.82153,1.16072 -6.90443,2.95942 -9.70508,5.66797 -0.92212,0.89179 -2.62599,2.37494 -3.71875,3.23633 -3.38193,2.66584 -6.00746,4.99897 -10.36914,9.21094 -4.40178,4.25068 -13.09558,10.53045 -20.36914,14.6914 -11.22592,6.42196 -21.84323,10.63495 -33.16992,13.16602 -12.2132,2.72915 -24.9731,3.08711 -36.660156,1.0332 -18.703304,-3.28696 -34.867965,-12.57823 -44.658203,-25.59766 -1.86934,-2.48592 -3.409977,-5.02328 -5.394531,-8.90234 -2.20129,-4.30268 -2.917873,-5.36254 -4.798828,-7.11914 -2.302107,-2.14992 -5.907266,-3.90394 -9.205078,-4.50195 l -1.228516,-0.22266 a 0.75565139,0.75565139 0 0 0 -0.589844,0.14063 l -1.707031,1.28515 c -1.773172,1.33473 -4.262003,2.6868 -5.810547,3.18945 -0.452404,0.14685 -1.844641,0.42871 -2.878906,0.5586 l -1.960938,0.24609 a 0.75565139,0.75565139 0 0 0 -0.210937,1.44141 l 3.910156,1.72656 c 6.479587,2.85969 9.870468,4.98189 13.486328,8.41406 3.370429,3.19919 5.795971,6.7678 7.94336,11.7168 4.869003,11.22138 12.600415,20.01602 23.667969,26.94531 4.166148,2.60838 10.242405,5.42842 15.228515,7.07227 1.102894,0.36361 3.101086,0.92001 4.917969,1.39258 0.908441,0.23628 1.76675,0.45062 2.441406,0.60742 0.337328,0.0784 0.628206,0.14153 0.861328,0.1875 0.206848,0.0408 0.331843,0.0655 0.523438,0.0723 0.03397,0.0308 0.04544,0.11387 0.07617,0.13282 0.162394,0.1001 0.28286,0.12194 0.392578,0.13867 0.214581,0.0327 0.401081,0.0163 0.603515,-0.0215 0.01722,0.0126 0.02533,0.0609 0.04102,0.0703 0.159737,0.0954 0.279347,0.1194 0.392578,0.13867 0.226462,0.0385 0.436219,0.0301 0.667969,-0.004 0.05042,-0.007 0.05914,-0.003 0.0957,-0.004 0.0115,0.009 0.01885,0.0455 0.0293,0.0527 0.136967,0.095 0.246907,0.13311 0.355469,0.16602 0.216509,0.0656 0.434327,0.0923 0.675781,0.0957 0.293248,0.004 1.019023,0.0651 1.488281,0.13086 0.533264,0.0747 1.435304,0.17304 2.056641,0.22461 0.28371,0.0236 0.555509,0.0551 0.746094,0.0859 0.09075,0.0147 0.159248,0.0285 0.195312,0.0371 0.01694,0.008 0.03764,0.0184 0.05078,0.0234 0.05052,0.0195 0.08085,0.0273 0.105469,0.0332 0.04924,0.0118 0.07652,0.0158 0.103516,0.0195 0.05399,0.007 0.09787,0.01 0.152343,0.0137 0.108952,0.008 0.247115,0.0168 0.419922,0.0234 0.345615,0.0134 0.827864,0.0245 1.417969,0.0351 1.18021,0.0214 2.788318,0.037 4.544922,0.041 8.807298,0.0205 13.988998,-0.58446 22.087888,-2.57813 12.77615,-3.14504 25.74966,-9.28834 37.77149,-17.87304 5.51173,-3.93589 8.83369,-6.76228 13.8457,-11.7793 2.64562,-2.64826 5.98914,-5.7959 7.33203,-6.91211 1.42641,-1.18564 3.35129,-2.92448 4.3457,-3.92969 3.4754,-3.51312 5.68307,-4.56992 13.73047,-6.57617 3.15955,-0.7877 5.18273,-1.35405 6.66797,-1.95117 1.48524,-0.59713 2.44476,-1.25336 3.30469,-2.11328 0.60437,-0.60437 1.25628,-1.4665 1.60352,-2.1543 0.64019,-1.26804 1.57011,-4.1176 2.21874,-6.66016 0.22909,-0.89797 0.49996,-2.25979 0.70508,-3.43359 0.10257,-0.5869 0.18849,-1.12461 0.24219,-1.53516 0.0269,-0.20527 0.0453,-0.37614 0.0547,-0.52343 0.005,-0.0736 0.008,-0.13929 0.004,-0.22266 -0.002,-0.0417 -0.004,-0.086 -0.0195,-0.16016 -0.0155,-0.0742 -0.002,-0.19139 -0.21289,-0.40234 -4.2e-4,-4.2e-4 -0.0955,-0.0818 -0.13672,-0.10742 -0.0412,-0.0257 -0.0779,-0.0435 -0.10937,-0.0566 -0.0629,-0.0264 -0.10805,-0.0373 -0.14453,-0.0449 -0.073,-0.0152 -0.11384,-0.0165 -0.14844,-0.0176 z M 85.505859,195.94336 c 0,0.28321 0.186338,0.44569 0.333985,0.57422 -0.02244,-0.0115 -0.02207,-0.002 -0.05273,-0.0234 -0.108227,-0.0759 -0.28125,-0.30499 -0.28125,-0.55078 z" /><path
   id="path7899"
   style="fill:#cf0000;fill-opacity:1;stroke-width:0.204169"
   sodipodi:type="inkscape:offset"
   inkscape:radius="0.11970254"
   inkscape:original="M 177.78125 160.98828 L 173.51953 165.27734 C 160.8454 178.03225 143.16826 188.61939 126.2793 193.57227 C 121.45068 194.98832 116.72841 195.99726 111.16992 196.79883 C 110.00128 196.96733 110.11018 196.97888 112.08789 196.89648 C 123.28893 196.42982 132.65894 195.0074 139.66797 192.70898 C 141.88138 191.98316 143.97937 191.07884 147.13672 189.49023 C 155.433 185.31598 159.95377 184.03666 162.625 185.10547 C 164.60761 185.89876 164.52905 188.3989 162.42578 191.49609 C 157.33468 198.99308 144.23497 205.99249 132.61328 207.42578 C 130.11721 207.73365 123.96874 207.68539 120.76562 207.33203 C 111.70948 206.33298 99.93679 203.15875 88.523438 198.63867 C 86.567024 197.86386 84.926836 197.26851 84.878906 197.31641 C 84.742032 197.45328 89.267803 200.7495 93.304688 203.45312 C 105.99399 211.95153 117.5113 216.91047 127.91211 218.35352 C 131.0022 218.78227 136.62362 218.74061 139.37695 218.26758 C 148.29063 216.73618 154.7026 212.65341 161.41406 204.23828 C 170.39478 192.97785 175.98615 181.79189 177.74414 171.56641 C 178.23268 168.7248 178.35703 163.64625 177.98047 161.90625 L 177.78125 160.98828 z "
   d="m 177.81445,160.87305 a 0.11971451,0.11971451 0 0 0 -0.11718,0.0312 l -4.26172,4.28906 c -12.65825,12.73893 -30.32305,23.31741 -47.18946,28.26367 -4.82313,1.41444 -9.53982,2.42175 -15.09375,3.22266 -0.29261,0.0422 -0.50457,0.0752 -0.63281,0.0996 -0.0641,0.0122 -0.0955,0.0142 -0.14453,0.0371 -0.006,0.003 -0.0143,0.007 -0.0234,0.0137 -0.005,0.003 -0.0152,0.0113 -0.0156,0.0117 -4.5e-4,4.1e-4 -0.0193,0.023 -0.0195,0.0234 -2.6e-4,4.1e-4 -0.0175,0.0445 -0.0176,0.0449 -7e-5,3.8e-4 0.004,0.0582 0.004,0.0586 1.2e-4,3.7e-4 0.0231,0.0426 0.0234,0.043 3e-4,3.5e-4 0.0249,0.0212 0.0254,0.0215 9.8e-4,6.8e-4 0.0231,0.0147 0.0312,0.0176 0.008,0.003 0.0156,0.005 0.0215,0.006 0.0118,0.003 0.0204,0.003 0.0312,0.004 0.0865,0.009 0.24251,0.006 0.51367,-0.002 0.27116,-0.008 0.64994,-0.0224 1.14453,-0.043 11.20837,-0.46696 20.58618,-1.88965 27.61133,-4.19335 2.2201,-0.72802 4.32625,-1.63463 7.48633,-3.22461 4.14472,-2.08541 7.34387,-3.44606 9.83203,-4.15039 2.48816,-0.70434 4.25794,-0.75011 5.55664,-0.23047 0.95053,0.38033 1.39102,1.14142 1.35742,2.21679 -0.0336,1.07537 -0.56771,2.45931 -1.61133,3.9961 -5.05694,7.44669 -18.14296,14.44812 -29.72851,15.87695 -2.47086,0.30476 -8.63066,0.25791 -11.81836,-0.0937 -9.03991,-0.99726 -20.805951,-4.16878 -32.210941,-8.68555 -0.979095,-0.38775 -1.880745,-0.73041 -2.542968,-0.9707 -0.331112,-0.12015 -0.601149,-0.2153 -0.794922,-0.27734 -0.09689,-0.031 -0.174243,-0.0539 -0.232422,-0.0684 -0.02909,-0.007 -0.05255,-0.0126 -0.07617,-0.0156 -0.01181,-0.001 -0.0243,-0.003 -0.04102,-0.002 -0.0084,4.7e-4 -0.01737,0.002 -0.03125,0.006 -0.0069,0.002 -0.02482,0.009 -0.02539,0.01 -5.68e-4,3e-4 -0.02892,0.0231 -0.0293,0.0234 -0.02733,0.0273 -0.03995,0.0683 -0.03906,0.0957 8.86e-4,0.0274 0.0073,0.0465 0.01367,0.0605 0.01274,0.0282 0.02809,0.046 0.04492,0.0664 0.03367,0.0409 0.07927,0.0864 0.140625,0.14258 0.12271,0.11233 0.305801,0.26304 0.541016,0.44922 0.470429,0.37234 1.150695,0.88253 1.960937,1.47265 1.620484,1.18024 3.761304,2.68039 5.78125,4.0332 12.699239,8.50507 24.232329,13.4734 34.658199,14.91993 3.11071,0.43161 8.72103,0.38954 11.5,-0.0879 8.93923,-1.53579 15.38847,-5.64284 22.11133,-14.07227 8.98972,-11.27171 14.59082,-22.47368 16.35352,-32.72656 0.246,-1.43087 0.40011,-3.4129 0.44531,-5.25977 0.0452,-1.84687 -0.015,-3.54912 -0.20898,-4.44531 l -0.19922,-0.91797 a 0.11971451,0.11971451 0 0 0 -0.084,-0.0898 z" /><path
   id="path8386"
   style="fill:#e30000;fill-opacity:1;stroke-width:0.204169"
   sodipodi:type="inkscape:offset"
   inkscape:radius="0.36026201"
   inkscape:original="M 161.41016 184.91016 C 158.91013 184.58811 154.62577 186.00869 147.7207 189.36328 C 144.85525 190.75536 141.55311 192.22428 140.38281 192.62695 C 133.50494 194.99347 124.52887 196.40925 112.49805 197.02734 C 108.86919 197.21383 105.11168 197.209 92.080078 197 C 91.855492 196.9964 90.031773 196.90276 88.027344 196.79102 C 86.022914 196.67926 84.339579 196.63109 84.287109 196.68359 C 84.150385 196.82032 91.885873 199.84063 95.826172 201.18945 C 104.12387 204.02988 112.44909 206.1038 119.30078 207.03711 C 121.60323 207.35066 123.09718 207.40636 127.81055 207.35156 C 133.05648 207.29059 133.72042 207.24162 135.875 206.76172 C 143.40834 205.08378 150.01479 202.15568 155.63672 198.00391 C 161.90633 193.37385 165.35985 187.90896 163.3457 185.80664 C 162.87839 185.31888 162.2435 185.01751 161.41016 184.91016 z "
   d="m 161.45703,184.55273 c -2.6849,-0.34586 -6.97273,1.12362 -13.89453,4.48633 -2.8572,1.38807 -6.18431,2.86524 -7.29688,3.24805 -6.82848,2.34953 -15.77331,3.76374 -27.78515,4.38086 -3.61581,0.18582 -7.36395,0.18164 -20.394532,-0.0273 -0.07787,-0.001 -0.611818,-0.0267 -1.345704,-0.0645 -0.733885,-0.0378 -1.691623,-0.0887 -2.693359,-0.14453 -1.004939,-0.056 -1.928594,-0.0956 -2.611328,-0.11523 -0.341367,-0.01 -0.622112,-0.0148 -0.826172,-0.0137 -0.10203,5.9e-4 -0.184151,0.002 -0.251953,0.006 -0.0339,0.002 -0.06208,0.004 -0.09766,0.01 -0.01779,0.003 -0.03669,0.007 -0.06641,0.0156 -0.01486,0.004 -0.03372,0.01 -0.05859,0.0215 -0.01244,0.006 -0.02597,0.0143 -0.04297,0.0254 -0.017,0.0111 -0.05818,0.0484 -0.05859,0.0488 -5.34e-4,5.3e-4 -0.07197,0.10094 -0.07227,0.10156 -2.95e-4,6.2e-4 -0.0351,0.12624 -0.03516,0.12695 -5.6e-5,7.1e-4 0.0076,0.11054 0.0078,0.11133 1.8e-4,8e-4 0.0177,0.0557 0.02734,0.0762 0.03858,0.0818 0.07032,0.10372 0.09375,0.125 0.04685,0.0426 0.07638,0.0592 0.111328,0.0801 0.0699,0.0418 0.15367,0.0832 0.261718,0.13477 0.216098,0.10306 0.523757,0.2395 0.910157,0.40234 0.772799,0.32567 1.852021,0.75934 3.058593,1.23047 2.413145,0.94226 5.332741,2.03519 7.3125,2.71289 8.316716,2.84694 16.659226,4.92561 23.542966,5.86328 2.31745,0.31559 3.84541,0.37125 8.5625,0.31641 5.24782,-0.061 5.97384,-0.11547 8.13867,-0.59766 7.57653,-1.68756 14.23313,-4.63651 19.89844,-8.82031 3.16387,-2.33649 5.62076,-4.87989 7.05078,-7.14258 0.71502,-1.13134 1.1762,-2.19317 1.32618,-3.14648 0.14997,-0.95332 -0.03,-1.82825 -0.62305,-2.44727 -0.52879,-0.55193 -1.25336,-0.8886 -2.14844,-1.00391 z" /><path
   style="fill:#e30000;fill-opacity:1;stroke-width:0.204169"
   d="m 219.62594,157.50494 c -3.83084,-1.03112 -6.4714,-3.82267 -6.7216,-7.10595 -0.058,-0.76145 0.0675,-2.21506 0.31969,-3.70345 0.64602,-3.81207 0.8787,-6.20699 1.02155,-10.51472 l 0.13203,-3.98129 1.42918,-0.37083 c 1.91494,-0.49685 6.70669,-0.6613 10.69984,-0.36721 1.73007,0.12742 3.18127,0.19598 3.22489,0.15236 0.0436,-0.0436 -3.4391,-1.25101 -7.73938,-2.68308 -4.30029,-1.43208 -7.88175,-2.6606 -7.95882,-2.73005 -0.14402,-0.12979 -1.05311,-6.35669 -0.94239,-6.45499 0.0339,-0.0301 0.71798,-0.3833 1.52014,-0.78488 2.27681,-1.13981 5.06644,-2.79161 9.32274,-5.52017 4.92675,-3.15837 6.5401,-4.09342 8.35193,-4.84056 3.517,-1.45029 5.99496,-1.09632 7.80717,1.11524 2.04821,2.49957 3.44908,7.3814 4.31352,15.03199 0.3918,3.46753 0.32643,4.35046 -0.6095,8.23282 -3.25495,13.50189 -9.71659,22.37154 -17.80496,24.4402 -1.86986,0.47823 -4.76082,0.51663 -6.36603,0.0846 z"
   id="path8733" /><path
   id="path9295"
   style="fill:#e9291f;fill-opacity:1;stroke-width:0.0721847"
   sodipodi:type="inkscape:offset"
   inkscape:radius="0.43039086"
   inkscape:original="M 240.27734 92.025391 C 238.55633 91.575211 236.19448 92.162132 233.04883 93.820312 C 231.67012 94.547081 230.35386 95.333826 226.73242 97.59375 C 221.26638 101.00478 219.57742 101.95507 216.08398 103.58594 C 215.46964 103.87273 213.4555 104.84794 211.60938 105.75195 C 206.51097 108.24854 205.23292 108.80236 203.19922 109.40234 C 202.7625 109.53118 202.45407 109.65287 202.51367 109.67188 C 202.57323 109.69083 202.84904 109.76042 203.12695 109.82812 C 203.91217 110.01944 205.52994 110.8503 206.44727 111.5332 C 208.68738 113.20083 210.58803 115.80084 211.57227 118.54492 C 211.68241 118.85196 211.80902 119.12921 211.85352 119.16211 C 211.89806 119.19505 212.16747 119.31257 212.45312 119.42188 L 212.97266 119.61914 L 214.76367 118.72461 C 217.39295 117.4094 219.31603 116.28114 223.08594 113.84766 C 228.11143 110.60371 229.0948 110.00835 230.91797 109.10547 C 233.11753 108.01619 234.52872 107.59809 236.00781 107.59766 C 236.99065 107.59737 237.52145 107.71886 238.35352 108.13086 C 241.31242 109.59596 243.23261 114.40561 244.3457 123.14648 C 244.55872 124.81933 244.81445 127.31732 244.81445 127.7207 C 244.81445 127.87859 244.8284 127.99396 244.8457 127.97656 C 244.89163 127.93064 245.14156 126.41359 245.34961 124.91602 C 245.84421 121.3557 246.15057 117.68334 246.33008 113.15039 C 246.41638 110.96101 246.41733 104.80807 246.33203 102.57422 C 246.27098 100.97495 246.26726 100.93409 245.97656 99.919922 C 244.61824 95.181222 242.81905 92.69025 240.27734 92.025391 z "
   d="m 238.85352,91.449219 c -1.64069,0.05108 -3.61546,0.730171 -6.00586,1.990234 -1.3921,0.733824 -2.72064,1.528092 -6.34375,3.789063 -5.46272,3.408954 -7.11801,4.340544 -10.60157,5.966794 -0.62648,0.29246 -2.63505,1.2653 -4.48242,2.16992 -5.09547,2.49516 -6.3301,3.03152 -8.3418,3.625 -0.22725,0.0671 -0.42226,0.13077 -0.5664,0.1875 -0.0721,0.0284 -0.12495,0.0504 -0.19531,0.0918 -0.0352,0.0207 -0.0739,0.0135 -0.16602,0.15235 -0.0115,0.0173 -0.0255,0.0384 -0.0371,0.0644 -0.0117,0.026 -0.0292,0.0951 -0.0293,0.0957 -1.1e-4,5.9e-4 -0.006,0.12642 -0.006,0.12695 6e-5,5.4e-4 0.0369,0.13818 0.0371,0.13868 2.3e-4,4.9e-4 0.0719,0.10893 0.0723,0.10937 4e-4,4.5e-4 0.0539,0.0497 0.0781,0.0664 0.0485,0.0334 0.0867,0.0489 0.11719,0.0586 0.13528,0.043 0.3624,0.0958 0.64258,0.16406 0.63887,0.15567 2.30702,0.9948 3.16406,1.63282 2.16177,1.60931 4.02456,4.15088 4.97852,6.81054 0.0589,0.1641 0.12021,0.31917 0.17773,0.44532 0.0288,0.0631 0.0568,0.11789 0.0859,0.16992 0.0292,0.052 9.8e-4,0.0811 0.16602,0.20312 0.0795,0.0588 0.0967,0.0608 0.14062,0.082 0.044,0.0212 0.0944,0.0432 0.15234,0.0684 0.11585,0.0503 0.25948,0.10911 0.40821,0.16602 a 0.4304339,0.4304339 0 0 0 0.002,0 l 0.51953,0.19726 a 0.4304339,0.4304339 0 0 0 0.34375,-0.0176 l 1.79102,-0.89453 a 0.4304339,0.4304339 0 0 0 0.002,0 c 2.64226,-1.32171 4.58827,-2.46362 8.36328,-4.9004 5.02416,-3.24308 5.97817,-3.82194 7.78907,-4.71875 2.1732,-1.07622 3.50037,-1.46248 4.89843,-1.46289 0.94733,-2.8e-4 1.35731,0.0937 2.1543,0.48828 1.34479,0.66588 2.5134,2.13161 3.48047,4.55469 0.96707,2.42309 1.72151,5.78138 2.27539,10.13086 0.10584,0.83121 0.22423,1.87124 0.31445,2.75195 0.0902,0.88072 0.15235,1.65684 0.15235,1.76758 0,0.0916 0.003,0.17048 0.0117,0.2461 0.005,0.0378 0.004,0.0682 0.0293,0.14062 0.006,0.0181 0.0151,0.0382 0.0312,0.0684 0.008,0.0151 0.0182,0.0323 0.0332,0.0527 0.015,0.0205 0.064,0.0699 0.0645,0.0703 5.1e-4,4.5e-4 0.12448,0.0779 0.125,0.0781 5.2e-4,2.1e-4 0.19088,0.0313 0.1914,0.0312 5.3e-4,-3e-5 0.1772,-0.0505 0.17774,-0.0508 5.3e-4,-2.9e-4 0.10102,-0.0776 0.10156,-0.0781 0.002,-0.002 0.0362,-0.0397 0.0469,-0.0547 0.0109,-0.0153 0.0192,-0.0264 0.0254,-0.0371 0.0123,-0.0215 0.018,-0.0381 0.0234,-0.0508 0.0109,-0.0254 0.0166,-0.0411 0.0215,-0.0566 0.01,-0.031 0.0163,-0.0579 0.0234,-0.0879 0.0143,-0.0601 0.0296,-0.13126 0.0469,-0.22071 0.0345,-0.17889 0.0756,-0.42252 0.12305,-0.71093 0.095,-0.57683 0.20992,-1.33351 0.31445,-2.08594 0.49682,-3.57628 0.80446,-7.26353 0.98438,-11.80664 0.0875,-2.22097 0.0884,-8.34529 0.002,-10.60938 -0.0611,-1.59965 -0.0798,-1.74163 -0.3711,-2.757809 -0.68752,-2.398533 -1.48955,-4.248501 -2.4707,-5.607422 -0.98115,-1.35892 -2.15909,-2.224544 -3.5332,-2.583984 -0.47572,-0.124438 -0.98631,-0.177183 -1.5332,-0.160156 z" /><path
   id="path9573"
   style="fill:#cf0000;fill-opacity:1;stroke-width:0.102085"
   sodipodi:type="inkscape:offset"
   inkscape:radius="0.14410861"
   inkscape:original="M 246.32812 100.50195 C 246.45282 101.63216 246.49938 111.03938 246.39258 113.51758 C 245.83962 126.34955 243.79535 136.27513 240.12109 143.9707 C 236.63299 151.27639 231.55667 156.13801 225.92578 157.56641 C 223.06871 158.29116 220.01822 158.03868 217.625 156.87891 C 214.75583 155.48849 212.99181 153.0815 212.73828 150.21289 C 212.67431 149.48899 212.73334 149.00408 213.24219 146.07812 C 213.81098 142.80746 214.11376 139.13897 214.16406 134.92578 L 214.19531 132.25 L 214.49023 132.10547 C 214.93225 131.88697 216.05055 131.61236 217.32422 131.41016 C 218.87107 131.16466 225.07004 131.16578 227.64453 131.41211 C 228.59688 131.50324 229.38709 131.56603 229.40039 131.55273 C 229.41373 131.53939 225.91346 130.34851 221.62109 128.90625 L 213.81641 126.28516 L 213.81445 127.02148 C 213.80789 129.10801 213.33321 132.69533 212.99023 133.25781 C 212.86115 133.46947 212.79543 133.76682 212.79492 134.13867 C 212.7936 135.18445 211.46405 139.64511 210.64453 141.35352 C 209.84446 143.02138 208.60107 144.25787 206.76172 145.21289 C 205.09907 146.07616 203.68114 146.5047 198.97266 147.56836 C 197.57447 147.88421 196.34808 148.17384 196.24805 148.21094 C 196.14802 148.24804 196.94828 148.28116 198.02539 148.28516 C 199.82808 148.29196 200.06423 148.31571 201.00391 148.57227 C 201.56538 148.72556 202.48541 149.07125 203.04688 149.3418 C 205.02406 150.29452 206.41505 151.4888 208.23047 153.78906 C 215.87561 163.47598 221.01327 168.74161 226.20508 172.21289 C 228.5281 173.76607 231.20801 174.95906 233.0918 175.27734 L 233.09375 175.27734 C 233.35677 175.32149 234.12469 175.36215 234.80273 175.36914 C 237.29036 175.39335 239.11728 174.5936 240.97852 172.66211 C 242.14781 171.44867 242.85058 170.41627 243.76562 168.57617 C 246.03018 164.02225 247.5336 157.19964 248.31445 147.91992 C 249.36943 135.38241 248.99428 116.06102 247.5 105.96289 C 247.16605 103.70614 246.16907 99.060435 246.32812 100.50195 z "
   d="m 246.30273,100.08594 c -0.0163,0.005 -0.0736,0.0326 -0.0859,0.041 -0.0257,0.0299 -0.0457,0.14864 -0.0469,0.10743 -0.003,0.0241 -0.003,0.0443 -0.002,0.0703 0.002,0.052 0.007,0.12081 0.0176,0.21289 0.0289,0.26186 0.056,1.06986 0.0762,2.14844 0.0202,1.07857 0.0341,2.43892 0.041,3.83984 0.0139,2.80184 -0.002,5.7755 -0.0547,7.00586 -0.55244,12.8199 -2.59536,22.72564 -6.25782,30.39648 -3.47538,7.27907 -8.52425,12.10327 -14.09961,13.51758 -2.82564,0.71678 -5.84576,0.46661 -8.20312,-0.67578 -2.83129,-1.37207 -4.55765,-3.73157 -4.80664,-6.54883 -0.0628,-0.71053 -0.005,-1.17249 0.50391,-4.09765 0.57042,-3.28008 0.87345,-6.95669 0.92382,-11.17579 l 0.0293,-2.58789 0.21484,-0.10546 a 0.14412302,0.14412302 0 0 0 0.002,0 c 0.39846,-0.19697 1.52635,-0.48057 2.79297,-0.68165 0.74395,-0.11807 2.6899,-0.18202 4.75195,-0.18164 2.06205,3.9e-4 4.2549,0.0615 5.53125,0.1836 0.47681,0.0456 0.91306,0.0858 1.23242,0.11133 0.15968,0.0127 0.29022,0.0218 0.38281,0.0273 0.0463,0.003 0.0834,0.005 0.11133,0.006 0.014,3.5e-4 0.0248,4.5e-4 0.0371,0 0.006,-2.3e-4 0.011,-4.8e-4 0.0215,-0.002 0.005,-7.4e-4 0.0229,-0.006 0.0234,-0.006 3e-4,-9e-5 0.0232,-0.008 0.0234,-0.008 2e-4,-9e-5 0.039,-0.0292 0.0391,-0.0293 6e-5,-6e-5 0.0215,-0.17765 0.0215,-0.17774 -6e-5,-9e-5 -0.035,-0.0389 -0.0352,-0.0391 -3.2e-4,-2.5e-4 -0.0192,-0.0114 -0.0234,-0.0137 -0.009,-0.004 -0.0127,-0.006 -0.0176,-0.008 -0.01,-0.004 -0.0194,-0.008 -0.0332,-0.0137 -0.0276,-0.0105 -0.0673,-0.0245 -0.11914,-0.043 -0.10367,-0.037 -0.25623,-0.0901 -0.45312,-0.15821 -0.39378,-0.13621 -0.96482,-0.33238 -1.66992,-0.57226 -1.41021,-0.47976 -3.35954,-1.1382 -5.50586,-1.85938 l -7.80469,-2.62109 a 0.14412302,0.14412302 0 0 0 -0.18945,0.13672 l -0.002,0.73632 c -0.003,1.0326 -0.12347,2.4471 -0.28515,3.66993 -0.0808,0.61141 -0.17191,1.17629 -0.26368,1.61914 -0.0918,0.44284 -0.19591,0.77794 -0.2539,0.87304 -0.149,0.24432 -0.21627,0.56636 -0.2168,0.95508 -2.9e-4,0.23104 -0.0801,0.70704 -0.2168,1.29492 -0.13669,0.58789 -0.32809,1.29597 -0.54492,2.02344 -0.43365,1.45494 -0.97325,2.99648 -1.375,3.83399 -0.7869,1.6404 -2.00058,2.8511 -3.81836,3.79492 -1.65022,0.85681 -3.04747,1.2786 -7.7539,2.34179 -0.6995,0.15802 -1.35707,0.30911 -1.85157,0.42579 -0.24724,0.0583 -0.45372,0.10896 -0.60546,0.14648 -0.15175,0.0375 -0.22941,0.0548 -0.28711,0.0762 -0.006,0.002 -0.0118,0.004 -0.0195,0.008 -0.008,0.004 -0.0286,0.019 -0.0293,0.0195 -7e-4,5.7e-4 -0.0388,0.0522 -0.0391,0.0527 -1.4e-4,2.9e-4 -0.0136,0.0466 -0.0137,0.0469 -2e-5,2.9e-4 0.006,0.0524 0.006,0.0527 8e-5,2.8e-4 0.0174,0.0407 0.0176,0.041 1.8e-4,2.8e-4 0.0192,0.0251 0.0195,0.0254 5.8e-4,5.6e-4 0.0247,0.0186 0.0332,0.0234 0.0171,0.01 0.0276,0.0127 0.0371,0.0156 0.0382,0.0118 0.0651,0.015 0.10743,0.0195 0.0847,0.009 0.21042,0.0167 0.37304,0.0234 0.32526,0.0135 0.79604,0.0234 1.33594,0.0254 1.80147,0.007 2.00546,0.0257 2.94141,0.28125 0.54695,0.14932 1.46832,0.4951 2.01758,0.75976 1.95856,0.94375 3.32454,2.11701 5.13281,4.40821 7.64886,9.69163 12.79654,14.96883 18.00781,18.45312 2.33725,1.56269 5.02338,2.7635 6.94336,3.08789 a 0.14412302,0.14412302 0 0 0 0.002,0 c 0.004,6.7e-4 0.0193,0.001 0.0234,0.002 0.30218,0.0483 1.03361,0.0849 1.70703,0.0918 2.5192,0.0245 4.40111,-0.80084 6.28125,-2.75195 1.17761,-1.22208 1.89393,-2.2739 2.8125,-4.1211 2.27879,-4.58253 3.7828,-11.41974 4.56445,-20.70898 1.05626,-12.55268 0.68126,-31.86923 -0.8164,-41.99023 -0.16792,-1.13476 -0.50176,-2.86096 -0.77344,-4.12696 -0.13584,-0.633 -0.25524,-1.1472 -0.33398,-1.42383 -0.0197,-0.0691 -0.0364,-0.12374 -0.0527,-0.16601 -0.008,-0.0211 -0.0149,-0.0375 -0.0293,-0.0605 -0.007,-0.0115 -0.0137,-0.0249 -0.0391,-0.0449 -0.006,-0.005 -0.023,-0.0154 -0.0234,-0.0156 -4.8e-4,-2.6e-4 -0.0367,-0.0136 -0.0371,-0.0137 -4.6e-4,-10e-5 -0.0504,-0.004 -0.0508,-0.004 z" /><path
   style="fill:#e32500;fill-opacity:1;stroke-width:0.0510423"
   d="m 99.11718,141.56612 c -1.155898,-0.25138 -2.213181,-1.0822 -2.723528,-2.14016 -0.334713,-0.69386 -0.428246,-1.14623 -0.394877,-1.9098 0.01431,-0.32737 0.06419,-0.73304 0.110844,-0.90148 0.203771,-0.73564 0.72507,-1.53295 1.320353,-2.01944 0.380512,-0.31097 1.102932,-0.66967 1.592067,-0.7905 0.433786,-0.10716 1.303701,-0.12122 1.735441,-0.0281 1.47754,0.31886 2.65614,1.44398 3.04586,2.90763 0.15924,0.59804 0.14689,1.4731 -0.0291,2.06376 -0.17543,0.5887 -0.36713,0.95947 -0.7363,1.42403 -0.7464,0.93927 -1.87764,1.47466 -3.09713,1.46582 -0.280732,-0.002 -0.651362,-0.0344 -0.82362,-0.0718 z"
   id="path9713" /><path
   style="fill:#e32500;fill-opacity:1;stroke-width:0.0510423"
   d="m 115.52257,137.57899 c -0.66246,-0.14224 -1.18886,-0.45138 -1.69986,-0.99827 -0.9047,-0.96825 -1.09875,-2.36697 -0.50083,-3.61009 0.27031,-0.562 0.8658,-1.14767 1.4467,-1.42285 0.55526,-0.26304 0.88441,-0.33884 1.45471,-0.33504 0.55347,0.004 0.99788,0.11325 1.47584,0.36383 0.65209,0.34188 1.34681,1.16043 1.5684,1.84797 0.1504,0.46664 0.18562,1.29657 0.0737,1.73608 -0.44048,1.72939 -2.10827,2.78561 -3.81863,2.41837 z"
   id="path9853" /><path
   style="fill:#e32500;fill-opacity:1;stroke-width:0.0510423"
   d="m 129.30208,133.11692 c -0.48556,-0.12229 -0.94109,-0.49227 -1.16257,-0.94425 -0.18114,-0.36965 -0.2007,-0.96153 -0.0454,-1.37522 0.13724,-0.36567 0.51034,-0.76215 0.8898,-0.94555 0.21132,-0.10213 0.33421,-0.12347 0.71459,-0.12407 0.40679,-6.5e-4 0.49355,0.0164 0.75773,0.14873 0.37453,0.18763 0.70927,0.5549 0.85177,0.93453 0.13837,0.36864 0.12548,0.99668 -0.0269,1.31187 -0.1364,0.2821 -0.5684,0.70298 -0.88758,0.86472 -0.29869,0.15135 -0.77812,0.20813 -1.09137,0.12924 z"
   id="path9855" /><path
   style="fill:#e32500;fill-opacity:1;stroke-width:0.0510423"
   d="m 128.10237,122.57877 c -0.4116,-0.11584 -0.51964,-0.18851 -0.95,-0.63896 -0.55743,-0.58346 -0.61854,-0.73472 -0.61854,-1.53105 0,-0.59928 0.009,-0.65616 0.1466,-0.9366 0.20509,-0.41767 0.65764,-0.86464 1.07157,-1.05834 0.313,-0.14647 0.37322,-0.15669 0.92331,-0.15669 0.51811,0 0.62155,0.0151 0.86501,0.1266 0.35939,0.16453 1.06922,0.83784 1.20363,1.14171 0.39688,0.89722 0.0271,2.22942 -0.7568,2.72684 -0.50842,0.32259 -1.36896,0.47165 -1.88478,0.32649 z"
   id="path9857" /><path
   style="fill:#a91515;fill-opacity:1;stroke-width:0.0510423"
   d="m 11.892853,127.47595 c 0.08422,-0.0397 0.555085,-0.24651 1.046367,-0.45956 1.184198,-0.51353 3.90773,-1.86782 5.180792,-2.57617 2.139676,-1.19056 3.498217,-2.02644 6.303723,-3.87856 2.360792,-1.55853 3.245599,-2.10623 4.625777,-2.86342 1.988316,-1.09082 3.880337,-1.86475 5.094393,-2.08384 0.445196,-0.0804 1.094673,-0.0679 1.370902,0.0262 0.974685,0.33211 0.789132,1.66492 -0.539467,3.87494 -0.319507,0.53147 -1.64282,2.50838 -1.827929,2.73076 l -0.10622,0.12761 0.03239,-0.12761 c 0.175536,-0.69145 0.199649,-0.90563 0.134656,-1.19605 -0.223465,-0.99855 -1.605838,-1.14834 -3.808047,-0.41263 -2.010226,0.67157 -4.552829,2.0356 -6.943662,3.72508 -0.735457,0.51971 -0.976974,0.70186 -1.943708,1.46598 l -0.567642,0.44868 -1.014669,0.12898 c -1.184048,0.15052 -2.581899,0.36341 -4.051686,0.61706 -2.324066,0.40107 -3.089257,0.53079 -3.11358,0.52785 -0.01404,-0.002 0.04339,-0.0356 0.127606,-0.0753 z"
   id="path11533" /><path
   style="fill:#eb8405;fill-opacity:1;stroke-width:0.0510423"
   d="m 25.21954,103.89877 c -1.78416,-1.33945 -3.573453,-3.3381 -4.800003,-5.361633 -0.639217,-1.054564 -1.403847,-2.654618 -1.770911,-3.70578 l -0.161469,-0.4624 0.501973,-0.468024 c 0.276084,-0.257414 0.517787,-0.468025 0.537116,-0.468025 0.01933,0 0.168433,0.195237 0.331341,0.43386 1.903967,2.788878 4.372093,5.052045 7.311874,6.704682 0.39273,0.22077 0.609868,0.37147 0.588372,0.40833 -0.276254,0.47374 -2.165942,3.14816 -2.222862,3.14595 -0.0076,-3e-4 -0.149549,-0.10243 -0.315431,-0.22696 z"
   id="path12156" /><path
   style="fill:#ae4413;fill-opacity:1;stroke-width:0.0360923"
   d="m 13.552677,131.37207 c -2.832247,-0.17275 -4.8921823,-0.53459 -6.4704223,-1.13654 -0.3542454,-0.13511 -1.406755,-0.63089 -1.3851678,-0.65248 0.00706,-0.007 0.2548168,-0.0781 0.5505598,-0.15778 1.4813661,-0.39928 3.4145867,-1.05251 4.8507503,-1.63907 0.447139,-0.18262 0.4028,-0.17402 4.186712,-0.81176 1.866597,-0.3146 4.35422,-0.66925 4.519229,-0.64429 0.0569,0.009 -0.02975,0.0995 -0.383868,0.40257 -0.676062,0.57864 -1.20676,1.06856 -2.113753,1.95132 -1.124874,1.09482 -1.896993,1.77814 -2.748917,2.43279 -0.211437,0.16247 -0.414457,0.29306 -0.451154,0.29019 -0.0367,-0.003 -0.285984,-0.0186 -0.553969,-0.0349 z"
   id="path12856" /><path
   style="fill:#a91313;fill-opacity:1;stroke-width:0.0360923"
   d="m 5.9948274,134.11633 c -0.2305153,-0.0316 -0.2669559,-0.0494 -0.4872467,-0.23852 -0.9066397,-0.77822 -1.6769446,-1.73683 -2.1428706,-2.6667 -0.1485923,-0.29656 -0.4231837,-0.98065 -0.4231837,-1.05428 0,-0.0173 0.1339928,-0.0512 0.2977618,-0.0754 0.3726685,-0.0551 1.7976931,-0.34337 2.1467778,-0.43432 l 0.2609525,-0.068 0.2262942,0.11984 c 1.7898201,0.94788 4.0664582,1.45259 7.5837923,1.68125 0.789821,0.0513 0.782524,-0.007 0.05948,0.47694 -1.772378,1.18668 -3.40611,1.88337 -5.1431592,2.19322 -0.3417917,0.061 -0.6119364,0.0797 -1.2812784,0.0887 -0.4664936,0.006 -0.9602872,-0.004 -1.097319,-0.0227 z"
   id="path13272" /><path
   style="fill:#ca1313;fill-opacity:1;stroke-width:0.0360923"
   d="m 29.740095,126.3717 c -0.519867,-0.0849 -1.825148,-0.22606 -2.616695,-0.28301 -1.88111,-0.13534 -4.559673,-0.0785 -6.659039,0.14133 -0.238209,0.025 -0.436724,0.043 -0.441143,0.0402 -0.0044,-0.003 0.247325,-0.20883 0.559432,-0.45775 3.899905,-3.11037 8.217969,-5.35081 10.763554,-5.58472 0.373977,-0.0344 0.837137,-0.008 1.065752,0.0615 0.292797,0.0885 0.574058,0.29787 0.682835,0.50822 0.09181,0.17753 0.132225,0.51494 0.09398,0.78456 -0.08837,0.6231 -0.301882,1.08968 -0.831822,1.81775 -0.715319,0.98275 -2.140302,2.83923 -2.287618,2.98031 -0.02891,0.0277 -0.123165,0.0253 -0.329241,-0.008 z"
   id="path13688" /><path
   style="fill:#d1380f;fill-opacity:1;stroke-width:0.0360923"
   d="m 24.308196,131.96943 c -0.986471,-0.13727 -2.080117,-0.2369 -3.519004,-0.32056 -0.855125,-0.0497 -1.824832,-0.0868 -5.305575,-0.20264 -0.655076,-0.0218 -1.203204,-0.0424 -1.218061,-0.0459 -0.01486,-0.003 0.123035,-0.11988 0.306428,-0.25883 0.821027,-0.62209 1.583166,-1.29451 2.683522,-2.36764 0.977819,-0.95363 2.190194,-2.05453 2.687035,-2.43999 0.0319,-0.0247 0.40941,-0.0746 0.884263,-0.11678 2.459972,-0.21851 4.933425,-0.23845 6.946258,-0.056 0.772537,0.07 2.092402,0.23032 2.178647,0.26458 0.05807,0.0231 0.014,0.0905 -0.323164,0.49447 -0.77968,0.93415 -1.51586,1.75626 -2.455007,2.74157 -0.730477,0.76639 -2.437961,2.37538 -2.504152,2.35971 -0.01007,-0.002 -0.172607,-0.0258 -0.36119,-0.052 z"
   id="path13897" /><path
   style="fill:#ca160f;fill-opacity:1;stroke-width:0.0360923"
   d="m 12.596229,137.23442 c -0.368708,-0.0131 -0.916026,-0.0716 -1.353355,-0.14463 -0.301554,-0.0504 -0.438028,-0.10232 -1.134955,-0.43207 -1.2839526,-0.60749 -2.369875,-1.20608 -3.2503729,-1.79168 -0.4351716,-0.28942 -1.028178,-0.7212 -1.0130805,-0.73764 0.00445,-0.005 0.1286457,0.007 0.2759869,0.0259 0.3997848,0.0519 1.2913633,0.044 1.8020391,-0.0159 1.9808939,-0.23248 3.9142654,-1.05546 6.1354784,-2.6117 l 0.162415,-0.11379 2.490372,0.0887 c 4.437808,0.15802 5.789952,0.24326 7.503478,0.47305 l 0.46547,0.0624 -0.122593,0.10367 c -1.774443,1.50063 -3.325257,2.55768 -4.995059,3.40466 -1.659839,0.84194 -3.158794,1.33752 -4.747524,1.56962 -0.465069,0.0679 -1.580032,0.15144 -1.821284,0.1364 -0.05955,-0.004 -0.238209,-0.0114 -0.397016,-0.017 z"
   id="path14175" /><path
   style="fill:#fd9d06;fill-opacity:1;stroke-width:0.0510423"
   d="m 2.5325131,126.12835 c -0.5808036,-1.22311 -0.9100909,-2.54372 -1.0761535,-4.31593 -0.077904,-0.83138 -0.064354,-3.09474 0.024962,-4.16963 0.1097505,-1.32081 0.3532454,-3.16144 0.5638081,-4.26195 0.1549701,-0.80996 0.029323,-0.52607 -0.4108855,0.92836 -0.598592,1.97773 -0.86173177,3.1895 -1.08069303,4.97663 -0.0891242,0.72742 -0.13593108,3.52801 -0.0712321,4.26203 0.13194242,1.4969 0.10240001,1.51578 -0.11981599,0.0766 -0.89598537,-5.80298 0.016249,-10.5443 2.84286332,-14.77573 1.4800279,-2.2156 3.4044483,-4.29206 6.4416258,-6.95056 0.4772458,-0.41774 2.0391398,-1.73723 3.4708758,-2.932199 2.487872,-2.076452 3.596462,-3.021301 4.769293,-4.064857 0.293032,-0.260732 0.548658,-0.456557 0.568058,-0.435168 0.0194,0.02139 0.120126,0.268581 0.223833,0.549313 1.039938,2.815092 2.736242,5.432101 4.831344,7.453651 0.548461,0.5292 1.349042,1.21783 1.753548,1.50832 0.127423,0.0915 0.23128,0.17972 0.230793,0.19601 -0.0034,0.11451 -1.818386,2.2591 -2.940871,3.47499 -2.226008,2.41122 -4.569489,4.55232 -9.078702,8.29468 -3.5542565,2.9498 -4.8344854,4.07267 -6.3983108,5.61187 -1.717987,1.69093 -2.8707834,3.04756 -3.8840204,4.57075 -0.1774071,0.2667 -0.3385491,0.50281 -0.3580934,0.5247 -0.019544,0.0219 -0.1555462,-0.21294 -0.3022266,-0.52184 z"
   id="path14668" /><path
   style="fill:#fd0606;fill-opacity:1;stroke-width:0.0510423"
   d="m 2.5833819,126.24692 c -0.5032839,-1.0106 -0.8535826,-2.22055 -1.0547982,-3.64334 -0.1122826,-0.79395 -0.1577536,-3.49801 -0.077494,-4.60841 0.097283,-1.34592 0.3686648,-3.48319 0.5893344,-4.64131 0.038826,-0.20377 0.063118,-0.37796 0.053982,-0.3871 -0.04621,-0.0462 -0.7379816,2.25086 -0.9921758,3.29457 -0.30260906,1.24251 -0.53961617,2.7641 -0.59036037,3.79013 -0.0869703,1.75852 -0.079167,2.47863 0.0475668,4.38964 0.0361225,0.54469 -0.0394228,0.23372 -0.19839926,-0.81668 -0.39118897,-2.58468 -0.43363702,-4.94209 -0.12729256,-7.06936 0.6861375,-4.76456 3.00868899,-8.73598 7.62412039,-13.03675 1.5606277,-1.45423 2.0653114,-1.89119 5.3110447,-4.598425 2.009316,-1.675948 3.044095,-2.558497 4.920606,-4.196716 0.183992,-0.160628 0.350266,-0.275473 0.369497,-0.255212 0.01923,0.02026 0.143505,0.323952 0.276162,0.674868 1.289796,3.411863 3.418119,6.351585 6.20676,8.573025 0.290491,0.23141 0.534403,0.43712 0.542024,0.45715 0.01754,0.0461 -0.733572,0.98249 -1.559257,1.94392 -1.011588,1.17789 -2.003663,2.23414 -3.285395,3.4979 -1.884576,1.85816 -3.413853,3.20856 -7.368312,6.50646 -3.8579166,3.21739 -4.8092029,4.05957 -6.4823707,5.73888 -1.5934575,1.59932 -2.5864045,2.77371 -3.5308182,4.17601 -0.2410593,0.35793 -0.4421133,0.65079 -0.4467868,0.65079 -0.00467,0 -0.1071102,-0.19802 -0.2276374,-0.44004 z"
   id="path14877" /><path
   style="fill:#ef0000;fill-opacity:1;stroke-width:0.0127606"
   d="m 2.9231924,130.09537 c -0.00661,-0.0112 -0.2622529,-0.82486 -0.3372522,-1.07348 -0.081255,-0.26935 -0.2395981,-0.81745 -0.3085076,-1.06788 l -0.053391,-0.19404 0.060638,-0.11222 c 0.089836,-0.16625 0.3415548,-0.60177 0.4436926,-0.76767 l 0.08929,-0.14503 0.029113,0.0493 c 0.5198198,0.88071 1.2022649,1.64487 2.0022428,2.242 0.1790108,0.13362 0.5566201,0.38605 0.699001,0.46728 0.062968,0.0359 0.093291,0.0599 0.082944,0.0655 -0.047438,0.0259 -0.9933721,0.23919 -1.5156776,0.34177 -0.523804,0.10288 -1.1826572,0.21032 -1.1920921,0.19441 z"
   id="path15155" /><path
   style="fill:#fb0000;fill-opacity:1;stroke-width:0.0127606"
   d="m 1.8534106,129.86789 c -0.1454546,-0.45108 -0.2519588,-0.79881 -0.2519588,-0.82263 0,-0.0176 0.082298,-0.20035 0.2546452,-0.56544 0.036444,-0.0772 0.1329289,-0.26842 0.2144099,-0.42493 l 0.1481472,-0.28455 0.087447,0.31008 c 0.1764758,0.62576 0.3689323,1.26566 0.5475765,1.82062 0.034737,0.10791 0.061118,0.19824 0.058623,0.20073 -0.00727,0.007 -0.3802871,0.0533 -0.602638,0.0744 -0.112293,0.0106 -0.2360962,0.0225 -0.2751183,0.0264 l -0.070949,0.007 z"
   id="path15502" /><path
   style="fill:#fb0000;fill-opacity:1;stroke-width:0.0127606"
   d="m 5.5868195,129.50994 c -0.8578143,-0.52857 -1.4475373,-1.02822 -2.0079473,-1.70125 -0.1688378,-0.20277 -0.4716729,-0.60733 -0.4716729,-0.63011 0,-0.003 0.054886,0.0319 0.1219693,0.077 0.067083,0.0452 0.1262612,0.0821 0.1315069,0.0821 0.00525,0 0.028737,0.0142 0.052203,0.0315 0.023466,0.0173 0.04706,0.0288 0.052431,0.0254 0.00537,-0.003 0.011692,-0.002 0.014046,0.004 0.00844,0.0198 0.1981111,0.13374 0.3232944,0.19426 0.1563799,0.0756 0.3406989,0.14063 0.5678454,0.20032 0.094747,0.0249 0.1808811,0.0466 0.1914086,0.0483 0.010528,0.002 0.027754,0.006 0.038282,0.0102 0.043871,0.0165 0.1124186,0.0351 0.1722677,0.0468 0.035092,0.007 0.1039987,0.0213 0.1531269,0.0322 0.3509299,0.0776 0.8617292,0.13916 1.3015784,0.15694 0.3940302,0.0159 1.4887141,0.005 1.5239874,-0.0154 0.004,-0.002 0.079059,-0.008 0.1667884,-0.013 0.087729,-0.005 0.1767339,-0.011 0.1977888,-0.0136 0.021055,-0.003 0.08422,-0.008 0.1403663,-0.0124 0.3384764,-0.0254 1.2162377,-0.12194 1.5057475,-0.16564 0.1122931,-0.017 0.2702057,-0.04 0.3509157,-0.0513 0.221549,-0.0309 0.87003,-0.13038 1.128141,-0.17307 0.125686,-0.0208 0.230075,-0.0362 0.231977,-0.0343 0.0043,0.004 -0.510018,0.20997 -0.969259,0.38767 -1.5465748,0.59842 -3.1548976,1.12159 -4.5977785,1.49562 l -0.2447619,0.0634 z"
   id="path15711" /><path
   id="path15989"
   style="fill:#f90505;fill-opacity:1;stroke-width:0.0255211"
   sodipodi:type="inkscape:offset"
   inkscape:radius="0.11727763"
   inkscape:original="M 2.0488281 113.12891 C 2.0441272 113.1148 1.9677154 113.32585 1.8808594 113.59766 C 1.3971448 115.1114 1.125287 116.68065 1.03125 118.48242 C 1.004332 118.99818 1.0126257 120.65415 1.0429688 120.81641 C 1.0495308 120.8515 1.0614425 121.00771 1.0703125 121.16211 C 1.1635947 122.78646 1.5254919 124.98797 2.0214844 126.95508 C 2.1135047 127.32003 2.1941719 127.64553 2.2011719 127.67773 C 2.2130379 127.73233 2.2154906 127.73215 2.2441406 127.68945 C 2.2610508 127.66427 2.3144771 127.57443 2.3613281 127.49023 C 2.4081797 127.40601 2.5253689 127.20141 2.6230469 127.03516 L 2.8007812 126.73242 L 2.6210938 126.38477 C 1.9093868 125.00437 1.5204945 123.38565 1.3886719 121.25586 C 1.3493049 120.61982 1.3727454 118.64884 1.4277344 117.94531 C 1.5288767 116.65128 1.6765604 115.44629 1.9023438 114.08398 C 1.9869293 113.57361 2.0535281 113.14301 2.0488281 113.12891 z "
   d="m 2.0507812,113.01172 c -7.12e-5,0 -0.038983,0.004 -0.039062,0.004 -7.98e-5,3e-5 -0.023349,0.0117 -0.023438,0.0117 -1.763e-4,1.1e-4 -0.023228,0.0174 -0.023437,0.0176 -4.196e-4,4.2e-4 -0.014477,0.0168 -0.017578,0.0215 -0.0031,0.005 -0.00409,0.008 -0.00586,0.0117 -0.00707,0.0129 -0.012252,0.0224 -0.017578,0.0352 -0.010652,0.0256 -0.023433,0.06 -0.039063,0.10352 -0.031258,0.0869 -0.07145,0.20868 -0.1152344,0.3457 -0.4869897,1.52399 -0.7610032,3.10408 -0.8554687,4.91406 -0.0138322,0.26503 -0.0181324,0.80674 -0.015625,1.30664 0.001254,0.24995 0.005112,0.48845 0.009766,0.67578 0.002327,0.0937 0.004654,0.17486 0.007813,0.23829 0.003158,0.0634 0.004702,0.1031 0.0117188,0.14062 -1.4215e-4,-7.6e-4 0.006897,0.0536 0.0117187,0.11523 0.004822,0.0617 0.009279,0.13839 0.0136719,0.21485 0.0939299,1.63563 0.4573204,3.84229 0.9550781,5.81641 0.045976,0.18233 0.08859,0.35351 0.1210938,0.48437 0.032504,0.13086 0.05558,0.2295 0.056641,0.23437 0.00315,0.0145 0.00601,0.0259 0.011719,0.043 0.00285,0.009 0.0055,0.0175 0.015625,0.0332 0.00506,0.008 0.024738,0.0287 0.025391,0.0293 6.528e-4,5.7e-4 0.048118,0.0252 0.048828,0.0254 7.097e-4,1.8e-4 0.059763,2e-4 0.060547,0 3.92e-4,-9e-5 0.02107,-0.008 0.021484,-0.008 4.139e-4,-1.9e-4 0.011192,-0.007 0.015625,-0.01 0.017732,-0.0115 0.025147,-0.0203 0.03125,-0.0273 0.012207,-0.0142 0.017818,-0.0239 0.025391,-0.0352 0.025152,-0.0375 0.073058,-0.12071 0.1210937,-0.20703 0.04569,-0.0821 0.1645758,-0.28779 0.2617188,-0.45313 l 0.1777344,-0.30273 a 0.11728936,0.11728936 0 0 0 0.00195,-0.11329 l -0.1796875,-0.34765 c -0.7025683,-1.36268 -1.0875797,-2.96278 -1.21875,-5.08203 -0.038267,-0.61827 -0.014802,-2.60383 0.039063,-3.29297 0.1008919,-1.29083 0.247348,-2.49212 0.4726562,-3.85156 0.042351,-0.25554 0.080678,-0.4921 0.1074219,-0.66602 0.013372,-0.087 0.024185,-0.15749 0.03125,-0.20898 0.00353,-0.0258 0.00605,-0.0464 0.00781,-0.0625 8.787e-4,-0.008 0.0015,-0.0142 0.00195,-0.0215 2.259e-4,-0.004 4.24e-5,-0.008 0,-0.0137 -2.12e-5,-0.003 4.829e-4,-0.006 0,-0.0117 -4.829e-4,-0.005 -0.00579,-0.0271 -0.00586,-0.0273 -3.67e-5,-1.1e-4 -0.00777,-0.0195 -0.00781,-0.0195 -4.55e-5,-9e-5 -0.019477,-0.0253 -0.019531,-0.0254 -5.41e-5,-6e-5 -0.035093,-0.0254 -0.035156,-0.0254 -6.27e-5,-2e-5 -0.046804,-0.01 -0.046875,-0.01 z" /><path
   style="fill:#000000;fill-opacity:0;stroke-width:0.0255211"
   d="m 1.4838859,128.6457 c -0.1958888,-0.673 -0.4244401,-1.53676 -0.58770687,-2.22111 -0.16657944,-0.69824 -0.1973252,-0.84844 -0.19575531,-0.95627 4.5978e-4,-0.0316 -0.0111977,-0.0574 -0.0259055,-0.0574 -0.0147078,0 -0.0197266,-0.0113 -0.0111529,-0.0252 0.008574,-0.0139 -0.007764,-0.21198 -0.0363052,-0.44024 -0.10102475,-0.80794 -0.14093571,-1.67522 -0.14065331,-3.05646 2.7253e-4,-1.33296 0.0242988,-1.90027 0.11511258,-2.718 0.10154244,-0.91434 0.31820647,-2.12699 0.53185821,-2.97677 0.1362365,-0.54187 0.3403933,-1.2747 0.3519068,-1.26319 0.00521,0.005 -0.036071,0.23207 -0.091741,0.50413 -0.2965667,1.4493 -0.3996566,2.66437 -0.3744412,4.41335 0.009,0.62397 0.015407,1.22636 0.014248,1.33865 -0.00372,0.3607 0.048395,1.39224 0.089619,1.77372 0.046224,0.42775 0.1441385,1.01512 0.2187717,1.31237 0.071504,0.28478 0.1787833,0.63739 0.1985988,0.65276 0.00905,0.007 0.018833,0.03 0.021745,0.051 0.025569,0.1849 0.3035334,1.40771 0.4815144,2.11826 l 0.163013,0.65079 -0.2993894,0.61831 c -0.1646642,0.34007 -0.3051317,0.61857 -0.31215,0.61888 -0.00702,3.2e-4 -0.057052,-0.15159 -0.1111856,-0.33758 z"
   id="path16474" /><path
   id="path16752"
   style="fill:#f93505;fill-opacity:1;stroke-width:0.0255211"
   sodipodi:type="inkscape:offset"
   inkscape:radius="0.13732183"
   inkscape:original="M 1.484375 114.93164 C 1.4728615 114.92013 1.269049 115.65149 1.1328125 116.19336 C 0.91916076 117.04314 0.70310494 118.25754 0.6015625 119.17188 C 0.51074872 119.9896 0.48660065 120.55571 0.48632812 121.88867 C 0.48604573 123.26991 0.52592838 124.13737 0.62695312 124.94531 C 0.65549432 125.17357 0.6726365 125.37087 0.6640625 125.38477 C 0.6554888 125.39867 0.65912032 125.41016 0.67382812 125.41016 C 0.68853592 125.41016 0.70163166 125.43715 0.70117188 125.46875 C 0.69960199 125.57658 0.72990493 125.72559 0.89648438 126.42383 C 1.0597511 127.10818 1.2884862 127.97348 1.484375 128.64648 C 1.5385086 128.83247 1.5886831 128.98274 1.5957031 128.98242 C 1.6027214 128.98211 1.7415858 128.7053 1.90625 128.36523 L 2.2070312 127.74609 L 2.0429688 127.0957 C 1.8649878 126.38515 1.588069 125.16146 1.5625 124.97656 C 1.559588 124.95556 1.5500656 124.93278 1.5410156 124.92578 C 1.5212001 124.91041 1.4133009 124.55822 1.3417969 124.27344 C 1.2671637 123.97619 1.1692709 123.38869 1.1230469 122.96094 C 1.0818229 122.57946 1.0294831 121.5482 1.0332031 121.1875 C 1.0343621 121.07521 1.0285312 120.47163 1.0195312 119.84766 C 0.99431585 118.09868 1.0960114 116.88485 1.3925781 115.43555 C 1.4482481 115.16349 1.489585 114.93664 1.484375 114.93164 z "
   d="m 1.484375,114.79492 c -5.66e-5,0 -0.046813,0.008 -0.046875,0.008 -6.24e-5,3e-5 -0.029229,0.0136 -0.029297,0.0137 -1.364e-4,9e-5 -0.027184,0.0233 -0.027344,0.0234 -1.593e-4,1.8e-4 -0.00908,0.0118 -0.011719,0.0156 -0.010575,0.0155 -0.010992,0.0213 -0.013672,0.0273 -0.00536,0.0121 -0.00959,0.0215 -0.013672,0.0332 -0.00816,0.0235 -0.017596,0.0532 -0.029297,0.0918 -0.023403,0.0772 -0.054964,0.18538 -0.089844,0.31055 -0.069759,0.25034 -0.1541518,0.56933 -0.2226562,0.8418 -0.21585726,0.85855 -0.43272747,2.07377 -0.53515625,2.99609 -0.0912865,0.82198 -0.11496151,1.39781 -0.11523437,2.73242 -2.8294e-4,1.3839 0.0386509,2.25869 0.140625,3.07422 0.0140862,0.11266 0.0266501,0.21801 0.0332031,0.29492 0.003277,0.0385 0.005155,0.0699 0.005859,0.0898 2.3487e-4,0.007 8.1e-6,0.008 0,0.0117 4.1095e-4,-0.003 0.002023,-0.007 0.003906,-0.0137 9.4158e-4,-0.003 0.004028,-0.012 0.003906,-0.0117 -1.2147e-4,3.1e-4 0.0099,-0.0217 0.009766,-0.0215 -0.0177103,0.0287 -0.0385121,0.0737 -0.015625,0.13672 0.005595,0.0154 0.0244069,0.0115 0.0351563,0.0234 0.0332195,0.0369 0.0748487,0.0742 0.10742187,0.0742 -0.076645,-1e-5 -0.0992782,-0.0474 -0.10546874,-0.0606 -4.9101e-4,0.13366 0.0318761,0.28368 0.1953125,0.96875 0.16392167,0.68709 0.39119132,1.55468 0.58789062,2.23047 0.027475,0.0944 0.055194,0.17903 0.076172,0.24218 0.010489,0.0316 0.019363,0.0574 0.027344,0.0781 0.00399,0.0103 0.00642,0.0183 0.011719,0.0293 0.00265,0.005 0.006,0.0121 0.013672,0.0234 0.00384,0.006 0.021182,0.0232 0.021484,0.0234 1.513e-4,1.4e-4 0.029166,0.0214 0.029297,0.0215 6.53e-5,3e-5 0.029237,0.0117 0.029297,0.0117 6.01e-5,2e-5 0.040961,0.004 0.041016,0.004 5.48e-5,0 0.05657,-0.0136 0.056641,-0.0137 7.09e-5,-4e-5 0.023351,-0.0156 0.023437,-0.0156 1.737e-4,-1.4e-4 0.019294,-0.0173 0.019531,-0.0176 4.736e-4,-5.5e-4 0.00928,-0.012 0.011719,-0.0156 0.00488,-0.007 0.00652,-0.012 0.00977,-0.0176 0.0065,-0.0112 0.014719,-0.0246 0.023438,-0.041 0.017437,-0.0329 0.04003,-0.0784 0.068359,-0.13477 0.056659,-0.11271 0.1322821,-0.26699 0.2148438,-0.4375 l 0.3007812,-0.61914 a 0.13733556,0.13733556 0 0 0 0.00977,-0.0937 L 2.1757812,127.0625 c -0.088555,-0.35353 -0.2023933,-0.8369 -0.296875,-1.25391 -0.094482,-0.417 -0.1704867,-0.78502 -0.1796874,-0.85156 -0.00333,-0.024 -0.010714,-0.0435 -0.019531,-0.0645 -0.00882,-0.0209 -0.011577,-0.0428 -0.054687,-0.0762 -3.096e-4,-2.4e-4 0.013738,0.0132 0.017578,0.0176 0.00384,0.004 0.00798,0.007 0.00977,0.01 -0.00313,-0.008 -0.00661,-0.0168 -0.011719,-0.0312 -0.012888,-0.0364 -0.030007,-0.0908 -0.048828,-0.15234 -0.037642,-0.12312 -0.082152,-0.28039 -0.1171875,-0.41993 -0.071133,-0.2833 -0.1694018,-0.8744 -0.2148438,-1.29492 -0.039718,-0.36754 -0.093399,-1.41114 -0.089844,-1.75586 0.00126,-0.12212 -0.00467,-0.71936 -0.013672,-1.34375 -0.025125,-1.74274 0.07631,-2.94222 0.3710938,-4.38281 0.028,-0.13683 0.051452,-0.26266 0.068359,-0.35547 0.00845,-0.0464 0.015154,-0.0847 0.019531,-0.11328 0.00219,-0.0143 0.00468,-0.0256 0.00586,-0.0371 5.907e-4,-0.006 0.00181,-0.0101 0.00195,-0.0195 7.06e-5,-0.005 -0.00188,-0.0209 -0.00195,-0.0215 -3.65e-5,-3e-4 -0.0058,-0.0252 -0.00586,-0.0254 -2.94e-5,-9e-5 -0.00973,-0.0234 -0.00977,-0.0234 -3.29e-5,-6e-5 -0.020503,-0.0293 -0.023438,-0.0332 -4.49e-5,-4e-5 -0.042918,-0.0273 -0.042969,-0.0273 -5.08e-5,-2e-5 -0.054631,-0.0117 -0.054687,-0.0117 z" /><path
   style="fill:#eb0505;fill-opacity:1;stroke-width:0.0360923"
   d="m 25.262116,103.93996 c -0.137565,-0.10348 -0.404414,-0.31636 -0.592996,-0.47308 -2.727293,-2.2664 -4.772558,-5.194599 -6.027805,-8.629981 l -0.169886,-0.464946 0.522933,-0.482478 c 0.287613,-0.265363 0.533003,-0.482449 0.545311,-0.482414 0.01231,3.6e-5 0.06876,0.07348 0.125454,0.163217 0.194079,0.307198 0.856713,1.216912 1.192207,1.636753 1.03248,1.292057 2.336159,2.577298 3.638539,3.587077 0.884606,0.685866 2.048195,1.443472 2.924676,1.904242 0.193208,0.10157 0.358291,0.196 0.366851,0.20986 0.04047,0.0655 -2.132352,3.16848 -2.247764,3.21003 -0.01507,0.005 -0.139955,-0.0748 -0.27752,-0.17828 z"
   id="path16892" /><path
   style="fill:#eda100;fill-opacity:1;stroke-width:0.0721847"
   d="m 35.442686,107.65085 c -2.592232,-0.16302 -5.027364,-0.81554 -7.312368,-1.95944 -0.896253,-0.44867 -2.072231,-1.15047 -2.361482,-1.40927 l -0.174034,-0.15572 0.537901,-0.72184 c 0.295846,-0.39702 0.787291,-1.09541 1.092099,-1.55197 0.304809,-0.45657 0.563707,-0.84233 0.575329,-0.85724 0.01162,-0.0149 0.46911,0.16977 1.01664,0.41038 5.351362,2.35172 11.076246,2.50356 16.659588,0.44187 1.987381,-0.73386 4.53521,-2.18897 6.31616,-3.607282 0.961086,-0.765389 2.825213,-2.626745 3.587923,-3.58259 2.124414,-2.662364 3.701619,-5.817499 4.53639,-9.074864 0.342552,-1.336675 0.382956,-1.357275 0.208474,-0.10629 -0.663311,4.755737 -2.622724,9.273671 -5.693441,13.127701 -0.890387,1.117517 -2.844712,3.082435 -3.902578,3.923735 -2.730659,2.17164 -5.79605,3.717 -8.961429,4.51773 -1.967089,0.4976 -4.24927,0.72305 -6.125172,0.60509 z"
   id="path17308" /><path
   style="fill:#eda100;fill-opacity:1;stroke-width:0.0721847"
   d="m 35.002962,107.63038 c -2.430196,-0.21978 -4.687336,-0.85287 -6.814838,-1.91146 -0.939518,-0.46748 -2.119603,-1.16841 -2.418939,-1.43678 l -0.173686,-0.15572 0.507061,-0.68575 c 0.278884,-0.37717 0.769965,-1.07555 1.091293,-1.55197 0.321328,-0.47642 0.593845,-0.87831 0.605594,-0.8931 0.01175,-0.0148 0.518168,0.18756 1.125375,0.44965 4.018329,1.73447 8.150806,2.24448 12.364824,1.526 7.136521,-1.21675 13.308652,-5.787517 16.696104,-12.364288 0.91012,-1.767009 1.456956,-3.200402 1.974772,-5.176374 0.264304,-1.008574 0.280884,-1.048146 0.24196,-0.577478 -0.149259,1.804826 -0.838118,4.576909 -1.659245,6.677085 -0.361773,0.925293 -1.303605,2.866185 -1.811413,3.732888 -0.605561,1.033545 -1.590503,2.47054 -2.314864,3.377304 -0.822395,1.029485 -2.876086,3.084043 -3.887673,3.889313 -3.53507,2.81408 -7.512434,4.52238 -11.69392,5.0226 -0.890129,0.10649 -3.035074,0.15019 -3.832405,0.0781 z"
   id="path17310" /><path
   style="fill:#ed0000;fill-opacity:1;stroke-width:0.0721847"
   d="m 34.540377,107.59431 c -2.578145,-0.30925 -4.928688,-1.05092 -7.038008,-2.2207 -0.783565,-0.43455 -1.799584,-1.08431 -1.86373,-1.19189 -0.01814,-0.0304 0.305818,-0.5263 0.719895,-1.10197 0.414077,-0.57568 0.905801,-1.28177 1.092721,-1.56909 0.186919,-0.28732 0.362175,-0.52282 0.389458,-0.52334 0.02728,-5e-4 0.485989,0.19239 1.019346,0.42866 4.276898,1.89465 8.958268,2.35397 13.54845,1.32935 6.693705,-1.49418 12.475035,-6.018154 15.623633,-12.225721 0.851682,-1.679121 1.423663,-3.19052 1.925912,-5.089021 0.280701,-1.061046 0.285551,-1.071908 0.241709,-0.541385 -0.151437,1.832532 -0.835477,4.563742 -1.672297,6.677084 -3.428891,8.659483 -10.927764,14.822783 -19.411603,15.954353 -1.202966,0.16045 -3.538522,0.19805 -4.575486,0.0737 z"
   id="path17312" /><path
   style="fill:#fb0000;fill-opacity:1;stroke-width:0.102085"
   d="m 83.454141,195.5436 c -11.93509,-2.56208 -22.102288,-7.4049 -30.880584,-14.70897 -1.694533,-1.40995 -5.823069,-5.53248 -7.193575,-7.1831 -3.665487,-4.41468 -6.11982,-8.42684 -8.496328,-13.88917 -1.154228,-2.65295 -2.108527,-4.44459 -3.399364,-6.3821 -1.40361,-2.10678 -2.387459,-3.30849 -4.183313,-5.10964 -2.957289,-2.96601 -5.848911,-4.98353 -10.41533,-7.26688 -1.692665,-0.84639 -2.693638,-1.29734 -7.532173,-3.39329 -0.942343,-0.40821 -1.6947051,-0.76084 -1.6719159,-0.78363 0.2166039,-0.2166 6.5900689,2.45844 10.3734779,4.35391 4.204016,2.10619 7.219786,4.25061 10.264685,7.29888 3.259891,3.26349 5.348006,6.45546 7.695767,11.76402 1.017143,2.29987 1.714965,3.69689 2.725201,5.45575 7.209308,12.55173 19.729652,22.39613 35.057109,27.56443 2.5109,0.84666 5.993995,1.79725 8.370935,2.28456 0.477245,0.0978 0.91136,0.21705 0.964699,0.26491 0.132573,0.11896 0.126712,0.11802 -1.679291,-0.26968 z"
   id="path17659" /><path
   style="fill:#ae3213;fill-opacity:1;stroke-width:0.0180462"
   d="m 5.49506,134.03741 c -0.3231314,-0.0674 -0.6704092,-0.16803 -0.7398931,-0.21435 -0.2513878,-0.16757 -0.9746975,-0.86802 -1.3430762,-1.30063 -0.5230027,-0.61418 -1.1416974,-1.51039 -1.2772094,-1.85008 -0.071083,-0.17819 -0.1588252,-0.41858 -0.1588252,-0.43513 0,-0.007 0.054815,-0.0185 0.1218116,-0.025 0.2742993,-0.0266 0.773295,-0.0835 0.7988149,-0.091 0.020057,-0.006 0.03286,0.0152 0.048057,0.0791 0.027103,0.1141 0.1976178,0.54345 0.3388022,0.8531 0.2834613,0.62169 0.7414224,1.30067 1.2948484,1.91975 0.3593817,0.40202 0.9180177,0.93269 1.1141992,1.05842 0.097874,0.0627 0.078258,0.0633 -0.1975294,0.006 z"
   id="path17937" /><path
   id="path18929"
   style="fill:#ae3213;fill-opacity:1;stroke-width:0.0180462"
   sodipodi:type="inkscape:offset"
   inkscape:radius="0.056934845"
   inkscape:original="M 4.8300781 133.88477 C 4.813781 133.88477 5.0343408 134.04544 5.2539062 134.19336 C 5.4952555 134.35595 5.6778327 134.46141 5.9179688 134.58203 C 6.03382 134.64023 6.1508141 134.71738 6.2050781 134.76758 C 6.987506 135.49072 8.1983124 136.1926 9.4023438 136.62305 C 9.8024469 136.76609 10.280489 136.90305 10.755859 137.01172 C 10.805339 137.02372 10.862916 137.02658 10.853516 137.01758 C 10.849287 137.01335 10.68279 136.93475 10.484375 136.84375 C 10.003055 136.62302 9.0147951 136.13257 8.5898438 135.9043 C 7.5685914 135.35574 6.6090294 134.74816 5.9453125 134.22852 L 5.7929688 134.10938 L 5.53125 134.05859 C 5.3873318 134.03049 5.1740577 133.97891 5.0566406 133.94531 C 4.9392234 133.91161 4.8365181 133.88477 4.8300781 133.88477 z "
   d="m 4.8183594,133.82812 c -9.85e-5,2e-5 -0.015555,0.008 -0.015625,0.008 -7e-5,4e-5 -0.01949,0.0156 -0.019531,0.0156 -4.16e-5,6e-5 -0.00975,0.0234 -0.00977,0.0234 -1.35e-5,8e-5 -1.44e-5,0.0194 0,0.0195 1.44e-5,1e-4 0.00191,0.0116 0.00195,0.0117 8.42e-5,2.3e-4 0.00567,0.0114 0.00586,0.0117 3.869e-4,6.1e-4 0.00573,0.007 0.00781,0.01 0.00208,0.002 0.00396,0.004 0.00586,0.006 0.0076,0.007 0.015812,0.0143 0.027344,0.0234 0.023063,0.0184 0.057011,0.0427 0.097656,0.0723 0.08129,0.0592 0.192356,0.13657 0.3027343,0.21093 0.2429227,0.16365 0.4282348,0.27118 0.6699219,0.39258 0.1115555,0.056 0.2277732,0.13354 0.2734375,0.17578 0.7904434,0.73055 2.0056851,1.43421 3.2167969,1.86719 0.402271,0.14382 0.8825685,0.28156 1.3593755,0.39063 0.02865,0.007 0.05832,0.0123 0.08203,0.0137 0.01186,6.6e-4 0.02128,3.6e-4 0.03516,-0.002 0.0035,-5.7e-4 0.0063,-0.002 0.01172,-0.004 0.0027,-9.6e-4 0.0095,-0.004 0.0098,-0.004 3.03e-4,-1.7e-4 0.01348,-0.01 0.01367,-0.01 1.93e-4,-1.9e-4 0.01359,-0.0213 0.01367,-0.0215 7.8e-5,-2.1e-4 0.002,-0.0291 0.002,-0.0293 -4.1e-5,-2.4e-4 -0.0076,-0.0212 -0.0078,-0.0215 -1.65e-4,-2.6e-4 -0.0095,-0.0114 -0.0098,-0.0117 -0.0017,-0.001 -0.0057,-0.006 -0.0059,-0.006 -1.45e-4,-1e-4 -0.003,-0.001 -0.0039,-0.002 -0.0017,-0.001 -0.0027,-0.001 -0.0039,-0.002 -0.0025,-0.001 -0.0048,-0.002 -0.0078,-0.004 -0.006,-0.003 -0.0136,-0.007 -0.02344,-0.0117 -0.01968,-0.01 -0.04843,-0.0232 -0.08203,-0.0391 -0.0672,-0.0317 -0.158444,-0.0736 -0.257813,-0.11914 -0.479114,-0.21972 -1.4681409,-0.71251 -1.8906245,-0.93945 -1.0189106,-0.54731 -1.977013,-1.15343 -2.6367187,-1.66993 L 5.828125,134.06445 a 0.05694054,0.05694054 0 0 0 -0.023437,-0.0117 l -0.2617187,-0.0508 c -0.1414402,-0.0276 -0.3560008,-0.0785 -0.4707032,-0.11133 -0.059087,-0.017 -0.1146492,-0.0319 -0.15625,-0.043 -0.0208,-0.006 -0.037854,-0.0105 -0.050781,-0.0137 -0.00646,-0.002 -0.011138,-0.003 -0.015625,-0.004 -0.00224,-4.9e-4 -0.00554,-0.002 -0.00781,-0.002 -0.00114,-2e-4 -0.00224,2.3e-4 -0.00391,0 -0.00166,-2.2e-4 -0.00761,0 -0.00781,0 -1.273e-4,0 -0.01162,-1e-5 -0.011719,0 z" /><path
   style="fill:#fb0000;fill-opacity:1;stroke-width:0.0180462"
   d="m 13.173707,138.45216 c -1.12157,-0.483 -2.238177,-0.96636 -2.481349,-1.07411 -3.0667965,-1.35899 -4.8066458,-2.35178 -6.2054453,-3.54095 -0.2933235,-0.24936 -0.8658292,-0.82305 -1.0872108,-1.08944 -0.3223204,-0.38787 -0.5995822,-0.7817 -0.8178556,-1.16171 -0.1223698,-0.21305 -0.2497681,-0.46356 -0.2404715,-0.47286 0.00367,-0.004 0.089154,0.1179 0.189961,0.27017 0.937011,1.4153 2.1430928,2.57327 3.3097426,3.17771 0.1927523,0.0999 0.2848233,0.16111 0.4206433,0.27978 0.7998099,0.69883 1.8358474,1.30537 2.9598732,1.73282 0.2236784,0.0851 0.6907955,0.24093 0.7817871,0.26087 0.03297,0.007 0.05587,0.0172 0.0509,0.0222 -0.005,0.005 -0.066032,-0.004 -0.1356872,-0.0198 -0.2105217,-0.0479 -0.2958422,-0.0322 -0.1926801,0.0354 0.1188099,0.0779 1.0248753,0.48696 2.3560003,1.06381 1.732452,0.75077 3.110023,1.35336 3.157648,1.38126 0.126201,0.0739 -0.289856,-0.1003 -2.065855,-0.86514 z"
   id="path19276" /><path
   style="fill:#ed1500;fill-opacity:1;stroke-width:0.00390625"
   d="m 11.376953,137.34019 c -0.02802,-0.0159 -0.718947,-0.26844 -0.882812,-0.32271 -0.02471,-0.008 -0.04294,-0.0155 -0.04052,-0.0163 0.0024,-8.1e-4 0.03318,0.006 0.06836,0.0146 0.139215,0.035 0.264713,0.0627 0.294426,0.0649 0.03815,0.003 0.06143,-0.003 0.07728,-0.0187 l 0.01159,-0.0116 0.02783,0.006 c 0.01871,0.004 0.0656,0.023 0.143069,0.0582 0.106404,0.0484 0.144321,0.0655 0.288089,0.12997 0.03933,0.0176 0.05121,0.0246 0.04946,0.0291 -0.0013,0.003 -0.0061,0.0204 -0.01071,0.0381 -0.0085,0.0326 -0.01214,0.0366 -0.02606,0.0287 z"
   id="path19523" /><path
   style="fill:#ed1500;fill-opacity:1;stroke-width:0.00390625"
   d="m 11.196409,137.16682 c -0.11971,-0.0539 -0.217001,-0.0987 -0.216202,-0.0995 7.99e-4,-8e-4 0.03986,0.006 0.0868,0.0144 0.09796,0.0181 0.332614,0.0572 0.367508,0.0611 0.01294,0.001 0.02564,0.004 0.02822,0.006 0.0034,0.002 4.86e-4,0.0114 -0.01059,0.0337 -0.0084,0.0169 -0.01937,0.0414 -0.02437,0.0543 -0.005,0.0129 -0.01012,0.0246 -0.0114,0.026 -0.0013,0.001 -0.100265,-0.0416 -0.219974,-0.0955 z"
   id="path19525" /><path
   style="fill:#d5a000;fill-opacity:1;stroke-width:0.00390625"
   d="m 11.423828,137.13833 c -0.01826,-0.003 -0.07275,-0.0117 -0.121094,-0.0194 -0.167626,-0.0267 -0.343738,-0.0603 -0.368707,-0.0703 -0.02361,-0.009 -0.02419,-0.01 -0.02272,-0.0227 l 0.0015,-0.013 0.04359,0.0133 c 0.105272,0.0322 0.21597,0.0552 0.399056,0.083 0.133795,0.0203 0.124171,0.0181 0.119089,0.0276 -0.0047,0.009 -0.0058,0.009 -0.05073,0.002 z"
   id="path19527" /><path
   style="fill:#f90000;fill-opacity:1;stroke-width:0.0220971"
   d="m 213.31469,129.11645 c 2.5e-4,-0.0564 0.0149,-0.74895 0.0326,-1.53892 0.0177,-0.78997 0.0322,-1.73959 0.0323,-2.11027 3.9e-4,-2.09171 -0.17928,-3.66945 -0.58719,-5.15631 -0.0428,-0.15614 -0.0727,-0.28904 -0.0664,-0.29534 0.006,-0.006 0.0433,-3.5e-4 0.0821,0.0132 0.0389,0.0136 0.0934,0.0247 0.1211,0.0247 0.0604,0 0.053,-0.0315 0.20781,0.88721 0.21146,1.2549 0.4379,2.93647 0.59693,4.43292 0.0727,0.68451 0.077,0.75657 0.0443,0.75657 -0.0122,0 -0.042,0.0199 -0.0663,0.0442 -0.0407,0.0407 -0.0442,0.074 -0.0446,0.42537 -9.9e-4,0.86912 -0.0908,2.50015 -0.14038,2.54927 -0.0137,0.0136 -0.0672,0.0349 -0.11882,0.0474 l -0.0939,0.0227 4.6e-4,-0.10261 z"
   id="path19736" /><path
   style="fill:#f90000;fill-opacity:1;stroke-width:0.0220971"
   d="m 212.77079,133.28963 c 0.20733,-1.0833 0.38588,-2.11287 0.49243,-2.83948 0.0496,-0.33804 0.0616,-0.49818 0.0618,-0.82189 l 2.5e-4,-0.40204 0.0966,-0.0243 c 0.0531,-0.0134 0.10221,-0.0187 0.10907,-0.0118 0.0148,0.0148 -0.0852,0.95898 -0.16273,1.53632 -0.17593,1.30961 -0.36251,2.1738 -0.54161,2.50858 -0.0614,0.11476 -0.0687,0.12191 -0.0558,0.0547 z"
   id="path19876" /><path
   style="fill:#f90000;fill-opacity:1;stroke-width:0.0078125"
   d="m 213.95312,126.17479 c -0.0301,-0.0106 -0.0723,-0.024 -0.0937,-0.0296 l -0.0391,-0.0102 -0.0212,-0.21395 c -0.11577,-1.16941 -0.25032,-2.28563 -0.41285,-3.4249 -0.0512,-0.35919 -0.14703,-0.99357 -0.1625,-1.07617 -0.006,-0.0327 -0.005,-0.0371 0.007,-0.0371 0.0116,0 0.016,0.0187 0.0309,0.13086 0.20935,1.58094 0.51325,3.54169 0.66566,4.29492 0.0296,0.1462 0.0762,0.3421 0.0888,0.37305 0.007,0.0171 0.004,0.0168 -0.0625,-0.007 z"
   id="path19878" /><path
   style="fill:#f90000;fill-opacity:1;stroke-width:0.0078125"
   d="m 213.21165,121.3418 c -0.01,-0.0774 -0.13059,-0.7911 -0.17548,-1.03711 -0.03,-0.16451 -0.0422,-0.24769 -0.0366,-0.2509 0.005,-0.003 0.0267,-0.007 0.0493,-0.009 0.0311,-0.003 0.041,-0.002 0.041,0.006 0,0.0676 0.13676,1.24707 0.15249,1.31512 0.003,0.0135 6e-4,0.0176 -0.0107,0.0176 -0.0119,0 -0.0158,-0.008 -0.02,-0.041 z"
   id="path19880" /><path
   style="fill:#f90000;fill-opacity:1;stroke-width:0.015625"
   d="m 209.80469,142.46076 c 0,-0.004 0.0518,-0.094 0.11517,-0.19922 0.20451,-0.33956 0.40188,-0.76213 0.65594,-1.40437 0.65241,-1.64921 1.53966,-4.56562 1.93877,-6.3728 0.0465,-0.21054 0.095,-0.42851 0.10783,-0.48437 l 0.0233,-0.10156 0.001,0.11944 c 0.008,0.69101 -0.49372,2.69331 -1.217,4.85712 -0.57319,1.71477 -0.94673,2.5749 -1.45726,3.35547 -0.1431,0.2188 -0.16811,0.25306 -0.16811,0.23029 z"
   id="path19882" /></svg>
