<?xml version="1.0" encoding="UTF-8" standalone="no"?>
<!-- Created with Inkscape (http://www.inkscape.org/) -->

<svg
   width="400"
   height="400"
   viewBox="0 0 105.83333 105.83333"
   version="1.1"
   id="svg5"
   inkscape:version="1.2.1 (ef4d3fba62, 2022-07-19, custom)"
   sodipodi:docname="adding_obejct_description.svg"
   xmlns:inkscape="http://www.inkscape.org/namespaces/inkscape"
   xmlns:sodipodi="http://sodipodi.sourceforge.net/DTD/sodipodi-0.dtd"
   xmlns="http://www.w3.org/2000/svg"
   xmlns:svg="http://www.w3.org/2000/svg">
  <sodipodi:namedview
     id="namedview7"
     pagecolor="#ffffff"
     bordercolor="#000000"
     borderopacity="0.25"
     inkscape:showpageshadow="2"
     inkscape:pageopacity="0.0"
     inkscape:pagecheckerboard="0"
     inkscape:deskcolor="#d1d1d1"
     inkscape:document-units="mm"
     showgrid="false"
     inkscape:zoom="2.7010662"
     inkscape:cx="154.56859"
     inkscape:cy="154.75371"
     inkscape:window-width="1920"
     inkscape:window-height="1013"
     inkscape:window-x="0"
     inkscape:window-y="30"
     inkscape:window-maximized="1"
     inkscape:current-layer="g5587">
    <inkscape:grid
       type="xygrid"
       id="grid16308" />
  </sodipodi:namedview>
  <defs
     id="defs2">
    <rect
       x="113.60322"
       y="138.54252"
       width="382.61924"
       height="65.598303"
       id="rect16368" />
    <rect
       x="90.754528"
       y="5.4136386"
       width="378.53271"
       height="121.69748"
       id="rect16312" />
    <rect
       x="21.577489"
       y="147.3987"
       width="92.264681"
       height="56.866672"
       id="rect16304" />
    <rect
       x="88.96814"
       y="579.82098"
       width="729.93402"
       height="359.85107"
       id="rect7269" />
    <rect
       x="96.732407"
       y="101.09867"
       width="44.751904"
       height="30.553066"
       id="rect7571" />
  </defs>
  <g
     inkscape:label="Layer 1"
     inkscape:groupmode="layer"
     id="layer1">
    <g
       id="g3245"
       transform="matrix(0.26458333,0,0,0.26458333,-28.362631,0.08703278)">
      <path
         d="m 151.07667,24.882853 c -0.10034,-0.085 -0.18734,-0.16925 -0.30534,-0.24975 -1.31233,-0.88375 -1.34766,-0.62275 0.0887,-1.61575 1.064,-0.73225 2.35433,-1.3055 3.52467,-1.93875 3.09533,-1.67775 5.13266,-3.92475 6.50966,-6.589 C 163.984,8.5078532 154.87967,4.3753532 150.31067,0.83560317 147.00933,-1.7261468 141.812,2.1811032 145.10933,4.7366032 c 2.54767,1.978 5.82967,3.582 8.04667,5.7807498 2.48433,2.462 -1.30033,5.178 -3.89333,6.5485 -4.00867,2.11825 -7.47434,4.93175 -6.67334,7.9485 -17.99033,1.2605 -34.62333,8.65575 -34.62333,21.69175 v 36.5935 c 0,16.166 17.53433,29.317497 39.09,29.317497 21.55433,0 39.09,-13.151247 39.09,-29.317497 v -36.59575 c 0.001,-14.23225 -17.65433,-21.125 -35.06933,-21.821 z m -35.75134,21.821 c 0,-9.67675 14.00567,-15.27925 28.51167,-16.21025 v 33.75125 c -13.23233,-0.4995 -23.976,-2.7605 -28.51167,-3.86425 z m 63.463,36.59425 c 0,13.125 -14.235,23.799747 -31.73066,23.799747 -17.496,0 -31.732,-10.674747 -31.732,-23.799747 v -17.116 c 6.571,1.4895 18.939,3.74875 33.55866,3.74875 9.36267,0 19.64334,-0.93975 29.90434,-3.588 v 16.95525 z m 0,-22.8245 c -9.30533,2.66875 -18.808,3.71225 -27.59333,3.85375 v -33.915 c 14.18967,0.63825 27.59333,5.74225 27.59333,16.29375 z M 140.668,33.356853 v 27.99325 c -5.71767,0.75675 -22.52767,-2.7735 -22.52767,-2.7735 -2.48,-19.624 7.31334,-23.07575 22.52767,-25.21975 z"
         id="path3243"
         style="stroke-width:0.288675" />
      <path
         id="path5203"
         style="fill:#ff0000;stroke-width:0.370224"
         sodipodi:type="inkscape:offset"
         inkscape:radius="0.68235588"
         inkscape:original="M 98.486328 134.02148 C 97.974371 134.02148 88.642566 136.06801 84.78125 137.02734 C 58.491373 143.55895 44.348179 154.05907 36.707031 172.7207 C 33.897881 179.58136 32.128403 187.166 31.074219 196.87109 C 30.35372 203.50421 30.317253 220.72036 31.005859 228.98438 L 31.46875 234.53711 L 41.279297 237.01172 C 56.835848 240.9349 72.140354 243.99106 82.535156 245.25195 C 86.775278 245.76628 97.050425 245.99863 98.080078 245.60352 C 98.610485 245.39998 98.664062 240.13172 98.664062 189.70117 C 98.664062 159.07765 98.584898 134.02148 98.486328 134.02148 z "
         d="m 98.486328,133.33984 c -0.145651,0 -0.192602,0.0143 -0.300781,0.0312 -0.108179,0.0169 -0.240748,0.0387 -0.400391,0.0684 -0.319286,0.0592 -0.743948,0.14412 -1.25,0.24805 -1.012103,0.20786 -2.349142,0.49432 -3.791015,0.81055 -2.883747,0.63245 -6.181654,1.38388 -8.126953,1.86718 -26.400377,6.55907 -40.821998,17.24585 -48.541016,36.09766 -2.8379,6.93087 -4.620773,14.58534 -5.679688,24.33399 -0.733919,6.75667 -0.765596,23.89998 -0.07031,32.24414 l 0.46289,5.55273 a 0.68242412,0.68242412 0 0 0 0.513672,0.60547 l 9.810547,2.47461 c 15.57797,3.92858 30.893677,6.98874 41.339844,8.25586 2.173278,0.26362 5.800728,0.44816 9.042969,0.52148 1.62112,0.0367 3.141721,0.0456 4.332031,0.0195 0.595155,-0.013 1.106768,-0.0362 1.515625,-0.0684 0.408857,-0.0321 0.664118,-0.0407 0.980469,-0.16211 0.262062,-0.10056 0.396644,-0.30368 0.466797,-0.45117 0.07015,-0.14748 0.10245,-0.28122 0.134765,-0.44336 0.06463,-0.32426 0.109741,-0.76054 0.150391,-1.42968 0.0813,-1.33829 0.137846,-3.5948 0.177734,-7.42188 0.07978,-7.65416 0.0918,-21.57745 0.0918,-46.79297 0,-15.31235 -0.01866,-29.23308 -0.05078,-39.32617 -0.01606,-5.04654 -0.03534,-9.13546 -0.05664,-11.96484 -0.01065,-1.41469 -0.02155,-2.51512 -0.0332,-3.26368 -0.0058,-0.37427 -0.01136,-0.65926 -0.01758,-0.85742 -0.0031,-0.0991 -0.0078,-0.17569 -0.01172,-0.23828 -0.002,-0.0313 -0.0028,-0.0556 -0.0078,-0.0957 -0.0025,-0.0201 -0.0037,-0.0404 -0.01758,-0.0957 -0.007,-0.0276 -0.05235,-0.14377 -0.05273,-0.14454 -3.84e-4,-7.6e-4 -0.610943,-0.375 -0.611328,-0.375 z"
         transform="matrix(0.33333333,0,0,0.25,107.70978,-0.08263253)" />
      <g
         id="g5587"
         transform="translate(168.26606,660.65925)">
        <text
           xml:space="preserve"
           transform="translate(-61.068713,-660.98819)"
           id="text7267"
           style="font-size:24px;white-space:pre;shape-inside:url(#rect7269);display:inline;fill:#ff0000" />
        <path
           d="m -33.124773,-510.31089 h 25.9733408 c 2.0500002,0 3.9166602,0.84334 5.2733302,2.2 1.37,1.37 2.22332995,3.26667 2.22332995,5.35333 v 20.65334 c 0,2.08666 -0.84998995,3.97999 -2.22332995,5.35333 -1.35667,1.35667 -3.22333,2.2 -5.2733302,2.2 H -33.124773 c -2.05,0 -3.91667,-0.84333 -5.27334,-2.2 -1.37,-1.37334 -2.22,-3.26667 -2.22,-5.35333 v -20.65667 c 0,-2.08667 0.85,-3.98333 2.22,-5.35333 1.35667,-1.35333 3.22334,-2.19667 5.27334,-2.19667 z m -5.98,25.40666 c 0.26332,1.06001 0.78,2.00667 1.48,2.76334 1.03,1.11 2.45,1.8 4.01666,1.8 h 26.9433408 c 0.0633,0 0.1266602,0 0.1900002,-0.003 l 0.38334,-0.0268 c 1.33666,-0.14668 2.53999,-0.79667 3.44333,-1.77 0.7,-0.75333 1.21666,-1.7 1.48,-2.76 v -17.85989 c 0,-1.61667 -0.66667,-3.09333 -1.73667,-4.16333 -1.08666,-1.08667 -2.58666,-1.76 -4.2433302,-1.76 H -33.124773 c -1.65667,0 -3.16,0.67333 -4.24334,1.76 -1.07333,1.07333 -1.73666,2.54666 -1.73666,4.16333 z"
           id="path18-5-0"
           sodipodi:nodetypes="sssssssscsscsccssccccsssscsc"
           style="stroke-width:0.333333" />
        <text
           xml:space="preserve"
           transform="translate(-51.023661,-656.18073)"
           id="text16302"
           style="font-size:24px;white-space:pre;shape-inside:url(#rect16304);display:inline;fill:#000000"><tspan
             x="21.578125"
             y="168.63281"
             id="tspan2008">Q</tspan></text>
        <text
           xml:space="preserve"
           transform="translate(-32.180187,-611.54978)"
           id="text16310"
           style="font-size:24px;white-space:pre;shape-inside:url(#rect16312);display:inline;fill:#000000"><tspan
             x="90.753906"
             y="26.648438"
             id="tspan2010">- add object</tspan></text>
        <text
           xml:space="preserve"
           transform="translate(-56.149083,-645.44133)"
           id="text16366"
           style="font-size:24px;white-space:pre;shape-inside:url(#rect16368);display:inline;fill:#000000"><tspan
             x="113.60352"
             y="159.77734"
             id="tspan2012">- change adding object </tspan></text>
        <path
           style="fill:#ffffff;stroke-width:0.370224"
           d="m 24.727398,179.57187 c -0.653563,-0.3985 -1.528217,-1.39085 -1.943677,-2.20522 -0.700977,-1.37402 -0.754797,-2.14168 -0.747252,-10.65846 0.0091,-10.30816 0.225488,-11.38481 2.632854,-13.10178 l 1.246369,-0.88894 14.513839,-0.10482 c 16.207189,-0.11705 16.229129,-0.1142 18.109642,2.34976 l 1.06692,1.39794 0.105976,9.84063 c 0.118498,11.00321 0.01707,11.5387 -2.512246,13.26519 -1.216254,0.8302 -1.270935,0.833 -16.252245,0.83162 -14.268923,-0.001 -15.092199,-0.0382 -16.22018,-0.72592 z m 22.846409,-3.15898 c 0,-0.10123 -0.582883,-0.82923 -1.295296,-1.61779 l -1.295296,-1.43373 1.630973,-1.63098 c 4.014022,-4.01402 3.568873,-11.83016 -0.850705,-14.93706 -1.454469,-1.02248 -1.838127,-1.11406 -4.666828,-1.11406 -2.828308,0 -3.212706,0.0917 -4.668599,1.11406 -2.008455,1.41034 -3.294111,3.86241 -3.559466,6.78879 -0.514405,5.67296 2.337434,9.71931 7.261074,10.30245 1.443805,0.17099 2.099726,0.48623 3.048499,1.46512 1.003862,1.03572 1.479103,1.24724 2.802261,1.24724 0.87636,0 1.593383,-0.0828 1.593383,-0.18404 z"
           id="path962"
           transform="translate(-61.068713,-660.98819)" />
        <path
           style="fill:#ffffff;stroke-width:0.370224"
           d="m 39.225408,171.28091 c -2.634686,-1.18878 -3.847301,-4.089 -3.375445,-8.07309 0.279638,-2.3611 1.386235,-4.1352 3.080963,-4.9394 2.909221,-1.38052 6.223177,0.35157 7.174661,3.74993 0.571387,2.0408 0.267132,5.33189 -0.635393,6.87298 -1.385509,2.36579 -4.043414,3.38285 -6.244786,2.38958 z"
           id="path1721"
           transform="translate(-61.068713,-660.98819)" />
        <path
           style="fill:#b3b3b3;stroke-width:0.370224"
           d="m 24.727398,179.57187 c -0.653563,-0.3985 -1.528217,-1.39085 -1.943677,-2.20522 -0.700319,-1.37273 -0.755382,-2.15071 -0.755382,-10.67257 0,-8.80251 0.03529,-9.26097 0.833004,-10.82214 1.672265,-3.27269 0.961698,-3.14037 17.502295,-3.25929 16.279755,-0.11704 16.294316,-0.11516 18.175535,2.3498 l 1.06692,1.39799 0.101126,9.84058 c 0.113263,11.02182 0.0047,11.60473 -2.469777,13.25777 -1.256361,0.8393 -1.277309,0.84038 -16.289864,0.839 -14.268923,-0.001 -15.092199,-0.0382 -16.22018,-0.72592 z m 22.846409,-3.15898 c 0,-0.10123 -0.593993,-0.84153 -1.319984,-1.64511 l -1.319984,-1.46107 1.483465,-1.34022 c 1.982007,-1.79062 2.82611,-4.07049 2.809007,-7.58695 -0.01149,-2.36176 -0.1767,-3.075 -1.10561,-4.77301 -0.656406,-1.19988 -1.674148,-2.3815 -2.551028,-2.96179 -1.275752,-0.84426 -1.841788,-0.96547 -4.508416,-0.96547 -2.792396,0 -3.183134,0.0939 -4.634609,1.11406 -2.007004,1.41057 -3.292844,3.86396 -3.558058,6.78879 -0.514405,5.67296 2.337434,9.71931 7.261074,10.30245 1.443805,0.17099 2.099726,0.48623 3.048499,1.46512 1.003862,1.03572 1.479103,1.24724 2.802261,1.24724 0.87636,0 1.593383,-0.0828 1.593383,-0.18404 z"
           id="path1969"
           transform="translate(-61.068713,-660.98819)" />
        <path
           style="fill:#b3b3b3;stroke-width:0.370224"
           d="m 39.225408,171.28091 c -2.634686,-1.18878 -3.847301,-4.089 -3.375445,-8.07309 0.279638,-2.3611 1.386235,-4.1352 3.080963,-4.9394 2.909221,-1.38052 6.223177,0.35157 7.174661,3.74993 0.571387,2.0408 0.267132,5.33189 -0.635393,6.87298 -1.385509,2.36579 -4.043414,3.38285 -6.244786,2.38958 z"
           id="path1971"
           transform="translate(-61.068713,-660.98819)" />
        <path
           style="fill:#b3b3b3;stroke-width:0.370224"
           d="m 167.97904,173.05881 c -0.83727,-0.58645 -1.09653,-2.12149 -0.51346,-3.04012 0.40126,-0.63217 2.48047,-1.19646 4.40855,-1.19646 1.77077,0 1.91506,0.32271 1.05967,2.36996 -0.93759,2.24398 -3.19944,3.09609 -4.95476,1.86662 z"
           id="path1973"
           transform="translate(-61.068713,-660.98819)" />
        <path
           style="fill:#b3b3b3;stroke-width:0.370224"
           d="m 198.13421,172.16311 c -3.15482,-3.74929 -0.11708,-9.89228 3.84359,-7.7726 2.41147,1.29058 2.41147,7.20263 0,8.49321 -1.36336,0.72964 -2.85927,0.44919 -3.84359,-0.72061 z"
           id="path1975"
           transform="translate(-61.068713,-660.98819)" />
        <path
           style="fill:#b3b3b3;stroke-width:0.370224"
           d="m 212.32357,166.75751 c 0,-0.32109 0.48698,-1.0708 1.08219,-1.66601 0.84609,-0.84608 1.41517,-1.08219 2.6084,-1.08219 1.71724,0 3.34367,1.25241 3.34367,2.57474 0,0.70975 -0.22077,0.75728 -3.51713,0.75728 -2.95578,0 -3.51713,-0.0932 -3.51713,-0.58382 z"
           id="path1977"
           transform="translate(-61.068713,-660.98819)" />
      </g>
    </g>
  </g>
</svg>
