<?xml version="1.0" encoding="UTF-8" standalone="no"?>
<!-- Created with Inkscape (http://www.inkscape.org/) -->

<svg
   width="400"
   height="400"
   viewBox="0 0 400 400"
   version="1.1"
   id="svg5"
   xml:space="preserve"
   inkscape:version="1.2.1 (9c6d41e410, 2022-07-14)"
   sodipodi:docname="alga.svg"
   xmlns:inkscape="http://www.inkscape.org/namespaces/inkscape"
   xmlns:sodipodi="http://sodipodi.sourceforge.net/DTD/sodipodi-0.dtd"
   xmlns="http://www.w3.org/2000/svg"
   xmlns:svg="http://www.w3.org/2000/svg"><sodipodi:namedview
     id="namedview7"
     pagecolor="#ffffff"
     bordercolor="#000000"
     borderopacity="0.25"
     inkscape:showpageshadow="2"
     inkscape:pageopacity="0.0"
     inkscape:pagecheckerboard="0"
     inkscape:deskcolor="#d1d1d1"
     inkscape:document-units="mm"
     showgrid="false"
     inkscape:zoom="1.9099422"
     inkscape:cx="195.29387"
     inkscape:cy="185.34592"
     inkscape:window-width="1920"
     inkscape:window-height="1057"
     inkscape:window-x="-8"
     inkscape:window-y="-8"
     inkscape:window-maximized="1"
     inkscape:current-layer="layer1"
     showguides="false" /><defs
     id="defs2"><inkscape:path-effect
       effect="bspline"
       id="path-effect7879"
       is_visible="true"
       lpeversion="1"
       weight="33.333333"
       steps="2"
       helper_size="0"
       apply_no_weight="true"
       apply_with_weight="true"
       only_selected="false" /><inkscape:path-effect
       effect="bspline"
       id="path-effect7875"
       is_visible="true"
       lpeversion="1"
       weight="33.333333"
       steps="2"
       helper_size="0"
       apply_no_weight="true"
       apply_with_weight="true"
       only_selected="false" /><inkscape:path-effect
       effect="bspline"
       id="path-effect7703"
       is_visible="true"
       lpeversion="1"
       weight="33.333333"
       steps="2"
       helper_size="0"
       apply_no_weight="true"
       apply_with_weight="true"
       only_selected="false" /><inkscape:path-effect
       effect="bspline"
       id="path-effect7549"
       is_visible="true"
       lpeversion="1"
       weight="33.333333"
       steps="2"
       helper_size="0"
       apply_no_weight="true"
       apply_with_weight="true"
       only_selected="false" /></defs><g
     inkscape:label="Layer 1"
     inkscape:groupmode="layer"
     id="layer1"><path
       style="fill:#77ff2c;fill-opacity:1;stroke-width:1.14224"
       d="m 285.10804,222.76266 c 5.26383,-6.53125 -7.80041,-16.47594 -13.30542,-28.08602 -5.50501,-11.61008 -3.44899,-24.88414 -5.29799,-34.87003 -1.84901,-9.98589 -7.60393,-16.68251 -17.62646,-20.67841 -10.02254,-3.99591 -24.31162,-5.28952 -35.71711,-8.74482 -11.40548,-3.4553 -19.92635,-9.07277 -25.66455,-13.88836 -5.73819,-4.8156 -8.69318,-8.82964 -11.92604,-13.8275 -3.23285,-4.997849 -6.74318,-10.979203 -9.87349,-8.203871 -3.13031,2.775332 -5.87927,14.307501 -4.88254,26.290261 0.99673,11.98276 5.73828,24.41412 12.2773,32.60909 6.53901,8.19496 14.87394,12.15328 23.48434,15.9931 8.6104,3.83982 17.49538,7.56082 23.68485,11.33164 6.18947,3.77082 9.68296,7.59035 10.84298,14.63595 1.16002,7.04561 -0.0124,17.31679 -0.14161,24.5561 -0.12926,7.23931 0.78416,11.44588 13.03749,11.98923 12.25334,0.54334 35.84442,-2.5751 41.10825,-9.10636 z"
       id="path7547"
       inkscape:path-effect="#path-effect7549"
       inkscape:original-d="m 303.43528,226.17547 c -13.06352,-9.94392 -26.12776,-19.8886 -39.19369,-29.83481 2.05724,-13.27391 4.11338,-26.54795 6.16834,-39.82404 -5.75427,-6.69593 -11.50919,-13.39255 -17.26553,-20.09074 -14.28887,-1.2925 -28.57795,-2.58612 -42.86896,-3.881 -8.52009,-5.61646 -17.04092,-11.23399 -25.56308,-16.85271 -2.95374,-4.01297 -5.90874,-8.02701 -8.86501,-12.04217 -3.50935,-5.980553 -7.01974,-11.961873 -10.53136,-17.944678 -2.74794,11.533987 -5.49693,23.066148 -8.2472,34.597818 4.74305,12.43328 9.4846,24.86464 14.22526,37.29566 8.33646,3.95966 16.67142,7.91791 25.00557,11.87533 8.88664,3.72232 17.77159,7.44339 26.65592,11.16342 3.49489,3.82098 6.98837,7.64052 10.48093,11.45906 -1.17148,10.27281 -2.34361,20.54402 -3.5172,30.81428 0.91475,4.208 1.82807,8.41459 2.74036,12.62024 23.59365,-3.1176 47.18473,-6.23607 70.77565,-9.35566 z"
       sodipodi:nodetypes="cccccccccccccccc" /><path
       style="fill:#06d400;fill-opacity:1;stroke-width:1.14224"
       d="m 181.41132,284.30838 c -0.16922,-1.98433 -0.50777,-5.95413 2.23408,-8.12166 2.74184,-2.16752 8.56294,-2.53148 13.88298,-4.65082 5.32004,-2.11934 10.13982,-5.994 12.51696,-9.94962 2.37713,-3.95562 2.31196,-7.99347 1.04206,-12.80539 -1.2699,-4.81193 -3.74506,-10.3979 -4.76173,-16.76124 -1.01667,-6.36333 -0.57402,-13.50315 1.79038,-18.61865 2.3644,-5.11549 6.65011,-8.20518 13.27855,-10.19851 6.62843,-1.99334 15.59833,-2.8903 25.60603,-5.60845 10.0077,-2.71815 21.05291,-7.25715 28.26308,-14.97505 7.21016,-7.71789 10.58589,-18.61511 10.43032,-28.15004 -0.15557,-9.53492 -3.84321,-17.70748 -13.10932,-31.6114 -9.26611,-13.90392 -24.11033,-33.538041 -27.26461,-37.445134 -3.15428,-3.907092 5.38142,7.912824 9.99698,18.489064 4.61555,10.57623 5.31165,19.90837 3.8051,28.46733 -1.50656,8.55897 -5.21508,16.3448 -12.33913,21.78099 -7.12405,5.4362 -17.66378,8.52286 -28.19198,10.01584 -10.52819,1.49297 -21.04441,1.39196 -29.03807,5.26968 -7.99366,3.87772 -13.46272,11.7335 -16.9643,20.95154 -3.50159,9.21803 -5.0355,19.797 -5.25192,29.41209 -0.21643,9.61509 0.88433,18.26548 0.16029,26.69538 -0.72404,8.42991 -3.27233,16.63937 -5.44588,21.75335 -2.17355,5.11397 -3.97238,7.13287 -0.65431,9.62482 3.31807,2.49196 11.75166,5.45643 15.96771,6.93841 4.21606,1.48198 4.21595,1.48181 4.04673,-0.50253 z"
       id="path7701"
       inkscape:path-effect="#path-effect7703"
       inkscape:original-d="m 181.58054,286.29272 c -0.33764,-3.96874 -0.67592,-7.93856 -1.01563,-11.90949 5.82243,-0.36247 11.64351,-0.72672 17.4636,-1.09189 4.82089,-3.87356 9.64067,-7.74823 14.45911,-11.62382 -0.0642,-4.03688 -0.12884,-8.07473 -0.19551,-12.11383 -2.47407,-5.58497 -4.94928,-11.17092 -7.4257,-16.75843 0.44385,-7.13886 0.88658,-14.27868 1.32797,-21.41981 4.287,-3.08865 8.57276,-6.17827 12.85734,-9.2692 8.97143,-0.89589 17.94132,-1.79292 26.91041,-2.69095 11.04677,-4.53803 22.09199,-9.07701 33.13608,-13.61719 3.37711,-10.89656 6.75282,-21.79379 10.12744,-32.69252 -3.68674,-8.17176 -7.37431,-16.34435 -11.06323,-24.51836 -14.84367,-19.63372 -29.68784,-39.26787 -44.53356,-58.903572 8.53714,11.821538 17.07286,23.64144 25.60755,35.460372 0.69734,9.3336 1.39333,18.66574 2.08833,27.99667 -3.70786,7.78768 -7.41634,15.57353 -11.12613,23.35866 -10.5392,3.08805 -21.07895,6.17465 -31.62002,9.26025 -10.51572,-0.0999 -21.03194,-0.20111 -31.54973,-0.30303 -5.46824,7.85735 -10.93732,15.71312 -16.40765,23.56805 -1.53289,10.58044 -3.06673,21.15942 -4.60181,31.73745 1.10191,8.65184 2.20265,17.30223 3.3023,25.95146 -2.54725,8.21114 -5.09561,16.42058 -7.64508,24.62906 -1.79777,2.02013 -3.59658,4.03904 -5.39668,6.05688 8.4348,2.96558 16.86836,5.93013 25.30071,8.89341 z" /><path
       style="fill:#00bd0e;fill-opacity:1;stroke-width:1.14224"
       d="m 88.250796,198.45864 c 0.700163,-0.0488 2.099524,-0.14629 7.62916,-0.51407 5.529634,-0.36778 15.189184,-1.00582 24.035334,-5.53398 8.84615,-4.52816 16.87963,-12.94634 23.96682,-18.78595 7.0872,-5.83961 13.22737,-9.10024 19.90302,-9.8333 6.67566,-0.73307 13.88565,1.06093 21.45465,3.79885 7.569,2.73791 15.49684,6.41938 24.11817,7.4573 8.62133,1.03791 17.93635,-0.56696 24.71794,-1.08862 6.78159,-0.52167 11.02923,0.0395 15.67835,6.17368 4.64913,6.13416 9.70016,17.83945 14.54558,27.01182 4.84543,9.17236 9.48468,15.81141 13.84865,20.9797 4.36397,5.1683 8.452,8.86571 11.88666,15.79254 3.43467,6.92683 6.2165,17.08231 4.20945,28.22028 -2.00704,11.13796 -8.80183,23.2587 -10.77453,24.82527 -1.97271,1.56656 0.87684,-7.42155 0.74119,-14.50282 -0.13565,-7.08126 -3.25756,-12.25595 -8.86117,-16.68532 -5.6036,-4.42937 -13.68903,-8.11241 -18.23499,-13.17029 -4.54596,-5.05789 -5.55103,-11.4909 -8.4071,-16.66619 -2.85608,-5.17528 -7.56381,-9.09214 -15.31105,-9.9235 -7.74724,-0.83136 -18.5329,1.42417 -25.9193,-0.95467 -7.38641,-2.37885 -11.37301,-9.39333 -16.0572,-14.84443 -4.68418,-5.4511 -10.06609,-9.33803 -15.16831,-7.98935 -5.10221,1.34869 -9.92277,7.93349 -14.30882,12.65029 -4.38605,4.71679 -8.33762,7.56559 -15.99829,9.27431 -7.66067,1.70871 -19.03075,2.27709 -27.9551,2.41182 -8.92434,0.13474 -15.40254,-0.16423 -19.1998,0.50767 -3.797261,0.67191 -4.91181,2.31432 -6.337797,-2.28379 -1.425987,-4.59812 -3.163702,-15.43744 -4.032691,-20.85791 -0.868988,-5.42048 -0.868988,-5.42056 -0.168826,-5.46934 z"
       id="path7873"
       inkscape:path-effect="#path-effect7875"
       inkscape:original-d="m 87.550634,198.50742 c 1.400441,-0.0959 2.799782,-0.19369 4.197985,-0.29249 9.661051,-0.63696 19.320601,-1.27501 28.979191,-1.91416 8.03479,-8.41723 16.06831,-16.83537 24.10062,-25.25474 6.14163,-3.25958 12.28178,-6.52026 18.42095,-9.78211 7.21122,1.7951 14.42121,3.58912 21.63006,5.38202 7.92912,3.68264 15.85693,7.36417 23.78375,11.04451 9.31632,-1.60373 18.63133,-3.20862 27.94518,-4.81462 4.24898,0.56237 8.49662,1.12354 12.74309,1.68356 5.05246,11.70708 10.10345,23.41239 15.1535,35.11682 4.64049,6.64038 9.27976,13.27942 13.91792,19.91736 4.0895,3.69886 8.17747,7.39634 12.26464,11.09274 2.78299,10.15694 5.56483,20.31241 8.34551,30.46654 -6.79411,12.12278 -13.58891,24.24351 -20.3851,36.36355 2.85087,-8.98722 5.70044,-17.97532 8.54882,-26.9649 -3.12083,-5.17362 -6.24271,-10.34833 -9.36589,-15.52429 -8.08465,-3.68199 -16.1701,-7.36499 -24.25682,-11.04935 -1.00394,-6.43217 -2.00897,-12.86519 -3.01528,-19.29946 -4.70697,-3.91601 -9.41467,-7.83291 -14.12387,-11.75115 -10.78492,2.25675 -21.57059,4.51225 -32.35765,6.76673 -3.98564,-7.01367 -7.97221,-14.02818 -11.96008,-21.04393 -5.38113,-3.8859 -10.763,-7.77289 -16.14626,-11.66117 -4.8197,6.58634 -9.64031,13.17111 -14.46208,19.75498 -3.95063,2.85011 -7.90223,5.69888 -11.85512,8.54671 -11.3693,0.56959 -22.73938,1.13796 -34.11061,1.70513 -6.47758,-0.29771 -12.95577,-0.59684 -19.43539,-0.89697 -1.113464,1.6438 -2.22808,3.28617 -3.343801,4.92747 -1.736706,-10.83857 -3.474407,-21.67789 -5.213265,-32.5187 z" /><path
       style="fill:#3fe900;fill-opacity:1;stroke-width:1.14224"
       d="m 256.08555,146.63164 c -0.22446,0.26985 -0.67423,0.81055 -2.10123,2.68581 -1.427,1.87525 -3.83105,5.0849 -4.16731,9.81511 -0.33625,4.73022 1.39603,10.9795 -1.27123,17.17626 -2.66726,6.19676 -9.73478,12.34155 -13.84869,19.73062 -4.11391,7.38907 -5.27295,16.02147 -4.55895,23.935 0.714,7.91352 3.301,15.10711 2.79793,22.28335 -0.50307,7.17624 -4.09652,14.33586 -10.44156,17.01568 -6.34504,2.67982 -15.44231,0.87859 -22.21944,0.62838 -6.77714,-0.25021 -11.23396,1.05129 -13.74966,3.75637 -2.51571,2.70507 -3.08882,6.81363 -6.11956,11.10043 -3.03075,4.28681 -8.52009,8.75199 -14.7148,9.83031 -6.1947,1.07832 -13.09468,-1.23125 -22.27767,-5.56529 -9.18299,-4.33403 -20.64816,-10.69241 -30.98568,-11.59023 -10.33751,-0.89783 -19.54715,3.66611 -20.702078,3.76032 -1.154927,0.0942 5.744724,-4.281 11.775118,-8.53235 6.03039,-4.25136 11.19131,-8.37855 18.20992,-10.76036 7.0186,-2.38181 15.89414,-3.01896 23.1228,-6.3923 7.22867,-3.37335 12.81084,-9.4818 15.79367,-16.8693 2.98283,-7.38749 3.36707,-16.05393 7.19777,-23.06372 3.8307,-7.00979 11.10656,-12.36203 17.37418,-16.80404 6.26762,-4.44202 11.52664,-7.97367 15.84788,-17.21189 4.32124,-9.23823 7.70551,-24.18266 16.76062,-29.33295 9.05511,-5.15029 23.77938,-0.50748 31.14103,1.81377 7.36164,2.32125 7.36141,2.32117 7.13694,2.59102 z"
       id="path7877"
       inkscape:path-effect="#path-effect7879"
       inkscape:original-d="m 256.31002,146.36179 c -0.44817,0.54033 -0.89814,1.08087 -1.34925,1.62205 -2.40279,3.20935 -4.80668,6.41913 -7.21239,9.62929 1.73384,6.24924 3.46606,12.49854 5.19695,18.74827 -7.0663,6.14476 -14.13379,12.28959 -21.20313,18.43489 -1.15754,8.63242 -2.31665,17.26481 -3.47719,25.89771 2.5887,7.1934 5.17567,14.387 7.76111,21.5811 -3.59201,7.15949 -7.18556,14.31906 -10.78055,21.4792 -9.09598,-1.80162 -18.19325,-3.60285 -27.29216,-5.40378 -4.45546,1.30118 -8.91227,2.60272 -13.37065,3.90458 -0.57161,4.10839 -1.14464,8.21696 -1.71939,12.32606 -5.48781,4.46486 -10.97708,8.93013 -16.46789,13.39541 -6.89886,-2.3101 -13.79883,-4.6197 -20.70061,-6.92894 -11.46396,-6.35892 -22.92913,-12.71731 -34.39607,-19.07544 -9.20847,4.56371 -18.41811,9.12764 -27.629463,13.69207 6.901605,-4.3759 13.801368,-8.75093 20.699663,-13.12607 5.16252,-4.12765 10.3235,-8.25477 15.48293,-12.38167 8.87731,-0.63753 17.75285,-1.27469 26.62693,-1.91147 5.58389,-6.10908 11.16608,-12.21751 16.74681,-18.32567 0.38573,-8.66736 0.76999,-17.3338 1.15277,-26.00025 7.27755,-5.35267 14.55339,-10.70493 21.8277,-16.05679 5.26092,-3.53213 10.51991,-7.06383 15.77754,-10.59524 3.386,-14.94519 6.77016,-29.88965 10.15295,-44.83391 14.72627,4.64272 29.45055,9.28549 44.17362,13.92868 z" /></g></svg>
