<?xml version="1.0" encoding="UTF-8" standalone="no"?>
<!-- Created with Inkscape (http://www.inkscape.org/) -->

<svg
   width="400"
   height="400"
   viewBox="0 0 400 400"
   version="1.1"
   id="svg245"
   inkscape:version="1.2.1 (9c6d41e410, 2022-07-14)"
   sodipodi:docname="panel_8.svg"
   xmlns:inkscape="http://www.inkscape.org/namespaces/inkscape"
   xmlns:sodipodi="http://sodipodi.sourceforge.net/DTD/sodipodi-0.dtd"
   xmlns="http://www.w3.org/2000/svg"
   xmlns:svg="http://www.w3.org/2000/svg">
  <sodipodi:namedview
     id="namedview247"
     pagecolor="#ffffff"
     bordercolor="#000000"
     borderopacity="0.25"
     inkscape:showpageshadow="2"
     inkscape:pageopacity="0.0"
     inkscape:pagecheckerboard="0"
     inkscape:deskcolor="#d1d1d1"
     inkscape:document-units="mm"
     showgrid="true"
     showguides="true"
     inkscape:zoom="1"
     inkscape:cx="523"
     inkscape:cy="180"
     inkscape:window-width="1920"
     inkscape:window-height="1057"
     inkscape:window-x="-8"
     inkscape:window-y="-8"
     inkscape:window-maximized="1"
     inkscape:current-layer="g5336-3-9">
    <inkscape:grid
       type="xygrid"
       id="grid5734" />
  </sodipodi:namedview>
  <defs
     id="defs242">
    <rect
       x="37.673115"
       y="300.82718"
       width="519.7478"
       height="156.07967"
       id="rect15636" />
    <rect
       x="11.725006"
       y="5.7106094"
       width="383.30051"
       height="133.12263"
       id="rect14827" />
    <rect
       x="150.58582"
       y="286.23993"
       width="269.31998"
       height="51.147526"
       id="rect10094" />
    <rect
       x="146.91278"
       y="220.82794"
       width="253.03246"
       height="52.864635"
       id="rect10088" />
    <rect
       x="119.61593"
       y="143.59242"
       width="358.31808"
       height="93.784172"
       id="rect10044" />
    <rect
       x="125.379"
       y="150.04909"
       width="238.48666"
       height="99.030579"
       id="rect9308" />
    <rect
       x="136.04677"
       y="151.3"
       width="189.66252"
       height="64.74527"
       id="rect9298" />
    <rect
       x="147.42842"
       y="89.506668"
       width="208.50514"
       height="82.360306"
       id="rect9292" />
    <rect
       x="152.72823"
       y="-0.3649292"
       width="240.35428"
       height="68.772247"
       id="rect9286" />
    <rect
       x="49.135773"
       y="233.50832"
       width="72.418564"
       height="41.848328"
       id="rect8527" />
    <rect
       x="79.734314"
       y="176.16318"
       width="46.218735"
       height="27.229473"
       id="rect8472" />
    <rect
       x="22.420013"
       y="168.74503"
       width="59.22699"
       height="41.811867"
       id="rect8466" />
    <rect
       x="155.82005"
       y="6.6155095"
       width="240.15587"
       height="76.92717"
       id="rect7637" />
    <rect
       x="39.414856"
       y="108.73807"
       width="55.382339"
       height="40.263206"
       id="rect7631" />
    <rect
       x="96.732407"
       y="101.09867"
       width="44.751904"
       height="30.553066"
       id="rect7571" />
    <rect
       x="38.933758"
       y="86.707581"
       width="111.35917"
       height="74.841957"
       id="rect7452" />
    <rect
       x="96.732407"
       y="101.09867"
       width="44.751904"
       height="30.553066"
       id="rect7571-6" />
    <rect
       x="96.732407"
       y="101.09867"
       width="44.751904"
       height="30.553066"
       id="rect7571-2" />
    <rect
       x="39.414856"
       y="108.73807"
       width="55.382339"
       height="40.263206"
       id="rect7631-6" />
    <rect
       x="22.420013"
       y="168.74503"
       width="59.22699"
       height="41.811867"
       id="rect8466-2" />
    <rect
       x="49.135773"
       y="233.50832"
       width="72.418564"
       height="41.848328"
       id="rect8527-3" />
    <rect
       x="22.420013"
       y="168.74503"
       width="59.22699"
       height="41.811867"
       id="rect8466-3" />
  </defs>
  <g
     inkscape:label="Layer 1"
     inkscape:groupmode="layer"
     id="layer1">
    <g
       id="g5336-3-9"
       transform="matrix(-0.01102431,0,0,-0.00881944,33.261076,28.145267)">
      <path
         d="m -19079.365,3174.0707 h -7053.269 c -556.694,0 -1063.601,-286.2675 -1432.016,-746.7847 -372.034,-465.0433 -603.763,-1108.8611 -603.763,-1817.17514 V -6400.6186 c 0,-708.3141 230.823,-1351.0016 603.763,-1817.1774 368.415,-460.5173 875.322,-746.7836 1432.016,-746.7836 h 7053.269 c 556.693,0 1063.601,286.2663 1432.015,746.7836 372.034,466.1758 602.859,1108.8633 602.859,1817.1774 V 611.24235 c 0,708.31405 -230.825,1352.13075 -602.859,1817.17505 -368.414,459.3858 -875.322,745.6533 -1432.015,745.6533 z m 1623.916,-8624.2349 c -71.507,-359.8156 -211.815,-681.1593 -401.906,-938.0069 -279.705,-376.788 -665.317,-611.0068 -1090.757,-611.0068 h -7316.68 c -17.201,0 -34.393,0 -51.595,1.1088 l -104.097,9.1097 c -362.982,49.7913 -689.757,270.4266 -935.064,600.8222 -190.092,255.7172 -330.395,577.061 -401.907,936.8766 V 611.24009 c 0,548.77361 181.039,1050.02351 471.606,1413.23241 295.092,368.8676 702.429,597.4278 1152.31,597.4278 h 7054.174 c 449.88,0 858.122,-228.5602 1152.31,-597.4278 291.472,-364.3404 471.606,-864.4588 471.606,-1413.23241 z"
         id="path18-5-0-1"
         sodipodi:nodetypes="sssssssscsscsccssccccsssscsc"
         style="stroke-width:101.204" />
      <path
         d="m -4160.3439,3176.0825 h -7053.2681 c -556.694,0 -1063.602,-286.2675 -1432.016,-746.7848 -372.035,-465.0421 -603.763,-1108.861 -603.763,-1817.17505 V -6398.6069 c 0,-708.314 230.823,-1351.0003 603.763,-1817.1773 368.414,-460.5173 875.322,-746.7836 1432.016,-746.7836 h 7053.2681 c 556.6929,0 1063.6014,286.2663 1432.0164,746.7836 372.0334,466.177 602.8578,1108.8633 602.8578,1817.1773 V 613.25415 c 0,708.31405 -230.8244,1352.13185 -602.8578,1817.17505 -368.415,459.3858 -875.3235,745.6533 -1432.0164,745.6533 z m 1623.9163,-8624.2338 c -71.5058,-359.8156 -211.8153,-681.1593 -401.9049,-938.008 -279.7048,-376.788 -665.3185,-611.0057 -1090.7583,-611.0057 H -11345.77 c -17.202,0 -34.394,0 -51.595,1.1088 l -104.098,9.1086 c -362.982,49.7913 -689.757,270.4277 -935.064,600.8234 -190.091,255.7172 -330.396,577.0609 -401.906,936.8765 V 613.25188 c 0,548.77482 181.039,1050.02352 471.605,1413.23352 295.093,368.8665 702.429,597.4267 1152.311,597.4267 h 7054.1731 c 449.8812,0 858.1236,-228.5602 1152.3115,-597.4267 291.4713,-364.3404 471.6048,-864.4587 471.6048,-1413.23352 z"
         id="path18-5-0-0-7"
         sodipodi:nodetypes="sssssssscsscsccssccccsssscsc"
         style="stroke-width:101.204" />
      <g
         aria-label=","
         transform="matrix(-271.55798,0,0,-339.44778,-516.08755,61875.855)"
         id="text8464"
         style="font-size:24px;white-space:pre;shape-inside:url(#rect8466)">
        <path
           d="m 25.232422,187.00195 h 2.472656 v 2.01563 l -1.921875,3.75 h -1.511719 l 0.960938,-3.75 z"
           id="path1632" />
      </g>
      <g
         aria-label="."
         transform="matrix(-271.55798,0,0,-339.44778,-21.739747,64114.701)"
         id="text8470"
         style="font-size:24px;white-space:pre;shape-inside:url(#rect8472)">
        <path
           d="m 82.300781,194.42187 h 2.472656 v 2.97657 h -2.472656 z"
           id="path1635" />
      </g>
      <path
         d="m -11518.73,-21405.42 h -7016.565 c -553.797,0 -1058.068,-288.495 -1424.564,-752.593 -370.099,-468.66 -600.62,-1117.487 -600.62,-1831.31 v -7065.258 c 0,-713.824 229.621,-1361.509 600.62,-1831.312 366.496,-464.097 870.767,-752.594 1424.564,-752.594 h 7016.565 c 553.796,0 1058.067,288.497 1424.565,752.594 370.0977,469.803 599.7208,1117.488 599.7208,1831.312 v 7066.398 c 0,713.824 -229.6231,1362.649 -599.7208,1831.31 -366.498,462.958 -870.769,751.453 -1424.565,751.453 z m 1615.4664,-8691.313 c -71.1339,-362.614 -210.7134,-686.458 -399.8134,-945.304 -278.249,-379.719 -661.857,-615.758 -1085.083,-615.758 h -7278.605 c -17.112,0 -34.216,0 -51.328,1.117 l -103.555,9.18 c -361.094,50.178 -686.169,272.531 -930.2,605.496 -189.101,257.706 -328.676,581.549 -399.814,944.164 v 6109.653 c 0,553.043 180.096,1058.191 469.151,1424.226 293.558,371.736 698.773,602.073 1146.316,602.073 h 7017.465 c 447.54,0 853.658,-230.337 1146.315,-602.073 289.955,-367.174 469.1514,-871.183 469.1514,-1424.226 z"
         id="path18-5-0-0-7-0-7"
         sodipodi:nodetypes="sssssssscsscsccssccccsssscsc"
         style="fill:#ff0000;stroke-width:101.332" />
      <g
         aria-label="E"
         transform="matrix(-270.14491,0,0,-342.08801,344.31225,57464.971)"
         id="text8525-5"
         style="font-size:24px;white-space:pre;shape-inside:url(#rect8527-3);fill:#ff0000">
        <path
           d="m 51.492187,237.24609 h 11.0625 v 1.99219 h -8.695312 v 5.17969 h 8.332031 v 1.99219 H 53.859375 V 252.75 h 8.90625 v 1.99219 H 51.492187 Z"
           id="path1649" />
      </g>
      <text
         xml:space="preserve"
         transform="matrix(-23.99999,0,0,-30.000015,3017.0665,3191.276)"
         id="text9296"
         style="font-size:34.6667px;white-space:pre;shape-inside:url(#rect9298);fill:#000000;fill-opacity:1" />
      <text
         xml:space="preserve"
         transform="matrix(-23.99999,0,0,-30.000015,3017.0665,3191.276)"
         id="text9306"
         style="font-size:34.6667px;white-space:pre;shape-inside:url(#rect9308);fill:#000000;fill-opacity:1" />
      <text
         xml:space="preserve"
         style="font-size:930.205px;fill:#000000;fill-opacity:1;stroke-width:26.8328"
         x="3104.6934"
         y="2040.0248"
         id="text9314"
         transform="scale(-0.89442678,-1.1180345)"><tspan
           sodipodi:role="line"
           id="tspan9312"
           style="stroke-width:26.8328"
           x="3104.6934"
           y="2040.0248" /></text>
      <text
         xml:space="preserve"
         transform="matrix(-23.99999,0,0,-30.000015,3017.0665,3191.276)"
         id="text14825"
         style="font-size:96px;font-family:KacstDecorative;-inkscape-font-specification:KacstDecorative;white-space:pre;shape-inside:url(#rect14827);fill:#000000" />
      <g
         aria-label="speed"
         transform="matrix(-3.373456,0,0,-4.2168238,-8702.475,-8802.9578)"
         id="text14833"
         style="font-size:2575.95px;font-family:KacstDecorative;-inkscape-font-specification:KacstDecorative;stroke-width:26.8328">
        <path
           d="m -805.3404,718.04805 v 218.85512 q -98.10747,-50.31152 -203.7617,-75.46728 -105.6542,-25.15576 -218.8551,-25.15576 -172.317,0 -259.1043,52.82709 -85.5296,52.8271 -85.5296,158.48128 0,80.4985 61.6316,127.0366 61.6316,45.2804 247.7842,86.7874 l 79.2407,17.609 q 246.52645,52.8271 349.66507,149.6768 104.39641,95.5919 104.39641,267.9089 0,196.2149 -155.96572,310.6736 -154.70796,114.4587 -426.39016,114.4587 -113.2009,0 -236.4641,-22.6402 -122.0055,-21.3824 -257.8466,-65.4049 v -238.9798 q 128.2944,66.6628 252.8154,100.6231 124.521,32.7025 246.5265,32.7025 163.5124,0 251.5576,-55.3427 88.04514,-56.6005 88.04514,-158.4813 0,-94.3341 -64.14724,-144.6456 -62.8894,-50.3116 -277.9711,-96.8497 l -80.4985,-18.8668 q -215.0817,-45.2804 -310.6736,-138.3567 -95.5919,-94.3341 -95.5919,-257.8466 0,-198.73049 140.8723,-306.90026 140.8722,-108.16978 399.9766,-108.16978 128.2944,0 241.4953,18.86683 113.2009,18.86682 208.7928,56.60046 z"
           id="path1638" />
        <path
           d="m -137.45499,1873.9553 v 747.1261 H -370.14578 V 676.54104 h 232.69079 V 890.36501 Q -64.503282,764.58621 46.182068,704.21238 158.12521,642.58076 312.83314,642.58076 q 256.58876,0 416.32785,203.76167 160.99687,203.76167 160.99687,535.81767 0,332.0561 -160.99687,535.8178 -159.73909,203.7616 -416.32785,203.7616 -154.70793,0 -266.651072,-60.3738 -110.68535,-61.6316 -183.637058,-187.4104 z m 787.37533,-491.7952 q 0,-255.3309 -105.6542,-399.97656 -104.39641,-145.90341 -288.03347,-145.90341 -183.637053,0 -289.29125,145.90341 -104.39641,144.64566 -104.39641,399.97656 0,255.331 104.39641,401.2344 105.654197,144.6457 289.29125,144.6457 183.63706,0 288.03347,-144.6457 105.6542,-145.9034 105.6542,-401.2344 z"
           id="path1640" />
        <path
           d="M 2478.7442,1323.0441 V 1436.245 H 1414.6555 q 15.0935,238.9798 143.3878,364.7586 129.5522,124.521 359.7274,124.521 133.3256,0 257.8466,-32.7025 125.7788,-32.7025 249.042,-98.1075 v 218.8552 q -124.521,52.8271 -255.331,80.4984 -130.8099,27.6713 -265.3932,27.6713 -337.0872,0 -534.56,-196.2149 -196.2149,-196.2149 -196.2149,-530.7866 0,-345.8917 186.1526,-548.39557 187.4105,-203.76167 504.373,-203.76167 284.2602,0 449.0304,183.63706 166.028,182.37928 166.028,496.82628 z m -231.433,-67.9205 q -2.5156,-189.926 -106.912,-303.12697 -103.1386,-113.20093 -274.1978,-113.20093 -193.6993,0 -310.6736,109.42756 -115.7165,109.42754 -133.3256,308.15804 z"
           id="path1642" />
        <path
           d="M 4063.557,1323.0441 V 1436.245 H 2999.4683 q 15.0934,238.9798 143.3878,364.7586 129.5522,124.521 359.7274,124.521 133.3255,0 257.8465,-32.7025 125.7788,-32.7025 249.0421,-98.1075 v 218.8552 q -124.521,52.8271 -255.331,80.4984 -130.81,27.6713 -265.3933,27.6713 -337.0872,0 -534.5599,-196.2149 -196.215,-196.2149 -196.215,-530.7866 0,-345.8917 186.1527,-548.39557 187.4104,-203.76167 504.373,-203.76167 284.2601,0 449.0303,183.63706 166.0281,182.37928 166.0281,496.82628 z m -231.433,-67.9205 q -2.5156,-189.926 -106.912,-303.12697 -103.1387,-113.20093 -274.1978,-113.20093 -193.6994,0 -310.6737,109.42756 -115.7165,109.42754 -133.3255,308.15804 z"
           id="path1644" />
        <path
           d="M 5370.3993,890.36501 V 128.14545 h 231.433 V 2085.2637 h -231.433 v -211.3084 q -72.9517,125.7788 -184.8949,187.4104 -110.6853,60.3738 -266.651,60.3738 -255.331,0 -416.3279,-203.7616 -159.7391,-203.7617 -159.7391,-535.8178 0,-332.056 159.7391,-535.81767 160.9969,-203.76167 416.3279,-203.76167 155.9657,0 266.651,61.63162 111.9432,60.37383 184.8949,186.15263 z m -788.6331,491.79509 q 0,255.331 104.3964,401.2344 105.6542,144.6457 289.2912,144.6457 183.6371,0 289.2913,-144.6457 105.6542,-145.9034 105.6542,-401.2344 0,-255.3309 -105.6542,-399.97656 -105.6542,-145.90341 -289.2913,-145.90341 -183.637,0 -289.2912,145.90341 -104.3964,144.64566 -104.3964,399.97656 z"
           id="path1646" />
      </g>
      <g
         aria-label="end"
         transform="matrix(-90.519326,0,0,-113.14926,-3655.7603,1638.9215)"
         id="text15634"
         style="font-size:96px;font-family:KacstDecorative;-inkscape-font-specification:KacstDecorative;white-space:pre;shape-inside:url(#rect15636);fill:#ff0000">
        <path
           d="m 91.626953,357.35937 v 4.21875 h -39.65625 q 0.5625,8.90625 5.34375,13.59375 4.828125,4.64063 13.40625,4.64063 4.96875,0 9.609375,-1.21875 4.6875,-1.21875 9.28125,-3.65625 v 8.15625 q -4.640625,1.96875 -9.515625,3 -4.875,1.03125 -9.890625,1.03125 -12.5625,0 -19.921875,-7.3125 -7.3125,-7.3125 -7.3125,-19.78125 0,-12.89063 6.9375,-20.4375 Q 56.892578,332 68.705078,332 q 10.59375,0 16.734375,6.84375 6.1875,6.79687 6.1875,18.51562 z m -8.625,-2.53125 q -0.09375,-7.07812 -3.984375,-11.29687 -3.84375,-4.21875 -10.21875,-4.21875 -7.21875,0 -11.578125,4.07812 -4.3125,4.07813 -4.96875,11.48438 z"
           id="path1652" />
        <path
           d="m 149.42383,354.07812 v 31.6875 h -8.625 v -31.40625 q 0,-7.45312 -2.90625,-11.15625 -2.90625,-3.70312 -8.71875,-3.70312 -6.98438,0 -11.01563,4.45312 -4.03125,4.45313 -4.03125,12.14063 v 29.67187 h -8.67187 v -52.5 h 8.67187 v 8.15625 q 3.09375,-4.73437 7.26563,-7.07812 Q 125.61133,332 131.0957,332 q 9.04688,0 13.6875,5.625 4.64063,5.57812 4.64063,16.45312 z"
           id="path1654" />
        <path
           d="m 201.17383,341.23437 v -28.40625 h 8.625 v 72.9375 h -8.625 v -7.875 q -2.71875,4.6875 -6.89063,6.98438 -4.125,2.25 -9.9375,2.25 -9.51562,0 -15.51562,-7.59375 -5.95313,-7.59375 -5.95313,-19.96875 0,-12.375 5.95313,-19.96875 6,-7.59375 15.51562,-7.59375 5.8125,0 9.9375,2.29687 4.17188,2.25 6.89063,6.9375 z M 171.7832,359.5625 q 0,9.51562 3.89063,14.95312 3.9375,5.39063 10.78125,5.39063 6.84375,0 10.78125,-5.39063 3.9375,-5.4375 3.9375,-14.95312 0,-9.51563 -3.9375,-14.90625 -3.9375,-5.4375 -10.78125,-5.4375 -6.84375,0 -10.78125,5.4375 -3.89063,5.39062 -3.89063,14.90625 z"
           id="path1656" />
      </g>
    </g>
  </g>
</svg>
