<?xml version="1.0" encoding="UTF-8" standalone="no"?>
<!-- Created with Inkscape (http://www.inkscape.org/) -->

<svg
   width="400"
   height="400"
   viewBox="0 0 105.83333 105.83333"
   version="1.1"
   id="svg5"
   xml:space="preserve"
   inkscape:version="1.2.1 (ef4d3fba62, 2022-07-19, custom)"
   sodipodi:docname="opis_zachowan.svg"
   xmlns:inkscape="http://www.inkscape.org/namespaces/inkscape"
   xmlns:sodipodi="http://sodipodi.sourceforge.net/DTD/sodipodi-0.dtd"
   xmlns="http://www.w3.org/2000/svg"
   xmlns:svg="http://www.w3.org/2000/svg"><sodipodi:namedview
     id="namedview7"
     pagecolor="#ffffff"
     bordercolor="#000000"
     borderopacity="0.25"
     inkscape:showpageshadow="2"
     inkscape:pageopacity="0.0"
     inkscape:pagecheckerboard="0"
     inkscape:deskcolor="#d1d1d1"
     inkscape:document-units="mm"
     showgrid="true"
     inkscape:zoom="0.95497111"
     inkscape:cx="194.24671"
     inkscape:cy="179.06301"
     inkscape:window-width="1920"
     inkscape:window-height="1013"
     inkscape:window-x="0"
     inkscape:window-y="30"
     inkscape:window-maximized="1"
     inkscape:current-layer="layer1"><inkscape:grid
       type="xygrid"
       id="grid6370" /></sodipodi:namedview><defs
     id="defs2"><inkscape:path-effect
       effect="bspline"
       id="path-effect7549"
       is_visible="true"
       lpeversion="1"
       weight="33.333333"
       steps="2"
       helper_size="0"
       apply_no_weight="true"
       apply_with_weight="true"
       only_selected="false" /><inkscape:path-effect
       effect="bspline"
       id="path-effect7703"
       is_visible="true"
       lpeversion="1"
       weight="33.333333"
       steps="2"
       helper_size="0"
       apply_no_weight="true"
       apply_with_weight="true"
       only_selected="false" /><inkscape:path-effect
       effect="bspline"
       id="path-effect7875"
       is_visible="true"
       lpeversion="1"
       weight="33.333333"
       steps="2"
       helper_size="0"
       apply_no_weight="true"
       apply_with_weight="true"
       only_selected="false" /><inkscape:path-effect
       effect="bspline"
       id="path-effect7879"
       is_visible="true"
       lpeversion="1"
       weight="33.333333"
       steps="2"
       helper_size="0"
       apply_no_weight="true"
       apply_with_weight="true"
       only_selected="false" /><inkscape:path-effect
       effect="bspline"
       id="path-effect12632"
       is_visible="true"
       lpeversion="1"
       weight="33.333333"
       steps="2"
       helper_size="0"
       apply_no_weight="true"
       apply_with_weight="true"
       only_selected="false" /><inkscape:path-effect
       effect="bspline"
       id="path-effect12636"
       is_visible="true"
       lpeversion="1"
       weight="33.333333"
       steps="2"
       helper_size="0"
       apply_no_weight="true"
       apply_with_weight="true"
       only_selected="false" /><inkscape:path-effect
       effect="bspline"
       id="path-effect12640"
       is_visible="true"
       lpeversion="1"
       weight="33.333333"
       steps="2"
       helper_size="0"
       apply_no_weight="true"
       apply_with_weight="true"
       only_selected="false" /><inkscape:path-effect
       effect="bspline"
       id="path-effect12644"
       is_visible="true"
       lpeversion="1"
       weight="33.333333"
       steps="2"
       helper_size="0"
       apply_no_weight="true"
       apply_with_weight="true"
       only_selected="false" /><inkscape:path-effect
       effect="bspline"
       id="path-effect12648"
       is_visible="true"
       lpeversion="1"
       weight="33.333333"
       steps="2"
       helper_size="0"
       apply_no_weight="true"
       apply_with_weight="true"
       only_selected="false" /><inkscape:path-effect
       effect="bspline"
       id="path-effect12652"
       is_visible="true"
       lpeversion="1"
       weight="33.333333"
       steps="2"
       helper_size="0"
       apply_no_weight="true"
       apply_with_weight="true"
       only_selected="false" /><inkscape:path-effect
       effect="bspline"
       id="path-effect3037"
       is_visible="true"
       lpeversion="1"
       weight="33.333333"
       steps="2"
       helper_size="0"
       apply_no_weight="true"
       apply_with_weight="true"
       only_selected="false" /><inkscape:path-effect
       effect="bspline"
       id="path-effect3152"
       is_visible="true"
       lpeversion="1"
       weight="33.333333"
       steps="2"
       helper_size="0"
       apply_no_weight="true"
       apply_with_weight="true"
       only_selected="false" /><inkscape:path-effect
       effect="bspline"
       id="path-effect7549-1"
       is_visible="true"
       lpeversion="1"
       weight="33.333333"
       steps="2"
       helper_size="0"
       apply_no_weight="true"
       apply_with_weight="true"
       only_selected="false" /><inkscape:path-effect
       effect="bspline"
       id="path-effect7703-2"
       is_visible="true"
       lpeversion="1"
       weight="33.333333"
       steps="2"
       helper_size="0"
       apply_no_weight="true"
       apply_with_weight="true"
       only_selected="false" /><inkscape:path-effect
       effect="bspline"
       id="path-effect7875-8"
       is_visible="true"
       lpeversion="1"
       weight="33.333333"
       steps="2"
       helper_size="0"
       apply_no_weight="true"
       apply_with_weight="true"
       only_selected="false" /><inkscape:path-effect
       effect="bspline"
       id="path-effect7879-9"
       is_visible="true"
       lpeversion="1"
       weight="33.333333"
       steps="2"
       helper_size="0"
       apply_no_weight="true"
       apply_with_weight="true"
       only_selected="false" /><inkscape:path-effect
       effect="bspline"
       id="path-effect3037-9"
       is_visible="true"
       lpeversion="1"
       weight="33.333333"
       steps="2"
       helper_size="0"
       apply_no_weight="true"
       apply_with_weight="true"
       only_selected="false" /><inkscape:path-effect
       effect="bspline"
       id="path-effect3152-1"
       is_visible="true"
       lpeversion="1"
       weight="33.333333"
       steps="2"
       helper_size="0"
       apply_no_weight="true"
       apply_with_weight="true"
       only_selected="false" /><inkscape:path-effect
       effect="bspline"
       id="path-effect7549-0"
       is_visible="true"
       lpeversion="1"
       weight="33.333333"
       steps="2"
       helper_size="0"
       apply_no_weight="true"
       apply_with_weight="true"
       only_selected="false" /><inkscape:path-effect
       effect="bspline"
       id="path-effect7703-4"
       is_visible="true"
       lpeversion="1"
       weight="33.333333"
       steps="2"
       helper_size="0"
       apply_no_weight="true"
       apply_with_weight="true"
       only_selected="false" /><inkscape:path-effect
       effect="bspline"
       id="path-effect7875-2"
       is_visible="true"
       lpeversion="1"
       weight="33.333333"
       steps="2"
       helper_size="0"
       apply_no_weight="true"
       apply_with_weight="true"
       only_selected="false" /><inkscape:path-effect
       effect="bspline"
       id="path-effect7879-96"
       is_visible="true"
       lpeversion="1"
       weight="33.333333"
       steps="2"
       helper_size="0"
       apply_no_weight="true"
       apply_with_weight="true"
       only_selected="false" /><inkscape:path-effect
       effect="bspline"
       id="path-effect3037-1"
       is_visible="true"
       lpeversion="1"
       weight="33.333333"
       steps="2"
       helper_size="0"
       apply_no_weight="true"
       apply_with_weight="true"
       only_selected="false" /><inkscape:path-effect
       effect="bspline"
       id="path-effect3152-0"
       is_visible="true"
       lpeversion="1"
       weight="33.333333"
       steps="2"
       helper_size="0"
       apply_no_weight="true"
       apply_with_weight="true"
       only_selected="false" /><inkscape:path-effect
       effect="bspline"
       id="path-effect7549-1-0"
       is_visible="true"
       lpeversion="1"
       weight="33.333333"
       steps="2"
       helper_size="0"
       apply_no_weight="true"
       apply_with_weight="true"
       only_selected="false" /><inkscape:path-effect
       effect="bspline"
       id="path-effect7703-2-4"
       is_visible="true"
       lpeversion="1"
       weight="33.333333"
       steps="2"
       helper_size="0"
       apply_no_weight="true"
       apply_with_weight="true"
       only_selected="false" /><inkscape:path-effect
       effect="bspline"
       id="path-effect7875-8-0"
       is_visible="true"
       lpeversion="1"
       weight="33.333333"
       steps="2"
       helper_size="0"
       apply_no_weight="true"
       apply_with_weight="true"
       only_selected="false" /><inkscape:path-effect
       effect="bspline"
       id="path-effect7879-9-8"
       is_visible="true"
       lpeversion="1"
       weight="33.333333"
       steps="2"
       helper_size="0"
       apply_no_weight="true"
       apply_with_weight="true"
       only_selected="false" /><inkscape:path-effect
       effect="bspline"
       id="path-effect7549-1-2"
       is_visible="true"
       lpeversion="1"
       weight="33.333333"
       steps="2"
       helper_size="0"
       apply_no_weight="true"
       apply_with_weight="true"
       only_selected="false" /><inkscape:path-effect
       effect="bspline"
       id="path-effect7703-2-1"
       is_visible="true"
       lpeversion="1"
       weight="33.333333"
       steps="2"
       helper_size="0"
       apply_no_weight="true"
       apply_with_weight="true"
       only_selected="false" /><inkscape:path-effect
       effect="bspline"
       id="path-effect7875-8-9"
       is_visible="true"
       lpeversion="1"
       weight="33.333333"
       steps="2"
       helper_size="0"
       apply_no_weight="true"
       apply_with_weight="true"
       only_selected="false" /><inkscape:path-effect
       effect="bspline"
       id="path-effect7879-9-6"
       is_visible="true"
       lpeversion="1"
       weight="33.333333"
       steps="2"
       helper_size="0"
       apply_no_weight="true"
       apply_with_weight="true"
       only_selected="false" /><inkscape:path-effect
       effect="bspline"
       id="path-effect7549-1-0-3"
       is_visible="true"
       lpeversion="1"
       weight="33.333333"
       steps="2"
       helper_size="0"
       apply_no_weight="true"
       apply_with_weight="true"
       only_selected="false" /><inkscape:path-effect
       effect="bspline"
       id="path-effect7703-2-4-6"
       is_visible="true"
       lpeversion="1"
       weight="33.333333"
       steps="2"
       helper_size="0"
       apply_no_weight="true"
       apply_with_weight="true"
       only_selected="false" /><inkscape:path-effect
       effect="bspline"
       id="path-effect7875-8-0-7"
       is_visible="true"
       lpeversion="1"
       weight="33.333333"
       steps="2"
       helper_size="0"
       apply_no_weight="true"
       apply_with_weight="true"
       only_selected="false" /><inkscape:path-effect
       effect="bspline"
       id="path-effect7879-9-8-5"
       is_visible="true"
       lpeversion="1"
       weight="33.333333"
       steps="2"
       helper_size="0"
       apply_no_weight="true"
       apply_with_weight="true"
       only_selected="false" /><inkscape:path-effect
       effect="bspline"
       id="path-effect7549-1-2-2"
       is_visible="true"
       lpeversion="1"
       weight="33.333333"
       steps="2"
       helper_size="0"
       apply_no_weight="true"
       apply_with_weight="true"
       only_selected="false" /><inkscape:path-effect
       effect="bspline"
       id="path-effect7703-2-1-6"
       is_visible="true"
       lpeversion="1"
       weight="33.333333"
       steps="2"
       helper_size="0"
       apply_no_weight="true"
       apply_with_weight="true"
       only_selected="false" /><inkscape:path-effect
       effect="bspline"
       id="path-effect7875-8-9-1"
       is_visible="true"
       lpeversion="1"
       weight="33.333333"
       steps="2"
       helper_size="0"
       apply_no_weight="true"
       apply_with_weight="true"
       only_selected="false" /><inkscape:path-effect
       effect="bspline"
       id="path-effect7879-9-6-8"
       is_visible="true"
       lpeversion="1"
       weight="33.333333"
       steps="2"
       helper_size="0"
       apply_no_weight="true"
       apply_with_weight="true"
       only_selected="false" /></defs><g
     inkscape:label="Layer 1"
     inkscape:groupmode="layer"
     id="layer1"><path
       style="fill:#77ff2c;fill-opacity:1;stroke-width:0.0881944"
       d="M 18.946425,12.857566 C 18.442069,12.473644 17.433288,11.705746 17.008203,10.809256 16.583117,9.9127656 16.741879,8.8877615 16.599106,8.1166862 16.456332,7.3456109 16.011951,6.8285197 15.238038,6.5199662 14.464124,6.2114127 13.360765,6.1115231 12.480071,5.8447111 11.599377,5.5778991 10.941432,5.1441378 10.498341,4.7722864 10.055249,4.4004351 9.827078,4.0904966 9.5774466,3.7045816 9.3278152,3.3186666 9.0567533,2.856796 8.8150399,3.0711009 8.5733264,3.2854059 8.361062,4.1758848 8.4380254,5.1011583 c 0.076963,0.9252735 0.4430876,1.8851839 0.9480207,2.517977 0.504933,0.6327931 1.1485129,0.9384283 1.8133939,1.234932 0.664881,0.2965036 1.350939,0.5838264 1.828863,0.8749923 0.477924,0.2911654 0.747692,0.5861124 0.837263,1.1301504 0.08957,0.544038 -9.62e-4,1.337157 -0.01095,1.896149 -0.01,0.558991 0.06055,0.883829 1.006709,0.925777 0.946158,0.04195 2.767818,-0.198853 3.678625,-0.319251 0.910806,-0.120397 0.910826,-0.120397 0.406471,-0.504319 z"
       id="path7547-3-5"
       inkscape:path-effect="#path-effect7549-1-0"
       inkscape:original-d="m 19.45078,13.241488 c -1.00872,-0.767832 -2.0175,-1.535732 -3.02642,-2.303752 0.1588,-1.0249638 0.31764,-2.0499558 0.4763,-3.0750958 -0.44432,-0.517036 -0.8887,-1.034128 -1.3332,-1.55134 -1.10334,-0.09984 -2.2067,-0.19972 -3.3102,-0.29968 -0.6579,-0.433696 -1.31584,-0.867464 -1.9739,-1.301328 -0.22808,-0.30988 -0.4562598,-0.619812 -0.6845398,-0.929852 -0.27096,-0.4618 -0.54204,-0.92366 -0.8132,-1.385636 -0.2122,0.890624 -0.42446,1.781104 -0.63682,2.671548 0.36624,0.96006 0.73236,1.919972 1.09842,2.879856 0.64374,0.30576 1.2873198,0.611396 1.9308798,0.916972 0.6862,0.28744 1.37226,0.57476 2.05828,0.862012 0.26984,0.2950398 0.53962,0.5899758 0.8093,0.8848358 -0.0904,0.793236 -0.181,1.586348 -0.2716,2.379392 0.0706,0.32492 0.1412,0.649744 0.2116,0.974484 1.82182,-0.24072 3.64348,-0.481524 5.46508,-0.722416 z"
       sodipodi:nodetypes="cccccccccccccccc" /><path
       style="fill:#06d400;fill-opacity:1;stroke-width:0.0881944"
       d="m 10.028458,17.730349 c -0.01306,-0.153214 -0.039197,-0.459768 0.172529,-0.627139 0.211726,-0.16737 0.661207,-0.195476 1.072007,-0.359127 0.410801,-0.163651 0.782969,-0.462846 0.966715,-0.768294 0.183745,-0.305447 0.179079,-0.617235 0.08121,-0.988784 -0.09788,-0.371549 -0.289016,-0.802915 -0.367508,-1.294258 -0.07849,-0.491343 -0.04429,-1.042671 0.138276,-1.437667 0.182568,-0.394997 0.513524,-0.633591 1.025347,-0.787511 0.511823,-0.15392 1.204461,-0.223186 1.977222,-0.433074 0.772761,-0.209888 1.625643,-0.560377 2.182394,-1.1563304 0.55675,-0.595953 0.81741,-1.4374047 0.805397,-2.1736615 C 18.070028,6.9682464 17.785281,6.3371816 17.069781,5.2635658 16.354281,4.1899501 15.208048,2.6738573 14.964484,2.3721659 14.72092,2.0704746 15.38002,2.9831707 15.73641,3.7998356 c 0.356391,0.816665 0.410124,1.537262 0.293789,2.1981538 C 15.913864,6.6588812 15.627496,7.2600985 15.077403,7.679862 14.52731,8.0996255 13.71345,8.3379714 12.900496,8.4532854 12.087541,8.5685995 11.275499,8.5608663 10.658259,8.8603224 10.04102,9.1597785 9.6187125,9.7663774 9.3483292,10.478175 9.0779459,11.189972 8.9595102,12.006833 8.942803,12.74929 c -0.016707,0.742457 0.068288,1.410389 0.012389,2.061314 -0.055899,0.650926 -0.2526782,1.284873 -0.4205021,1.679745 -0.1678239,0.394871 -0.306751,0.550785 -0.050532,0.743203 0.2562186,0.192418 0.9074205,0.421325 1.2329713,0.53576 0.3255511,0.114436 0.3243911,0.114252 0.3113291,-0.03896 z"
       id="path7701-6-1"
       inkscape:path-effect="#path-effect7703-2-4"
       inkscape:original-d="m 10.04152,17.883564 c -0.026,-0.30644 -0.0522,-0.612988 -0.0784,-0.919612 0.4495998,-0.028 0.8990798,-0.05612 1.3484998,-0.08432 0.37224,-0.29912 0.74442,-0.5983 1.1165,-0.89758 -0.004,-0.31172 -0.01,-0.623488 -0.014,-0.935368 -0.191,-0.431264 -0.3822,-0.862604 -0.5734,-1.294044 0.034,-0.551248 0.0684,-1.102564 0.1026,-1.65398 0.331,-0.23848 0.66196,-0.477068 0.9928,-0.715736 0.69274,-0.0692 1.38538,-0.13844 2.07794,-0.2078 0.853,-0.3504 1.70588,-0.700896 2.55868,-1.05148 0.26076,-0.8413998 0.52142,-1.6828518 0.782,-2.5244118 -0.28468,-0.631 -0.56942,-1.262068 -0.85426,-1.893236 -1.14618,-1.51606 -2.29242,-3.032148 -3.43876,-4.5483566 0.65922,0.9128206 1.31832,1.8255166 1.97734,2.7381446 0.0538,0.720712 0.1076,1.441304 0.1612,2.161824 -0.28628,0.601328 -0.57266,1.20254 -0.85912,1.80368 -0.8138,0.23844 -1.62766,0.476784 -2.4416,0.715044 -0.812,-0.0076 -1.62404,-0.0156 -2.43618,-0.0232 -0.42224,0.606716 -0.8445398,1.21332 -1.2669598,1.8198518 -0.1184,0.816996 -0.23676,1.633868 -0.35532,2.450672 0.0852,0.668068 0.17,1.336024 0.255,2.0039 -0.1966,0.634032 -0.39348,1.267948 -0.59032,1.901788 -0.1388,0.15596 -0.27772,0.31188 -0.41672,0.467672 0.65132,0.229 1.30252,0.457912 1.9536398,0.686732 z" /><path
       style="fill:#00bd0e;fill-opacity:1;stroke-width:0.0881944"
       d="m 2.8349198,11.101242 c 0.0541,-0.0038 0.1620998,-0.0114 0.5890577,-0.03983 0.4269579,-0.02843 1.1728362,-0.0777 1.8559154,-0.427346 C 5.9629721,10.284412 6.5832902,9.6343903 7.1305424,9.1834703 7.6777946,8.7325504 8.1519232,8.4807689 8.6674018,8.4241662 c 0.5154785,-0.056603 1.0721975,0.081921 1.6566562,0.2933364 0.584458,0.2114151 1.19662,0.4956874 1.862333,0.5758333 0.665713,0.080146 1.384993,-0.043774 1.908637,-0.084054 0.523644,-0.04028 0.851643,0.00305 1.21064,0.4767109 0.358998,0.4736583 0.749025,1.3775153 1.123173,2.0857773 0.374147,0.708262 0.732378,1.220913 1.069353,1.619994 0.336974,0.399081 0.652635,0.684578 0.917851,1.219448 0.265216,0.53487 0.480017,1.319028 0.325045,2.179072 -0.154971,0.860043 -0.679654,1.795986 -0.831977,1.916944 -0.152324,0.120959 0.06771,-0.573063 0.05723,-1.119853 -0.01048,-0.54679 -0.251551,-0.946376 -0.684241,-1.288394 -0.43269,-0.342017 -1.057029,-0.626412 -1.408058,-1.016975 -0.351029,-0.390562 -0.42864,-0.8873 -0.649176,-1.286917 -0.220535,-0.399616 -0.584044,-0.702065 -1.18226,-0.766261 -0.598217,-0.06419 -1.431056,0.109968 -2.001409,-0.07372 C 11.470848,12.971426 11.16301,12.429793 10.801315,12.00888 10.439621,11.587967 10.02403,11.287818 9.6300555,11.391956 9.2360805,11.496095 8.8638462,12.004559 8.5251739,12.368771 8.1865017,12.732983 7.8813649,12.952968 7.2898308,13.084915 6.6982967,13.216862 5.8203373,13.260754 5.1312262,13.271158 4.4421151,13.281562 3.9418849,13.25847 3.6486681,13.310351 3.3554512,13.362232 3.2693993,13.489036 3.1592877,13.133993 3.049176,12.77895 2.9149953,11.941946 2.8478978,11.523399 2.7808002,11.104852 2.7808202,11.105048 2.8349198,11.101242 Z"
       id="path7873-8-6"
       inkscape:path-effect="#path-effect7875-8-0"
       inkscape:original-d="m 2.7808202,11.105048 c 0.1082,-0.0076 0.2162,-0.0152 0.32412,-0.0228 0.746,-0.0492 1.49188,-0.09844 2.2377,-0.1478 0.62042,-0.649952 1.24074,-1.2999718 1.86098,-1.9500918 0.47422,-0.25172 0.94836,-0.50348 1.4224,-0.755352 0.55684,0.13864 1.11356,0.27716 1.6702198,0.415588 0.61226,0.28436 1.22442,0.568636 1.8365,0.852824 0.71938,-0.12384 1.43866,-0.24776 2.15784,-0.37176 0.32808,0.04344 0.65608,0.08676 0.984,0.13 0.39012,0.9039798 0.78016,1.8078318 1.1701,2.7116158 0.35832,0.512752 0.71656,1.025396 1.0747,1.53796 0.3158,0.2856 0.63144,0.57112 0.94704,0.856544 0.21492,0.784284 0.4297,1.568448 0.64442,2.35254 -0.52462,0.936068 -1.0493,1.872012 -1.57408,2.807884 0.22016,-0.693972 0.44016,-1.388004 0.66012,-2.08214 -0.241,-0.39948 -0.48206,-0.799076 -0.72322,-1.198744 -0.62426,-0.28432 -1.2486,-0.568712 -1.87304,-0.853196 -0.0776,-0.496676 -0.1552,-0.993416 -0.23284,-1.490252 -0.36344,-0.3024 -0.72696,-0.604836 -1.09058,-0.907392 -0.83278,0.17428 -1.66562,0.34844 -2.49856,0.5225 -0.30776,-0.541568 -0.6156,-1.0832 -0.92354,-1.62494 -0.4155,-0.30004 -0.83108,-0.600204 -1.2467598,-0.90044 -0.37216,0.508572 -0.7444,1.017032 -1.11672,1.525416 -0.30504,0.22008 -0.61018,0.44006 -0.91542,0.65996 -0.8779,0.04396 -1.75586,0.08784 -2.63392,0.13168 -0.50016,-0.0232 -1.0004,-0.04608 -1.50074,-0.06928 -0.086,0.12692 -0.172,0.25376 -0.2582,0.38048 -0.134,-0.836928 -0.26828,-1.673916 -0.40254,-2.511 z" /><path
       style="fill:#3fe900;fill-opacity:1;stroke-width:0.0881944"
       d="m 15.794608,7.0993037 c -0.01729,0.020784 -0.05214,0.062669 -0.162324,0.2074635 -0.110182,0.1447943 -0.295785,0.3926007 -0.321755,0.7578466 -0.02597,0.3652459 0.107793,0.8478192 -0.09816,1.3263107 -0.205953,0.4784916 -0.751691,0.9529825 -1.069354,1.5235465 -0.317664,0.570565 -0.407153,1.237113 -0.352024,1.848166 0.05513,0.611054 0.254895,1.166548 0.216046,1.720674 -0.03885,0.554126 -0.316332,1.106969 -0.806279,1.313899 -0.489947,0.20693 -1.192406,0.06785 -1.715714,0.04852 -0.523308,-0.01932 -0.867446,0.08117 -1.061716,0.290046 -0.19427,0.20888 -0.238534,0.526123 -0.4725597,0.857132 C 9.7167415,17.32392 9.2928808,17.6687 8.8145364,17.751972 8.3361919,17.835244 7.8033978,17.656907 7.094309,17.322243 6.3852203,16.98758 5.4999195,16.496609 4.7016924,16.427282 c -0.7982271,-0.06933 -1.5093639,0.283082 -1.5985508,0.29036 -0.089187,0.0073 0.4435949,-0.330571 0.9092392,-0.658847 0.4656443,-0.328275 0.8641623,-0.646969 1.4061219,-0.830882 0.5419596,-0.183912 1.2272997,-0.233111 1.7854719,-0.493592 0.5581722,-0.260482 0.9892112,-0.732159 1.219533,-1.302599 0.2303217,-0.570441 0.2599872,-1.239633 0.5557854,-1.780909 0.2957982,-0.541276 0.8576043,-0.954548 1.341579,-1.297551 0.483974,-0.343003 0.890064,-0.6157052 1.223735,-1.3290552 0.33367,-0.71335 0.594984,-1.8673072 1.294188,-2.2649998 0.699204,-0.3976927 1.836185,-0.039184 2.404625,0.1400547 0.56844,0.1792385 0.56848,0.1792585 0.551188,0.200042 z"
       id="path7877-0-6"
       inkscape:path-effect="#path-effect7879-9-8"
       inkscape:original-d="m 15.8119,7.0785202 c -0.0344,0.04172 -0.0694,0.08348 -0.1042,0.12524 -0.1856,0.2478 -0.37112,0.495668 -0.5569,0.743544 0.1338,0.482544 0.26764,0.965096 0.40128,1.447684 -0.54562,0.47448 -1.09136,0.9489678 -1.63724,1.4234958 -0.0894,0.666564 -0.1788,1.333124 -0.26848,1.999732 0.1998,0.55546 0.39964,1.110928 0.59928,1.666432 -0.27736,0.552836 -0.55484,1.10568 -0.83246,1.65856 -0.70236,-0.13912 -1.40482,-0.2782 -2.1074,-0.41726 -0.34404,0.10048 -0.68818,0.20096 -1.03246,0.30148 -0.0442,0.31724 -0.0884,0.634492 -0.1328,0.95178 -0.4237398,0.34476 -0.8475998,0.68954 -1.2715998,1.034352 -0.5327,-0.1784 -1.0655,-0.35672 -1.59844,-0.535032 -0.88522,-0.49102 -1.77052,-0.981992 -2.65596,-1.472944 -0.71104,0.3524 -1.42218,0.704804 -2.13346,1.057256 0.53292,-0.33788 1.0657,-0.675732 1.59836,-1.013556 0.39864,-0.31872 0.79716,-0.637412 1.19554,-0.956072 0.6855,-0.04924 1.37084,-0.09844 2.05606,-0.1476 0.43118,-0.471724 0.86222,-0.9434 1.29314,-1.415056 0.03,-0.66926 0.0594,-1.338464 0.089,-2.007656 0.56196,-0.413324 1.12376,-0.826604 1.6854798,-1.23986 0.40622,-0.27276 0.81232,-0.5454478 1.2183,-0.8181278 0.26144,-1.154032 0.52276,-2.307988 0.78396,-3.461944 1.13712,0.35848 2.2741,0.716992 3.41096,1.075532 z" /><path
       id="path12659"
       style="fill:#7fb300;fill-opacity:1;stroke-width:0.117592"
       d="m 42.323949,28.585549 c -0.0436,-0.0056 -0.0848,7.56e-4 -0.124,0.018 -0.54832,0.24352 -0.69352,2.642196 -1.21956,5.131092 -0.60116,2.844453 -1.69968,5.806733 -1.72228,9.382777 -0.024,3.576048 1.02996,7.76518 0.56084,9.223844 -0.46912,1.458672 -2.46,0.18636 -4.31436,-0.444416 -1.8544,-0.630776 -3.57232,-0.619296 -5.44436,-2.047752 -1.87208,-1.428464 -3.89836,-4.296204 -4.86192,-4.511208 -0.9636,-0.215 -0.86448,2.222412 -0.60152,4.52338 0.2628,2.300964 0.68988,4.464935 1.90788,5.790711 1.218,1.325772 3.2272,1.81378 5.50868,2.355972 2.28148,0.542188 4.83476,1.138304 6.4184,2.80038 1.5836,1.662084 2.198,4.389784 3.44184,6.526808 1.24388,2.137036 3.11692,3.68368 4.84288,6.114552 1.72592,2.43086 3.30468,5.744972 3.18828,7.114536 -0.1164,1.369556 -1.92748,0.794744 -4.15956,0.7795 -2.23212,-0.0152 -4.88508,0.529132 -7.69288,-0.14676 -2.80776,-0.675896 -5.77052,-2.57302 -7.23164,-5.633616 -1.46116,-3.060588 -1.4206,-7.284084 -1.78548,-8.191696 -0.3648,-0.907612 -1.13536,1.500872 -1.48964,4.071848 -0.3544,2.570984 -0.292,5.304396 -0.032,7.151972 0.2608,1.847576 0.7206,2.809352 1.579,4.165784 0.85836,1.356432 2.11456,3.107592 3.66828,3.870672 1.55376,0.76304 3.40468,0.53828 3.87504,1.64236 0.47036,1.10412 -0.43916,3.53676 -2.3454,5.24916 -1.90624,1.7124 -4.80884,2.70412 -5.796,3.6658 -0.98716,0.96164 -0.0592,1.8932 1.06684,2.39568 1.12616,0.502521 2.45076,0.576041 3.94528,0.118 1.49452,-0.45796 3.1592,-1.4474 4.32012,-2.42532 1.16092,-0.97788 1.81772,-1.94384 2.60768,-3.61616 0.79,-1.67236 1.71332,-4.05164 2.63804,-5.55556 0.92468,-1.50388 1.85084,-2.13232 2.87316,-2.59736 1.02236,-0.465 2.14048,-0.76632 3.1658,-0.55992 1.02532,0.2064 1.95752,0.92048 2.79948,2.11204 0.84192,1.19156 1.59396,2.85992 1.9228,5.38444 0.3288,2.52452 0.2348,5.90424 0.59372,8.696961 0.3588,2.79276 1.17036,4.999 2.17452,4.77696 1.00416,-0.222 2.20076,-2.8718 2.8732,-5.375 0.6724,-2.503201 0.82028,-4.859881 1.31072,-7.012121 0.49048,-2.1522 1.32328,-4.09976 2.39848,-5.4616 1.07516,-1.36184 2.39312,-2.13804 3.97056,-3.03212 1.5774,-0.89408 3.41444,-1.90544 5.57276,-2.763864 2.15828,-0.858408 4.63724,-1.564096 6.67976,-2.558308 2.04252,-0.994216 3.64836,-2.27728 4.3766,-3.613656 0.728283,-1.336376 0.579083,-2.725856 -0.2308,-2.631808 -0.80988,0.09404 -2.28092,1.671944 -3.48616,2.278572 -1.20528,0.606632 -2.14528,0.24248 -3.16052,-0.05376 -1.01524,-0.29624 -2.10524,-0.52514 -3.4428,-0.34728 -1.33752,0.17788 -2.92256,0.762288 -4.697,2.01468 -1.77444,1.252388 -3.73816,3.172904 -5.63452,5.56862 -1.8964,2.395684 -3.72484,5.265844 -4.61364,5.361004 -0.88884,0.0952 -0.83736,-2.58444 -0.55032,-5.05716 0.2872,-2.472684 0.80968,-4.737516 2.03376,-6.842824 1.22408,-2.105316 3.14892,-4.05126 5.84124,-6.187584 2.69228,-2.13632 6.15136,-4.463472 8.95904,-6.622352 2.80768,-2.158884 4.96344,-4.149628 5.7266,-6.690104 0.7632,-2.540472 0.134,-5.630339 -0.50088,-6.384407 -0.63512,-0.754056 -1.27608,0.828128 -2.13204,2.72046 -0.856,1.892327 -1.92716,4.094895 -3.70644,5.939075 -1.77932,1.844176 -4.26636,3.329936 -5.19612,3.378468 -0.92976,0.04852 -0.3024,-1.339964 0.49656,-2.908792 0.79884,-1.568824 1.76908,-3.317828 3.20116,-5.255112 1.43208,-1.937283 3.32572,-4.063259 4.73008,-6.025207 1.40436,-1.961948 2.31908,-3.759456 2.58864,-5.361912 0.2696,-1.602456 -0.106,-3.009572 -0.63204,-2.97402 -0.52612,0.0356 -1.20264,1.513836 -2.59024,3.210124 -1.38764,1.696288 -3.48668,3.610504 -5.6892,5.868108 -2.20256,2.257604 -4.508,4.858616 -6.3766,7.941815 -1.8686,3.083192 -3.29984,6.6477 -4.90372,9.820068 -1.60388,3.172364 -3.38032,5.951744 -4.55372,6.355012 -1.17336,0.403264 -1.74344,-1.569176 -2.04772,-3.735152 -0.3044,-2.165972 -0.3432,-4.525284 -0.172,-6.43402 0.1712,-1.908728 0.55296,-3.366428 1.17796,-5.1536 0.625,-1.787168 1.49364,-3.903 1.80132,-6.457447 0.3076,-2.554444 0.0544,-5.547556 -1.6224,-8.075484 -1.6768,-2.52792 -4.77744,-4.591056 -5.59364,-4.196096 -0.8162,0.39496 0.65172,3.247764 1.3532,6.203888 0.70152,2.956128 0.63676,6.015824 -0.04,8.795963 -0.67668,2.780144 -1.96512,5.280972 -3.23076,5.088604 -1.26564,-0.19236 -2.50856,-3.07814 -3.06704,-5.841239 -0.55852,-2.763092 -0.4324,-5.403924 0.0668,-8.209152 0.4992,-2.805212 1.37124,-5.774444 1.08336,-9.096144 -0.288,-3.321701 -1.73572,-6.995145 -2.51216,-7.468689 -0.0484,-0.0296 -0.0944,-0.04672 -0.138,-0.05212 z" /><path
       style="fill:#4d7600;fill-opacity:1;stroke-width:0.117592"
       d="m 41.357297,27.34825 c 0.266949,1.248073 0.800816,3.74408 0.922006,6.554376 0.121191,2.810296 -0.170244,5.934816 -0.345161,9.02513 -0.174916,3.090314 -0.233315,6.146234 0.04023,8.658095 0.273542,2.511862 0.878944,4.479461 1.515528,5.901087 0.636584,1.421625 1.304223,2.297121 2.166002,3.207053 0.861779,0.909932 1.91762,1.854267 3.283848,3.268847 1.366229,1.414579 3.042716,3.299236 3.877626,2.369946 0.834909,-0.92929 0.828243,-4.672425 1.29326,-7.479887 0.465016,-2.807462 1.401688,-4.678858 1.747292,-6.857325 0.345603,-2.178468 0.100068,-4.663795 -0.406102,-6.514323 -0.506171,-1.850528 -1.272977,-3.066008 -2.818175,-4.336592 -1.545198,-1.270583 -3.868677,-2.596074 -4.317603,-1.985762 -0.448926,0.610312 0.976812,3.156304 1.693012,5.180559 0.716199,2.024254 0.722866,3.52655 0.557689,5.463263 -0.165176,1.936714 -0.502165,4.307642 -1.130521,5.984313 -0.628356,1.67667 -1.548001,2.658986 -2.403018,2.78763 -0.855017,0.128644 -1.645413,-0.596528 -2.237382,-2.227702 -0.591969,-1.631174 -0.985341,-4.168192 -1.056364,-6.610326 -0.07102,-2.442135 0.180339,-4.789062 0.581382,-6.936736 0.401043,-2.147675 0.951725,-4.095798 1.114901,-5.903493 0.163175,-1.807694 -0.06121,-3.474745 -0.850077,-5.250712 -0.788864,-1.775967 -2.142213,-3.660659 -2.818945,-4.603087 -0.676733,-0.942427 -0.676373,-0.942427 -0.409425,0.305646 z"
       id="path12630"
       inkscape:path-effect="#path-effect12632"
       inkscape:original-d="m 41.090349,26.100177 c 0.534,2.496124 1.06788,4.992128 1.6016,7.488016 -0.2912,3.124753 -0.58276,6.249261 -0.87432,9.373713 -0.0584,3.056164 -0.1168,6.112084 -0.1752,9.167948 0.60556,1.967835 1.21096,3.935435 1.81628,5.903039 0.6678,0.875648 1.33544,1.751144 2.00296,2.626544 1.056,0.944496 2.11184,1.888832 3.1676,2.833076 1.67672,1.884892 3.3532,3.769556 5.02968,5.654216 -0.004,-3.74324 -0.012,-7.486372 -0.02,-11.22984 0.93684,-1.871384 1.87352,-3.742776 2.81012,-5.614399 -0.2456,-2.48538 -0.49096,-4.970724 -0.73664,-7.456336 -0.76676,-1.215444 -1.53356,-2.430928 -2.30052,-3.6466 -2.32348,-1.325444 -4.64696,-2.650932 -6.97068,-3.976612 1.42592,2.546248 2.85168,5.092228 4.27736,7.63824 0.008,1.50252 0.012,3.004828 0.02,4.507108 -0.3368,2.371172 -0.67388,4.742087 -1.011,7.113015 -0.9196,0.982508 -1.83924,1.964828 -2.75908,2.9471 -0.79032,-0.7251 -1.58072,-1.450268 -2.37128,-2.1756 -0.3932,-2.537048 -0.78664,-5.074055 -1.18016,-7.611335 0.2516,-2.346948 0.50284,-4.693888 0.75412,-7.041076 0.55084,-1.948132 1.10152,-3.896256 1.65212,-5.844624 -0.2244,-1.66706 -0.44868,-3.334125 -0.6732,-5.001413 -1.35328,-1.884652 -2.70664,-3.769336 -4.06012,-5.65418 z"
       sodipodi:nodetypes="ccccccccccccccccccccccc" /><path
       style="fill:#4d7600;fill-opacity:1;stroke-width:0.117592"
       d="m 24.452399,47.483764 c -0.03267,0.627787 -0.098,1.883261 0.148604,3.296784 0.246607,1.413523 0.805063,2.985001 1.549214,4.145327 0.744151,1.160326 1.673829,1.909388 3.25587,2.469218 1.582042,0.55983 3.816238,0.930429 5.491062,1.382991 1.674824,0.452563 2.790062,0.986996 3.816058,2.319383 1.025997,1.332387 1.962732,3.462504 2.582663,4.991208 0.619932,1.528704 0.923001,2.455812 1.598272,3.212922 0.675272,0.757111 1.722593,1.344214 3.137282,3.550952 1.414688,2.206737 3.196643,6.032784 3.728535,5.942147 0.531891,-0.09064 -0.186304,-4.097926 -1.528786,-7.355892 -1.342481,-3.257966 -3.309161,-5.76619 -5.223835,-8.047444 -1.914674,-2.281254 -3.777118,-4.335251 -6.055201,-5.86413 -2.278083,-1.52888 -4.97156,-2.532384 -7.11868,-4.223356 -2.14712,-1.690972 -3.747621,-4.069326 -4.547944,-5.258611 -0.800324,-1.189285 -0.800444,-1.189285 -0.833114,-0.561499 z"
       id="path12634"
       inkscape:path-effect="#path-effect12636"
       inkscape:original-d="m 24.485069,46.855978 c -0.0652,1.25558 -0.1308,2.51104 -0.196,3.766376 0.5586,1.571696 1.11704,3.14318 1.67544,4.714639 0.92984,0.749232 1.85952,1.498292 2.78916,2.247288 2.23444,0.37076 4.46864,0.74134 6.70288,1.111844 1.1154,0.534572 2.23064,1.069 3.3458,1.60334 0.93692,2.13036 1.87364,4.260484 2.81032,6.390612 0.3032,0.92728 0.60628,1.854384 0.90924,2.781424 1.04748,0.587252 2.0948,1.174356 3.14208,1.761376 1.78216,3.826392 3.56412,7.652436 5.34608,11.478604 -0.71812,-4.00744 -1.43632,-8.014728 -2.15468,-12.022396 -1.96668,-2.50826 -3.93336,-5.016484 -5.90028,-7.52498 -1.86244,-2.054004 -3.72488,-4.108004 -5.58756,-6.162244 -2.69352,-1.003444 -5.387,-2.00694 -8.08072,-3.01062 -1.60048,-2.378347 -3.20096,-4.756715 -4.80164,-7.135263 z"
       sodipodi:nodetypes="ccccccccccccccc" /><path
       style="fill:#4d7600;fill-opacity:1;stroke-width:0.117592"
       d="m 35.843205,87.625772 c -0.959184,-1.362077 -2.877617,-4.086322 -3.931865,-6.28869 -1.054248,-2.202368 -1.244227,-3.88275 -1.483825,-5.119769 -0.239597,-1.237019 -0.528811,-2.030516 -0.751621,-4.017939 -0.222809,-1.987424 -0.379149,-5.168515 -0.847105,-5.135721 -0.467956,0.03279 -1.247459,3.279599 -1.585738,5.925 -0.33828,2.645401 -0.235351,4.689147 0.26704,6.593478 0.502392,1.904332 1.404117,3.668989 3.019451,5.213368 1.615333,1.54438 3.944066,2.868397 5.108376,3.530373 1.164311,0.661977 1.164471,0.661977 0.205287,-0.7001 z"
       id="path12638"
       inkscape:path-effect="#path-effect12640"
       inkscape:original-d="m 36.802389,88.987849 c -1.91836,-2.72416 -3.8368,-5.4484 -5.75532,-8.172768 -0.19,-1.680364 -0.38,-3.360744 -0.56996,-5.041352 -0.2892,-0.793432 -0.57836,-1.586948 -0.86768,-2.380596 -0.1564,-3.18118 -0.3124,-6.362288 -0.46904,-9.543708 -0.7794,3.24706 -1.55892,6.49386 -2.33856,9.740624 0.1032,2.043992 0.206,4.087744 0.3088,6.131504 0.90192,1.764876 1.80364,3.529536 2.70528,5.294176 2.32896,1.32416 4.65768,2.6482 6.98632,3.97212 z"
       sodipodi:nodetypes="ccccccccc" /><path
       style="fill:#4d7600;fill-opacity:1;stroke-width:0.117592"
       d="m 30.637297,96.276502 c -0.864973,0.419853 -2.594903,1.259552 -2.488911,2.070914 0.105991,0.811363 2.047744,1.594221 4.18224,1.477791 2.134496,-0.116431 4.461544,-1.132054 6.165278,-3.098334 1.703734,-1.96628 2.784026,-4.883075 4.009886,-7.0179 1.22586,-2.134824 2.59712,-3.487365 3.861318,-4.097855 1.264199,-0.610491 2.421079,-0.478896 3.658535,0.275703 1.237456,0.754598 2.555391,2.132024 3.19266,3.875444 0.637269,1.743421 0.593938,3.852658 0.688825,6.315005 0.09489,2.462347 0.327978,5.27759 0.790896,7.19484 0.462918,1.91725 1.155533,2.9364 2.060176,2.52831 0.904643,-0.4081 2.021322,-2.24326 2.816353,-4.55573 0.795031,-2.312462 1.268328,-5.102019 0.79415,-5.644433 -0.474178,-0.542414 -1.895803,1.162525 -2.93321,0.912288 -1.037408,-0.250237 -1.690609,-2.455717 -2.133611,-4.48157 -0.443002,-2.025852 -0.675753,-3.871913 -1.840572,-5.388859 -1.16482,-1.516945 -3.261665,-2.704535 -5.37253,-3.017325 -2.110865,-0.312791 -4.23546,0.24935 -5.6675,1.206404 -1.43204,0.957053 -2.171291,2.308868 -2.642765,4.001378 -0.471473,1.692509 -0.67512,3.725461 -2.009857,4.95289 -1.334736,1.22743 -3.800575,1.649357 -5.033562,1.860331 -1.232987,0.210975 -1.232827,0.210855 -2.097799,0.630708 z"
       id="path12642"
       inkscape:path-effect="#path-effect12644"
       inkscape:original-d="m 31.502269,95.856649 c -1.72988,0.83984 -3.4598,1.67956 -5.18992,2.51916 1.942,0.78304 3.88376,1.56588 5.82552,2.348681 2.32732,-1.015561 4.65436,-2.031201 6.98144,-3.047001 1.08048,-2.91684 2.16076,-5.83364 3.241,-8.75072 1.37144,-1.35252 2.74272,-2.70504 4.11392,-4.05776 1.15708,0.1316 2.31396,0.2632 3.47076,0.3948 1.31812,1.3776 2.63604,2.75504 3.95392,4.1324 -0.0432,2.10948 -0.0864,4.21872 -0.13,6.32796 0.2332,2.81544 0.46632,5.630681 0.69928,8.445841 0.6928,1.01932 1.3854,2.03848 2.07792,3.05756 1.11688,-1.83516 2.23356,-3.67032 3.35016,-5.50568 0.47344,-2.789641 0.94672,-5.579201 1.41996,-8.369081 -1.4216,1.70512 -2.8432,3.41008 -4.26496,5.11492 -0.65312,-2.20544 -1.30632,-4.41092 -1.95964,-6.61656 -0.2328,-1.84604 -0.4654,-3.69212 -0.69828,-5.5384 -2.09688,-1.18756 -4.19372,-2.37516 -6.2908,-3.56292 -2.1246,0.56228 -4.2492,1.1244 -6.374,1.68648 -0.73916,1.352 -1.47844,2.7038 -2.21784,4.0556 -0.2036,2.03316 -0.40716,4.06612 -0.61096,6.09904 -2.4658,0.42208 -4.93164,0.844 -7.39764,1.2658 z"
       sodipodi:nodetypes="ccccccccccccccccccccc" /><path
       style="fill:#4d7600;fill-opacity:1;stroke-width:0.117592"
       d="m 64.071385,86.78135 c 0.539356,-0.882499 1.618072,-2.647502 2.731987,-3.960345 1.113916,-1.312842 2.262953,-2.17345 3.444577,-2.842931 1.181623,-0.669481 2.395741,-1.147802 3.429485,-1.956157 1.033744,-0.808354 1.887141,-1.946721 2.986581,-2.247271 1.09944,-0.300549 2.444677,0.236719 3.497173,0.03781 1.052496,-0.198911 1.812311,-1.13391 2.440992,-1.772297 0.62868,-0.638386 1.126152,-0.980089 1.35308,-0.308949 0.226928,0.671141 0.18333,2.354901 -0.528233,3.597787 -0.711562,1.242886 -2.091045,2.044892 -4.192082,2.861805 -2.101036,0.816912 -4.923438,1.648631 -7.660883,2.896627 -2.737445,1.247995 -5.389711,2.912178 -6.715892,3.7443 -1.326181,0.832122 -1.326141,0.832122 -0.786785,-0.05038 z"
       id="path12646"
       inkscape:path-effect="#path-effect12648"
       inkscape:original-d="m 63.532029,87.663849 c 1.07884,-1.76492 2.15756,-3.52992 3.23616,-5.295032 1.1492,-0.86052 2.29824,-1.721124 3.44716,-2.58186 1.21428,-0.47822 2.4284,-0.956536 3.6424,-1.434984 0.85356,-1.138312 1.70696,-2.276676 2.56028,-3.41522 1.3454,0.537408 2.69064,1.074668 4.0358,1.61184 0.76,-0.934932 1.5198,-1.869944 2.27952,-2.805092 0.4976,-0.3416 0.99508,-0.683292 1.492443,-1.025128 -0.0436,1.683976 -0.0872,3.367736 -0.1308,5.051476 -1.379443,0.802176 -2.758923,1.604188 -4.138643,2.406132 -2.8224,0.831868 -5.6448,1.663592 -8.4674,2.495216 -2.65224,1.664372 -5.30452,3.328532 -7.95696,4.992652 z"
       sodipodi:nodetypes="cccccccccccc" /><path
       style="fill:#4d7600;fill-opacity:1;stroke-width:0.117592"
       d="m 60.158424,76.163686 c 1.456595,-1.589612 4.369771,-4.768818 7.749688,-7.450804 3.379917,-2.681986 7.226276,-4.866572 9.630768,-6.992724 2.404493,-2.126152 3.366882,-4.193681 3.505127,-6.513724 0.138246,-2.320042 -0.547726,-4.892415 -1.27313,-4.952164 -0.725405,-0.05975 -1.490093,2.393205 -2.894209,4.768297 -1.404117,2.375093 -3.44749,4.672073 -5.06434,5.965937 -1.61685,1.293863 -2.807051,1.584459 -3.041527,1.032379 -0.234476,-0.552081 0.486843,-1.946829 1.404766,-3.48007 0.917922,-1.533241 2.032326,-3.204767 3.550254,-5.164464 1.517928,-1.959698 3.439174,-4.207296 4.669452,-6.393521 1.230279,-2.186224 1.769429,-4.310854 1.68238,-5.819102 -0.08705,-1.508247 -0.800441,-2.399998 -1.219064,-1.864622 -0.418622,0.535377 -0.542353,2.497829 -1.635009,4.879106 -1.092656,2.381277 -3.154116,5.18126 -4.925936,7.496861 -1.77182,2.315601 -3.253792,4.146551 -4.190488,6.351627 -0.936696,2.205075 -1.327995,4.783967 -1.46414,6.246621 -0.136145,1.462654 -0.01723,1.80887 -0.524783,2.467505 -0.507553,0.658634 -1.641508,1.629755 -2.982063,3.517303 -1.340555,1.887548 -2.887602,4.691348 -3.661132,6.093259 -0.773529,1.401911 -0.773209,1.401911 0.683386,-0.1877 z"
       id="path12650"
       inkscape:path-effect="#path-effect12652"
       inkscape:original-d="m 58.701829,77.753297 c 2.91332,-3.179104 5.82648,-6.358324 8.73956,-9.537656 3.84672,-2.184604 7.69308,-4.369188 11.53956,-6.554032 0.96256,-2.06754 1.92496,-4.135064 2.88728,-6.202828 -0.68588,-2.572415 -1.37184,-5.144791 -2.058,-7.717435 -0.7646,2.453224 -1.52928,4.90618 -2.29416,7.359171 -2.0434,2.297248 -4.08676,4.59424 -6.1304,6.891256 -1.19016,0.29072 -2.38036,0.58132 -3.57068,0.871808 0.72148,-1.394704 1.4428,-2.789452 2.16404,-4.1844 1.1146,-1.671516 2.229,-3.343044 3.34336,-5.014799 1.92148,-2.247628 3.84272,-4.495232 5.764,-6.7431 0.53928,-2.124648 1.07844,-4.249276 1.61752,-6.37416 -0.71328,-0.891664 -1.42668,-1.783408 -2.1402,-2.675284 -0.1236,1.962652 -0.2472,3.925112 -0.3712,5.887496 -2.06144,2.80026 -4.12292,5.600228 -6.1846,8.400248 -1.48196,1.831191 -2.96392,3.662151 -4.44612,5.493103 -0.3912,2.579108 -0.78252,5.157996 -1.17392,7.73682 0.1192,0.3464 0.238,0.692656 0.3568,1.038804 -1.13388,0.971276 -2.26784,1.942392 -3.40192,2.913408 -1.547,2.804032 -3.09404,5.607836 -4.64124,8.41158 z"
       sodipodi:nodetypes="cccccccccccccccccccc" /><path
       d="m 29.3248,14.539122 c -0.42449,0.17286 -1.363288,0.540682 -2.087948,0.823196 -2.265974,0.882024 -3.578584,1.623244 -4.809918,2.71275 -0.397416,0.352652 -1.297892,1.289164 -1.295198,1.345362 0.0018,0.0148 0.1204,0.221192 0.259798,0.453576 0.245156,0.417636 0.322156,0.59957 0.231,0.545806 -0.04556,-0.02688 -0.1667,0.256646 -0.202844,0.474234 -0.03018,0.207456 0.06742,0.415194 0.640188,1.353708 0.89279,1.45491 1.680602,2.827426 2.42552,4.229244 0.38887,0.720838 0.575208,0.960432 0.76597,0.984208 0.279228,0.02132 0.411246,-0.324016 0.32543,-0.872942 -0.04522,-0.279228 -0.03652,-0.328706 0.05524,-0.39746 0.05868,-0.04732 0.1013,-0.11092 0.09438,-0.1423 -0.0032,-0.0292 -0.07556,-0.392696 -0.15356,-0.80731 -0.078,-0.41461 -0.16574,-0.916876 -0.19144,-1.11634 l -0.04816,-0.369714 0.18538,-0.18418 c 0.2267,-0.228078 0.361832,-0.257596 0.793552,-0.17362 0.77551,0.1434 1.272568,0.36829 2.742516,1.235256 1.549702,0.914002 1.967222,1.22169 3.409328,2.509102 0.464422,0.410442 0.964402,0.821362 1.116334,0.91097 0.258284,0.15234 0.294668,0.1601 0.449084,0.08058 0.09416,-0.04686 0.230172,-0.1646 0.311078,-0.26705 0.18572,-0.245416 1.823812,-3.45685 1.949582,-3.826368 0.10864,-0.331836 0.07784,-0.60939 -0.09248,-0.832722 -0.10768,-0.1386 -0.10632,-0.15826 0.0172,-0.419866 0.07228,-0.14852 0.17132,-0.34265 0.222104,-0.428744 l 0.0926,-0.157 -0.344768,-0.387634 C 35.654738,21.228212 35.08182,20.671874 34.44621,20.126344 33.9476,19.695738 33.705876,19.532692 32.603556,18.875724 31.247562,18.07597 31.004722,17.966878 29.705306,17.54862 29.29287,17.4146 28.956164,17.291074 28.95373,17.269158 c -0.0024,-0.02186 0.015,-0.02532 0.04156,-0.0096 0.07218,0.04258 0.660416,-0.477402 0.843682,-0.744748 0.29027,-0.42267 0.162,-0.682628 -0.296378,-0.591192 -0.2741,0.05676 -0.826138,0.263618 -0.981134,0.370158 -0.15202,0.10146 0.307028,-0.303566 1.025562,-0.896868 0.33443,-0.280582 0.621368,-0.54139 0.63468,-0.581322 0.0066,-0.0371 -0.0164,-0.18038 -0.05768,-0.327542 L 30.089502,14.2325 Z"
       id="path2658-7"
       style="stroke-width:0.0050919" /><path
       style="fill:#77ff2c;fill-opacity:1;stroke-width:0.0881944"
       d="m 87.067204,12.853924 c 0.504356,-0.383922 1.513137,-1.15182 1.938222,-2.048311 0.425086,-0.8964897 0.266323,-1.9214938 0.409097,-2.6925693 0.142773,-0.7710756 0.587153,-1.2881673 1.361065,-1.5967202 0.773913,-0.3085528 1.877272,-0.4084424 2.757966,-0.6752544 0.880694,-0.266812 1.538639,-0.7005733 1.98173,-1.0724247 0.443092,-0.3718513 0.671263,-0.6817899 0.920895,-1.0677048 0.249631,-0.385915 0.520693,-0.8477856 0.762406,-0.6334807 0.241714,0.214305 0.453978,1.1047839 0.377015,2.0300574 -0.07696,0.9252735 -0.443088,1.8851839 -0.948021,2.5179768 -0.504933,0.6327929 -1.148513,0.9384283 -1.813394,1.2349319 -0.664881,0.2965036 -1.350939,0.5838264 -1.828863,0.8749924 -0.477924,0.2911656 -0.747692,0.5861126 -0.837263,1.1301506 -0.08957,0.544038 9.62e-4,1.337157 0.01095,1.896149 0.01,0.558991 -0.06055,0.883829 -1.006707,0.925777 -0.946156,0.04195 -2.767816,-0.198853 -3.678623,-0.319251 -0.910806,-0.120397 -0.910826,-0.120397 -0.406471,-0.504319 z"
       id="path7547-3-5-3"
       inkscape:path-effect="#path-effect7549-1-0-3"
       inkscape:original-d="m 86.562849,13.237846 c 1.00872,-0.767832 2.0175,-1.535732 3.02642,-2.303752 -0.1588,-1.0249641 -0.31764,-2.0499561 -0.4763,-3.0750961 0.44432,-0.5170358 0.8887,-1.0341277 1.333196,-1.5513397 1.10334,-0.09984 2.2067,-0.19972 3.3102,-0.29968 0.6579,-0.433696 1.31584,-0.867464 1.9739,-1.301328 0.22808,-0.30988 0.45626,-0.619812 0.68454,-0.929852 0.27096,-0.4618 0.54204,-0.92366 0.8132,-1.385636 0.2122,0.890624 0.42446,1.781104 0.63682,2.671548 -0.36624,0.96006 -0.73236,1.919972 -1.09842,2.8798557 -0.64374,0.30576 -1.28732,0.611396 -1.93088,0.916972 -0.6862,0.28744 -1.37226,0.57476 -2.05828,0.862012 -0.26984,0.2950401 -0.53962,0.5899761 -0.8093,0.8848361 0.0904,0.793236 0.181,1.586348 0.2716,2.379392 -0.0706,0.32492 -0.1412,0.649744 -0.2116,0.974484 -1.821816,-0.24072 -3.643476,-0.481524 -5.465076,-0.722416 z"
       sodipodi:nodetypes="cccccccccccccccc" /><path
       style="fill:#06d400;fill-opacity:1;stroke-width:0.0881944"
       d="m 95.985147,17.726688 c 0.01306,-0.153215 0.0392,-0.459769 -0.172529,-0.62714 -0.211726,-0.16737 -0.661207,-0.195476 -1.072007,-0.359127 -0.410801,-0.163652 -0.782969,-0.462847 -0.966715,-0.768295 -0.183746,-0.305448 -0.179079,-0.617236 -0.0812,-0.988785 0.09787,-0.371549 0.289016,-0.802915 0.367508,-1.294258 0.07849,-0.491343 0.04429,-1.042671 -0.138276,-1.437667 -0.182568,-0.394997 -0.513524,-0.633591 -1.025347,-0.787511 -0.511823,-0.15392 -1.204461,-0.223186 -1.97722,-0.433073 -0.772759,-0.209888 -1.625642,-0.560377 -2.182392,-1.1563297 -0.55675,-0.595953 -0.81741,-1.4374048 -0.805397,-2.1736624 0.01201,-0.7362575 0.296761,-1.3673223 1.01226,-2.4409384 0.7155,-1.073616 1.861731,-2.5897075 2.105295,-2.8913988 0.243564,-0.3016913 -0.415535,0.6110054 -0.771925,1.4276696 -0.356389,0.8166643 -0.410122,1.5372613 -0.293788,2.1981534 0.116334,0.660892 0.402701,1.2621082 0.952794,1.6818718 0.550092,0.4197637 1.363952,0.6581096 2.176906,0.7734236 0.812955,0.1153141 1.624997,0.1075809 2.242237,0.407037 0.617239,0.2994561 1.039546,0.9060551 1.30993,1.6178529 0.270383,0.711797 0.388819,1.528658 0.405526,2.271115 0.01671,0.742457 -0.06829,1.410389 -0.01239,2.061314 0.0559,0.650926 0.252678,1.284873 0.420502,1.679745 0.167824,0.394871 0.306751,0.550785 0.05053,0.743203 -0.256219,0.192418 -0.907421,0.421326 -1.232972,0.535762 -0.325551,0.114436 -0.324391,0.114254 -0.311329,-0.03896 z"
       id="path7701-6-1-5"
       inkscape:path-effect="#path-effect7703-2-4-6"
       inkscape:original-d="m 95.972085,17.879904 c 0.026,-0.306442 0.0522,-0.61299 0.0784,-0.919614 -0.4496,-0.028 -0.89908,-0.05612 -1.3485,-0.08432 -0.37224,-0.29912 -0.74442,-0.5983 -1.1165,-0.897582 0.004,-0.31172 0.01,-0.623488 0.014,-0.935368 0.191,-0.431264 0.3822,-0.862604 0.5734,-1.294044 -0.034,-0.551248 -0.0684,-1.102564 -0.1026,-1.65398 -0.331,-0.23848 -0.66196,-0.477068 -0.9928,-0.715736 -0.69274,-0.0692 -1.38538,-0.13844 -2.07794,-0.2078 -0.852996,-0.3504 -1.705876,-0.700896 -2.558676,-1.051478 -0.26076,-0.8414001 -0.52142,-1.6828521 -0.782,-2.5244139 0.28468,-0.6309999 0.56942,-1.2620679 0.85426,-1.8932359 1.14618,-1.51606 2.292416,-3.032148 3.438756,-4.548356 -0.65922,0.91282 -1.31832,1.825516 -1.977336,2.738144 -0.0538,0.720712 -0.1076,1.441304 -0.1612,2.161824 0.28628,0.601328 0.572656,1.2025399 0.859116,1.8036797 0.8138,0.23844 1.62766,0.476784 2.4416,0.715044 0.812,-0.0076 1.62404,-0.0156 2.43618,-0.0232 0.42224,0.606716 0.84454,1.21332 1.26696,1.8198521 0.1184,0.816996 0.23676,1.633868 0.35532,2.450672 -0.0852,0.668068 -0.17,1.336024 -0.255,2.0039 0.1966,0.634032 0.39348,1.267948 0.59032,1.901788 0.1388,0.15596 0.27772,0.31188 0.41672,0.467672 -0.65132,0.229 -1.30252,0.457912 -1.95364,0.686734 z" /><path
       style="fill:#00bd0e;fill-opacity:1;stroke-width:0.0881944"
       d="m 103.1787,11.0976 c -0.0541,-0.0038 -0.1621,-0.0114 -0.58906,-0.03984 -0.42696,-0.02843 -1.17283,-0.0777 -1.85591,-0.427344 -0.68308,-0.349647 -1.303396,-0.9996721 -1.850648,-1.4505925 -0.547251,-0.4509204 -1.02138,-0.7027019 -1.536859,-0.7593046 -0.515478,-0.056603 -1.072197,0.081921 -1.656656,0.2933364 -0.584458,0.2114151 -1.19662,0.4956874 -1.862333,0.5758333 -0.665713,0.080146 -1.384993,-0.043774 -1.908637,-0.084054 -0.523644,-0.04028 -0.851643,0.00305 -1.21064,0.4767113 -0.358997,0.4736582 -0.749022,1.3775152 -1.123169,2.0857772 -0.374147,0.708262 -0.732378,1.220913 -1.069353,1.619994 -0.336974,0.399081 -0.652635,0.684578 -0.917851,1.219448 -0.265216,0.53487 -0.480017,1.319028 -0.325045,2.179072 0.154971,0.860043 0.679654,1.795988 0.831978,1.916946 0.152323,0.120959 -0.06771,-0.573063 -0.05723,-1.119854 0.01048,-0.546791 0.251551,-0.946377 0.684241,-1.288395 0.43269,-0.342018 1.057028,-0.626413 1.408056,-1.016975 0.351027,-0.390562 0.428638,-0.8873 0.649174,-1.286917 0.220535,-0.399616 0.584044,-0.702065 1.18226,-0.766261 0.598217,-0.0642 1.431056,0.109968 2.001409,-0.07372 0.570354,-0.183685 0.878192,-0.725318 1.239887,-1.146231 0.361694,-0.420913 0.777285,-0.721062 1.17126,-0.616924 0.393975,0.104139 0.766209,0.612603 1.104881,0.976815 0.338672,0.364212 0.643809,0.584197 1.235343,0.716144 0.591535,0.131947 1.469496,0.17584 2.158606,0.186244 0.68911,0.0104 1.18934,-0.01269 1.48255,0.03919 0.29322,0.05188 0.37927,0.178685 0.48938,-0.176358 0.11011,-0.355043 0.24429,-1.192047 0.31139,-1.610594 0.0671,-0.418547 0.0671,-0.418351 0.013,-0.422157 z"
       id="path7873-8-6-6"
       inkscape:path-effect="#path-effect7875-8-0-7"
       inkscape:original-d="m 103.2328,11.101406 c -0.1082,-0.0076 -0.2162,-0.0152 -0.32412,-0.0228 -0.746,-0.0492 -1.49188,-0.09844 -2.2377,-0.1478 -0.62041,-0.649952 -1.240735,-1.2999721 -1.860975,-1.9500921 -0.47422,-0.25172 -0.94836,-0.50348 -1.4224,-0.755352 -0.55684,0.13864 -1.11356,0.27716 -1.67022,0.415588 -0.61226,0.28436 -1.22442,0.568636 -1.8365,0.852824 -0.71938,-0.12384 -1.43866,-0.24776 -2.15784,-0.37176 -0.32808,0.04344 -0.65608,0.08676 -0.984,0.13 -0.39012,0.9039801 -0.780156,1.8078321 -1.170096,2.7116161 -0.35832,0.512752 -0.71656,1.025396 -1.0747,1.53796 -0.3158,0.2856 -0.63144,0.57112 -0.94704,0.856544 -0.21492,0.784284 -0.4297,1.568448 -0.64442,2.35254 0.52462,0.936068 1.0493,1.872014 1.57408,2.807886 -0.22016,-0.693972 -0.44016,-1.388004 -0.66012,-2.082142 0.241,-0.39948 0.48206,-0.799076 0.72322,-1.198744 0.62426,-0.28432 1.2486,-0.568712 1.873036,-0.853196 0.0776,-0.496676 0.1552,-0.993416 0.23284,-1.490252 0.36344,-0.3024 0.72696,-0.604836 1.09058,-0.907392 0.83278,0.17428 1.66562,0.34844 2.49856,0.5225 0.30776,-0.541568 0.6156,-1.0832 0.92354,-1.62494 0.4155,-0.30004 0.83108,-0.600204 1.24676,-0.90044 0.37216,0.508572 0.7444,1.017032 1.11672,1.525416 0.30504,0.22008 0.61018,0.44006 0.91542,0.65996 0.8779,0.04396 1.755865,0.08784 2.633915,0.13168 0.50016,-0.0232 1.0004,-0.04608 1.50074,-0.06928 0.086,0.12692 0.172,0.25376 0.2582,0.38048 0.134,-0.836928 0.26828,-1.673916 0.40254,-2.511 z" /><path
       style="fill:#3fe900;fill-opacity:1;stroke-width:0.0881944"
       d="m 90.219021,7.0956619 c 0.01729,0.020784 0.05214,0.06267 0.162321,0.2074638 0.110181,0.1447936 0.295783,0.3925999 0.321754,0.7578458 0.02597,0.3652459 -0.107793,0.8478192 0.09816,1.3263108 0.205953,0.4784915 0.751692,0.9529837 1.069355,1.5235477 0.317663,0.570564 0.407152,1.237112 0.352023,1.848166 -0.05513,0.611054 -0.254895,1.166547 -0.216046,1.720673 0.03885,0.554126 0.316332,1.106969 0.806279,1.313899 0.489947,0.20693 1.192406,0.06785 1.715714,0.04852 0.523308,-0.01932 0.867446,0.08117 1.061716,0.290046 0.19427,0.20888 0.238534,0.526123 0.472559,0.857133 0.234026,0.331009 0.657886,0.675789 1.136231,0.759062 0.478345,0.08327 1.011139,-0.09507 1.720227,-0.42973 0.709089,-0.334664 1.594385,-0.825633 2.392615,-0.894962 0.79822,-0.06933 1.50936,0.283082 1.59855,0.29036 0.0892,0.0073 -0.4436,-0.330571 -0.90924,-0.658847 -0.46564,-0.328275 -0.86416,-0.646969 -1.40612,-0.830881 C 100.05317,15.04036 99.367823,14.99116 98.809651,14.730679 98.251478,14.470197 97.820439,13.99852 97.590118,13.42808 97.359796,12.857639 97.33013,12.188447 97.034332,11.647171 96.738534,11.105895 96.176728,10.692623 95.692753,10.34962 95.208779,10.006617 94.802689,9.7339146 94.469018,9.0205646 94.135348,8.3072145 93.874034,7.1532575 93.17483,6.7555654 92.475626,6.3578733 91.338645,6.7163833 90.770207,6.8956217 90.201769,7.0748601 90.201729,7.0748781 90.219021,7.0956619 Z"
       id="path7877-0-6-2"
       inkscape:path-effect="#path-effect7879-9-8-5"
       inkscape:original-d="m 90.201729,7.0748781 c 0.0344,0.04172 0.0694,0.08348 0.104196,0.12524 0.1856,0.2478 0.37112,0.4956678 0.5569,0.7435438 -0.1338,0.482544 -0.26764,0.965096 -0.40128,1.447684 0.54562,0.47448 1.09136,0.9489701 1.63724,1.4234961 0.0894,0.666564 0.1788,1.333124 0.26848,1.999732 -0.1998,0.555462 -0.39964,1.110928 -0.59928,1.666432 0.27736,0.552836 0.55484,1.10568 0.83246,1.65856 0.70236,-0.13912 1.40482,-0.2782 2.1074,-0.41726 0.34404,0.10048 0.68818,0.20096 1.03246,0.30148 0.0442,0.31724 0.0884,0.634492 0.1328,0.95178 0.42374,0.34476 0.8476,0.68954 1.2716,1.034356 0.5327,-0.1784 1.0655,-0.356722 1.59844,-0.535036 0.88522,-0.491018 1.770515,-0.98199 2.655955,-1.472944 0.71104,0.3524 1.42218,0.704804 2.13346,1.057256 -0.53292,-0.33788 -1.0657,-0.675732 -1.59836,-1.013556 -0.39864,-0.31872 -0.79716,-0.637412 -1.19554,-0.956072 -0.68549,-0.04924 -1.370835,-0.09844 -2.056055,-0.1476 -0.43118,-0.471724 -0.86222,-0.9434 -1.29314,-1.415056 -0.03,-0.66926 -0.0594,-1.338464 -0.089,-2.007656 -0.56196,-0.413324 -1.12376,-0.826604 -1.68548,-1.23986 -0.40622,-0.27276 -0.81232,-0.5454481 -1.2183,-0.8181281 -0.26144,-1.154032 -0.52276,-2.3079878 -0.78396,-3.4619437 -1.13712,0.35848 -2.2741,0.716994 -3.410956,1.0755339 z" /><path
       d="m 74.299213,14.550946 c -0.0888,0.15956 -0.15676,0.30827 -0.14308,0.33429 0.011,0.02086 0.275666,0.23369 0.580344,0.472074 0.590486,0.453458 0.633462,0.497288 0.522836,0.489022 -0.04206,-0.0038 -0.02196,0.08456 0.04918,0.219926 0.08208,0.15612 0.280546,0.344064 0.659964,0.636148 0.304406,0.22522 0.529424,0.425756 0.508876,0.449844 -0.0152,0.02142 -0.29251,0.10064 -0.61186,0.17544 -3.1484,0.758596 -5.953922,2.080894 -8.671822,4.087838 -0.932722,0.689668 -2.274746,1.813786 -2.309022,1.938104 -0.02494,0.0662 1.891648,4.671712 2.11575,5.08531 0.0192,0.03642 0.08762,0.04028 0.15528,0.0048 0.10408,-0.05472 0.13064,-0.04208 0.17824,0.09892 0.03328,0.08876 0.1601,0.24132 0.28577,0.341316 0.37421,0.294814 0.502114,0.247492 1.71205,-0.647736 2.38645,-1.752954 3.50539,-2.46748 5.43093,-3.479888 1.576846,-0.829086 2.395514,-1.179796 3.373784,-1.441738 0.23272,-0.06296 0.47572,-0.14388 0.540918,-0.17142 0.09636,-0.0442 0.10962,-0.03216 0.1095,0.08188 -9.56e-4,0.213062 -0.405054,1.415328 -0.830772,2.46287 l -0.395832,0.965402 0.202586,0.13262 c 0.1093,0.06884 0.252952,0.15264 0.31675,0.18552 0.1301,0.0579 0.11722,0.07124 0.555804,-0.471642 0.13338,-0.16322 0.21068,-0.243644 0.1726,-0.17706 -0.13726,0.23169 -0.270882,0.773484 -0.23343,0.933158 0.02322,0.10734 0.09046,0.18494 0.19432,0.243254 0.27404,0.15484 0.480306,-0.04668 1.970006,-1.925934 1.412672,-1.785668 2.377642,-2.957316 3.346418,-4.071156 0.989318,-1.137948 1.079774,-1.344936 0.822566,-1.834134 -0.08482,-0.16128 -0.19592,-0.322126 -0.254532,-0.357742 -0.07206,-0.04858 -0.08324,-0.08246 -0.0396,-0.13852 0.0978,-0.10466 0.0058,-0.228912 -0.589778,-0.80589 -1.191276,-1.153926 -2.455834,-1.903962 -4.421718,-2.610754 -0.622622,-0.223992 -1.979894,-0.619724 -4.249226,-1.246678 l -0.89399,-0.247368 z"
       id="path2936-1-7"
       style="stroke-width:0.00587964"
       inkscape:transform-center-x="12.493119"
       inkscape:transform-center-y="-12.061711" /></g></svg>
