<?xml version="1.0" encoding="UTF-8" standalone="no"?>
<!-- Created with Inkscape (http://www.inkscape.org/) -->

<svg
   width="400"
   height="400"
   viewBox="0 0 400 400"
   version="1.1"
   id="svg5"
   inkscape:version="1.2.1 (9c6d41e410, 2022-07-14)"
   sodipodi:docname="panel_11.svg"
   xmlns:inkscape="http://www.inkscape.org/namespaces/inkscape"
   xmlns:sodipodi="http://sodipodi.sourceforge.net/DTD/sodipodi-0.dtd"
   xmlns="http://www.w3.org/2000/svg"
   xmlns:svg="http://www.w3.org/2000/svg">
  <sodipodi:namedview
     id="namedview7"
     pagecolor="#ffffff"
     bordercolor="#000000"
     borderopacity="0.25"
     inkscape:showpageshadow="2"
     inkscape:pageopacity="0.0"
     inkscape:pagecheckerboard="0"
     inkscape:deskcolor="#d1d1d1"
     inkscape:document-units="mm"
     showgrid="true"
     inkscape:zoom="1.9099422"
     inkscape:cx="296.34405"
     inkscape:cy="151.83706"
     inkscape:window-width="1920"
     inkscape:window-height="1057"
     inkscape:window-x="-8"
     inkscape:window-y="-8"
     inkscape:window-maximized="1"
     inkscape:current-layer="layer1">
    <inkscape:grid
       type="xygrid"
       id="grid2603"
       originx="0"
       originy="0" />
  </sodipodi:namedview>
  <defs
     id="defs2">
    <rect
       x="1.862012"
       y="6.633348"
       width="883.79102"
       height="259.25641"
       id="rect3915" />
    <rect
       x="186.06348"
       y="14.530354"
       width="1175.5583"
       height="352.32516"
       id="rect2393" />
    <rect
       x="202.75607"
       y="16.482548"
       width="1007.754"
       height="388.59305"
       id="rect2387" />
    <rect
       x="13.774038"
       y="39.86969"
       width="1663.6396"
       height="461.14969"
       id="rect2441" />
    <rect
       x="84.219177"
       y="41.991734"
       width="1569.6019"
       height="554.16821"
       id="rect2242" />
  </defs>
  <g
     inkscape:label="Layer 1"
     inkscape:groupmode="layer"
     id="layer1">
    <text
       xml:space="preserve"
       transform="scale(0.26458333)"
       id="text2240"
       style="font-size:26.6667px;white-space:pre;shape-inside:url(#rect2242);fill:#000000" />
    <text
       xml:space="preserve"
       transform="scale(0.26458333)"
       id="text2385"
       style="font-size:24px;font-family:KacstDecorative;-inkscape-font-specification:KacstDecorative;white-space:pre;shape-inside:url(#rect2387);fill:#000000" />
    <text
       xml:space="preserve"
       transform="scale(0.26458333)"
       id="text2391"
       style="font-size:192px;font-family:KacstDecorative;-inkscape-font-specification:KacstDecorative;white-space:pre;shape-inside:url(#rect2393);fill:#000000" />
    <g
       aria-label="cycle:"
       transform="matrix(1.0460872,0,0,1.0460872,-2.0838606,-23.090331)"
       id="text3913"
       style="font-size:133.333px;font-family:KacstDecorative;-inkscape-font-specification:KacstDecorative;white-space:pre;shape-inside:url(#rect3915)">
      <path
         d="m 66.900224,54.484253 v 11.197888 q -5.078112,-2.799472 -10.221328,-4.166656 -5.078112,-1.432288 -10.286432,-1.432288 -11.653616,0 -18.098912,7.421856 -6.445296,7.356752 -6.445296,20.703072 0,13.346315 6.445296,20.768175 6.445296,7.35675 18.098912,7.35675 5.20832,0 10.286432,-1.36718 5.143216,-1.43229 10.221328,-4.23176 v 11.06768 q -5.013008,2.34374 -10.41664,3.51561 -5.338528,1.17188 -11.3932,1.17188 -16.471312,0 -26.171808,-10.35154 -9.7004958,-10.35154 -9.7004958,-27.929615 0,-17.838496 9.7655998,-28.059824 9.830704,-10.221328 26.887952,-10.221328 5.53384,0 10.807264,1.171872 5.273424,1.106768 10.221328,3.385408 z"
         id="path4978" />
      <path
         d="m 118.07197,131.37208 q -5.07811,13.0208 -9.89581,16.99214 -4.81769,3.97135 -12.89059,3.97135 h -9.570288 v -10.02602 h 7.031232 q 4.947904,0 7.682276,-2.34374 2.73436,-2.34375 6.05467,-11.06768 l 2.14843,-5.46874 -29.492112,-71.744609 h 12.69528 l 22.786402,57.031099 22.7864,-57.031099 h 12.69528 z"
         id="path4980" />
      <path
         d="m 219.11339,54.484253 v 11.197888 q -5.07811,-2.799472 -10.22133,-4.166656 -5.07811,-1.432288 -10.28643,-1.432288 -11.65362,0 -18.09891,7.421856 -6.4453,7.356752 -6.4453,20.703072 0,13.346315 6.4453,20.768175 6.44529,7.35675 18.09891,7.35675 5.20832,0 10.28643,-1.36718 5.14322,-1.43229 10.22133,-4.23176 v 11.06768 q -5.01301,2.34374 -10.41664,3.51561 -5.33853,1.17188 -11.3932,1.17188 -16.47131,0 -26.17181,-10.35154 -9.70049,-10.35154 -9.70049,-27.929615 0,-17.838496 9.7656,-28.059824 9.8307,-10.221328 26.88795,-10.221328 5.53384,0 10.80726,1.171872 5.27343,1.106768 10.22133,3.385408 z"
         id="path4982" />
      <path
         d="M 239.94666,23.299437 H 251.9258 V 124.60126 h -11.97914 z"
         id="path4984" />
      <path
         d="m 339.36049,85.148237 v 5.85936 H 284.2825 q 0.78125,12.369763 7.42186,18.880163 6.70571,6.44529 18.61974,6.44529 6.90103,0 13.34632,-1.6927 6.5104,-1.69271 12.89059,-5.07811 v 11.32809 q -6.44529,2.73437 -13.21611,4.16666 -6.77081,1.43229 -13.73694,1.43229 -17.44787,0 -27.6692,-10.15623 -10.15623,-10.15622 -10.15623,-27.473885 0,-17.9036 9.6354,-28.385344 9.70049,-10.546848 26.1067,-10.546848 14.7135,0 23.24213,9.505184 8.59373,9.44008 8.59373,25.71608 z m -11.97914,-3.515616 q -0.13021,-9.830704 -5.53384,-15.690064 -5.33853,-5.85936 -14.19267,-5.85936 -10.02602,0 -16.08069,5.664048 -5.98957,5.664048 -6.90102,15.95048 z"
         id="path4986" />
      <path
         d="m 373.40987,87.752397 q 0,3.385408 -2.40884,5.794256 -2.40885,2.408848 -5.79426,2.408848 -3.12499,0 -5.66405,-2.539056 -2.40885,-2.408848 -2.40885,-5.664048 0,-3.2552 2.40885,-5.664048 2.53906,-2.539056 5.66405,-2.539056 3.1901,0 5.59894,2.539056 2.60416,2.669264 2.60416,5.664048 z m 0,28.645763 q 0,3.3854 -2.40884,5.79425 -2.40885,2.40885 -5.79426,2.40885 -3.12499,0 -5.66405,-2.53906 -2.40885,-2.40884 -2.40885,-5.66404 0,-3.2552 2.40885,-5.66405 2.53906,-2.53906 5.66405,-2.53906 3.1901,0 5.59894,2.53906 2.60416,2.66926 2.60416,5.66405 z"
         id="path4988" />
    </g>
  </g>
</svg>
