<?xml version="1.0" encoding="UTF-8" standalone="no"?>
<!-- Created with Inkscape (http://www.inkscape.org/) -->

<svg
   width="400"
   height="400"
   viewBox="0 0 105.83333 105.83333"
   version="1.1"
   id="svg15659"
   inkscape:version="1.2.1 (ef4d3fba62, 2022-07-19, custom)"
   sodipodi:docname="panel_10.svg"
   xmlns:inkscape="http://www.inkscape.org/namespaces/inkscape"
   xmlns:sodipodi="http://sodipodi.sourceforge.net/DTD/sodipodi-0.dtd"
   xmlns="http://www.w3.org/2000/svg"
   xmlns:svg="http://www.w3.org/2000/svg">
  <sodipodi:namedview
     id="namedview15661"
     pagecolor="#ffffff"
     bordercolor="#000000"
     borderopacity="0.25"
     inkscape:showpageshadow="2"
     inkscape:pageopacity="0.0"
     inkscape:pagecheckerboard="0"
     inkscape:deskcolor="#d1d1d1"
     inkscape:document-units="mm"
     showgrid="false"
     inkscape:zoom="0.95497112"
     inkscape:cx="-31.938139"
     inkscape:cy="211.52472"
     inkscape:window-width="1920"
     inkscape:window-height="1013"
     inkscape:window-x="0"
     inkscape:window-y="30"
     inkscape:window-maximized="1"
     inkscape:current-layer="layer1" />
  <defs
     id="defs15656">
    <rect
       x="210.54371"
       y="270.15423"
       width="514.56048"
       height="103.21156"
       id="rect22965" />
    <rect
       x="32.708121"
       y="295.62328"
       width="597.49377"
       height="120.76277"
       id="rect22959" />
    <rect
       x="38.392816"
       y="154.10604"
       width="678.48519"
       height="159.53326"
       id="rect22953" />
    <rect
       x="-53.316348"
       y="157.91988"
       width="461.85014"
       height="487.93614"
       id="rect22886" />
    <rect
       x="49.135773"
       y="233.50832"
       width="72.418564"
       height="41.848328"
       id="rect8527" />
    <rect
       x="146.91278"
       y="220.82794"
       width="253.03246"
       height="52.864635"
       id="rect10088" />
    <rect
       x="150.58582"
       y="286.23993"
       width="269.31998"
       height="51.147526"
       id="rect10094" />
  </defs>
  <g
     inkscape:label="Layer 1"
     inkscape:groupmode="layer"
     id="layer1">
    <path
       d="M 37.982808,0.43047116 H 65.47126 c 2.169584,0 4.14514,0.89252804 5.580948,2.32833204 1.449916,1.449912 2.35302,3.45722 2.35302,5.665608 V 30.282522 c 0,2.20839 -0.899576,4.21216 -2.35302,5.66561 -1.435808,1.43581 -3.411364,2.32833 -5.580948,2.32833 H 37.982808 c -2.16958,0 -4.145136,-0.89252 -5.580948,-2.32833 -1.449912,-1.45345 -2.349496,-3.45722 -2.349496,-5.66561 V 8.4208832 c 0,-2.208388 0.899584,-4.215692 2.349496,-5.665608 1.435812,-1.432276 3.411368,-2.32480404 5.580948,-2.32480404 z M 31.653976,27.319183 c 0.27868,1.121839 0.8255,2.123729 1.566332,2.924529 1.090084,1.17475 2.59292,1.905 4.250972,1.905 h 28.515036 c 0.06704,0 0.13404,0 0.20108,-0.003 l 0.405696,-0.0284 c 1.414636,-0.15524 2.688164,-0.84314 3.644192,-1.87325 0.740836,-0.79728 1.28764,-1.79917 1.566336,-2.921003 V 8.4208832 c 0,-1.710972 -0.705556,-3.273772 -1.837968,-4.406192 -1.150056,-1.150052 -2.737552,-1.86266 -4.490864,-1.86266 h -27.49198 c -1.753304,0 -3.344336,0.712608 -4.490864,1.86266 -1.13594,1.135944 -1.837968,2.69522 -1.837968,4.406192 z"
       id="path18-5-0-0-7-0"
       sodipodi:nodetypes="sssssssscsscsccssccccsssscsc"
       style="stroke-width:0.352777" />
    <g
       aria-label="J"
       transform="matrix(1.0583333,0,0,1.0583333,-3.5721639,-245.55201)"
       id="text8525"
       style="font-size:24px;white-space:pre;shape-inside:url(#rect8527)">
      <path
         d="m 51.492187,237.24609 h 2.367188 v 16.27735 q 0,3.16406 -1.207031,4.59375 -1.195313,1.42968 -3.855469,1.42968 h -0.902344 v -1.99218 h 0.738281 q 1.570313,0 2.214844,-0.87891 0.644531,-0.87891 0.644531,-3.15234 z"
         id="path3316" />
    </g>
    <g
       aria-label="jump
"
       transform="matrix(0.26458333,0,0,0.26458333,15.026172,-4.5397447)"
       id="text22951"
       style="font-size:85.3333px;font-family:KacstDecorative;-inkscape-font-specification:KacstDecorative;white-space:pre;shape-inside:url(#rect22953)">
      <path
         d="m 46.434241,182.93879 h 7.666664 v 47.49998 q 0,8.91666 -3.416665,12.91666 -3.374999,4 -10.916662,4 h -2.916666 v -6.5 h 2.041666 q 4.374998,0 5.958331,-2.04166 1.583332,-2 1.583332,-8.375 z m 0,-18.16666 h 7.666664 v 9.70833 h -7.666664 z"
         id="path3319" />
      <path
         d="m 69.350898,211.18878 v -28.24999 h 7.666663 v 27.95832 q 0,6.625 2.583332,9.95833 2.583333,3.29167 7.749997,3.29167 6.208331,0 9.791663,-3.95834 3.624997,-3.95833 3.624997,-10.79166 v -26.45832 h 7.66666 v 46.66665 h -7.66666 v -7.16667 q -2.791664,4.25 -6.499996,6.33333 -3.666665,2.04167 -8.541663,2.04167 -8.041664,0 -12.208328,-5 -4.166665,-5 -4.166665,-14.62499 z m 19.291658,-29.37499 z"
         id="path3321" />
      <path
         d="m 160.55919,191.89712 q 2.875,-5.16666 6.875,-7.625 4,-2.45833 9.41666,-2.45833 7.29167,0 11.25,5.125 3.95833,5.08333 3.95833,14.49999 v 28.16666 h -7.70833 v -27.91666 q 0,-6.70833 -2.375,-9.95833 -2.375,-3.25 -7.25,-3.25 -5.95833,0 -9.41666,3.95834 -3.45833,3.95833 -3.45833,10.79166 v 26.37499 h -7.70833 v -27.91666 q 0,-6.74999 -2.375,-9.95833 -2.375,-3.25 -7.33333,-3.25 -5.875,0 -9.33333,4 -3.45833,3.95833 -3.45833,10.75 v 26.37499 h -7.70833 v -46.66665 h 7.70833 v 7.25 q 2.625,-4.29167 6.29166,-6.33333 3.66667,-2.04167 8.70833,-2.04167 5.08333,0 8.625,2.58333 3.58333,2.58334 5.29166,7.5 z"
         id="path3323" />
      <path
         d="m 214.7675,222.60544 v 24.74999 h -7.70833 v -64.41664 h 7.70833 v 7.08333 q 2.41667,-4.16666 6.08333,-6.16666 3.70833,-2.04167 8.83333,-2.04167 8.5,0 13.79166,6.75 5.33333,6.74999 5.33333,17.74999 0,11 -5.33333,17.74999 -5.29166,6.75 -13.79166,6.75 -5.125,0 -8.83333,-2 -3.66666,-2.04166 -6.08333,-6.20833 z m 26.08332,-16.29166 q 0,-8.45833 -3.5,-13.24999 -3.45833,-4.83334 -9.54166,-4.83334 -6.08333,0 -9.58333,4.83334 -3.45833,4.79166 -3.45833,13.24999 0,8.45833 3.45833,13.29166 3.5,4.79167 9.58333,4.79167 6.08333,0 9.54166,-4.79167 3.5,-4.83333 3.5,-13.29166 z"
         id="path3325" />
    </g>
    <g
       aria-label="100"
       transform="matrix(0.26458333,0,0,0.26458333,20.894272,-17.025427)"
       id="text22957"
       style="font-size:85.3333px;font-family:KacstDecorative;-inkscape-font-specification:KacstDecorative;white-space:pre;shape-inside:url(#rect22959)">
      <path
         d="m 43.292313,364.03968 h 13.749995 v -47.45831 l -14.958328,3 v -7.66666 l 14.874994,-3 h 8.416663 v 55.12497 h 13.749995 v 7.08334 H 43.292313 Z"
         id="path3328" />
      <path
         d="m 114.12562,314.45637 q -6.5,0 -9.79166,6.41667 -3.25,6.37499 -3.25,19.20832 0,12.79166 3.25,19.20833 3.29166,6.37499 9.79166,6.37499 6.54166,0 9.79166,-6.37499 3.29167,-6.41667 3.29167,-19.20833 0,-12.83333 -3.29167,-19.20832 -3.25,-6.41667 -9.79166,-6.41667 z m 0,-6.66666 q 10.45833,0 15.95832,8.29166 5.54167,8.25 5.54167,23.99999 0,15.70833 -5.54167,23.99999 -5.49999,8.25 -15.95832,8.25 -10.45833,0 -15.999995,-8.25 -5.499998,-8.29166 -5.499998,-23.99999 0,-15.74999 5.499998,-23.99999 5.541665,-8.29166 15.999995,-8.29166 z"
         id="path3330" />
      <path
         d="m 168.41726,314.45637 q -6.49999,0 -9.79166,6.41667 -3.25,6.37499 -3.25,19.20832 0,12.79166 3.25,19.20833 3.29167,6.37499 9.79166,6.37499 6.54167,0 9.79167,-6.37499 3.29166,-6.41667 3.29166,-19.20833 0,-12.83333 -3.29166,-19.20832 -3.25,-6.41667 -9.79167,-6.41667 z m 0,-6.66666 q 10.45833,0 15.95833,8.29166 5.54166,8.25 5.54166,23.99999 0,15.70833 -5.54166,23.99999 -5.5,8.25 -15.95833,8.25 -10.45833,0 -15.99999,-8.25 -5.5,-8.29166 -5.5,-23.99999 0,-15.74999 5.5,-23.99999 5.54166,-8.29166 15.99999,-8.29166 z"
         id="path3332" />
    </g>
    <g
       aria-label="cycles"
       transform="matrix(0.26458333,0,0,0.26458333,-38.985522,9.5400295)"
       id="text22963"
       style="font-size:85.3333px;font-family:KacstDecorative;-inkscape-font-specification:KacstDecorative;white-space:pre;shape-inside:url(#rect22965)">
      <path
         d="m 252.16795,300.77928 v 7.16667 q -3.25,-1.79167 -6.54166,-2.66667 -3.25,-0.91666 -6.58333,-0.91666 -7.45833,0 -11.58333,4.74999 -4.125,4.70834 -4.125,13.25 0,8.54166 4.125,13.29166 4.125,4.70833 11.58333,4.70833 3.33333,0 6.58333,-0.875 3.29166,-0.91667 6.54166,-2.70833 v 7.08333 q -3.20833,1.5 -6.66666,2.25 -3.41667,0.75 -7.29167,0.75 -10.54166,0 -16.74999,-6.625 -6.20833,-6.625 -6.20833,-17.87499 0,-11.41666 6.25,-17.95833 6.29166,-6.54166 17.20832,-6.54166 3.54167,0 6.91667,0.75 3.375,0.70833 6.54166,2.16666 z"
         id="path3335" />
      <path
         d="m 284.91794,349.9876 q -3.25,8.33333 -6.33333,10.87499 -3.08333,2.54167 -8.25,2.54167 h -6.125 v -6.41667 h 4.5 q 3.16667,0 4.91667,-1.5 1.75,-1.49999 3.875,-7.08333 l 1.375,-3.49999 -18.875,-45.91665 h 8.125 l 14.58333,36.49998 14.58332,-36.49998 h 8.125 z"
         id="path3337" />
      <path
         d="m 349.58458,300.77928 v 7.16667 q -3.25,-1.79167 -6.54167,-2.66667 -3.25,-0.91666 -6.58333,-0.91666 -7.45833,0 -11.58333,4.74999 -4.12499,4.70834 -4.12499,13.25 0,8.54166 4.12499,13.29166 4.125,4.70833 11.58333,4.70833 3.33333,0 6.58333,-0.875 3.29167,-0.91667 6.54167,-2.70833 v 7.08333 q -3.20833,1.5 -6.66667,2.25 -3.41666,0.75 -7.29166,0.75 -10.54166,0 -16.74999,-6.625 -6.20833,-6.625 -6.20833,-17.87499 0,-11.41666 6.24999,-17.95833 6.29167,-6.54166 17.20833,-6.54166 3.54166,0 6.91666,0.75 3.375,0.70833 6.54167,2.16666 z"
         id="path3339" />
      <path
         d="m 362.91791,280.82096 h 7.66667 v 64.83331 h -7.66667 z"
         id="path3341" />
      <path
         d="m 426.54288,320.40428 v 3.74999 h -35.24999 q 0.5,7.91667 4.75,12.08333 4.29167,4.125 11.91666,4.125 4.41667,0 8.54167,-1.08333 4.16666,-1.08333 8.24999,-3.25 v 7.25 q -4.125,1.75 -8.45833,2.66666 -4.33333,0.91667 -8.79166,0.91667 -11.16666,0 -17.70833,-6.5 -6.49999,-6.5 -6.49999,-17.58333 0,-11.45832 6.16666,-18.16665 6.20833,-6.75 16.70833,-6.75 9.41666,0 14.87499,6.08333 5.5,6.04166 5.5,16.45833 z m -7.66667,-2.25 q -0.0833,-6.29167 -3.54166,-10.04167 -3.41667,-3.74999 -9.08333,-3.74999 -6.41666,0 -10.29166,3.62499 -3.83333,3.625 -4.41667,10.20833 z"
         id="path3343" />
      <path
         d="m 468.8762,300.36262 v 7.24999 q -3.25,-1.66666 -6.75,-2.49999 -3.5,-0.83334 -7.24999,-0.83334 -5.70834,0 -8.58333,1.75 -2.83334,1.75 -2.83334,5.25 0,2.66667 2.04167,4.20833 2.04167,1.5 8.20833,2.875 l 2.625,0.58333 q 8.16666,1.75 11.58333,4.95833 3.45833,3.16667 3.45833,8.875 0,6.5 -5.16667,10.29166 -5.12499,3.79167 -14.12499,3.79167 -3.75,0 -7.83333,-0.75 -4.04166,-0.70833 -8.54166,-2.16667 v -7.91666 q 4.25,2.20833 8.37499,3.33333 4.125,1.08333 8.16667,1.08333 5.41666,0 8.33333,-1.83333 2.91666,-1.875 2.91666,-5.25 0,-3.12499 -2.125,-4.79166 -2.08333,-1.66667 -9.20833,-3.20833 l -2.66666,-0.625 q -7.125,-1.5 -10.29166,-4.58333 -3.16667,-3.125 -3.16667,-8.54167 0,-6.58333 4.66666,-10.16666 4.66667,-3.58333 13.25,-3.58333 4.25,0 8,0.625 3.74999,0.625 6.91666,1.875 z"
         id="path3345" />
    </g>
  </g>
</svg>
