<?xml version="1.0" encoding="UTF-8" standalone="no"?>
<!-- Created with Inkscape (http://www.inkscape.org/) -->

<svg
   width="400"
   height="400"
   viewBox="0 0 400 400"
   version="1.1"
   id="svg5"
   inkscape:version="1.2.1 (9c6d41e410, 2022-07-14)"
   sodipodi:docname="panel_0.svg"
   xmlns:inkscape="http://www.inkscape.org/namespaces/inkscape"
   xmlns:sodipodi="http://sodipodi.sourceforge.net/DTD/sodipodi-0.dtd"
   xmlns="http://www.w3.org/2000/svg"
   xmlns:svg="http://www.w3.org/2000/svg">
  <sodipodi:namedview
     id="namedview7"
     pagecolor="#ffffff"
     bordercolor="#000000"
     borderopacity="0.25"
     inkscape:showpageshadow="2"
     inkscape:pageopacity="0.0"
     inkscape:pagecheckerboard="0"
     inkscape:deskcolor="#d1d1d1"
     inkscape:document-units="mm"
     showgrid="true"
     inkscape:zoom="1.3505331"
     inkscape:cx="165.11998"
     inkscape:cy="248.0502"
     inkscape:window-width="1920"
     inkscape:window-height="1057"
     inkscape:window-x="-8"
     inkscape:window-y="-8"
     inkscape:window-maximized="1"
     inkscape:current-layer="g5587">
    <inkscape:grid
       type="xygrid"
       id="grid16308" />
  </sodipodi:namedview>
  <defs
     id="defs2">
    <rect
       x="168.49583"
       y="224.12134"
       width="592.21088"
       height="289.78873"
       id="rect4872" />
    <rect
       x="187.94675"
       y="30.789505"
       width="441.13437"
       height="269.98868"
       id="rect4866" />
    <rect
       x="38.519924"
       y="248.33414"
       width="458.39368"
       height="203.22453"
       id="rect4798" />
    <rect
       x="146.43513"
       y="54.250404"
       width="358.96384"
       height="152.20917"
       id="rect4742" />
    <rect
       x="113.60322"
       y="138.54253"
       width="382.61923"
       height="65.598305"
       id="rect16368" />
    <rect
       x="90.754524"
       y="5.4136386"
       width="378.53271"
       height="121.69748"
       id="rect16312" />
    <rect
       x="21.57749"
       y="147.3987"
       width="92.264679"
       height="56.866673"
       id="rect16304" />
    <rect
       x="88.96814"
       y="579.82098"
       width="729.93402"
       height="359.85107"
       id="rect7269" />
    <rect
       x="96.732407"
       y="101.09867"
       width="44.751904"
       height="30.553066"
       id="rect7571" />
  </defs>
  <g
     inkscape:label="Layer 1"
     inkscape:groupmode="layer"
     id="layer1">
    <g
       id="g3245"
       transform="matrix(0.26458333,0,0,0.26458333,-28.362631,0.08703278)">
      <path
         d="m 433.75998,189.37917 c -0.76012,-0.64392 -1.41918,-1.28215 -2.31308,-1.89197 -9.94149,-6.6948 -10.20913,-4.71761 0.67194,-12.24003 8.06027,-5.54711 17.8351,-9.88974 26.70094,-14.68689 23.4485,-12.70971 38.88218,-29.73174 49.31358,-49.91462 C 531.53876,65.331246 462.5694,34.02572 427.95719,7.2105371 402.94807,-12.195859 363.57598,17.403298 388.55472,36.762347 c 19.29974,14.984232 44.16235,27.135246 60.95712,43.791752 18.8199,18.650747 -9.85059,39.225661 -29.49372,49.607801 -30.36746,16.0467 -56.62145,37.36021 -50.55352,60.21344 C 233.17984,199.92418 107.17746,255.94649 107.17746,354.7 v 277.21207 c 0,122.46469 132.83036,222.09308 296.12415,222.09308 163.28366,0 296.12416,-99.6265 296.12416,-222.09308 V 354.68296 C 699.43335,246.86732 565.68636,194.65168 433.75998,189.37917 Z M 162.92766,354.68296 c 0,-73.30569 106.09919,-115.74712 215.98859,-122.79986 V 487.56385 C 278.67547,483.77992 197.28738,466.65184 162.92766,458.29043 Z M 643.68814,631.9007 c 0,99.42772 -107.83646,180.29367 -240.37387,180.29367 -132.54,0 -240.38403,-80.86595 -240.38403,-180.29367 V 502.23938 c 49.77824,11.28363 143.47136,28.39845 254.22179,28.39845 70.92639,0 148.80704,-7.11902 226.53869,-27.18069 V 631.9007 Z m 0,-172.90575 C 573.19612,479.21192 501.20917,487.1169 434.65639,488.18883 V 231.2676 C 542.14945,236.10261 643.68814,274.76769 643.68814,354.7 Z M 354.90967,253.57349 v 212.06134 c -43.3139,5.73271 -170.65713,-21.01049 -170.65713,-21.01049 -18.7871,-148.66055 55.4018,-174.8091 170.65713,-191.05085 z"
         id="path3243"
         style="stroke-width:2.18685" />
      <path
         id="path5203"
         style="fill:#ff0000;stroke-width:0.370224"
         sodipodi:type="inkscape:offset"
         inkscape:radius="0.68235588"
         inkscape:original="M 98.486328 134.02148 C 97.974371 134.02148 88.642566 136.06801 84.78125 137.02734 C 58.491373 143.55895 44.348179 154.05907 36.707031 172.7207 C 33.897881 179.58136 32.128403 187.166 31.074219 196.87109 C 30.35372 203.50421 30.317253 220.72036 31.005859 228.98438 L 31.46875 234.53711 L 41.279297 237.01172 C 56.835848 240.9349 72.140354 243.99106 82.535156 245.25195 C 86.775278 245.76628 97.050425 245.99863 98.080078 245.60352 C 98.610485 245.39998 98.664062 240.13172 98.664062 189.70117 C 98.664062 159.07765 98.584898 134.02148 98.486328 134.02148 z "
         d="m 98.486328,133.33984 c -0.145651,0 -0.192602,0.0143 -0.300781,0.0312 -0.108179,0.0169 -0.240748,0.0387 -0.400391,0.0684 -0.319286,0.0592 -0.743948,0.14412 -1.25,0.24805 -1.012103,0.20786 -2.349142,0.49432 -3.791015,0.81055 -2.883747,0.63245 -6.181654,1.38388 -8.126953,1.86718 -26.400377,6.55907 -40.821998,17.24585 -48.541016,36.09766 -2.8379,6.93087 -4.620773,14.58534 -5.679688,24.33399 -0.733919,6.75667 -0.765596,23.89998 -0.07031,32.24414 l 0.46289,5.55273 a 0.68242412,0.68242412 0 0 0 0.513672,0.60547 l 9.810547,2.47461 c 15.57797,3.92858 30.893677,6.98874 41.339844,8.25586 2.173278,0.26362 5.800728,0.44816 9.042969,0.52148 1.62112,0.0367 3.141721,0.0456 4.332031,0.0195 0.595155,-0.013 1.106768,-0.0362 1.515625,-0.0684 0.408857,-0.0321 0.664118,-0.0407 0.980469,-0.16211 0.262062,-0.10056 0.396644,-0.30368 0.466797,-0.45117 0.07015,-0.14748 0.10245,-0.28122 0.134765,-0.44336 0.06463,-0.32426 0.109741,-0.76054 0.150391,-1.42968 0.0813,-1.33829 0.137846,-3.5948 0.177734,-7.42188 0.07978,-7.65416 0.0918,-21.57745 0.0918,-46.79297 0,-15.31235 -0.01866,-29.23308 -0.05078,-39.32617 -0.01606,-5.04654 -0.03534,-9.13546 -0.05664,-11.96484 -0.01065,-1.41469 -0.02155,-2.51512 -0.0332,-3.26368 -0.0058,-0.37427 -0.01136,-0.65926 -0.01758,-0.85742 -0.0031,-0.0991 -0.0078,-0.17569 -0.01172,-0.23828 -0.002,-0.0313 -0.0028,-0.0556 -0.0078,-0.0957 -0.0025,-0.0201 -0.0037,-0.0404 -0.01758,-0.0957 -0.007,-0.0276 -0.05235,-0.14377 -0.05273,-0.14454 -3.84e-4,-7.6e-4 -0.610943,-0.375 -0.611328,-0.375 z"
         transform="matrix(2.5251484,0,0,1.8938613,105.23648,0.25449075)" />
      <g
         id="g5587"
         transform="translate(159.06961,659.62756)">
        <text
           xml:space="preserve"
           transform="translate(-61.068713,-660.98819)"
           id="text7267"
           style="font-size:24px;white-space:pre;shape-inside:url(#rect7269);fill:#ff0000" />
        <path
           d="M 86.516932,439.76474 H 381.65635 c 23.2945,0 44.50567,9.58302 59.92174,24.99897 15.56754,15.56753 25.26407,37.11972 25.26407,60.83079 v 234.68737 c 0,23.71107 -9.65858,45.22529 -25.26407,60.83079 -15.41607,15.41607 -36.62724,24.99897 -59.92174,24.99897 H 86.516932 c -23.294506,0 -44.50579,-9.5829 -59.92186,-24.99897 C 11.027532,805.50716 1.3688398,783.99294 1.3688398,760.28187 V 525.55665 c 0,-23.71118 9.6586922,-45.26324 25.2262322,-60.83078 15.41607,-15.37811 36.627354,-24.96113 59.92186,-24.96113 z M 18.565177,728.46488 c 2.992149,12.04508 8.863271,22.80214 16.817488,31.4003 11.704062,12.61311 27.839761,20.4537 45.641993,20.4537 H 387.18636 c 0.71929,0 1.43925,0 2.15899,-0.0341 l 4.35596,-0.30453 c 15.1887,-1.66675 28.86233,-9.05269 39.12714,-20.1128 7.95421,-8.56022 13.82512,-19.31739 16.81749,-31.36235 V 525.56018 c 0,-18.3705 -7.57549,-35.15002 -19.73408,-47.30862 -12.34789,-12.34801 -29.39265,-19.99917 -48.21767,-19.99917 H 86.516932 c -18.825031,0 -35.907622,7.65116 -48.217796,19.99917 -12.19643,12.19643 -19.733959,28.93812 -19.733959,47.30862 z"
           id="path18-5-0"
           sodipodi:nodetypes="sssssssscsscsccssccccsssscsc"
           style="stroke-width:3.78772" />
        <g
           aria-label="Q"
           transform="matrix(11.363168,0,0,11.363168,-116.87115,-1217.7787)"
           id="text16302"
           style="font-size:24px;white-space:pre;shape-inside:url(#rect16304)">
          <path
             d="m 31.035156,152.74219 q -2.578125,0 -4.101562,1.92187 -1.511719,1.92188 -1.511719,5.23828 0,3.30469 1.511719,5.22657 1.523437,1.92187 4.101562,1.92187 2.578125,0 4.078125,-1.92187 1.511719,-1.92188 1.511719,-5.22657 0,-3.3164 -1.511719,-5.23828 -1.5,-1.92187 -4.078125,-1.92187 z m 3.316406,15.57422 3.117188,3.41015 h -2.859375 l -2.589844,-2.80078 q -0.386719,0.0234 -0.597656,0.0352 -0.199219,0.0117 -0.386719,0.0117 -3.691406,0 -5.90625,-2.46094 -2.203125,-2.47266 -2.203125,-6.60938 0,-4.14843 2.203125,-6.60937 2.214844,-2.47266 5.90625,-2.47266 3.679688,0 5.882813,2.47266 2.203125,2.46094 2.203125,6.60937 0,3.04688 -1.230469,5.21485 -1.21875,2.16797 -3.539063,3.19922 z"
             id="path1632" />
        </g>
        <g
           aria-label="add"
           transform="matrix(3.7877227,0,0,3.7877227,-127.02491,-406.90334)"
           id="text4864"
           style="font-size:64px;font-family:KacstDecorative;-inkscape-font-specification:KacstDecorative;white-space:pre;shape-inside:url(#rect4866)">
          <path
             d="m 209.88477,69.820312 q -6.96875,0 -9.65625,1.59375 -2.6875,1.59375 -2.6875,5.4375 0,3.0625 2,4.875 2.03125,1.78125 5.5,1.78125 4.78125,0 7.65625,-3.375 2.90625,-3.40625 2.90625,-9.03125 v -1.28125 z m 11.46875,-2.375 v 19.96875 h -5.75 v -5.3125 q -1.96875,3.1875 -4.90625,4.71875 -2.9375,1.5 -7.1875,1.5 -5.375,0 -8.5625,-3 -3.15625,-3.03125 -3.15625,-8.09375 0,-5.90625 3.9375,-8.90625 3.96875,-3 11.8125,-3 h 8.0625 v -0.5625 q 0,-3.96875 -2.625,-6.125 -2.59375,-2.1875 -7.3125,-2.1875 -3,0 -5.84375,0.71875 -2.84375,0.71875 -5.46875,2.15625 v -5.3125 q 3.15625,-1.21875 6.125,-1.8125 2.96875,-0.625 5.78125,-0.625 7.59375,0 11.34375,3.9375 3.75,3.9375 3.75,11.9375 z"
             id="path1612" />
          <path
             d="m 256.22852,57.726562 v -18.9375 h 5.75 v 48.625 h -5.75 v -5.25 q -1.8125,3.125 -4.59375,4.65625 -2.75,1.5 -6.625,1.5 -6.34375,0 -10.34375,-5.0625 -3.96875,-5.0625 -3.96875,-13.3125 0,-8.25 3.96875,-13.3125 4,-5.0625 10.34375,-5.0625 3.875,0 6.625,1.53125 2.78125,1.5 4.59375,4.625 z m -19.59375,12.21875 q 0,6.34375 2.59375,9.96875 2.625,3.59375 7.1875,3.59375 4.5625,0 7.1875,-3.59375 2.625,-3.625 2.625,-9.96875 0,-6.34375 -2.625,-9.9375 -2.625,-3.625 -7.1875,-3.625 -4.5625,0 -7.1875,3.625 -2.59375,3.59375 -2.59375,9.9375 z"
             id="path1614" />
          <path
             d="m 296.85352,57.726562 v -18.9375 h 5.75 v 48.625 h -5.75 v -5.25 q -1.8125,3.125 -4.59375,4.65625 -2.75,1.5 -6.625,1.5 -6.34375,0 -10.34375,-5.0625 -3.96875,-5.0625 -3.96875,-13.3125 0,-8.25 3.96875,-13.3125 4,-5.0625 10.34375,-5.0625 3.875,0 6.625,1.53125 2.78125,1.5 4.59375,4.625 z m -19.59375,12.21875 q 0,6.34375 2.59375,9.96875 2.625,3.59375 7.1875,3.59375 4.5625,0 7.1875,-3.59375 2.625,-3.625 2.625,-9.96875 0,-6.34375 -2.625,-9.9375 -2.625,-3.625 -7.1875,-3.625 -4.5625,0 -7.1875,3.625 -2.59375,3.59375 -2.59375,9.9375 z"
             id="path1616" />
        </g>
        <g
           aria-label="change"
           transform="matrix(3.7877227,0,0,3.7877227,-57.998856,-340.98129)"
           id="text4870"
           style="font-size:64px;font-family:KacstDecorative;-inkscape-font-specification:KacstDecorative;white-space:pre;shape-inside:url(#rect4872)">
          <path
             d="m 199.71484,247.08984 v 5.375 q -2.4375,-1.34375 -4.90625,-2 -2.4375,-0.6875 -4.9375,-0.6875 -5.59375,0 -8.6875,3.5625 -3.09375,3.53125 -3.09375,9.9375 0,6.40625 3.09375,9.96875 3.09375,3.53125 8.6875,3.53125 2.5,0 4.9375,-0.65625 2.46875,-0.6875 4.90625,-2.03125 v 5.3125 q -2.40625,1.125 -5,1.6875 -2.5625,0.5625 -5.46875,0.5625 -7.90625,0 -12.5625,-4.96875 -4.65625,-4.96875 -4.65625,-13.40625 0,-8.5625 4.6875,-13.46875 4.71875,-4.90625 12.90625,-4.90625 2.65625,0 5.1875,0.5625 2.53125,0.53125 4.90625,1.625 z"
             id="path1619" />
          <path
             d="m 238.80859,259.62109 v 21.125 h -5.75 v -20.9375 q 0,-4.96875 -1.9375,-7.4375 -1.9375,-2.46875 -5.8125,-2.46875 -4.65625,0 -7.34375,2.96875 -2.6875,2.96875 -2.6875,8.09375 v 19.78125 h -5.78125 v -48.625 h 5.78125 v 19.0625 q 2.0625,-3.15625 4.84375,-4.71875 2.8125,-1.5625 6.46875,-1.5625 6.03125,0 9.125,3.75 3.09375,3.71875 3.09375,10.96875 z"
             id="path1621" />
          <path
             d="m 266.18359,263.15234 q -6.96875,0 -9.65625,1.59375 -2.6875,1.59375 -2.6875,5.4375 0,3.0625 2,4.875 2.03125,1.78125 5.5,1.78125 4.78125,0 7.65625,-3.375 2.90625,-3.40625 2.90625,-9.03125 v -1.28125 z m 11.46875,-2.375 v 19.96875 h -5.75 v -5.3125 q -1.96875,3.1875 -4.90625,4.71875 -2.9375,1.5 -7.1875,1.5 -5.375,0 -8.5625,-3 -3.15625,-3.03125 -3.15625,-8.09375 0,-5.90625 3.9375,-8.90625 3.96875,-3 11.8125,-3 h 8.0625 v -0.5625 q 0,-3.96875 -2.625,-6.125 -2.59375,-2.1875 -7.3125,-2.1875 -3,0 -5.84375,0.71875 -2.84375,0.71875 -5.46875,2.15625 v -5.3125 q 3.15625,-1.21875 6.125,-1.8125 2.96875,-0.625 5.78125,-0.625 7.59375,0 11.34375,3.9375 3.75,3.9375 3.75,11.9375 z"
             id="path1623" />
          <path
             d="m 318.58984,259.62109 v 21.125 h -5.75 v -20.9375 q 0,-4.96875 -1.9375,-7.4375 -1.9375,-2.46875 -5.8125,-2.46875 -4.65625,0 -7.34375,2.96875 -2.6875,2.96875 -2.6875,8.09375 v 19.78125 h -5.78125 v -35 h 5.78125 v 5.4375 q 2.0625,-3.15625 4.84375,-4.71875 2.8125,-1.5625 6.46875,-1.5625 6.03125,0 9.125,3.75 3.09375,3.71875 3.09375,10.96875 z"
             id="path1625" />
          <path
             d="m 353.08984,262.83984 q 0,-6.25 -2.59375,-9.6875 -2.5625,-3.4375 -7.21875,-3.4375 -4.625,0 -7.21875,3.4375 -2.5625,3.4375 -2.5625,9.6875 0,6.21875 2.5625,9.65625 2.59375,3.4375 7.21875,3.4375 4.65625,0 7.21875,-3.4375 2.59375,-3.4375 2.59375,-9.65625 z m 5.75,13.5625 q 0,8.9375 -3.96875,13.28125 -3.96875,4.375 -12.15625,4.375 -3.03125,0 -5.71875,-0.46875 -2.6875,-0.4375 -5.21875,-1.375 v -5.59375 q 2.53125,1.375 5,2.03125 2.46875,0.65625 5.03125,0.65625 5.65625,0 8.46875,-2.96875 2.8125,-2.9375 2.8125,-8.90625 v -2.84375 q -1.78125,3.09375 -4.5625,4.625 -2.78125,1.53125 -6.65625,1.53125 -6.4375,0 -10.375,-4.90625 -3.9375,-4.90625 -3.9375,-13 0,-8.125 3.9375,-13.03125 3.9375,-4.90625 10.375,-4.90625 3.875,0 6.65625,1.53125 2.78125,1.53125 4.5625,4.625 v -5.3125 h 5.75 z"
             id="path1627" />
          <path
             d="m 400.62109,261.80859 v 2.8125 h -26.4375 q 0.375,5.9375 3.5625,9.0625 3.21875,3.09375 8.9375,3.09375 3.3125,0 6.40625,-0.8125 3.125,-0.8125 6.1875,-2.4375 v 5.4375 q -3.09375,1.3125 -6.34375,2 -3.25,0.6875 -6.59375,0.6875 -8.375,0 -13.28125,-4.875 -4.875,-4.875 -4.875,-13.1875 0,-8.59375 4.625,-13.625 4.65625,-5.0625 12.53125,-5.0625 7.0625,0 11.15625,4.5625 4.125,4.53125 4.125,12.34375 z m -5.75,-1.6875 q -0.0625,-4.71875 -2.65625,-7.53125 -2.5625,-2.8125 -6.8125,-2.8125 -4.8125,0 -7.71875,2.71875 -2.875,2.71875 -3.3125,7.65625 z"
             id="path1629" />
        </g>
      </g>
    </g>
  </g>
</svg>
