<?xml version="1.0" encoding="UTF-8" standalone="no"?>
<!-- Created with Inkscape (http://www.inkscape.org/) -->

<svg
   width="400"
   height="400"
   viewBox="0 0 105.83333 105.83333"
   version="1.1"
   id="svg5"
   inkscape:version="1.2.1 (ef4d3fba62, 2022-07-19, custom)"
   sodipodi:docname="panel_0.svg"
   xmlns:inkscape="http://www.inkscape.org/namespaces/inkscape"
   xmlns:sodipodi="http://sodipodi.sourceforge.net/DTD/sodipodi-0.dtd"
   xmlns="http://www.w3.org/2000/svg"
   xmlns:svg="http://www.w3.org/2000/svg">
  <sodipodi:namedview
     id="namedview7"
     pagecolor="#ffffff"
     bordercolor="#000000"
     borderopacity="0.25"
     inkscape:showpageshadow="2"
     inkscape:pageopacity="0.0"
     inkscape:pagecheckerboard="0"
     inkscape:deskcolor="#d1d1d1"
     inkscape:document-units="mm"
     showgrid="true"
     inkscape:zoom="1.3505331"
     inkscape:cx="164.74976"
     inkscape:cy="247.30975"
     inkscape:window-width="1920"
     inkscape:window-height="1013"
     inkscape:window-x="0"
     inkscape:window-y="30"
     inkscape:window-maximized="1"
     inkscape:current-layer="g5587">
    <inkscape:grid
       type="xygrid"
       id="grid16308" />
  </sodipodi:namedview>
  <defs
     id="defs2">
    <rect
       x="168.49584"
       y="224.12134"
       width="592.2109"
       height="289.78873"
       id="rect4872" />
    <rect
       x="187.94675"
       y="30.789505"
       width="441.13436"
       height="269.98867"
       id="rect4866" />
    <rect
       x="38.519923"
       y="248.33413"
       width="458.39369"
       height="203.22453"
       id="rect4798" />
    <rect
       x="146.43514"
       y="54.250406"
       width="358.96384"
       height="152.20916"
       id="rect4742" />
    <rect
       x="113.60322"
       y="138.54252"
       width="382.61924"
       height="65.598303"
       id="rect16368" />
    <rect
       x="90.754528"
       y="5.4136386"
       width="378.53271"
       height="121.69748"
       id="rect16312" />
    <rect
       x="21.577489"
       y="147.3987"
       width="92.264681"
       height="56.866672"
       id="rect16304" />
    <rect
       x="88.96814"
       y="579.82098"
       width="729.93402"
       height="359.85107"
       id="rect7269" />
    <rect
       x="96.732407"
       y="101.09867"
       width="44.751904"
       height="30.553066"
       id="rect7571" />
  </defs>
  <g
     inkscape:label="Layer 1"
     inkscape:groupmode="layer"
     id="layer1">
    <g
       id="g3245"
       transform="matrix(0.26458333,0,0,0.26458333,-28.362631,0.08703278)">
      <path
         d="m 193.3988,50.643228 c -0.20068,-0.17 -0.37468,-0.3385 -0.61068,-0.4995 -2.62466,-1.7675 -2.69532,-1.2455 0.1774,-3.2315 2.128,-1.4645 4.70866,-2.611 7.04934,-3.8775 6.19066,-3.3555 10.26532,-7.849502 13.01932,-13.178002 C 219.21346,17.893227 201.0048,9.6282273 191.8668,2.5487274 c -6.60268,-5.1235 -16.99734,2.691 -10.40268,7.8019996 5.09534,3.956 11.65934,7.164 16.09334,11.561499 4.96866,4.924 -2.60066,10.356 -7.78666,13.097 -8.01734,4.236502 -14.94868,9.863502 -13.34668,15.897002 -35.98066,2.521 -69.24666,17.3115 -69.24666,43.3835 v 73.187002 c 0,32.33201 35.06866,58.63499 78.18,58.63499 43.10866,0 78.18,-26.30248 78.18,-58.63499 V 94.285228 c 0.002,-28.4645 -35.30866,-42.25 -70.13866,-43.642 z m -71.50268,43.642 c 0,-19.3535 28.01134,-30.5585 57.02334,-32.4205 v 67.502502 c -26.46466,-0.999 -47.952,-5.521 -57.02334,-7.7285 z m 126.926,73.188502 c 0,26.25 -28.47,47.59949 -63.46132,47.59949 -34.992,0 -63.464,-21.34949 -63.464,-47.59949 v -34.232 c 13.142,2.979 37.878,7.4975 67.11732,7.4975 18.72534,0 39.28668,-1.8795 59.80868,-7.176 v 33.9105 z m 0,-45.649 c -18.61066,5.3375 -37.616,7.4245 -55.18666,7.7075 V 61.702228 c 28.37934,1.2765 55.18666,11.4845 55.18666,32.5875 z M 172.58146,67.591228 v 55.986502 c -11.43534,1.5135 -45.05534,-5.547 -45.05534,-5.547 -4.96,-39.248002 14.62668,-46.151502 45.05534,-50.439502 z"
         id="path3243"
         style="stroke-width:0.57735" />
      <path
         id="path5203"
         style="fill:#ff0000;stroke-width:0.370224"
         sodipodi:type="inkscape:offset"
         inkscape:radius="0.68235588"
         inkscape:original="M 98.486328 134.02148 C 97.974371 134.02148 88.642566 136.06801 84.78125 137.02734 C 58.491373 143.55895 44.348179 154.05907 36.707031 172.7207 C 33.897881 179.58136 32.128403 187.166 31.074219 196.87109 C 30.35372 203.50421 30.317253 220.72036 31.005859 228.98438 L 31.46875 234.53711 L 41.279297 237.01172 C 56.835848 240.9349 72.140354 243.99106 82.535156 245.25195 C 86.775278 245.76628 97.050425 245.99863 98.080078 245.60352 C 98.610485 245.39998 98.664062 240.13172 98.664062 189.70117 C 98.664062 159.07765 98.584898 134.02148 98.486328 134.02148 z "
         d="m 98.486328,133.33984 c -0.145651,0 -0.192602,0.0143 -0.300781,0.0312 -0.108179,0.0169 -0.240748,0.0387 -0.400391,0.0684 -0.319286,0.0592 -0.743948,0.14412 -1.25,0.24805 -1.012103,0.20786 -2.349142,0.49432 -3.791015,0.81055 -2.883747,0.63245 -6.181654,1.38388 -8.126953,1.86718 -26.400377,6.55907 -40.821998,17.24585 -48.541016,36.09766 -2.8379,6.93087 -4.620773,14.58534 -5.679688,24.33399 -0.733919,6.75667 -0.765596,23.89998 -0.07031,32.24414 l 0.46289,5.55273 a 0.68242412,0.68242412 0 0 0 0.513672,0.60547 l 9.810547,2.47461 c 15.57797,3.92858 30.893677,6.98874 41.339844,8.25586 2.173278,0.26362 5.800728,0.44816 9.042969,0.52148 1.62112,0.0367 3.141721,0.0456 4.332031,0.0195 0.595155,-0.013 1.106768,-0.0362 1.515625,-0.0684 0.408857,-0.0321 0.664118,-0.0407 0.980469,-0.16211 0.262062,-0.10056 0.396644,-0.30368 0.466797,-0.45117 0.07015,-0.14748 0.10245,-0.28122 0.134765,-0.44336 0.06463,-0.32426 0.109741,-0.76054 0.150391,-1.42968 0.0813,-1.33829 0.137846,-3.5948 0.177734,-7.42188 0.07978,-7.65416 0.0918,-21.57745 0.0918,-46.79297 0,-15.31235 -0.01866,-29.23308 -0.05078,-39.32617 -0.01606,-5.04654 -0.03534,-9.13546 -0.05664,-11.96484 -0.01065,-1.41469 -0.02155,-2.51512 -0.0332,-3.26368 -0.0058,-0.37427 -0.01136,-0.65926 -0.01758,-0.85742 -0.0031,-0.0991 -0.0078,-0.17569 -0.01172,-0.23828 -0.002,-0.0313 -0.0028,-0.0556 -0.0078,-0.0957 -0.0025,-0.0201 -0.0037,-0.0404 -0.01758,-0.0957 -0.007,-0.0276 -0.05235,-0.14377 -0.05273,-0.14454 -3.84e-4,-7.6e-4 -0.610943,-0.375 -0.611328,-0.375 z"
         transform="matrix(0.66666666,0,0,0.5,106.66502,0.71225544)" />
      <g
         id="g5587"
         transform="translate(159.06961,659.62756)">
        <text
           xml:space="preserve"
           transform="translate(-61.068713,-660.98819)"
           id="text7267"
           style="font-size:24px;white-space:pre;shape-inside:url(#rect7269);fill:#ff0000" />
        <path
           d="m -15.350646,-368.73096 h 77.92002 c 6.15,0 11.74998,2.53002 15.81999,6.6 4.11,4.11 6.66999,9.80001 6.66999,16.05999 v 61.96002 c 0,6.25998 -2.54997,11.93997 -6.66999,16.05999 -4.07001,4.07001 -9.66999,6.6 -15.81999,6.6 h -77.92002 c -6.150003,0 -11.750013,-2.52999 -15.820023,-6.6 -4.11,-4.12002 -6.66,-9.80001 -6.66,-16.05999 v -61.97001 c 0,-6.26001 2.55,-11.94999 6.66,-16.05999 4.07001,-4.05999 9.67002,-6.59001 15.820023,-6.59001 z m -17.940003,76.21998 c 0.78996,3.18003 2.34,6.02001 4.44,8.29002 3.09,3.33 7.35,5.4 12.049983,5.4 h 80.83002 c 0.1899,0 0.37998,0 0.57,-0.009 l 1.15002,-0.0804 c 4.00998,-0.44004 7.61997,-2.39001 10.32999,-5.31 2.1,-2.25999 3.64998,-5.1 4.44,-8.28 v -53.57967 c 0,-4.85001 -2.00001,-9.27999 -5.21001,-12.48999 -3.25998,-3.26001 -7.75998,-5.28 -12.72999,-5.28 h -77.93001 c -4.970013,0 -9.480003,2.01999 -12.730023,5.28 -3.21999,3.21999 -5.20998,7.63998 -5.20998,12.48999 z"
           id="path18-5-0"
           sodipodi:nodetypes="sssssssscsscsccssccccsssscsc"
           style="stroke-width:0.999999" />
        <g
           aria-label="Q"
           transform="matrix(3,0,0,3,-69.047313,-806.34048)"
           id="text16302"
           style="font-size:24px;white-space:pre;shape-inside:url(#rect16304)">
          <path
             d="m 31.035156,152.74219 q -2.578125,0 -4.101562,1.92187 -1.511719,1.92188 -1.511719,5.23828 0,3.30469 1.511719,5.22657 1.523437,1.92187 4.101562,1.92187 2.578125,0 4.078125,-1.92187 1.511719,-1.92188 1.511719,-5.22657 0,-3.3164 -1.511719,-5.23828 -1.5,-1.92187 -4.078125,-1.92187 z m 3.316406,15.57422 3.117188,3.41015 h -2.859375 l -2.589844,-2.80078 q -0.386719,0.0234 -0.597656,0.0352 -0.199219,0.0117 -0.386719,0.0117 -3.691406,0 -5.90625,-2.46094 -2.203125,-2.47266 -2.203125,-6.60938 0,-4.14843 2.203125,-6.60937 2.214844,-2.47266 5.90625,-2.47266 3.679688,0 5.882813,2.47266 2.203125,2.46094 2.203125,6.60937 0,3.04688 -1.230469,5.21485 -1.21875,2.16797 -3.539063,3.19922 z"
             id="path1632" />
        </g>
        <g
           aria-label="add"
           transform="translate(-71.728016,-592.26055)"
           id="text4864"
           style="font-size:64px;font-family:KacstDecorative;-inkscape-font-specification:KacstDecorative;white-space:pre;shape-inside:url(#rect4866)">
          <path
             d="m 209.88477,69.820312 q -6.96875,0 -9.65625,1.59375 -2.6875,1.59375 -2.6875,5.4375 0,3.0625 2,4.875 2.03125,1.78125 5.5,1.78125 4.78125,0 7.65625,-3.375 2.90625,-3.40625 2.90625,-9.03125 v -1.28125 z m 11.46875,-2.375 v 19.96875 h -5.75 v -5.3125 q -1.96875,3.1875 -4.90625,4.71875 -2.9375,1.5 -7.1875,1.5 -5.375,0 -8.5625,-3 -3.15625,-3.03125 -3.15625,-8.09375 0,-5.90625 3.9375,-8.90625 3.96875,-3 11.8125,-3 h 8.0625 v -0.5625 q 0,-3.96875 -2.625,-6.125 -2.59375,-2.1875 -7.3125,-2.1875 -3,0 -5.84375,0.71875 -2.84375,0.71875 -5.46875,2.15625 v -5.3125 q 3.15625,-1.21875 6.125,-1.8125 2.96875,-0.625 5.78125,-0.625 7.59375,0 11.34375,3.9375 3.75,3.9375 3.75,11.9375 z"
             id="path1612" />
          <path
             d="m 256.22852,57.726562 v -18.9375 h 5.75 v 48.625 h -5.75 v -5.25 q -1.8125,3.125 -4.59375,4.65625 -2.75,1.5 -6.625,1.5 -6.34375,0 -10.34375,-5.0625 -3.96875,-5.0625 -3.96875,-13.3125 0,-8.25 3.96875,-13.3125 4,-5.0625 10.34375,-5.0625 3.875,0 6.625,1.53125 2.78125,1.5 4.59375,4.625 z m -19.59375,12.21875 q 0,6.34375 2.59375,9.96875 2.625,3.59375 7.1875,3.59375 4.5625,0 7.1875,-3.59375 2.625,-3.625 2.625,-9.96875 0,-6.34375 -2.625,-9.9375 -2.625,-3.625 -7.1875,-3.625 -4.5625,0 -7.1875,3.625 -2.59375,3.59375 -2.59375,9.9375 z"
             id="path1614" />
          <path
             d="m 296.85352,57.726562 v -18.9375 h 5.75 v 48.625 h -5.75 v -5.25 q -1.8125,3.125 -4.59375,4.65625 -2.75,1.5 -6.625,1.5 -6.34375,0 -10.34375,-5.0625 -3.96875,-5.0625 -3.96875,-13.3125 0,-8.25 3.96875,-13.3125 4,-5.0625 10.34375,-5.0625 3.875,0 6.625,1.53125 2.78125,1.5 4.59375,4.625 z m -19.59375,12.21875 q 0,6.34375 2.59375,9.96875 2.625,3.59375 7.1875,3.59375 4.5625,0 7.1875,-3.59375 2.625,-3.625 2.625,-9.96875 0,-6.34375 -2.625,-9.9375 -2.625,-3.625 -7.1875,-3.625 -4.5625,0 -7.1875,3.625 -2.59375,3.59375 -2.59375,9.9375 z"
             id="path1616" />
        </g>
        <g
           aria-label="change"
           transform="translate(-53.504387,-574.85641)"
           id="text4870"
           style="font-size:64px;font-family:KacstDecorative;-inkscape-font-specification:KacstDecorative;white-space:pre;shape-inside:url(#rect4872)">
          <path
             d="m 199.71484,247.08984 v 5.375 q -2.4375,-1.34375 -4.90625,-2 -2.4375,-0.6875 -4.9375,-0.6875 -5.59375,0 -8.6875,3.5625 -3.09375,3.53125 -3.09375,9.9375 0,6.40625 3.09375,9.96875 3.09375,3.53125 8.6875,3.53125 2.5,0 4.9375,-0.65625 2.46875,-0.6875 4.90625,-2.03125 v 5.3125 q -2.40625,1.125 -5,1.6875 -2.5625,0.5625 -5.46875,0.5625 -7.90625,0 -12.5625,-4.96875 -4.65625,-4.96875 -4.65625,-13.40625 0,-8.5625 4.6875,-13.46875 4.71875,-4.90625 12.90625,-4.90625 2.65625,0 5.1875,0.5625 2.53125,0.53125 4.90625,1.625 z"
             id="path1619" />
          <path
             d="m 238.80859,259.62109 v 21.125 h -5.75 v -20.9375 q 0,-4.96875 -1.9375,-7.4375 -1.9375,-2.46875 -5.8125,-2.46875 -4.65625,0 -7.34375,2.96875 -2.6875,2.96875 -2.6875,8.09375 v 19.78125 h -5.78125 v -48.625 h 5.78125 v 19.0625 q 2.0625,-3.15625 4.84375,-4.71875 2.8125,-1.5625 6.46875,-1.5625 6.03125,0 9.125,3.75 3.09375,3.71875 3.09375,10.96875 z"
             id="path1621" />
          <path
             d="m 266.18359,263.15234 q -6.96875,0 -9.65625,1.59375 -2.6875,1.59375 -2.6875,5.4375 0,3.0625 2,4.875 2.03125,1.78125 5.5,1.78125 4.78125,0 7.65625,-3.375 2.90625,-3.40625 2.90625,-9.03125 v -1.28125 z m 11.46875,-2.375 v 19.96875 h -5.75 v -5.3125 q -1.96875,3.1875 -4.90625,4.71875 -2.9375,1.5 -7.1875,1.5 -5.375,0 -8.5625,-3 -3.15625,-3.03125 -3.15625,-8.09375 0,-5.90625 3.9375,-8.90625 3.96875,-3 11.8125,-3 h 8.0625 v -0.5625 q 0,-3.96875 -2.625,-6.125 -2.59375,-2.1875 -7.3125,-2.1875 -3,0 -5.84375,0.71875 -2.84375,0.71875 -5.46875,2.15625 v -5.3125 q 3.15625,-1.21875 6.125,-1.8125 2.96875,-0.625 5.78125,-0.625 7.59375,0 11.34375,3.9375 3.75,3.9375 3.75,11.9375 z"
             id="path1623" />
          <path
             d="m 318.58984,259.62109 v 21.125 h -5.75 v -20.9375 q 0,-4.96875 -1.9375,-7.4375 -1.9375,-2.46875 -5.8125,-2.46875 -4.65625,0 -7.34375,2.96875 -2.6875,2.96875 -2.6875,8.09375 v 19.78125 h -5.78125 v -35 h 5.78125 v 5.4375 q 2.0625,-3.15625 4.84375,-4.71875 2.8125,-1.5625 6.46875,-1.5625 6.03125,0 9.125,3.75 3.09375,3.71875 3.09375,10.96875 z"
             id="path1625" />
          <path
             d="m 353.08984,262.83984 q 0,-6.25 -2.59375,-9.6875 -2.5625,-3.4375 -7.21875,-3.4375 -4.625,0 -7.21875,3.4375 -2.5625,3.4375 -2.5625,9.6875 0,6.21875 2.5625,9.65625 2.59375,3.4375 7.21875,3.4375 4.65625,0 7.21875,-3.4375 2.59375,-3.4375 2.59375,-9.65625 z m 5.75,13.5625 q 0,8.9375 -3.96875,13.28125 -3.96875,4.375 -12.15625,4.375 -3.03125,0 -5.71875,-0.46875 -2.6875,-0.4375 -5.21875,-1.375 v -5.59375 q 2.53125,1.375 5,2.03125 2.46875,0.65625 5.03125,0.65625 5.65625,0 8.46875,-2.96875 2.8125,-2.9375 2.8125,-8.90625 v -2.84375 q -1.78125,3.09375 -4.5625,4.625 -2.78125,1.53125 -6.65625,1.53125 -6.4375,0 -10.375,-4.90625 -3.9375,-4.90625 -3.9375,-13 0,-8.125 3.9375,-13.03125 3.9375,-4.90625 10.375,-4.90625 3.875,0 6.65625,1.53125 2.78125,1.53125 4.5625,4.625 v -5.3125 h 5.75 z"
             id="path1627" />
          <path
             d="m 400.62109,261.80859 v 2.8125 h -26.4375 q 0.375,5.9375 3.5625,9.0625 3.21875,3.09375 8.9375,3.09375 3.3125,0 6.40625,-0.8125 3.125,-0.8125 6.1875,-2.4375 v 5.4375 q -3.09375,1.3125 -6.34375,2 -3.25,0.6875 -6.59375,0.6875 -8.375,0 -13.28125,-4.875 -4.875,-4.875 -4.875,-13.1875 0,-8.59375 4.625,-13.625 4.65625,-5.0625 12.53125,-5.0625 7.0625,0 11.15625,4.5625 4.125,4.53125 4.125,12.34375 z m -5.75,-1.6875 q -0.0625,-4.71875 -2.65625,-7.53125 -2.5625,-2.8125 -6.8125,-2.8125 -4.8125,0 -7.71875,2.71875 -2.875,2.71875 -3.3125,7.65625 z"
             id="path1629" />
        </g>
      </g>
    </g>
  </g>
</svg>
