<?xml version="1.0" encoding="UTF-8" standalone="no"?>
<!-- Created with Inkscape (http://www.inkscape.org/) -->

<svg
   width="400"
   height="400"
   viewBox="0 0 400 400"
   version="1.1"
   id="svg5"
   xml:space="preserve"
   inkscape:version="1.2.1 (9c6d41e410, 2022-07-14)"
   sodipodi:docname="panel_5.svg"
   xmlns:inkscape="http://www.inkscape.org/namespaces/inkscape"
   xmlns:sodipodi="http://sodipodi.sourceforge.net/DTD/sodipodi-0.dtd"
   xmlns="http://www.w3.org/2000/svg"
   xmlns:svg="http://www.w3.org/2000/svg"><sodipodi:namedview
     id="namedview7"
     pagecolor="#ffffff"
     bordercolor="#000000"
     borderopacity="0.25"
     inkscape:showpageshadow="2"
     inkscape:pageopacity="0.0"
     inkscape:pagecheckerboard="0"
     inkscape:deskcolor="#d1d1d1"
     inkscape:document-units="mm"
     showgrid="true"
     inkscape:zoom="0.95497111"
     inkscape:cx="194.77029"
     inkscape:cy="180.11016"
     inkscape:window-width="1920"
     inkscape:window-height="1057"
     inkscape:window-x="-8"
     inkscape:window-y="-8"
     inkscape:window-maximized="1"
     inkscape:current-layer="layer1"><inkscape:grid
       type="xygrid"
       id="grid6370" /></sodipodi:namedview><defs
     id="defs2"><inkscape:path-effect
       effect="bspline"
       id="path-effect7549"
       is_visible="true"
       lpeversion="1"
       weight="33.333333"
       steps="2"
       helper_size="0"
       apply_no_weight="true"
       apply_with_weight="true"
       only_selected="false" /><inkscape:path-effect
       effect="bspline"
       id="path-effect7703"
       is_visible="true"
       lpeversion="1"
       weight="33.333333"
       steps="2"
       helper_size="0"
       apply_no_weight="true"
       apply_with_weight="true"
       only_selected="false" /><inkscape:path-effect
       effect="bspline"
       id="path-effect7875"
       is_visible="true"
       lpeversion="1"
       weight="33.333333"
       steps="2"
       helper_size="0"
       apply_no_weight="true"
       apply_with_weight="true"
       only_selected="false" /><inkscape:path-effect
       effect="bspline"
       id="path-effect7879"
       is_visible="true"
       lpeversion="1"
       weight="33.333333"
       steps="2"
       helper_size="0"
       apply_no_weight="true"
       apply_with_weight="true"
       only_selected="false" /><inkscape:path-effect
       effect="bspline"
       id="path-effect12632"
       is_visible="true"
       lpeversion="1"
       weight="33.333333"
       steps="2"
       helper_size="0"
       apply_no_weight="true"
       apply_with_weight="true"
       only_selected="false" /><inkscape:path-effect
       effect="bspline"
       id="path-effect12636"
       is_visible="true"
       lpeversion="1"
       weight="33.333333"
       steps="2"
       helper_size="0"
       apply_no_weight="true"
       apply_with_weight="true"
       only_selected="false" /><inkscape:path-effect
       effect="bspline"
       id="path-effect12640"
       is_visible="true"
       lpeversion="1"
       weight="33.333333"
       steps="2"
       helper_size="0"
       apply_no_weight="true"
       apply_with_weight="true"
       only_selected="false" /><inkscape:path-effect
       effect="bspline"
       id="path-effect12644"
       is_visible="true"
       lpeversion="1"
       weight="33.333333"
       steps="2"
       helper_size="0"
       apply_no_weight="true"
       apply_with_weight="true"
       only_selected="false" /><inkscape:path-effect
       effect="bspline"
       id="path-effect12648"
       is_visible="true"
       lpeversion="1"
       weight="33.333333"
       steps="2"
       helper_size="0"
       apply_no_weight="true"
       apply_with_weight="true"
       only_selected="false" /><inkscape:path-effect
       effect="bspline"
       id="path-effect12652"
       is_visible="true"
       lpeversion="1"
       weight="33.333333"
       steps="2"
       helper_size="0"
       apply_no_weight="true"
       apply_with_weight="true"
       only_selected="false" /><inkscape:path-effect
       effect="bspline"
       id="path-effect3037"
       is_visible="true"
       lpeversion="1"
       weight="33.333333"
       steps="2"
       helper_size="0"
       apply_no_weight="true"
       apply_with_weight="true"
       only_selected="false" /><inkscape:path-effect
       effect="bspline"
       id="path-effect3152"
       is_visible="true"
       lpeversion="1"
       weight="33.333333"
       steps="2"
       helper_size="0"
       apply_no_weight="true"
       apply_with_weight="true"
       only_selected="false" /><inkscape:path-effect
       effect="bspline"
       id="path-effect7549-1"
       is_visible="true"
       lpeversion="1"
       weight="33.333333"
       steps="2"
       helper_size="0"
       apply_no_weight="true"
       apply_with_weight="true"
       only_selected="false" /><inkscape:path-effect
       effect="bspline"
       id="path-effect7703-2"
       is_visible="true"
       lpeversion="1"
       weight="33.333333"
       steps="2"
       helper_size="0"
       apply_no_weight="true"
       apply_with_weight="true"
       only_selected="false" /><inkscape:path-effect
       effect="bspline"
       id="path-effect7875-8"
       is_visible="true"
       lpeversion="1"
       weight="33.333333"
       steps="2"
       helper_size="0"
       apply_no_weight="true"
       apply_with_weight="true"
       only_selected="false" /><inkscape:path-effect
       effect="bspline"
       id="path-effect7879-9"
       is_visible="true"
       lpeversion="1"
       weight="33.333333"
       steps="2"
       helper_size="0"
       apply_no_weight="true"
       apply_with_weight="true"
       only_selected="false" /><inkscape:path-effect
       effect="bspline"
       id="path-effect3037-9"
       is_visible="true"
       lpeversion="1"
       weight="33.333333"
       steps="2"
       helper_size="0"
       apply_no_weight="true"
       apply_with_weight="true"
       only_selected="false" /><inkscape:path-effect
       effect="bspline"
       id="path-effect3152-1"
       is_visible="true"
       lpeversion="1"
       weight="33.333333"
       steps="2"
       helper_size="0"
       apply_no_weight="true"
       apply_with_weight="true"
       only_selected="false" /><inkscape:path-effect
       effect="bspline"
       id="path-effect7549-0"
       is_visible="true"
       lpeversion="1"
       weight="33.333333"
       steps="2"
       helper_size="0"
       apply_no_weight="true"
       apply_with_weight="true"
       only_selected="false" /><inkscape:path-effect
       effect="bspline"
       id="path-effect7703-4"
       is_visible="true"
       lpeversion="1"
       weight="33.333333"
       steps="2"
       helper_size="0"
       apply_no_weight="true"
       apply_with_weight="true"
       only_selected="false" /><inkscape:path-effect
       effect="bspline"
       id="path-effect7875-2"
       is_visible="true"
       lpeversion="1"
       weight="33.333333"
       steps="2"
       helper_size="0"
       apply_no_weight="true"
       apply_with_weight="true"
       only_selected="false" /><inkscape:path-effect
       effect="bspline"
       id="path-effect7879-96"
       is_visible="true"
       lpeversion="1"
       weight="33.333333"
       steps="2"
       helper_size="0"
       apply_no_weight="true"
       apply_with_weight="true"
       only_selected="false" /><inkscape:path-effect
       effect="bspline"
       id="path-effect3037-1"
       is_visible="true"
       lpeversion="1"
       weight="33.333333"
       steps="2"
       helper_size="0"
       apply_no_weight="true"
       apply_with_weight="true"
       only_selected="false" /><inkscape:path-effect
       effect="bspline"
       id="path-effect3152-0"
       is_visible="true"
       lpeversion="1"
       weight="33.333333"
       steps="2"
       helper_size="0"
       apply_no_weight="true"
       apply_with_weight="true"
       only_selected="false" /><inkscape:path-effect
       effect="bspline"
       id="path-effect7549-1-0"
       is_visible="true"
       lpeversion="1"
       weight="33.333333"
       steps="2"
       helper_size="0"
       apply_no_weight="true"
       apply_with_weight="true"
       only_selected="false" /><inkscape:path-effect
       effect="bspline"
       id="path-effect7703-2-4"
       is_visible="true"
       lpeversion="1"
       weight="33.333333"
       steps="2"
       helper_size="0"
       apply_no_weight="true"
       apply_with_weight="true"
       only_selected="false" /><inkscape:path-effect
       effect="bspline"
       id="path-effect7875-8-0"
       is_visible="true"
       lpeversion="1"
       weight="33.333333"
       steps="2"
       helper_size="0"
       apply_no_weight="true"
       apply_with_weight="true"
       only_selected="false" /><inkscape:path-effect
       effect="bspline"
       id="path-effect7879-9-8"
       is_visible="true"
       lpeversion="1"
       weight="33.333333"
       steps="2"
       helper_size="0"
       apply_no_weight="true"
       apply_with_weight="true"
       only_selected="false" /><inkscape:path-effect
       effect="bspline"
       id="path-effect7549-1-2"
       is_visible="true"
       lpeversion="1"
       weight="33.333333"
       steps="2"
       helper_size="0"
       apply_no_weight="true"
       apply_with_weight="true"
       only_selected="false" /><inkscape:path-effect
       effect="bspline"
       id="path-effect7703-2-1"
       is_visible="true"
       lpeversion="1"
       weight="33.333333"
       steps="2"
       helper_size="0"
       apply_no_weight="true"
       apply_with_weight="true"
       only_selected="false" /><inkscape:path-effect
       effect="bspline"
       id="path-effect7875-8-9"
       is_visible="true"
       lpeversion="1"
       weight="33.333333"
       steps="2"
       helper_size="0"
       apply_no_weight="true"
       apply_with_weight="true"
       only_selected="false" /><inkscape:path-effect
       effect="bspline"
       id="path-effect7879-9-6"
       is_visible="true"
       lpeversion="1"
       weight="33.333333"
       steps="2"
       helper_size="0"
       apply_no_weight="true"
       apply_with_weight="true"
       only_selected="false" /><inkscape:path-effect
       effect="bspline"
       id="path-effect7549-1-0-3"
       is_visible="true"
       lpeversion="1"
       weight="33.333333"
       steps="2"
       helper_size="0"
       apply_no_weight="true"
       apply_with_weight="true"
       only_selected="false" /><inkscape:path-effect
       effect="bspline"
       id="path-effect7703-2-4-6"
       is_visible="true"
       lpeversion="1"
       weight="33.333333"
       steps="2"
       helper_size="0"
       apply_no_weight="true"
       apply_with_weight="true"
       only_selected="false" /><inkscape:path-effect
       effect="bspline"
       id="path-effect7875-8-0-7"
       is_visible="true"
       lpeversion="1"
       weight="33.333333"
       steps="2"
       helper_size="0"
       apply_no_weight="true"
       apply_with_weight="true"
       only_selected="false" /><inkscape:path-effect
       effect="bspline"
       id="path-effect7879-9-8-5"
       is_visible="true"
       lpeversion="1"
       weight="33.333333"
       steps="2"
       helper_size="0"
       apply_no_weight="true"
       apply_with_weight="true"
       only_selected="false" /><inkscape:path-effect
       effect="bspline"
       id="path-effect7549-1-2-2"
       is_visible="true"
       lpeversion="1"
       weight="33.333333"
       steps="2"
       helper_size="0"
       apply_no_weight="true"
       apply_with_weight="true"
       only_selected="false" /><inkscape:path-effect
       effect="bspline"
       id="path-effect7703-2-1-6"
       is_visible="true"
       lpeversion="1"
       weight="33.333333"
       steps="2"
       helper_size="0"
       apply_no_weight="true"
       apply_with_weight="true"
       only_selected="false" /><inkscape:path-effect
       effect="bspline"
       id="path-effect7875-8-9-1"
       is_visible="true"
       lpeversion="1"
       weight="33.333333"
       steps="2"
       helper_size="0"
       apply_no_weight="true"
       apply_with_weight="true"
       only_selected="false" /><inkscape:path-effect
       effect="bspline"
       id="path-effect7879-9-6-8"
       is_visible="true"
       lpeversion="1"
       weight="33.333333"
       steps="2"
       helper_size="0"
       apply_no_weight="true"
       apply_with_weight="true"
       only_selected="false" /></defs><g
     inkscape:label="Layer 1"
     inkscape:groupmode="layer"
     id="layer1"><path
       style="fill:#77ff2c;fill-opacity:1;stroke-width:0.337757"
       d="M 64.647447,42.705259 C 62.715927,41.23496 58.852615,38.294155 57.224675,34.860885 55.596734,31.427616 56.204743,27.502178 55.657965,24.549206 55.111188,21.596234 53.409351,19.61594 50.44551,18.434278 47.481669,17.252617 43.256156,16.870071 39.883378,15.848267 36.510601,14.826462 33.990884,13.165295 32.293984,11.741224 30.597085,10.317152 29.723263,9.1301863 28.767254,7.6522551 27.811246,6.174324 26.773165,4.4055073 25.84748,5.2262267 24.921795,6.046946 24.10889,9.4571959 24.403636,13.000697 c 0.294745,3.543502 1.696883,7.219652 3.630616,9.643047 1.933733,2.423396 4.398438,3.593881 6.944719,4.729395 2.54628,1.135514 5.173666,2.235869 7.003962,3.350941 1.830296,1.115073 2.863421,2.244624 3.206448,4.328115 0.343027,2.08349 -0.0037,5.120886 -0.04192,7.261644 -0.03824,2.140757 0.231891,3.384783 3.855373,3.545429 3.623482,0.160647 10.59986,-0.761543 14.087957,-1.222627 3.488097,-0.461083 3.488175,-0.461083 1.556655,-1.931382 z"
       id="path7547-3-5"
       inkscape:path-effect="#path-effect7549-1-0"
       inkscape:original-d="m 66.578967,44.175558 c -3.863076,-2.94055 -7.726382,-5.881363 -11.590222,-8.822633 0.608153,-3.925284 1.216459,-7.850676 1.824076,-11.776634 -1.701603,-1.980083 -3.403436,-3.96038 -5.10573,-5.941137 C 47.481652,17.252799 43.256136,16.870291 39.030084,16.487475 36.510537,14.826559 33.990837,13.165366 31.470677,11.503806 30.597204,10.317064 29.723348,9.1301236 28.849109,7.9427694 27.811418,6.1742231 26.773268,4.405447 25.734812,2.6362265 24.922155,6.0470318 24.109266,9.4572854 23.295996,12.867402 c 1.402582,3.676722 2.804704,7.352878 4.206597,11.028927 2.465319,1.170964 4.930023,2.341452 7.394653,3.51171 2.627926,1.100803 5.255316,2.201148 7.882554,3.30123 1.033402,1.129908 2.066572,2.259419 3.099361,3.388639 -0.346203,3.03784 -0.693173,6.075206 -1.040141,9.11231 0.270375,1.244341 0.54075,2.488313 0.81036,3.731962 6.976988,-0.92188 13.953364,-1.844083 20.929509,-2.766622 z"
       sodipodi:nodetypes="cccccccccccccccc" /><path
       style="fill:#06d400;fill-opacity:1;stroke-width:0.337757"
       d="m 30.494484,61.366462 c -0.05002,-0.586763 -0.150111,-1.760766 0.660732,-2.401742 0.810842,-0.640976 2.53221,-0.748611 4.105446,-1.375343 1.573236,-0.626733 2.99852,-1.772552 3.702206,-2.942318 0.703685,-1.169766 0.685812,-2.363814 0.310985,-3.786729 -0.374828,-1.422915 -1.106838,-3.074909 -1.407437,-4.956595 -0.3006,-1.881686 -0.169624,-3.993096 0.529553,-5.505805 0.699177,-1.512709 1.96663,-2.42645 3.926749,-3.015914 1.96012,-0.589465 4.6127,-0.854731 7.572128,-1.658536 2.959428,-0.803805 6.225696,-2.146065 8.357871,-4.428375 2.132175,-2.28231 3.130423,-5.504801 3.084416,-8.324428 -0.04601,-2.819628 -1.136496,-5.236405 -3.876631,-9.34801 -2.740135,-4.1116054 -7.129844,-9.9177564 -8.062616,-11.0731377 -0.932772,-1.1553812 1.59137,2.339953 2.956233,5.4675187 1.364862,3.127566 1.570641,5.887222 1.125116,8.418226 -0.445525,2.531004 -1.542226,4.833475 -3.648906,6.441035 -2.10668,1.607559 -5.223502,2.520348 -8.336858,2.961966 -3.113356,0.441617 -6.223219,0.412004 -8.587049,1.558827 -2.36383,1.146823 -3.981132,3.469902 -5.016614,6.195859 -1.035481,2.725956 -1.489052,5.854273 -1.553035,8.697646 -0.06398,2.843374 0.261522,5.401337 0.04744,7.894174 -0.214076,2.492837 -0.967676,4.920652 -1.610388,6.432884 -0.642712,1.512232 -1.174759,2.109332 -0.193523,2.846231 0.981236,0.7369 3.475131,1.613539 4.721887,2.051792 1.246756,0.438252 1.242314,0.437538 1.19229,-0.149226 z"
       id="path7701-6-1"
       inkscape:path-effect="#path-effect7703-2-4"
       inkscape:original-d="m 30.544508,61.953226 c -0.09957,-1.173568 -0.19991,-2.347549 -0.300247,-3.52182 1.721824,-0.107232 3.443188,-0.214922 5.164323,-0.322919 1.425562,-1.145534 2.850891,-2.291297 4.275838,-3.437445 -0.01532,-1.193787 -0.0383,-2.387759 -0.05362,-3.58216 -0.73147,-1.651603 -1.463704,-3.303498 -2.195939,-4.955775 0.130209,-2.111104 0.26195,-4.222467 0.392925,-6.334215 1.267624,-0.913302 2.535095,-1.827017 3.802107,-2.741039 2.652972,-0.265014 5.305562,-0.530182 7.957845,-0.795808 3.266718,-1.341921 6.532976,-2.684208 9.798927,-4.026832 0.998628,-3.222293 1.996872,-6.444785 2.994811,-9.66769 C 61.291249,20.150993 60.200786,17.734205 59.10994,15.317034 54.720437,9.5110083 50.330704,3.7048758 45.940588,-2.1017186 c 2.524603,3.4958112 5.048745,6.9911452 7.572581,10.4862187 0.206036,2.7600969 0.412073,5.5197339 0.617344,8.2790949 -1.09636,2.302894 -2.193104,4.605345 -3.290154,6.907517 -3.116594,0.913151 -6.233419,1.825932 -9.350548,2.738391 -3.109701,-0.02911 -6.219554,-0.05974 -9.329791,-0.08884 -1.617045,2.323529 -3.234318,4.646628 -4.852052,6.969451 -0.453434,3.128833 -0.906715,6.257192 -1.360762,9.38529 0.326289,2.558487 0.651046,5.116545 0.976568,7.674297 -0.752914,2.42814 -1.506902,4.855835 -2.260737,7.283239 -0.531559,0.597278 -1.063578,1.194402 -1.595904,1.791035 2.494348,0.876998 4.988236,1.753657 7.481817,2.629965 z" /><path
       style="fill:#00bd0e;fill-opacity:1;stroke-width:0.337757"
       d="m 2.9455325,35.979104 c 0.2071845,-0.01457 0.6207911,-0.04367 2.2559029,-0.152551 1.6351118,-0.108886 4.4915874,-0.297556 7.1075626,-1.6366 2.615975,-1.339043 4.991595,-3.828419 7.087397,-5.555298 2.095801,-1.726879 3.911561,-2.691122 5.885679,-2.907892 1.974118,-0.216771 4.106173,0.313732 6.344462,1.123384 2.23829,0.809653 4.582673,1.898325 7.132141,2.205258 2.549468,0.306933 5.304081,-0.167641 7.309471,-0.3219 2.00539,-0.15426 3.261519,0.01169 4.636366,1.82565 1.374846,1.813958 2.868526,5.275444 4.30139,7.987861 1.432865,2.712418 2.804776,4.675704 4.095281,6.204058 1.290506,1.528353 2.499384,2.621715 3.515077,4.670096 1.015693,2.048381 1.838311,5.051456 1.244819,8.345148 -0.593491,3.293693 -2.602858,6.878053 -3.186208,7.341285 -0.583349,0.463233 0.259303,-2.194648 0.219186,-4.288679 -0.04012,-2.09403 -0.963362,-3.624317 -2.620426,-4.934136 -1.657065,-1.309819 -4.048081,-2.398961 -5.39241,-3.894689 -1.344328,-1.495728 -1.641555,-3.398077 -2.486136,-4.928481 -0.84458,-1.530404 -2.236704,-2.688688 -4.527681,-2.934536 -2.290978,-0.245847 -5.480486,0.421144 -7.664757,-0.282312 -2.184271,-0.703456 -3.363195,-2.777736 -4.748369,-4.389699 -1.385173,-1.611963 -2.976752,-2.761439 -4.48555,-2.362621 -1.508799,0.398818 -2.934337,2.346073 -4.231343,3.740889 -1.297007,1.394816 -2.465583,2.237286 -4.73097,2.742601 -2.265386,0.505316 -5.62769,0.67341 -8.266765,0.713253 -2.6390758,0.03984 -4.5547973,-0.0486 -5.6777239,0.150089 C 4.9390014,44.637968 4.6094506,45.123589 4.1877577,43.763888 3.7660648,42.404187 3.2521958,39.198729 2.9952336,37.595827 2.7382714,35.992925 2.7383481,35.993677 2.9455325,35.979104 Z"
       id="path7873-8-6"
       inkscape:path-effect="#path-effect7875-8-0"
       inkscape:original-d="m 2.7383481,35.993677 c 0.4143714,-0.02911 0.8279768,-0.05822 1.241276,-0.08731 2.8569415,-0.188421 5.7134235,-0.376994 8.5696769,-0.566027 2.376009,-2.489109 4.751637,-4.978477 7.126957,-7.468228 1.816112,-0.964008 3.631916,-1.928168 5.447338,-2.892757 2.132519,0.530946 4.264578,1.061434 6.396408,1.591569 2.34476,1.089008 4.689137,2.177694 7.033208,3.266043 2.754995,-0.474267 5.509608,-0.948842 8.263837,-1.423721 1.256441,0.16636 2.512577,0.332263 3.768406,0.497858 1.494034,3.461953 2.987763,6.923418 4.481109,10.384622 1.37225,1.963676 2.744196,3.926938 4.115757,5.889895 1.209414,1.093757 2.418214,2.187206 3.626861,3.28029 0.823075,3.003557 1.645613,6.006654 2.467923,9.009476 -2.009128,3.584841 -4.018484,7.169207 -6.028224,10.753298 0.843142,-2.657691 1.685672,-5.315611 2.528049,-7.97393 C 60.853977,58.724873 59.930794,57.194549 59.007228,55.663948 56.616511,54.575094 54.22549,53.485963 51.834084,52.39648 51.5369,50.49437 51.239717,48.592014 50.942381,46.689291 49.550522,45.531196 48.158357,44.372962 46.765808,43.21427 c -3.189281,0.667436 -6.378792,1.334414 -9.568686,2.001008 -1.178622,-2.074033 -2.357552,-4.14831 -3.536863,-6.223001 -1.591233,-1.149057 -3.182771,-2.29859 -4.774692,-3.448398 -1.425254,1.947668 -2.850813,3.894908 -4.27668,5.841856 -1.168206,0.842837 -2.336795,1.68529 -3.505766,2.527437 -3.362077,0.168352 -6.724383,0.336398 -10.087072,0.504291 C 9.100596,44.328607 7.1848368,44.240985 5.2686945,44.152137 4.9393419,44.638199 4.6099895,45.123955 4.279871,45.609253 3.7666938,42.404086 3.2524443,39.198689 2.7382714,35.992925 Z" /><path
       style="fill:#3fe900;fill-opacity:1;stroke-width:0.337757"
       d="m 52.576995,20.652955 c -0.06622,0.07959 -0.199682,0.240003 -0.621647,0.794519 -0.421964,0.554516 -1.132762,1.503536 -1.232221,2.902311 -0.09946,1.398775 0.412812,3.246877 -0.375924,5.079346 -0.788736,1.832469 -2.878736,3.649617 -4.095286,5.834697 -1.21655,2.185081 -1.559265,4.737747 -1.348138,7.077886 0.211127,2.340139 0.976167,4.467505 0.827385,6.58963 -0.148782,2.122125 -1.211447,4.239337 -3.087789,5.031813 -1.876342,0.792477 -4.566535,0.259825 -6.570637,0.185825 -2.004102,-0.074 -3.322039,0.31084 -4.066031,1.110786 -0.743991,0.799945 -0.91351,2.014884 -1.809754,3.282543 -0.896243,1.267659 -2.519494,2.588053 -4.3514,2.906959 -1.831907,0.318907 -3.872339,-0.364069 -6.587922,-1.645723 C 16.542048,58.521893 13.151629,56.641633 10.094675,56.37613 7.03772,56.110627 4.3142931,57.460246 3.9727359,57.488117 3.6311788,57.515988 5.6715628,56.222135 7.4548314,54.964946 9.2381,53.707757 10.764298,52.487258 12.839829,51.782933 c 2.075531,-0.704325 4.700165,-0.892742 6.837786,-1.890302 2.137621,-0.997561 3.788364,-2.803933 4.670422,-4.988538 0.882059,-2.184605 0.995668,-4.747397 2.12848,-6.820312 1.132813,-2.072915 3.284351,-3.655614 5.137819,-4.969205 1.853468,-1.313591 3.408662,-2.357954 4.686512,-5.089856 1.277851,-2.731903 2.278602,-7.15119 4.95633,-8.674226 2.677728,-1.523035 7.032001,-0.150061 9.208944,0.536366 2.176943,0.686426 2.177096,0.686501 2.110873,0.766095 z"
       id="path7877-0-6"
       inkscape:path-effect="#path-effect7879-9-8"
       inkscape:original-d="m 52.643218,20.573361 c -0.13174,0.159775 -0.265779,0.319702 -0.399053,0.47963 -0.710788,0.948994 -1.42127,1.89825 -2.132748,2.847536 0.512411,1.847989 1.024976,3.696009 1.536773,5.544167 -2.089549,1.817106 -4.179559,3.634243 -6.270105,5.451533 -0.342374,2.552728 -0.684746,5.10544 -1.028192,7.658336 0.76517,2.127233 1.530493,4.254498 2.29505,6.381901 -1.0622,2.117186 -2.124859,4.234401 -3.188055,6.351754 -2.689815,-0.532784 -5.380012,-1.065417 -8.070669,-1.597972 -1.317563,0.384806 -2.635509,0.769613 -3.953991,1.154572 -0.169272,1.214929 -0.338544,2.429902 -0.508583,3.645014 -1.622787,1.32032 -3.246035,2.640717 -4.869819,3.961237 C 24.013755,61.767853 21.9733,61.084945 19.932311,60.402067 16.542201,58.521618 13.151785,56.641352 9.7608326,54.761163 7.0377771,56.110742 4.3143381,57.460337 1.590363,58.810115 3.6312764,57.516142 5.6716535,56.222278 7.711571,54.92852 c 1.5266637,-1.220595 3.052869,-2.441084 4.578536,-3.66145 2.625245,-0.188575 5.249879,-0.376994 7.874052,-0.565262 1.651282,-1.806551 3.302027,-3.612921 4.952314,-5.419211 0.11489,-2.563053 0.227483,-5.12589 0.340841,-7.688682 2.152127,-1.582898 4.303642,-3.165628 6.454849,-4.748267 1.555694,-1.044583 3.110925,-2.088891 4.665699,-3.133167 1.001232,-4.419574 2.002005,-8.838857 3.002317,-13.25814 4.354807,1.372864 8.709076,2.745851 13.062886,4.118945 z" /><path
       id="path12659"
       style="fill:#7fb300;fill-opacity:1;stroke-width:0.45034"
       d="m 154.17588,102.9384 c -0.16696,-0.0214 -0.32474,0.003 -0.47487,0.069 -2.09989,0.9326 -2.65596,10.11876 -4.67052,19.65043 -2.30225,10.89335 -6.50924,22.23793 -6.59579,35.93304 -0.0919,13.69512 3.94443,29.73815 2.14784,35.32437 -1.79658,5.58625 -9.421,0.7137 -16.52262,-1.70196 -7.10175,-2.41568 -13.68084,-2.37171 -20.85016,-7.84224 -7.16947,-5.47057 -14.929468,-16.45309 -18.619595,-17.27649 -3.690281,-0.82338 -3.310682,8.51112 -2.30363,17.32309 1.00644,8.81197 2.64202,17.09929 7.306571,22.17658 4.664548,5.07729 12.359144,6.94621 21.096484,9.02263 8.73733,2.0764 18.51558,4.35933 24.58042,10.72455 6.06468,6.36526 8.41764,16.81148 13.18115,24.99559 4.76366,8.18417 11.93681,14.10733 18.54668,23.41679 6.60973,9.30941 12.65586,22.00141 12.2101,27.24638 -0.44578,5.24497 -7.38164,3.04364 -15.92979,2.98524 -8.5483,-0.0582 -18.70829,2.02641 -29.46128,-0.56203 -10.75282,-2.58848 -22.09924,-9.85385 -27.69487,-21.57496 -5.59576,-11.72107 -5.44044,-27.89571 -6.83782,-31.37157 -1.39706,-3.47587 -4.348059,5.74786 -5.704838,15.59387 -1.357237,9.84605 -1.118261,20.31415 -0.122548,27.38977 0.998781,7.07563 2.759666,10.75892 6.047066,15.95363 3.28724,5.1947 8.09809,11.90107 14.04834,14.82343 5.95041,2.9222 13.03883,2.06144 14.84016,6.28972 1.80133,4.22842 -1.68184,13.54465 -8.98213,20.10259 -7.30029,6.55795 -18.41631,10.35592 -22.19683,14.03885 -3.780506,3.68277 -0.22671,7.25035 4.08566,9.1747 4.31283,1.92448 9.38562,2.20605 15.10916,0.45188 5.72353,-1.75382 12.09873,-5.54306 16.54469,-9.28819 4.44594,-3.74497 6.96127,-7.44429 9.98658,-13.84873 3.02545,-6.40461 6.56146,-15.51649 10.10284,-21.27602 3.54122,-5.75939 7.08812,-8.16611 11.00329,-9.94706 3.91531,-1.78081 8.19735,-2.93477 12.12401,-2.14432 3.92664,0.79045 7.49667,3.52515 10.7211,8.08844 3.22429,4.56329 6.10436,10.95258 7.36372,20.62069 1.25919,9.6681 0.89921,22.61134 2.27374,33.30657 1.37409,10.69538 4.48212,19.14458 8.32772,18.29424 3.84561,-0.8502 8.42822,-10.99809 11.00345,-20.58454 2.57507,-9.58646 3.1414,-18.61179 5.01963,-26.85418 1.87839,-8.24225 5.06774,-15.70077 9.18541,-20.91618 4.11752,-5.21542 9.16489,-8.18801 15.20597,-11.61205 6.04095,-3.42404 13.07622,-7.29722 21.3419,-10.58471 8.26552,-3.28744 17.75914,-5.98999 25.58134,-9.79752 7.8222,-3.80752 13.97206,-8.72124 16.76099,-13.83914 2.78908,-5.11789 2.2177,-10.43916 -0.8839,-10.07898 -3.10159,0.36014 -8.73518,6.403 -13.35087,8.7262 -4.61584,2.32321 -8.21575,0.92863 -12.10379,-0.20588 -3.88804,-1.1345 -8.06239,-2.01113 -13.18482,-1.32997 -5.12227,0.68122 -11.19246,2.91931 -17.98801,7.71558 -6.79553,4.79624 -14.31595,12.15121 -21.57841,21.32603 -7.26261,9.1747 -14.26495,20.1665 -17.66876,20.53094 -3.40398,0.36458 -3.20683,-9.89759 -2.10755,-19.36731 1.09988,-9.46959 3.10081,-18.14318 7.78864,-26.20583 4.68784,-8.06269 12.05936,-15.51503 22.37008,-23.69647 10.31059,-8.18143 23.55776,-17.09367 34.31026,-25.36149 10.75253,-8.26785 19.0084,-15.89175 21.93105,-25.62096 2.92282,-9.7292 0.51318,-21.56241 -1.91821,-24.45024 -2.43231,-2.88779 -4.88697,3.17147 -8.16503,10.41849 -3.27821,7.24701 -7.38041,15.68214 -14.19448,22.74476 -6.81422,7.0626 -16.33879,12.75259 -19.89948,12.93845 -3.56067,0.18582 -1.15809,-5.13164 1.90168,-11.13974 3.0593,-6.0081 6.775,-12.70621 12.2594,-20.12541 5.48442,-7.41917 12.73645,-15.56097 18.11471,-23.07461 5.37825,-7.51363 8.88133,-14.39751 9.91366,-20.5344 1.03248,-6.1369 -0.40595,-11.5257 -2.42051,-11.38955 -2.01487,0.13633 -4.60572,5.79751 -9.9198,12.29375 -5.31421,6.49624 -13.35287,13.82708 -21.78781,22.47298 -8.43511,8.64589 -17.26421,18.60695 -24.42034,30.41461 -7.15615,11.80764 -12.63733,25.45856 -18.77968,37.60772 -6.14235,12.14914 -12.94556,22.79327 -17.4393,24.33767 -4.49359,1.54436 -6.67682,-6.00945 -7.84211,-14.30445 -1.16576,-8.29497 -1.31434,-17.33039 -0.65871,-24.64023 0.65565,-7.30982 2.11767,-12.89234 4.51121,-19.73665 2.39356,-6.84428 5.72018,-14.94724 6.89849,-24.72996 1.178,-9.78269 0.20833,-21.24536 -6.21328,-30.92652 -6.4216,-9.68113 -18.29606,-17.58227 -21.42185,-16.0697 -3.12579,1.51258 2.49588,12.43789 5.18233,23.7589 2.6866,11.32103 2.43859,23.0387 -0.15319,33.68573 -2.59147,10.64706 -7.52578,20.22444 -12.37277,19.48773 -4.84701,-0.73667 -9.60699,-11.78829 -11.7458,-22.37008 -2.13895,-10.58176 -1.65596,-20.6953 0.25583,-31.43843 1.91177,-10.74306 5.25141,-22.11427 4.14892,-34.83532 -1.10295,-12.72106 -6.64726,-26.78917 -9.62076,-28.60268 -0.18537,-0.11337 -0.36153,-0.17893 -0.5285,-0.19961 z" /><path
       style="fill:#4d7600;fill-opacity:1;stroke-width:0.45034"
       d="m 150.47393,98.199951 c 1.02233,4.779719 3.06687,14.338629 3.53099,25.101169 0.46412,10.76253 -0.65198,22.72844 -1.32186,34.56336 -0.66988,11.83491 -0.89353,23.53811 0.15405,33.15774 1.04758,9.61962 3.36607,17.1549 5.80399,22.59927 2.43792,5.44437 4.99476,8.79724 8.2951,12.28199 3.30034,3.48476 7.34387,7.10126 12.57609,12.51864 5.23221,5.41739 11.65262,12.63502 14.85007,9.07613 3.19745,-3.55889 3.17195,-17.89389 4.95283,-28.64557 1.78088,-10.75168 5.36803,-17.91853 6.69158,-26.26137 1.32356,-8.34283 0.38323,-17.86085 -1.55524,-24.94778 -1.93848,-7.08693 -4.8751,-11.74183 -10.79271,-16.60775 -5.91761,-4.86593 -14.8158,-9.94214 -16.53504,-7.60484 -1.71924,2.3373 3.74088,12.08764 6.48368,19.83989 2.7428,7.75224 2.7683,13.50556 2.13572,20.92255 -0.63259,7.41699 -1.92315,16.49689 -4.32954,22.918 -2.4064,6.42111 -5.92836,10.18307 -9.2028,10.67574 -3.27445,0.49267 -6.30141,-2.28451 -8.56847,-8.53139 -2.26705,-6.24687 -3.77354,-15.96285 -4.04553,-25.31544 -0.272,-9.3526 0.69064,-18.34058 2.22651,-26.56548 1.53587,-8.2249 3.64481,-15.68559 4.26972,-22.60848 0.62491,-6.92289 -0.23443,-13.30717 -3.25553,-20.10856 -3.0211,-6.80139 -8.20399,-14.01915 -10.79566,-17.628345 -2.59167,-3.609198 -2.59028,-3.609198 -1.56795,1.170526 z"
       id="path12630"
       inkscape:path-effect="#path-effect12632"
       inkscape:original-d="m 149.4516,93.420227 c 2.04505,9.559363 4.08964,19.118263 6.13362,28.676713 -1.11521,11.9668 -2.23179,23.93267 -3.34837,35.89833 -0.22365,11.70412 -0.4473,23.40732 -0.67097,35.1103 2.31911,7.53618 4.6376,15.07146 6.95578,22.60675 2.55747,3.35346 5.11431,6.70633 7.6707,10.05883 4.04415,3.61712 8.08767,7.23363 12.13088,10.84977 6.42132,7.21854 12.8417,14.43619 19.26207,21.65384 -0.0153,-14.33542 -0.046,-28.67041 -0.0765,-43.0067 3.58779,-7.16679 7.17498,-14.33363 10.76186,-21.50135 -0.94058,-9.51821 -1.88022,-19.03629 -2.8211,-28.55538 -2.93645,-4.65477 -5.87305,-9.30968 -8.81026,-13.96532 -8.89818,-5.07602 -17.79638,-10.15222 -26.69547,-15.22915 5.46081,9.75132 10.92102,19.50161 16.38092,29.25202 0.0306,5.75417 0.046,11.50753 0.0765,17.26078 -1.28983,9.08083 -2.58074,18.16068 -3.87179,27.24058 -3.52178,3.76268 -7.04371,7.52466 -10.56641,11.28645 -3.02667,-2.7769 -6.05365,-5.55406 -9.08125,-8.33185 -1.50581,-9.71609 -3.01257,-19.43202 -4.51963,-29.14898 0.96356,-8.98807 1.92572,-17.9761 2.88804,-26.96507 2.10954,-7.46073 4.21846,-14.92142 6.3271,-22.38304 -0.85938,-6.38431 -1.71831,-12.76864 -2.57815,-19.15382 -5.18263,-7.21762 -10.36556,-14.43535 -15.54896,-21.653703 z"
       sodipodi:nodetypes="ccccccccccccccccccccccc" /><path
       style="fill:#4d7600;fill-opacity:1;stroke-width:0.45034"
       d="m 85.73357,175.31254 c -0.125115,2.40422 -0.375324,7.21229 0.569102,12.62562 0.944425,5.41334 3.083132,11.4316 5.932995,15.87528 2.849862,4.44368 6.410226,7.31234 12.468943,9.45632 6.05871,2.14397 14.61497,3.56324 21.02901,5.29641 6.41404,1.73317 10.68505,3.77988 14.61429,8.88249 3.92923,5.10262 7.51663,13.26028 9.89077,19.11473 2.37414,5.85445 3.5348,9.40499 6.12087,12.30447 2.58608,2.89949 6.59697,5.1479 12.01478,13.599 5.41782,8.45109 12.24213,23.10363 14.27911,22.75652 2.03697,-0.3471 -0.71349,-15.69374 -5.85477,-28.1707 -5.14128,-12.47697 -12.67303,-22.08266 -20.00562,-30.81913 -7.33258,-8.73648 -14.46515,-16.60264 -23.18948,-22.45776 -8.72433,-5.85512 -19.03949,-9.69822 -27.26227,-16.1741 -8.222783,-6.47588 -14.352193,-15.58421 -17.417175,-20.13879 -3.064982,-4.55458 -3.065441,-4.55458 -3.190555,-2.15036 z"
       id="path12634"
       inkscape:path-effect="#path-effect12636"
       inkscape:original-d="m 85.858684,172.90832 c -0.249696,4.80847 -0.500922,9.61648 -0.750618,14.42401 2.13926,6.01909 4.277906,12.03737 6.4164,18.05556 3.56099,2.86932 7.121366,5.73797 10.681594,8.6064 8.55719,1.41989 17.11346,2.83909 25.66989,4.258 4.27162,2.04724 8.54264,4.09392 12.81334,6.14028 3.5881,8.1586 7.17544,16.31629 10.76263,24.474 1.16116,3.55119 2.32186,7.10171 3.4821,10.65197 4.01151,2.24898 8.0224,4.4974 12.03317,6.7455 6.82509,14.65385 13.64943,29.30638 20.47377,43.95938 -2.75018,-15.34721 -5.50065,-30.69384 -8.25174,-46.04192 -7.53176,-9.60584 -15.0635,-19.21154 -22.59619,-28.81827 -7.13254,-7.86618 -14.2651,-15.73235 -21.39856,-23.59943 -10.31533,-3.84287 -20.6305,-7.68594 -30.94658,-11.52971 -6.129326,-9.10831 -12.258654,-18.2167 -18.388747,-27.32577 z"
       sodipodi:nodetypes="ccccccccccccccc" /><path
       style="fill:#4d7600;fill-opacity:1;stroke-width:0.45034"
       d="m 129.35672,329.04359 c -3.67338,-5.21632 -11.02036,-15.64931 -15.05779,-24.08367 -4.03743,-8.43436 -4.765,-14.8697 -5.68258,-19.60708 -0.91758,-4.73739 -2.02517,-7.77623 -2.87846,-15.38742 -0.85329,-7.6112 -1.45203,-19.79377 -3.24415,-19.66817 -1.79213,0.1256 -4.77737,12.55981 -6.07287,22.69085 -1.295501,10.13104 -0.901316,17.95793 1.022683,25.25092 1.923999,7.29298 5.377317,14.05106 11.563527,19.96554 6.18622,5.91448 15.10451,10.98504 19.56345,13.5202 4.45894,2.53516 4.45956,2.53516 0.78619,-2.68117 z"
       id="path12638"
       inkscape:path-effect="#path-effect12640"
       inkscape:original-d="m 133.03009,334.25992 c -7.34671,-10.43268 -14.69373,-20.86564 -22.04104,-31.29909 -0.72764,-6.43526 -1.45528,-12.87059 -2.18277,-19.30677 -1.10754,-3.0386 -2.21493,-6.07751 -3.32293,-9.11692 -0.59896,-12.18291 -1.19639,-24.36554 -1.79629,-36.54936 -2.98485,12.43521 -5.970157,24.86941 -8.955926,37.30347 0.395223,7.82784 0.788913,15.65476 1.182606,23.48171 3.454071,6.75891 6.90736,13.517 10.36035,20.275 8.91919,5.07111 17.83743,10.14176 26.75538,15.21196 z"
       sodipodi:nodetypes="ccccccccc" /><path
       style="fill:#4d7600;fill-opacity:1;stroke-width:0.45034"
       d="m 109.41975,362.17312 c -3.31257,1.60791 -9.937649,4.82369 -9.531732,7.93095 0.405922,3.10726 7.842212,6.10536 16.016642,5.65946 8.17444,-0.44589 17.08628,-4.33541 23.61104,-11.86563 6.52476,-7.53022 10.66194,-18.70061 15.35659,-26.87631 4.69465,-8.1757 9.94613,-13.3555 14.78761,-15.69348 4.84147,-2.33798 9.27196,-1.83401 14.01102,1.05585 4.73906,2.88987 9.78633,8.16498 12.22687,14.84172 2.44054,6.67675 2.27459,14.75444 2.63798,24.18444 0.36339,9.43001 1.25605,20.21149 3.02888,27.55395 1.77282,7.34246 4.42532,11.24547 7.88981,9.6826 3.46449,-1.56288 7.74101,-8.59095 10.78573,-17.44696 3.04471,-8.856 4.85729,-19.53912 3.04134,-21.61639 -1.81595,-2.07727 -7.26031,4.4521 -11.23325,3.49377 -3.97295,-0.95833 -6.47449,-9.4046 -8.17105,-17.16298 -1.69656,-7.75838 -2.58792,-14.82818 -7.0488,-20.6376 -4.46089,-5.80942 -12.49114,-10.35751 -20.57508,-11.5554 -8.08394,-1.19789 -16.22045,0.95493 -21.70471,4.62014 -5.48426,3.66521 -8.31535,8.84223 -10.12094,15.324 -1.8056,6.48177 -2.5855,14.26732 -7.69712,18.96799 -5.11161,4.70066 -14.55498,6.31651 -19.27692,7.12447 -4.72195,0.80797 -4.72134,0.80751 -8.03391,2.41541 z"
       id="path12642"
       inkscape:path-effect="#path-effect12644"
       inkscape:original-d="m 112.73232,360.56522 c -6.62489,3.21632 -13.249932,6.43218 -19.875738,9.64758 7.437248,2.99879 14.873568,5.99682 22.309878,8.9947 8.91289,-3.88928 17.82471,-7.77886 26.73669,-11.66905 4.13788,-11.17056 8.27501,-22.34097 12.41199,-33.51245 5.25218,-5.17973 10.50374,-10.35944 15.75499,-15.53993 4.43125,0.50399 8.86174,1.00797 13.29191,1.51196 5.04798,5.27576 10.0952,10.55092 15.14225,15.82577 -0.16545,8.07864 -0.33089,16.15634 -0.49785,24.23406 0.89307,10.78224 1.78585,21.56371 2.67801,32.34487 2.6532,3.90368 5.30564,7.80673 7.95777,11.70948 4.27729,-7.02808 8.55382,-14.05615 12.83004,-21.085 1.81312,-10.68342 3.62563,-21.36655 5.43799,-32.0509 -5.44427,6.53007 -10.88854,13.05952 -16.33343,19.58852 -2.50124,-8.44614 -5.00278,-16.89242 -7.50479,-25.33932 -0.89156,-7.06975 -1.78234,-14.13963 -2.67419,-21.2103 -8.03039,-4.54797 -16.06061,-9.09611 -24.09176,-13.64485 -8.13654,2.15336 -16.27307,4.30609 -24.41038,6.45868 -2.83075,5.17773 -5.66195,10.35469 -8.49362,15.53166 -0.77972,7.78635 -1.5593,15.57193 -2.33977,23.35736 -9.44324,1.61645 -18.88661,3.23227 -28.3306,4.84762 z"
       sodipodi:nodetypes="ccccccccccccccccccccc" /><path
       style="fill:#4d7600;fill-opacity:1;stroke-width:0.45034"
       d="m 237.46162,325.80973 c 2.06556,-3.37969 6.1967,-10.13909 10.46264,-15.16686 4.26594,-5.02776 8.66639,-8.32363 13.19162,-10.88752 4.52524,-2.5639 9.17492,-4.39571 13.13383,-7.49145 3.95892,-3.09574 7.22715,-7.45532 11.43766,-8.60633 4.2105,-1.15102 9.36234,0.90655 13.39306,0.14479 4.03072,-0.76176 6.94056,-4.34251 9.34821,-6.78733 2.40765,-2.44482 4.31281,-3.75343 5.18187,-1.18318 0.86906,2.57026 0.70209,9.01852 -2.02297,13.77837 -2.72505,4.75985 -8.00804,7.83129 -16.05434,10.9598 -8.04629,3.12851 -18.85519,6.31373 -29.33873,11.09316 -10.48353,4.77942 -20.64087,11.15271 -25.71972,14.33947 -5.07885,3.18676 -5.07869,3.18676 -3.01313,-0.19292 z"
       id="path12646"
       inkscape:path-effect="#path-effect12648"
       inkscape:original-d="m 235.39606,329.18941 c 4.13161,-6.75907 8.26277,-13.51846 12.39346,-20.27827 4.40106,-3.29552 8.80153,-6.59136 13.20151,-9.88771 4.65031,-1.83142 9.3,-3.66322 13.94923,-5.49552 3.26887,-4.35937 6.53711,-8.71895 9.80507,-13.07921 5.15244,2.05811 10.30429,4.11564 15.45582,6.17284 2.91055,-3.58049 5.82034,-7.16129 8.72982,-10.74261 1.90566,-1.30822 3.81085,-2.61679 5.71559,-3.92591 -0.16697,6.44909 -0.33396,12.89735 -0.50093,19.34553 -5.28282,3.07208 -10.5658,6.14353 -15.84968,9.21472 -10.80889,3.18579 -21.61778,6.37103 -32.42743,9.55588 -10.15723,6.37401 -20.31462,12.74721 -30.47262,19.12026 z"
       sodipodi:nodetypes="cccccccccccc" /><path
       style="fill:#4d7600;fill-opacity:1;stroke-width:0.45034"
       d="m 222.47623,285.14746 c 5.57829,-6.0877 16.73483,-18.26304 29.67883,-28.53419 12.94401,-10.27115 27.67433,-18.63742 36.88276,-26.7799 9.20844,-8.14248 12.89409,-16.06046 13.42352,-24.94548 0.52944,-8.88502 -2.09762,-18.73639 -4.87569,-18.96521 -2.77806,-0.22882 -5.70658,9.16522 -11.08389,18.26106 -5.37732,9.09584 -13.20279,17.89254 -19.3948,22.84762 -6.19202,4.95508 -10.75011,6.06798 -11.64808,3.95369 -0.89796,-2.1143 1.86446,-7.45573 5.3798,-13.32755 3.51535,-5.87183 7.78316,-12.27323 13.59634,-19.77825 5.81318,-7.50501 13.17094,-16.1126 17.88252,-24.48514 4.71157,-8.37254 6.77634,-16.50919 6.44297,-22.2853 -0.33337,-5.7761 -3.06543,-9.19123 -4.66862,-7.14091 -1.60319,2.05032 -2.07704,9.56588 -6.26157,18.68541 -4.18452,9.11953 -12.07925,19.84257 -18.86476,28.71058 -6.7855,8.86801 -12.46099,15.87998 -16.04823,24.32471 -3.58725,8.44473 -5.0858,18.32106 -5.60719,23.92255 -0.52139,5.6015 -0.066,6.9274 -2.00975,9.44976 -1.94376,2.52236 -6.28646,6.24144 -11.42035,13.47015 -5.1339,7.2287 -11.05859,17.96636 -14.02096,23.33523 -2.96237,5.36887 -2.96114,5.36887 2.61715,-0.71883 z"
       id="path12650"
       inkscape:path-effect="#path-effect12652"
       inkscape:original-d="m 216.89794,291.23516 c 11.15708,-12.17494 22.31356,-24.35034 33.46972,-36.52616 14.73171,-8.36635 29.46204,-16.7326 44.19282,-25.09985 3.68631,-7.91801 7.37199,-15.83598 11.05737,-23.75485 -2.62671,-9.85153 -5.25371,-19.70291 -7.88149,-29.55531 -2.92817,9.39506 -5.85665,18.78911 -8.7859,28.18327 -7.82557,8.79772 -15.65098,17.59447 -23.47748,26.3913 -4.55792,1.11337 -9.11601,2.22627 -13.67455,3.33876 2.76304,-5.34128 5.52546,-10.68271 8.28758,-16.02492 4.26856,-6.40137 8.53636,-12.80278 12.804,-19.20508 7.35865,-8.60769 14.71639,-17.2153 22.07428,-25.82392 2.06527,-8.13672 4.13008,-16.27336 6.19458,-24.41099 -2.73163,-3.41478 -5.46373,-6.82988 -8.19628,-10.24549 -0.47336,7.51633 -0.9467,15.03193 -1.42158,22.54723 -7.89465,10.7241 -15.78946,21.44708 -23.68504,32.17026 -5.67543,7.01288 -11.35087,14.02488 -17.02722,21.03684 -1.49817,9.87716 -2.9968,19.75347 -4.49574,29.62954 0.45649,1.3266 0.91147,2.65265 1.36643,3.97829 -4.34239,3.71968 -8.6851,7.43875 -13.02827,11.15742 -5.92451,10.73855 -11.84918,21.47622 -17.77446,32.21366 z"
       sodipodi:nodetypes="cccccccccccccccccccc" /><path
       d="m 104.39331,49.145081 c -1.62566,0.661999 -5.220961,2.07064 -7.996176,3.152578 -8.677957,3.377871 -13.704834,6.216506 -18.420449,10.388966 -1.521976,1.350544 -4.970512,4.937086 -4.960195,5.152306 0.0069,0.05668 0.461094,0.847095 0.994943,1.737051 0.938869,1.599414 1.233754,2.296162 0.884657,2.090264 -0.174481,-0.102943 -0.638408,0.982871 -0.776828,1.816164 -0.11558,0.79449 0.258197,1.59006 2.451715,5.184268 3.4191,5.571841 6.436168,10.828138 9.288966,16.196653 1.489249,2.760583 2.202863,3.678144 2.933421,3.769204 1.069354,0.08166 1.574941,-1.240877 1.246293,-3.34309 -0.173179,-1.069355 -0.139861,-1.25884 0.211551,-1.522146 0.224726,-0.18122 0.387947,-0.424787 0.361445,-0.544963 -0.01226,-0.111827 -0.28937,-1.503899 -0.588085,-3.091738 -0.298715,-1.587825 -0.634732,-3.511343 -0.733154,-4.275226 l -0.184437,-1.415886 0.709946,-0.705351 c 0.868188,-0.873466 1.3857,-0.98651 3.03905,-0.664909 2.969956,0.549175 4.873529,1.410432 10.502957,4.730636 5.93487,3.500334 7.53384,4.678681 13.05664,9.60906 1.77859,1.571857 3.69335,3.145548 4.2752,3.488718 0.98914,0.58341 1.12848,0.61314 1.71986,0.3086 0.3606,-0.17946 0.88148,-0.63037 1.19132,-1.02272 0.71125,-0.939862 6.98462,-13.238627 7.46627,-14.653762 0.41606,-1.270828 0.29811,-2.33377 -0.35417,-3.18906 -0.41238,-0.530794 -0.40717,-0.606086 0.0659,-1.607953 0.27682,-0.568784 0.65611,-1.312239 0.8506,-1.641952 l 0.35463,-0.601259 -1.32036,-1.484516 c -2.02985,-2.242859 -4.22394,-4.373456 -6.65812,-6.462662 -1.90952,-1.649084 -2.83524,-2.273497 -7.05678,-4.789475 -5.19301,-3.062801 -6.12302,-3.480589 -11.09937,-5.082384 -1.5795,-0.513253 -2.86897,-0.986318 -2.87829,-1.070249 -0.01,-0.08371 0.0575,-0.09697 0.15916,-0.03677 0.27643,0.163067 2.52918,-1.828298 3.23103,-2.852148 1.11165,-1.61869 0.6204,-2.614246 -1.13503,-2.264075 -1.04972,0.217372 -3.16385,1.009572 -3.75743,1.417586 -0.58219,0.388559 1.17582,-1.162561 3.92757,-3.434717 1.28076,-1.07454 2.37965,-2.073352 2.43063,-2.226278 0.0253,-0.142081 -0.0628,-0.690797 -0.2209,-1.254381 l -0.28539,-0.978652 z"
       id="path2658-7"
       style="stroke-width:0.0195003" /><path
       style="fill:#77ff2c;fill-opacity:1;stroke-width:0.337757"
       d="m 325.52825,42.691312 c 1.93152,-1.4703 5.79484,-4.411106 7.42278,-7.844375 1.62794,-3.43327 1.01994,-7.358707 1.56671,-10.31168 0.54678,-2.952974 2.24861,-4.933268 5.21245,-6.114928 2.96383,-1.18166 7.18935,-1.564206 10.56212,-2.58601 3.37278,-1.021805 5.89249,-2.682971 7.58939,-4.107044 1.69691,-1.424072 2.57073,-2.6110331 3.52674,-4.0889641 0.95601,-1.4779309 1.99409,-3.2467486 2.91977,-2.4260312 0.92568,0.8207174 1.73859,4.2309681 1.44384,7.7744693 -0.29475,3.543502 -1.69689,7.219651 -3.63062,9.643047 -1.93373,2.423396 -4.39843,3.593876 -6.94471,4.729391 -2.54628,1.135515 -5.17367,2.235871 -7.00396,3.350946 -1.8303,1.115075 -2.86342,2.244623 -3.20645,4.328113 -0.34303,2.08349 0.004,5.120887 0.0419,7.261644 0.0382,2.140757 -0.23189,3.384784 -3.85537,3.545432 -3.62347,0.160649 -10.59985,-0.761543 -14.08795,-1.222627 -3.4881,-0.461084 -3.48818,-0.461084 -1.55666,-1.931383 z"
       id="path7547-3-5-3"
       inkscape:path-effect="#path-effect7549-1-0-3"
       inkscape:original-d="m 323.59673,44.161611 c 3.86308,-2.940551 7.72639,-5.881363 11.59023,-8.822634 -0.60815,-3.925285 -1.21645,-7.850676 -1.82407,-11.776635 1.7016,-1.980083 3.40343,-3.960379 5.10571,-5.941135 4.22544,-0.382355 8.45096,-0.764864 12.677,-1.147679 2.51955,-1.660917 5.03925,-3.322109 7.55941,-4.98367 0.87348,-1.186741 1.74733,-2.3736821 2.62158,-3.5610363 1.03768,-1.7685464 2.07583,-3.5373225 3.11429,-5.3065428 0.81265,3.4108051 1.62554,6.8210589 2.43881,10.2311751 -1.40258,3.676723 -2.8047,7.352879 -4.2066,11.028927 -2.46532,1.170962 -4.93001,2.341451 -7.39465,3.511709 -2.62792,1.100803 -5.25531,2.201148 -7.88255,3.30123 -1.03341,1.129909 -2.06657,2.259421 -3.09936,3.38864 0.34619,3.03784 0.69317,6.075206 1.04014,9.112311 -0.27037,1.24434 -0.54075,2.488312 -0.81036,3.731963 -6.97697,-0.921882 -13.95335,-1.844083 -20.9295,-2.766623 z"
       sodipodi:nodetypes="cccccccccccccccc" /><path
       style="fill:#06d400;fill-opacity:1;stroke-width:0.337757"
       d="m 359.68113,61.352441 c 0.05,-0.586769 0.15012,-1.760768 -0.66073,-2.401744 -0.81084,-0.640977 -2.53221,-0.748612 -4.10544,-1.375344 -1.57324,-0.626733 -2.99853,-1.772554 -3.70222,-2.942323 -0.70369,-1.169769 -0.68582,-2.363817 -0.311,-3.786733 0.37482,-1.422915 1.10683,-3.074904 1.40743,-4.956591 0.3006,-1.881687 0.16962,-3.993099 -0.52955,-5.505808 -0.69917,-1.512709 -1.96663,-2.426454 -3.92675,-3.015917 -1.96012,-0.589463 -4.6127,-0.854728 -7.57212,-1.65853 -2.95942,-0.803801 -6.22569,-2.146062 -8.35786,-4.428372 -2.13217,-2.282311 -3.13042,-5.504802 -3.08441,-8.324432 0.046,-2.819629 1.1365,-5.236403 3.87663,-9.348009 2.74013,-4.1116057 7.12983,-9.9177535 8.0626,-11.0731317 0.93277,-1.1553782 -1.59136,2.3399486 -2.95622,5.4675121 -1.36485,3.1275636 -1.57063,5.8872196 -1.12511,8.4182246 0.44552,2.531005 1.54221,4.833467 3.64889,6.44103 2.10668,1.607563 5.2235,2.520351 8.33686,2.961967 3.11336,0.441616 6.22321,0.412 8.58704,1.558821 2.36383,1.146822 3.98113,3.469899 5.01662,6.195856 1.03548,2.725957 1.48905,5.854274 1.55304,8.697648 0.064,2.843374 -0.26152,5.401338 -0.0474,7.894173 0.21408,2.492836 0.96767,4.920656 1.61038,6.432888 0.64272,1.512232 1.17477,2.109329 0.19353,2.846231 -0.98124,0.736901 -3.47514,1.613543 -4.72189,2.051796 -1.24676,0.438253 -1.24229,0.437556 -1.19227,-0.149212 z"
       id="path7701-6-1-5"
       inkscape:path-effect="#path-effect7703-2-4-6"
       inkscape:original-d="m 359.63111,61.939209 c 0.0996,-1.173575 0.1999,-2.347556 0.30025,-3.521827 -1.72183,-0.107231 -3.44319,-0.214923 -5.16433,-0.322919 -1.42556,-1.145534 -2.85089,-2.291297 -4.27584,-3.437453 0.0153,-1.193787 0.0383,-2.387759 0.0536,-3.58216 0.73147,-1.651603 1.46369,-3.303497 2.19593,-4.955774 -0.1302,-2.111104 -0.26194,-4.222468 -0.39292,-6.334216 -1.26762,-0.913302 -2.5351,-1.827017 -3.8021,-2.741039 -2.65298,-0.265014 -5.30557,-0.530182 -7.95785,-0.795808 -3.2667,-1.341921 -6.53296,-2.684208 -9.79891,-4.026824 -0.99863,-3.222295 -1.99688,-6.444786 -2.99481,-9.667699 1.09023,-2.416528 2.18069,-4.833317 3.27155,-7.250489 4.38949,-5.8060248 8.77921,-11.6121571 13.16933,-17.4187492 -2.52462,3.4958089 -5.04874,6.9911429 -7.57256,10.4862164 -0.20604,2.7600968 -0.41208,5.5197338 -0.61735,8.2790948 1.09636,2.302894 2.19308,4.605343 3.29014,6.907516 3.1166,0.91315 6.23342,1.825931 9.35055,2.738391 3.1097,-0.02911 6.21955,-0.05975 9.32978,-0.08885 1.61705,2.323529 3.23432,4.646628 4.85206,6.969452 0.45343,3.128833 0.90671,6.257192 1.36076,9.38529 -0.32629,2.558487 -0.65105,5.116545 -0.97656,7.674297 0.7529,2.42814 1.5069,4.855835 2.26072,7.283239 0.53157,0.597278 1.06359,1.194402 1.59592,1.791035 -2.49436,0.876998 -4.98825,1.753657 -7.48183,2.629973 z" /><path
       style="fill:#00bd0e;fill-opacity:1;stroke-width:0.337757"
       d="m 387.23014,35.965156 c -0.20718,-0.01457 -0.62079,-0.04367 -2.25591,-0.152551 -1.63511,-0.108886 -4.49158,-0.297555 -7.10754,-1.636594 -2.61597,-1.33904 -4.9916,-3.828423 -7.08739,-5.5553 -2.0958,-1.726878 -3.91157,-2.691127 -5.88569,-2.907896 -1.97412,-0.216769 -4.10617,0.313735 -6.34446,1.123387 -2.23829,0.809652 -4.58267,1.89832 -7.13214,2.205254 -2.54947,0.306934 -5.30408,-0.16764 -7.30947,-0.3219 -2.00539,-0.15426 -3.26152,0.01169 -4.63637,1.825652 -1.37484,1.813959 -2.86851,5.275444 -4.30137,7.987859 -1.43286,2.712416 -2.80477,4.675706 -4.09528,6.20406 -1.2905,1.528355 -2.49939,2.621721 -3.51508,4.670098 -1.01569,2.048378 -1.83831,5.051454 -1.24482,8.345147 0.5935,3.293693 2.60287,6.878061 3.18622,7.341291 0.58335,0.463231 -0.25931,-2.19465 -0.21919,-4.288683 0.0401,-2.094033 0.96336,-3.624321 2.62042,-4.934143 1.65707,-1.309822 4.04808,-2.398961 5.3924,-3.894688 1.34432,-1.495727 1.64155,-3.398074 2.48613,-4.928475 0.84458,-1.530401 2.23671,-2.688691 4.52769,-2.934539 2.29098,-0.245847 5.48048,0.421142 7.66475,-0.282312 2.18427,-0.703455 3.3632,-2.777735 4.74837,-4.389697 1.38517,-1.611962 2.97675,-2.761438 4.48555,-2.362622 1.5088,0.398816 2.93434,2.346071 4.23135,3.740887 1.297,1.394815 2.46558,2.237291 4.73096,2.742604 2.26538,0.505313 5.62772,0.67341 8.26677,0.713253 2.63905,0.03984 4.55478,-0.04859 5.67771,0.150095 1.12293,0.198689 1.45247,0.684306 1.87416,-0.675394 0.4217,-1.3597 0.93557,-4.56516 1.19253,-6.168061 0.25696,-1.602902 0.25688,-1.602159 0.0497,-1.616732 z"
       id="path7873-8-6-6"
       inkscape:path-effect="#path-effect7875-8-0-7"
       inkscape:original-d="m 387.43732,35.979729 c -0.41436,-0.02911 -0.82797,-0.05822 -1.24127,-0.08731 -2.85695,-0.188419 -5.71342,-0.376992 -8.56967,-0.566026 -2.37599,-2.489108 -4.75163,-4.978477 -7.12695,-7.468229 -1.8161,-0.964007 -3.63192,-1.928167 -5.44734,-2.892757 -2.13252,0.530947 -4.26458,1.061434 -6.3964,1.59157 -2.34477,1.089006 -4.68914,2.177693 -7.03322,3.266042 -2.75499,-0.474267 -5.5096,-0.948841 -8.26383,-1.423722 -1.25644,0.166362 -2.51258,0.332263 -3.76841,0.497859 -1.49403,3.461955 -2.98775,6.923419 -4.48109,10.384623 -1.37224,1.963676 -2.74419,3.926939 -4.11575,5.889895 -1.20942,1.093757 -2.41823,2.187207 -3.62687,3.28029 -0.82307,3.003557 -1.64561,6.006654 -2.46792,9.009475 2.00913,3.584843 4.01849,7.169217 6.02823,10.753307 -0.84315,-2.657691 -1.68568,-5.315611 -2.52805,-7.973938 0.92295,-1.529882 1.84613,-3.060206 2.76969,-4.590807 2.39073,-1.088854 4.78174,-2.177984 7.17313,-3.267468 0.29719,-1.902111 0.59437,-3.804466 0.89171,-5.707189 1.39185,-1.158095 2.78403,-2.316328 4.17658,-3.475021 3.18928,0.667437 6.37878,1.334414 9.56868,2.001008 1.17862,-2.074033 2.35755,-4.148309 3.53686,-6.223001 1.59123,-1.149058 3.18277,-2.298589 4.7747,-3.448397 1.42525,1.947668 2.85081,3.894907 4.27668,5.841856 1.1682,0.842836 2.3368,1.685288 3.50576,2.527435 3.36207,0.168353 6.72441,0.3364 10.08706,0.504293 1.91544,-0.08884 3.83121,-0.176472 5.74735,-0.265321 0.32936,0.486064 0.6587,0.971821 0.98882,1.457117 0.51317,-3.205166 1.02743,-6.410563 1.5416,-9.616327 z" /><path
       style="fill:#3fe900;fill-opacity:1;stroke-width:0.337757"
       d="m 337.59871,20.639006 c 0.0662,0.07959 0.19968,0.240005 0.62164,0.794521 0.42196,0.554516 1.13276,1.503529 1.23222,2.902308 0.0995,1.398779 -0.41281,3.246878 0.37592,5.079347 0.78874,1.832468 2.87873,3.649618 4.09528,5.834698 1.21655,2.18508 1.55926,4.737747 1.34813,7.07789 -0.21112,2.340143 -0.97616,4.467503 -0.82737,6.589625 0.14878,2.122122 1.21144,4.23934 3.08779,5.031815 1.87634,0.792475 4.56653,0.259825 6.57063,0.185825 2.0041,-0.074 3.32204,0.31084 4.06603,1.110785 0.74399,0.799944 0.91351,2.014884 1.80975,3.282548 0.89625,1.267663 2.51949,2.588056 4.3514,2.906963 1.83192,0.318908 3.87234,-0.364072 6.58793,-1.645729 2.71558,-1.281657 6.10598,-3.161913 9.16294,-3.427417 3.05696,-0.265504 5.78038,1.084115 6.12194,1.111986 0.34156,0.02787 -1.69883,-1.265983 -3.4821,-2.523175 -1.78327,-1.257192 -3.30947,-2.477688 -5.38498,-3.182011 -2.07551,-0.704322 -4.70016,-0.89274 -6.83778,-1.890301 -2.13763,-0.997562 -3.78837,-2.803936 -4.67043,-4.98854 -0.88205,-2.184604 -0.99566,-4.747395 -2.12847,-6.820311 -1.13282,-2.072916 -3.28435,-3.655612 -5.13782,-4.969203 -1.85347,-1.313591 -3.40866,-2.357954 -4.68651,-5.089859 -1.27786,-2.731904 -2.27861,-7.151187 -4.95633,-8.674222 -2.67773,-1.523035 -7.03201,-0.150052 -9.20894,0.536372 -2.17693,0.686424 -2.17709,0.686493 -2.11087,0.766085 z"
       id="path7877-0-6-2"
       inkscape:path-effect="#path-effect7879-9-8-5"
       inkscape:original-d="m 337.53249,20.559414 c 0.13173,0.159774 0.26577,0.319702 0.39904,0.479629 0.71079,0.948995 1.42126,1.898249 2.13275,2.847535 -0.51242,1.847989 -1.02498,3.696008 -1.53677,5.544166 2.08954,1.817108 4.17954,3.634254 6.27009,5.451537 0.34237,2.552726 0.68475,5.105438 1.02819,7.658333 -0.76517,2.127242 -1.53049,4.2545 -2.29504,6.381902 1.06219,2.117185 2.12486,4.234402 3.18805,6.351754 2.68982,-0.532784 5.38001,-1.065416 8.07067,-1.597971 1.31756,0.384806 2.63551,0.769612 3.95399,1.154571 0.16927,1.214928 0.33854,2.429902 0.50858,3.645014 1.6228,1.320321 3.24604,2.640717 4.86982,3.961253 2.04008,-0.683215 4.08053,-1.366131 6.12152,-2.049017 3.39011,-1.880442 6.78051,-3.760708 10.17146,-5.640905 2.72306,1.34958 5.4465,2.699174 8.17047,4.048952 -2.04091,-1.293972 -4.08129,-2.587837 -6.12121,-3.881595 -1.52667,-1.220595 -3.05287,-2.441084 -4.57853,-3.66145 -2.62521,-0.188573 -5.24986,-0.376994 -7.87404,-0.565261 -1.65128,-1.806552 -3.30203,-3.61292 -4.95231,-5.419212 -0.1149,-2.563052 -0.22749,-5.125889 -0.34084,-7.688681 -2.15213,-1.582898 -4.30364,-3.165629 -6.45485,-4.748268 -1.55569,-1.044583 -3.11092,-2.088892 -4.6657,-3.133169 -1.00124,-4.419573 -2.002,-8.838854 -3.00232,-13.258137 -4.3548,1.372863 -8.70908,2.745858 -13.06286,4.118951 z" /><path
       d="m 276.63093,49.190364 c -0.34007,0.611064 -0.60035,1.180576 -0.54794,1.280224 0.0421,0.07988 1.0557,0.894958 2.22252,1.807893 2.26138,1.736598 2.42597,1.904453 2.0023,1.872798 -0.16108,-0.01455 -0.0841,0.323837 0.18834,0.842245 0.31435,0.59789 1.0744,1.317656 2.52745,2.436245 1.16578,0.86252 2.02753,1.63051 1.94884,1.722758 -0.0582,0.08203 -1.12023,0.385419 -2.34323,0.67188 -12.05737,2.905179 -22.80161,7.969158 -33.21031,15.655111 -3.57202,2.641209 -8.71156,6.946222 -8.84282,7.42232 -0.0955,0.253524 7.24441,17.891162 8.10265,19.475112 0.0735,0.13948 0.33555,0.15425 0.59468,0.0184 0.39859,-0.20957 0.50031,-0.16115 0.6826,0.37882 0.12745,0.33993 0.61313,0.92418 1.09441,1.30714 1.4331,1.12904 1.92293,0.94781 6.55659,-2.48063 9.13935,-6.71325 13.42453,-9.449655 20.79874,-13.326854 6.03881,-3.175135 9.17404,-4.518241 12.92051,-5.521396 0.89124,-0.241117 1.82185,-0.551014 2.07154,-0.656484 0.36903,-0.169271 0.4198,-0.123162 0.41936,0.313574 -0.004,0.81596 -1.55123,5.420255 -3.1816,9.432005 l -1.5159,3.697182 0.77583,0.507891 c 0.41859,0.263636 0.96873,0.584567 1.21305,0.710481 0.49825,0.221744 0.44891,0.272832 2.12856,-1.806237 0.51079,-0.62508 0.80683,-0.933078 0.661,-0.678083 -0.52566,0.887299 -1.0374,2.9622 -0.89396,3.573699 0.0889,0.411077 0.34642,0.708262 0.74418,0.931583 1.04949,0.59298 1.83942,-0.178773 7.5445,-7.375711 5.41008,-6.838537 9.1056,-11.325575 12.8157,-15.591226 3.78878,-4.357977 4.1352,-5.150676 3.15016,-7.024147 -0.32483,-0.617651 -0.7503,-1.23364 -0.97477,-1.370038 -0.27597,-0.186045 -0.31878,-0.315795 -0.15166,-0.530487 0.37455,-0.400814 0.0222,-0.876661 -2.25866,-3.086301 -4.5622,-4.419168 -9.40506,-7.291566 -16.93376,-9.998354 -2.38445,-0.857817 -7.58236,-2.373345 -16.27318,-4.774378 l -3.42369,-0.94734 z"
       id="path2936-1-7"
       style="stroke-width:0.0225171"
       inkscape:transform-center-x="47.844654"
       inkscape:transform-center-y="-46.192486" /></g></svg>
