<?xml version="1.0" encoding="UTF-8" standalone="no"?>
<!-- Created with Inkscape (http://www.inkscape.org/) -->

<svg
   width="511.70099"
   height="678.52002"
   viewBox="0 0 511.70099 678.52002"
   version="1.1"
   id="svg5"
   xml:space="preserve"
   inkscape:version="1.2.1 (9c6d41e410, 2022-07-14)"
   sodipodi:docname="seaweed.svg"
   xmlns:inkscape="http://www.inkscape.org/namespaces/inkscape"
   xmlns:sodipodi="http://sodipodi.sourceforge.net/DTD/sodipodi-0.dtd"
   xmlns="http://www.w3.org/2000/svg"
   xmlns:svg="http://www.w3.org/2000/svg"><sodipodi:namedview
     id="namedview7"
     pagecolor="#ffffff"
     bordercolor="#000000"
     borderopacity="0.25"
     inkscape:showpageshadow="2"
     inkscape:pageopacity="0.0"
     inkscape:pagecheckerboard="0"
     inkscape:deskcolor="#d1d1d1"
     inkscape:document-units="mm"
     showgrid="false"
     inkscape:zoom="1.3505331"
     inkscape:cx="267.30185"
     inkscape:cy="408.72749"
     inkscape:window-width="1920"
     inkscape:window-height="1057"
     inkscape:window-x="-8"
     inkscape:window-y="-8"
     inkscape:window-maximized="1"
     inkscape:current-layer="layer1"
     showguides="false" /><defs
     id="defs2"><inkscape:path-effect
       effect="bspline"
       id="path-effect12652"
       is_visible="true"
       lpeversion="1"
       weight="33.333333"
       steps="2"
       helper_size="0"
       apply_no_weight="true"
       apply_with_weight="true"
       only_selected="false" /><inkscape:path-effect
       effect="bspline"
       id="path-effect12648"
       is_visible="true"
       lpeversion="1"
       weight="33.333333"
       steps="2"
       helper_size="0"
       apply_no_weight="true"
       apply_with_weight="true"
       only_selected="false" /><inkscape:path-effect
       effect="bspline"
       id="path-effect12644"
       is_visible="true"
       lpeversion="1"
       weight="33.333333"
       steps="2"
       helper_size="0"
       apply_no_weight="true"
       apply_with_weight="true"
       only_selected="false" /><inkscape:path-effect
       effect="bspline"
       id="path-effect12640"
       is_visible="true"
       lpeversion="1"
       weight="33.333333"
       steps="2"
       helper_size="0"
       apply_no_weight="true"
       apply_with_weight="true"
       only_selected="false" /><inkscape:path-effect
       effect="bspline"
       id="path-effect12636"
       is_visible="true"
       lpeversion="1"
       weight="33.333333"
       steps="2"
       helper_size="0"
       apply_no_weight="true"
       apply_with_weight="true"
       only_selected="false" /><inkscape:path-effect
       effect="bspline"
       id="path-effect12632"
       is_visible="true"
       lpeversion="1"
       weight="33.333333"
       steps="2"
       helper_size="0"
       apply_no_weight="true"
       apply_with_weight="true"
       only_selected="false" /><inkscape:path-effect
       effect="bspline"
       id="path-effect1838"
       is_visible="true"
       lpeversion="1"
       weight="33.333333"
       steps="2"
       helper_size="0"
       apply_no_weight="true"
       apply_with_weight="true"
       only_selected="false" /><inkscape:path-effect
       effect="bspline"
       id="path-effect1666"
       is_visible="true"
       lpeversion="1"
       weight="33.333333"
       steps="2"
       helper_size="0"
       apply_no_weight="true"
       apply_with_weight="true"
       only_selected="false" /></defs><g
     inkscape:label="Layer 1"
     inkscape:groupmode="layer"
     id="layer1"><path
       id="path12659"
       style="fill:#7fb300;fill-opacity:1;stroke-width:1.00508"
       d="m 153.56859,15.378635 c -0.37275,-0.04671 -0.72519,0.0065 -1.05989,0.155057 -4.68615,2.081019 -5.9268,22.580073 -10.42234,43.850034 -5.13763,24.308558 -14.52532,49.624114 -14.71873,80.184714 -0.19336,30.56063 8.80212,66.36084 4.79318,78.82652 -4.0092,12.46585 -21.02293,1.59252 -36.870605,-3.79787 C 79.442763,209.20643 64.761376,209.30459 48.762946,197.097 32.764521,184.88939 15.447949,160.38191 7.2132403,158.54464 c -8.2347147,-1.83768 -7.38762402,18.99251 -5.1404753,38.65647 2.2471531,19.66385 5.8955951,38.15694 16.304664,49.48712 10.409076,11.33 27.579501,15.5003 47.076836,20.13402 19.497351,4.63338 41.317675,9.72788 54.851365,23.9319 13.53372,14.20403 18.7841,37.5147 29.41394,55.7777 10.62984,18.26323 26.63683,31.48067 41.38677,52.25469 14.74987,20.77404 28.24168,49.09632 27.24695,60.80052 -0.99438,11.70413 -16.47196,6.79186 -35.54728,6.66143 -19.07558,-0.13017 -41.74782,4.52205 -65.74268,-1.25408 C 93.068046,459.2183 67.748492,443.00549 55.261652,416.84975 42.774817,390.6941 43.121222,354.60039 40.003142,346.84402 c -3.118087,-7.75635 -9.702703,12.82637 -12.730487,34.79778 -3.027754,21.97152 -2.496167,45.33113 -0.266915,61.12039 2.229225,15.78927 6.158256,24.00864 13.493985,35.60062 7.335722,11.59199 18.071007,26.55724 31.349228,33.07841 13.278228,6.52112 29.096017,4.60016 33.115807,14.03575 4.01979,9.43551 -3.75328,30.22496 -20.043817,44.85885 -16.290644,14.63403 -41.09602,23.10944 -49.532249,31.3277 -8.436232,8.21829 -0.507085,16.17922 9.117026,20.47354 9.624112,4.29437 20.944292,4.92268 33.716322,1.00884 12.772035,-3.91387 26.998518,-12.36971 36.919738,-20.72674 9.92068,-8.35707 15.53389,-16.61187 22.28517,-30.90368 6.75121,-14.29187 14.64166,-34.62506 22.54397,-47.47725 7.90232,-12.85225 15.81731,-18.22276 24.55431,-22.19685 8.73691,-3.97416 18.29238,-6.54894 27.05474,-4.78534 8.76219,1.7638 16.72891,7.86672 23.92423,18.04949 7.19503,10.18313 13.62169,24.44092 16.43204,46.0151 2.81046,21.57431 2.00687,50.45729 5.07376,74.32396 3.06694,23.86671 10.00187,42.72109 18.58362,40.82342 8.58142,-1.89765 18.80763,-24.54218 24.55403,-45.93446 5.74632,-21.39223 7.01011,-41.53239 11.20146,-59.92504 4.19136,-18.39285 11.30858,-35.03633 20.49712,-46.67459 9.18853,-11.63807 20.45177,-18.27153 33.93222,-25.91223 13.48052,-7.64089 29.17976,-16.28419 47.62443,-23.61997 18.44479,-7.33592 39.62964,-13.36668 57.08499,-21.8632 17.45538,-8.49656 31.17879,-19.46144 37.40243,-30.88205 6.22358,-11.42063 4.94886,-23.29505 -1.97259,-22.49139 -6.92141,0.80392 -19.49263,14.28839 -29.79277,19.47263 -10.30008,5.18427 -18.33327,2.0724 -27.00948,-0.45923 -8.67638,-2.53167 -17.99115,-4.48782 -29.42201,-2.96787 -11.43056,1.52022 -24.97624,6.51467 -40.14033,17.21758 -15.1642,10.70281 -31.94605,27.11541 -48.15246,47.58905 -16.20639,20.47353 -31.8321,45.00172 -39.42795,45.81465 -7.59581,0.81311 -7.15602,-22.08643 -4.70259,-43.21801 2.45291,-21.13151 6.91895,-40.48653 17.38005,-58.47844 10.46104,-17.99191 26.91068,-34.62192 49.91897,-52.87877 23.00827,-18.25704 52.5691,-38.14465 76.56343,-56.59424 23.99426,-18.44985 42.41754,-35.46251 48.93951,-57.17335 6.52196,-21.71077 1.14662,-48.11656 -4.28082,-54.56084 -5.42752,-6.44429 -10.90517,7.07714 -18.22023,23.24904 -7.3152,16.17162 -16.46926,34.99452 -31.67508,50.75487 -15.20575,15.76031 -36.4598,28.4575 -44.40556,28.87228 -7.94577,0.41479 -2.58321,-11.45124 4.24341,-24.85833 6.82682,-13.407 15.11866,-28.35418 27.35693,-44.91 12.23859,-16.55577 28.42159,-34.72447 40.42324,-51.49105 12.00154,-16.76675 19.81851,-32.12835 22.12221,-45.82272 2.3037,-13.69433 -0.90527,-25.71988 -5.40144,-25.41578 -4.49623,0.30381 -10.2775,12.93726 -22.13605,27.43337 -11.85874,14.49656 -29.7969,30.85537 -48.61974,50.14873 -18.82269,19.29337 -38.52485,41.52149 -54.49398,67.87036 -15.96916,26.34878 -28.20039,56.81106 -41.90707,83.9218 -13.70673,27.11085 -28.88801,50.86332 -38.9155,54.30965 -10.02746,3.44621 -14.89955,-13.41013 -17.50002,-31.92047 -2.60051,-18.51039 -2.93357,-38.67285 -1.46996,-54.98479 1.4633,-16.31176 4.72556,-28.76937 10.06686,-44.04254 5.34117,-15.27294 12.76448,-33.35483 15.39396,-55.18489 2.62939,-21.83027 0.46479,-47.40913 -13.86496,-69.01255 -14.32963,-21.60386 -40.82784,-39.23501 -47.80297,-35.85983 -6.97556,3.37554 5.56941,27.75544 11.56447,53.01809 5.99505,25.26284 5.44147,51.41114 -0.34154,75.17011 -5.78275,23.75897 -16.7941,45.13075 -27.6101,43.48682 -10.81623,-1.64395 -21.43794,-26.30563 -26.21076,-49.91896 -4.77294,-23.6134 -3.69511,-46.18184 0.57115,-70.15514 4.26626,-23.97311 11.71881,-49.34775 9.25849,-77.73506 -2.46061,-28.387101 -14.83342,-59.780182 -21.46901,-63.827071 -0.41456,-0.252892 -0.80667,-0.399332 -1.17939,-0.445492 z" /><path
       style="fill:#4d7600;fill-opacity:1;stroke-width:1.00508"
       d="m 151.09092,12.858667 c -3.50196,2.611986 1.06041,23.942738 2.09605,47.959473 1.03564,24.016734 -1.455,50.71865 -2.94993,77.12831 -1.49493,26.40965 -1.99415,52.52541 0.34345,73.99169 2.33761,21.46628 7.51135,38.28118 12.95153,50.43027 5.44017,12.14909 11.14568,19.63096 18.51047,27.40733 7.36478,7.77637 16.38789,15.84663 28.06356,27.93549 11.67567,12.08886 26.00297,28.19513 33.1405,20.25352 7.13754,-7.94162 7.08553,-39.9304 11.06205,-63.92282 3.97653,-23.99243 11.98135,-39.98526 14.93483,-58.6023 2.95348,-18.61703 0.85502,-39.8568 -3.4707,-55.67121 -4.32572,-15.81442 -10.87882,-26.20178 -24.08401,-37.06013 -13.2052,-10.85836 -33.06148,-22.186 -36.89797,-16.97034 -3.83649,5.21567 8.34778,26.97364 14.46651,44.2728 6.11873,17.29917 6.17197,30.1378 4.75856,46.68879 -1.4134,16.55099 -4.29321,36.81291 -9.6631,51.14167 -5.36988,14.32876 -13.22907,22.72351 -20.53608,23.82291 -7.307,1.09939 -14.0617,-5.09788 -19.12065,-19.03793 -5.05896,-13.94006 -8.42062,-35.62111 -9.02759,-56.4914 -0.60698,-20.87029 1.54113,-40.92724 4.96844,-59.28118 3.42731,-18.35395 8.13339,-35.00225 9.52788,-50.450688 1.3945,-15.448435 -0.52323,-29.695115 -7.2648,-44.872455 -6.74157,-15.17734 -18.30705,-31.283786 -21.809,-28.6718 z"
       id="path12630"
       inkscape:path-effect="#path-effect12632"
       inkscape:original-d="m 143.02636,-5.8612137 c 4.56316,21.3317477 9.12563,42.6624767 13.68708,63.9922057 -2.48967,26.70399 -4.98032,53.405908 -7.47207,80.107288 -0.49811,26.11784 -0.99741,52.2336 -1.4977,78.34898 5.17512,16.81695 10.34874,33.63189 15.52189,50.4469 5.70672,7.48327 11.41212,14.96522 17.11706,22.44631 9.02461,8.07169 18.04777,16.14189 27.07015,24.21151 14.32904,16.10803 28.65625,32.21438 42.98333,48.3204 -0.0526,-31.98925 -0.1035,-63.97803 -0.15604,-95.96955 8.00622,-15.99275 16.01092,-31.98565 24.01533,-47.98022 -2.09751,-21.24011 -4.19603,-42.47987 -6.29562,-63.72179 -6.55253,-10.38696 -13.10556,-20.77437 -19.66009,-31.16332 -19.85632,-11.32728 -39.7126,-22.65494 -59.57095,-33.98412 12.18585,21.76006 24.37029,43.51793 36.55401,65.27608 0.0565,12.84045 0.10877,25.67908 0.15973,38.51746 -2.87888,20.26378 -5.75866,40.5257 -8.63967,60.78746 -7.85883,8.39665 -15.71812,16.79131 -23.57905,25.18586 -6.75419,-6.19665 -13.50888,-12.39392 -20.26499,-18.59263 -3.36082,-21.68162 -6.72273,-43.36263 -10.08545,-65.04611 2.1492,-20.05688 4.29713,-40.11385 6.44452,-60.17266 4.70759,-16.64882 9.41365,-33.29713 14.11908,-49.947909 C 181.56021,70.954353 179.64227,56.707702 177.7235,42.459127 166.15852,26.353002 154.59304,10.246561 143.02636,-5.8612137 Z"
       sodipodi:nodetypes="ccccccccccccccccccccccc" /><path
       style="fill:#4d7600;fill-opacity:1;stroke-width:1.00508"
       d="m 7.678256,187.04541 c -7.11884292,-4.79847 -7.67756472152,5.93066 -5.5702855,18.01057 2.1072792,12.07991 6.8798301,25.5098 13.2393275,35.42589 6.359498,9.91608 14.304563,16.3176 27.824605,21.10179 13.520042,4.78419 32.613481,7.95126 46.926522,11.81888 14.313045,3.86762 23.843345,8.43469 32.611535,19.82125 8.76819,11.38656 16.77345,29.59045 22.07137,42.65461 5.29792,13.06416 7.88809,20.98734 13.6589,27.45758 5.77081,6.47023 14.72105,11.48765 26.81084,30.34632 12.08979,18.85867 27.31832,51.55586 31.86387,50.78128 4.54556,-0.77457 -1.59205,-35.02067 -13.06486,-62.86316 -11.4728,-27.84249 -28.27979,-49.27739 -44.64264,-68.77301 C 143.04458,293.33179 127.12838,275.77864 107.65999,262.71287 88.191603,249.6471 65.173396,241.07126 46.824158,226.62026 28.474919,212.16927 14.797099,191.84388 7.678256,187.04541 Z"
       id="path12634"
       inkscape:path-effect="#path-effect12636"
       inkscape:original-d="m 1.1181836,171.51686 c -0.55771927,10.73013 -1.1164347,21.45927 -1.6761566,32.18725 4.7738144,13.43157 9.5463364,26.86147 14.318154,40.29108 7.946474,6.40294 15.891511,12.80449 23.836006,19.2052 19.095639,3.16817 38.189069,6.3353 57.282714,9.50161 9.532319,4.56867 19.062599,9.13579 28.592999,13.70222 8.00663,18.20596 16.01204,36.40979 24.01675,54.61385 2.59104,7.92435 5.18124,15.84752 7.77062,23.76986 8.95162,5.01855 17.90182,10.03603 26.85164,15.05278 15.2303,32.7001 30.45901,65.3972 45.68739,98.09548 -6.13692,-34.24734 -12.27464,-68.49342 -18.41364,-102.74284 -16.80735,-21.43544 -33.61422,-42.87044 -50.4236,-64.3081 -15.9165,-17.55344 -31.83251,-35.10676 -47.75114,-52.66226 C 88.191415,249.64761 65.173184,241.07183 42.152599,232.49445 28.475213,212.16907 14.797378,191.84369 1.1181836,171.51686 Z"
       sodipodi:nodetypes="ccccccccccccccc" /><path
       style="fill:#4d7600;fill-opacity:1;stroke-width:1.00508"
       d="M 88.234,514.27638 C 89.987164,508.29355 73.592238,485.01205 64.582681,466.19075 55.573124,447.36945 53.949608,433.009 51.902073,422.43759 49.854538,411.86617 47.382809,405.08476 45.478687,388.1003 c -1.904122,-16.98447 -3.240115,-44.16994 -7.239211,-43.88972 -3.999096,0.28021 -10.660714,28.02736 -13.551444,50.63481 -2.89073,22.60745 -2.010721,40.07322 2.282876,56.34748 4.293598,16.27427 11.999747,31.35498 25.804285,44.55319 13.804538,13.19821 33.705644,24.51316 35.458807,18.53032 z"
       id="path12638"
       inkscape:path-effect="#path-effect12640"
       inkscape:original-d="M 106.38115,531.57371 C 89.987358,508.29341 73.592449,485.0119 57.1966,461.72954 55.573981,447.36935 53.95049,433.0089 52.325854,418.64645 c -2.470786,-6.78047 -4.942483,-13.56189 -7.415261,-20.34443 -1.335091,-27.18624 -2.671069,-54.37171 -4.008163,-81.56017 -6.66086,27.74923 -13.322497,55.49637 -19.985246,83.24307 0.881079,17.46787 1.761056,34.93364 2.640138,52.39949 7.707599,15.08252 15.413704,30.16325 23.11929,45.24377 19.902937,11.31641 39.804069,22.63131 59.704538,33.94553 z"
       sodipodi:nodetypes="ccccccccc" /><path
       style="fill:#4d7600;fill-opacity:1;stroke-width:1.00508"
       d="m 53.694785,593.86196 c -7.39194,3.58806 -22.175838,10.76418 -21.27012,17.6981 0.905718,6.93391 17.500024,13.62421 35.741331,12.62921 18.241308,-0.995 38.128214,-9.67449 52.688244,-26.4782 14.56002,-16.80371 23.79215,-41.73062 34.26819,-59.97465 10.47604,-18.24403 22.19482,-29.8028 32.99853,-35.02027 10.80371,-5.21746 20.69063,-4.09325 31.26575,2.35523 10.57513,6.44847 21.83816,18.21989 27.28447,33.11915 5.44632,14.89926 5.07638,32.92458 5.88749,53.96772 0.81111,21.04314 2.80311,45.10197 6.75915,61.4867 3.95605,16.38473 9.87511,25.09436 17.60607,21.60682 7.73095,-3.48754 17.274,-19.17076 24.06827,-38.93296 6.79427,-19.7622 10.83904,-43.60176 6.78677,-48.23718 -4.05228,-4.63541 -16.20128,9.9348 -25.06696,7.79642 -8.86569,-2.13839 -14.44793,-20.98644 -18.23375,-38.29918 -3.78582,-17.31275 -5.77487,-33.08915 -15.72932,-46.05289 -9.95445,-12.96375 -27.87399,-23.11283 -45.91342,-25.78599 -18.03943,-2.67316 -36.19603,2.13086 -48.43422,10.30987 -12.23819,8.17901 -18.55578,19.73142 -22.58497,34.19548 -4.02919,14.46406 -5.7695,31.83751 -17.17598,42.32715 -11.40648,10.48964 -32.479525,14.09543 -43.016585,15.89842 -10.537059,1.80299 -10.536999,1.80299 -17.92894,5.39105 z"
       id="path12642"
       inkscape:path-effect="#path-effect12644"
       inkscape:original-d="m 61.086726,590.2739 c -14.783292,7.17733 -29.567225,14.35338 -44.352803,21.52891 16.596264,6.69165 33.190572,13.38194 49.784837,20.07166 19.889072,-8.67899 39.77599,-17.35845 59.66311,-26.0395 9.23345,-24.92722 18.4656,-49.85412 27.69737,-74.78338 11.72008,-11.55834 23.43888,-23.11709 35.15732,-34.67725 9.88802,1.12517 19.77493,2.24941 29.66087,3.37265 11.26439,11.77288 22.52751,23.54421 33.79005,35.31527 -0.36863,18.02756 -0.73881,36.05287 -1.10986,54.07826 1.99302,24.0608 3.98507,48.11962 5.9761,72.17793 5.92036,8.71109 11.83963,17.42057 17.75769,26.12963 9.54472,-15.68307 19.08772,-31.36632 28.63013,-47.05127 4.04609,-23.84 8.09075,-47.67958 12.13484,-71.52168 -12.14867,14.57197 -24.29765,29.1422 -36.44806,43.71192 -5.58127,-18.84762 -11.1637,-37.69561 -16.74689,-56.54475 -1.98815,-15.77629 -3.97718,-31.55269 -5.96738,-47.33095 -17.91981,-10.14875 -35.83935,-20.29784 -53.76105,-30.44863 -18.15664,4.8053 -36.31324,9.6093 -54.47169,14.41255 -6.31716,11.55419 -12.63473,23.10661 -18.95373,34.65899 -1.73916,17.37527 -3.4793,34.74874 -5.22111,52.12215 -21.07245,3.60681 -42.145477,7.21273 -63.219804,10.81749 z"
       sodipodi:nodetypes="ccccccccccccccccccccc" /><path
       style="fill:#4d7600;fill-opacity:1;stroke-width:1.00508"
       d="m 339.42079,512.71709 c 4.60931,-7.54169 13.82807,-22.62531 23.34756,-33.84484 9.5195,-11.21952 19.33898,-18.5742 29.43708,-24.29557 10.09809,-5.72137 20.4739,-9.80907 29.30831,-16.71726 8.83441,-6.90818 16.12743,-16.63657 25.52324,-19.20507 9.39582,-2.56849 20.89194,2.0229 29.88652,0.32313 8.99459,-1.69976 15.48804,-9.69038 20.8607,-15.14599 5.37266,-5.45562 9.62392,-8.37572 11.56336,-2.6402 1.93945,5.73552 1.56701,20.12463 -4.51392,30.7464 -6.08092,10.62177 -17.87005,17.47576 -35.8253,24.45698 -17.95525,6.98122 -42.0755,14.08909 -65.46966,24.75442 -23.39415,10.66533 -46.06024,24.88726 -57.3937,31.99847 -11.33345,7.11122 -11.33349,7.11122 -6.72419,-0.43047 z"
       id="path12646"
       inkscape:path-effect="#path-effect12648"
       inkscape:original-d="m 334.81149,520.25878 c 9.21975,-15.08268 18.43851,-30.1663 27.65633,-45.25096 9.82087,-7.35397 19.64035,-14.70865 29.459,-22.06446 10.37719,-4.08681 20.75301,-8.17449 31.12798,-12.26331 7.2945,-9.72795 14.58748,-19.45637 21.87997,-29.18635 11.49778,4.59277 22.99393,9.1841 34.48978,13.77475 6.49459,-7.98988 12.98807,-15.98047 19.48058,-23.97215 4.25253,-2.91926 8.50369,-5.83951 12.75437,-8.76072 -0.37153,14.39125 -0.74389,28.78037 -1.11738,43.16974 -11.78873,6.85529 -23.57794,13.70915 -35.36854,20.56263 -24.12017,7.10901 -48.24041,14.21693 -72.36206,21.32399 -22.66629,14.2236 -45.33243,28.44545 -67.99999,42.66684 z"
       sodipodi:nodetypes="cccccccccccc" /><path
       style="fill:#4d7600;fill-opacity:1;stroke-width:1.00508"
       d="m 312.59135,409.99838 c 5.83754,-1.60407 30.73355,-28.77352 59.61811,-51.69359 28.88457,-22.92008 61.75522,-41.58941 82.30391,-59.75943 20.5487,-18.17001 28.77323,-35.83896 29.95471,-55.66593 1.18148,-19.82698 -4.68074,-41.81023 -10.87998,-42.32088 -6.19925,-0.51065 -12.7343,20.45225 -24.73377,40.7495 -11.99947,20.29725 -29.46225,39.92734 -43.27969,50.98465 -13.81743,11.05731 -23.9888,13.5407 -25.99274,8.82267 -2.00395,-4.71803 4.16042,-16.63742 12.00495,-29.74045 7.84453,-13.10302 17.36818,-27.38783 30.34032,-44.13533 12.97215,-16.74749 29.39106,-35.9554 39.90492,-54.63868 10.51386,-18.68328 15.12152,-36.84023 14.37758,-49.72973 -0.74394,-12.8895 -6.84053,-20.51036 -10.4178,-15.93499 -3.57728,4.57538 -4.63418,21.34621 -13.97176,41.69656 -9.33759,20.35035 -26.95468,44.27874 -42.09656,64.06772 -15.14187,19.78898 -27.80688,35.43641 -35.81178,54.28077 -8.0049,18.84435 -11.349,40.88343 -12.51241,53.38309 -1.16341,12.49967 -0.14671,15.45874 -4.484,21.08732 -4.3373,5.62859 -14.02803,13.92774 -25.48436,30.05871 -11.45633,16.13096 -24.67718,40.0921 -18.83965,38.48802 z"
       id="path12650"
       inkscape:path-effect="#path-effect12652"
       inkscape:original-d="m 293.53288,435.56375 c 24.89708,-27.16846 49.79298,-54.33801 74.68798,-81.50828 32.87379,-18.66966 65.74448,-37.33892 98.61635,-56.01049 8.22609,-17.66906 16.45064,-35.338 24.67463,-53.00903 -5.86153,-21.9837 -11.72375,-43.96695 -17.58742,-65.95265 -6.53437,20.96497 -13.06936,41.92789 -19.60578,62.89079 -17.46272,19.63216 -34.92551,39.26224 -52.39045,58.89263 -10.1707,2.48442 -20.34207,4.96783 -30.51476,7.45032 6.1657,-11.91909 12.32999,-23.83852 18.49387,-35.75968 9.52527,-14.28467 19.04889,-28.5695 28.57214,-42.85623 16.42089,-19.20817 32.8399,-38.41599 49.25873,-57.62604 4.60903,-18.15714 9.21662,-36.31411 13.82358,-54.47328 -6.09588,-7.62024 -12.19239,-15.24116 -18.29014,-22.863013 -1.05599,16.772833 -2.11289,33.543663 -3.17081,50.314303 -17.61717,23.93082 -35.23425,47.85922 -52.85343,71.78809 -12.66464,15.64911 -25.32962,31.29657 -37.99613,46.94363 -3.34326,22.04094 -6.68721,44.08004 -10.03253,66.11857 1.01791,2.96038 2.0346,5.91945 3.05024,8.87757 -9.6898,8.30055 -19.38065,16.59957 -29.07268,24.89786 -13.2204,23.96316 -26.44127,47.92429 -39.66339,71.88493 z"
       sodipodi:nodetypes="cccccccccccccccccccc" /></g></svg>
