<?xml version="1.0" encoding="UTF-8" standalone="no"?>
<!-- Created with Inkscape (http://www.inkscape.org/) -->

<svg
        width="511.70099"
        height="678.52002"
        viewBox="0 0 135.38841 179.52622"
        version="1.1"
        id="svg5"
        xml:space="preserve"
        inkscape:version="1.2 (56b05e47e7, 2022-06-09, custom)"
        sodipodi:docname="seaweed.svg"
        xmlns:inkscape="http://www.inkscape.org/namespaces/inkscape"
        xmlns:sodipodi="http://sodipodi.sourceforge.net/DTD/sodipodi-0.dtd"
        xmlns="http://www.w3.org/2000/svg"
><sodipodi:namedview
     id="namedview7"
     pagecolor="#ffffff"
     bordercolor="#000000"
     borderopacity="0.25"
     inkscape:showpageshadow="2"
     inkscape:pageopacity="0.0"
     inkscape:pagecheckerboard="0"
     inkscape:deskcolor="#d1d1d1"
     inkscape:document-units="mm"
     showgrid="false"
     inkscape:zoom="1.3505331"
     inkscape:cx="266.93163"
     inkscape:cy="279.14902"
     inkscape:window-width="1920"
     inkscape:window-height="1013"
     inkscape:window-x="0"
     inkscape:window-y="30"
     inkscape:window-maximized="1"
     inkscape:current-layer="layer1"
     showguides="false" /><defs
     id="defs2"><inkscape:path-effect
       effect="bspline"
       id="path-effect12652"
       is_visible="true"
       lpeversion="1"
       weight="33.333333"
       steps="2"
       helper_size="0"
       apply_no_weight="true"
       apply_with_weight="true"
       only_selected="false" /><inkscape:path-effect
       effect="bspline"
       id="path-effect12648"
       is_visible="true"
       lpeversion="1"
       weight="33.333333"
       steps="2"
       helper_size="0"
       apply_no_weight="true"
       apply_with_weight="true"
       only_selected="false" /><inkscape:path-effect
       effect="bspline"
       id="path-effect12644"
       is_visible="true"
       lpeversion="1"
       weight="33.333333"
       steps="2"
       helper_size="0"
       apply_no_weight="true"
       apply_with_weight="true"
       only_selected="false" /><inkscape:path-effect
       effect="bspline"
       id="path-effect12640"
       is_visible="true"
       lpeversion="1"
       weight="33.333333"
       steps="2"
       helper_size="0"
       apply_no_weight="true"
       apply_with_weight="true"
       only_selected="false" /><inkscape:path-effect
       effect="bspline"
       id="path-effect12636"
       is_visible="true"
       lpeversion="1"
       weight="33.333333"
       steps="2"
       helper_size="0"
       apply_no_weight="true"
       apply_with_weight="true"
       only_selected="false" /><inkscape:path-effect
       effect="bspline"
       id="path-effect12632"
       is_visible="true"
       lpeversion="1"
       weight="33.333333"
       steps="2"
       helper_size="0"
       apply_no_weight="true"
       apply_with_weight="true"
       only_selected="false" /><inkscape:path-effect
       effect="bspline"
       id="path-effect1838"
       is_visible="true"
       lpeversion="1"
       weight="33.333333"
       steps="2"
       helper_size="0"
       apply_no_weight="true"
       apply_with_weight="true"
       only_selected="false" /><inkscape:path-effect
       effect="bspline"
       id="path-effect1666"
       is_visible="true"
       lpeversion="1"
       weight="33.333333"
       steps="2"
       helper_size="0"
       apply_no_weight="true"
       apply_with_weight="true"
       only_selected="false" /></defs><g
     inkscape:label="Layer 1"
     inkscape:groupmode="layer"
     id="layer1"><path
       id="path12659"
       style="fill:#7fb300;fill-opacity:1;stroke-width:0.264583"
       d="m 40.8286,5.2592242 c -0.09813,-0.01218 -0.190926,0.0017 -0.279052,0.04082 -1.23377,0.5479 -1.56043,5.9449798 -2.744019,11.5450298 -1.352673,6.40006 -3.824336,13.06523 -3.875216,21.11138 -0.05088,8.046154 2.317457,17.471764 1.261939,20.753774 -1.055517,3.28204 -5.535033,0.41932 -9.707418,-0.99994 -4.172385,-1.41925 -8.037764,-1.39342 -12.249898,-4.60747 C 9.0228024,49.888758 4.4636224,43.436294 2.2955524,42.952534 0.12748138,42.468754 0.35050738,47.952998 0.94214638,53.130208 c 0.59164002,5.1772 1.55221702,10.04617 4.29276102,13.02918 2.740543,2.98301 7.2612486,4.08103 12.3945926,5.30097 5.133343,1.21993 10.878328,2.5612 14.441495,6.3009 3.563169,3.73971 4.94552,9.87707 7.74423,14.68541 2.798711,4.80836 7.013096,8.288332 10.896493,13.757822 3.883398,5.46947 7.435569,12.92627 7.173722,16.00781 -0.261846,3.08152 -4.336862,1.78819 -9.359118,1.75389 -5.022256,-0.0343 -10.991491,1.19055 -17.309021,-0.33021 -6.317529,-1.52077 -12.983771,-5.78933 -16.271359,-12.67571 -3.287587,-6.88637 -3.196384,-16.389292 -4.017325,-18.431432 -0.820943,-2.04214 -2.5545726,3.37698 -3.3517336,9.161712 -0.797159,5.78475 -0.657203,11.93497 -0.07028,16.09204 0.586922,4.15707 1.621374,6.32108 3.5527546,9.37307 1.931381,3.052 4.757813,6.99211 8.25376,8.70903 3.495946,1.71691 7.660514,1.21115 8.718847,3.69538 1.058333,2.48424 -0.988125,7.95775 -5.277197,11.81065 -4.289072,3.8529 -10.819939,6.08435 -13.0410636,8.24808 -2.221126,2.16374 -0.133508,4.25973 2.4003696,5.39037 2.533877,1.13064 5.514302,1.29607 8.876977,0.26561 3.362676,-1.03045 7.108276,-3.25673 9.720337,-5.45703 2.612063,-2.20028 4.08986,-4.37364 5.867342,-8.13645 1.777484,-3.76281 3.855001,-9.11622 5.935555,-12.50001 2.080554,-3.3838 4.164444,-4.79777 6.464722,-5.84409 2.300277,-1.04632 4.816084,-1.72423 7.12308,-1.25987 2.306995,0.46435 4.40447,2.07115 6.29884,4.75216 1.894371,2.68101 3.586411,6.43486 4.326351,12.11503 0.73994,5.68017 0.52836,13.28459 1.33584,19.56831 0.80749,6.28373 2.63332,11.24782 4.89272,10.74818 2.2594,-0.49964 4.95179,-6.46159 6.46473,-12.09383 1.51293,-5.63225 1.84564,-10.93483 2.94917,-15.77734 1.10353,-4.8425 2.97738,-9.2245 5.39657,-12.28865 2.41919,-3.06415 5.38463,-4.81063 8.93382,-6.82232 3.549192,-2.01171 7.682572,-4.28732 12.538772,-6.21875 4.85621,-1.93143 10.43386,-3.51924 15.02957,-5.75623 4.59572,-2.237 8.20888,-5.12391 9.84747,-8.13077 1.63857,-3.00687 1.30295,-6.13322 -0.51935,-5.92161 -1.8223,0.21162 -5.1321,3.7619 -7.84397,5.12682 -2.71187,1.36493 -4.82686,0.54562 -7.11119,-0.12092 -2.28434,-0.66654 -4.73677,-1.18157 -7.7463,-0.78135 -3.00952,0.40021 -6.57585,1.71516 -10.56835,4.53306 -3.992502,2.81789 -8.410882,7.13908 -12.677782,12.52947 -4.2669,5.39037 -8.38093,11.84825 -10.38076,12.06231 -1.99983,0.21406 -1.88407,-5.81504 -1.23816,-11.37863 0.64589,-5.5636 1.82173,-10.6595 4.57594,-15.39648 2.75422,-4.73699 7.08516,-9.11539 13.14287,-13.922152 6.05772,-4.80675 13.840632,-10.04287 20.157942,-14.90038 6.31732,-4.85752 11.16787,-9.33672 12.885,-15.05283 1.71714,-5.7161 0.30188,-12.66835 -1.12706,-14.36501 -1.42895,-1.69664 -2.87116,1.8633 -4.79712,6.12107 -1.92596,4.25777 -4.33608,9.21358 -8.33954,13.36301 -4.00346,4.14942 -9.59929,7.4924 -11.69128,7.6016 -2.091992,0.1092 -0.68013,-3.01494 1.11724,-6.54482 1.79737,-3.52988 3.98048,-7.46516 7.20267,-11.82408 3.22217,-4.35892 7.48292,-9.14239 10.64276,-13.5568 3.15983,-4.41441 5.2179,-8.458834 5.82445,-12.064384 0.60655,-3.60555 -0.23836,-6.77158 -1.42214,-6.69158 -1.18377,0.08 -2.70589,3.40615 -5.82807,7.22282 -3.12218,3.81667 -7.84504,8.123684 -12.80077,13.203324 -4.95572,5.07964 -10.143062,10.93196 -14.347442,17.8692 -4.20439,6.93723 -7.42468,14.95742 -11.03343,22.09529 -3.60877,7.13787 -7.60579,13.391512 -10.24589,14.298872 -2.6401,0.90735 -3.92282,-3.53067 -4.60747,-8.404142 -0.68466,-4.87347 -0.77237,-10.18196 -0.38706,-14.47664 0.38531,-4.29467 1.24425,-7.57451 2.65049,-11.59567 1.40624,-4.02116 3.3607,-8.78181 4.05298,-14.52935 0.69229,-5.74754 0.12237,-12.48208 -3.65042,-18.169954 -3.7728,-5.68786 -10.74932,-10.32994 -12.585804,-9.44128 -1.836483,0.88866 1.466375,7.30752 3.044776,13.95884 1.578401,6.651324 1.432643,13.535684 -0.08992,19.791044 -1.522563,6.25536 -4.421628,11.88226 -7.269324,11.44943 -2.847697,-0.43282 -5.644223,-6.92586 -6.900871,-13.14287 -1.256648,-6.217 -0.972855,-12.15891 0.150378,-18.470714 1.123234,-6.31177 3.085366,-12.99258 2.437578,-20.46645 -0.647789,-7.47387 -3.905364,-15.7391798 -5.652368,-16.8046598 -0.109188,-0.06659 -0.212443,-0.10512 -0.310576,-0.1173 z" /><path
       style="fill:#4d7600;fill-opacity:1;stroke-width:0.264583"
       d="m 38.653612,2.4752824 c 0.600639,2.8081792 1.801847,8.4242196 2.074528,14.7474466 0.272682,6.323228 -0.383052,13.353418 -0.776645,20.306666 -0.393592,6.953248 -0.525043,13.829108 0.0904,19.480836 0.615448,5.651728 1.977611,10.078847 3.409917,13.277518 1.432306,3.19867 2.934484,5.168552 4.873503,7.215922 1.939019,2.04737 4.314695,4.172145 7.38872,7.354955 3.074024,3.182811 6.846154,7.423331 8.725361,5.332412 1.879207,-2.09092 1.865508,-10.51302 2.912457,-16.82985 1.04695,-6.31683 3.15448,-10.52749 3.932092,-15.429058 0.777612,-4.901569 0.225131,-10.493629 -0.913759,-14.657328 -1.138889,-4.1637 -2.864219,-6.89856 -6.340943,-9.757403 -3.476724,-2.858843 -8.704545,-5.8412 -9.714633,-4.467988 -1.010088,1.373212 2.197824,7.101706 3.808799,11.656307 1.610975,4.554601 1.624998,7.934821 1.252863,12.292459 -0.372134,4.357639 -1.130348,9.692229 -2.544159,13.464761 -1.41381,3.772532 -3.483062,5.982771 -5.406868,6.272214 -1.923806,0.289444 -3.702196,-1.342196 -5.034133,-5.012373 -1.331936,-3.670177 -2.217021,-9.378487 -2.37683,-14.87331 -0.159809,-5.494823 0.40575,-10.775466 1.308102,-15.607759 0.902352,-4.832294 2.141413,-9.215604 2.508563,-13.282925 C 48.198101,19.891464 47.693203,16.140545 45.918249,12.14459 44.143295,8.1486347 41.098275,3.9080649 39.575624,1.787584 38.052973,-0.33289682 38.052974,-0.33289682 38.653612,2.4752824 Z"
       id="path12630"
       inkscape:path-effect="#path-effect12632"
       inkscape:original-d="m 38.052974,-0.33289682 c 1.20147,5.61631702 2.40268,11.23235682 3.60363,16.84814082 -0.65549,7.03074 -1.31123,14.06093 -1.96724,21.09099 -0.13119,6.876414 -0.26264,13.752274 -0.39436,20.628014 1.36251,4.42766 2.72467,8.85478 4.08666,13.28192 1.5025,1.97022 3.00468,3.9401 4.50662,5.90976 2.37604,2.12513 4.75172,4.2499 7.12718,6.37446 3.77261,4.24104 7.54474,8.48156 11.316844,12.72207 -0.0134,-8.42234 -0.0271,-16.84444 -0.0411,-25.2673 2.10792,-4.21064 4.21545,-8.4213 6.32284,-12.63248 -0.55225,-5.59214 -1.10473,-11.1842 -1.65751,-16.776864 -1.72516,-2.73476 -3.45049,-5.46962 -5.17619,-8.2049 -5.227874,-2.98227 -10.455694,-5.96463 -15.684094,-8.94743 3.20836,5.72909 6.41628,11.45758 9.62411,17.18615 0.01429,3.380684 0.02831,6.760904 0.04207,10.141054 -0.757994,5.33517 -1.516208,10.66976 -2.274731,16.00439 -2.06912,2.21065 -4.13837,4.42089 -6.20803,6.63101 -1.77824,-1.63148 -3.55663,-3.26312 -5.3354,-4.89513 -0.88487,-5.70839 -1.76996,-11.4167 -2.65536,-17.12561 0.56586,-5.28067 1.13141,-10.561314 1.69674,-15.842524 1.2394,-4.38332 2.47846,-8.76663 3.71734,-13.15049 -0.50467,-3.7509 -1.00956,-7.50182 -1.51476,-11.253244 -3.04489,-4.2404898 -6.08991,-8.4810598 -9.13526,-12.72198682 z"
       sodipodi:nodetypes="ccccccccccccccccccccccc" /><path
       style="fill:#4d7600;fill-opacity:1;stroke-width:0.264583"
       d="m 2.4179908,50.456381 c -1.8742864,-1.263377 -2.02138858,1.561433 -1.46657312,4.741897 0.55481542,3.180464 1.81134462,6.716324 3.48569942,9.327075 1.6743547,2.610751 3.76615,4.296157 7.3257769,5.555773 3.559626,1.259615 8.586626,2.093467 12.355,3.111738 3.768374,1.018272 6.277636,2.220738 8.586144,5.218629 2.308508,2.997891 4.416172,7.7907 5.811026,11.230304 1.394855,3.439603 2.076775,5.525603 3.596159,7.229123 1.519384,1.703521 3.875846,3.024509 7.058899,7.9897 3.183054,4.96519 7.192483,13.57384 8.389254,13.36991 1.196772,-0.20394 -0.419165,-9.2204 -3.43977,-16.55087 C 51.099002,94.349183 46.673932,88.705643 42.365883,83.57279 38.057833,78.439938 33.867308,73.818413 28.741598,70.378418 23.615888,66.938424 17.55555,64.680537 12.724491,60.875827 7.8934324,57.071118 4.2922773,51.719758 2.4179908,50.456381 Z"
       id="path12634"
       inkscape:path-effect="#path-effect12636"
       inkscape:original-d="m 0.69081938,46.367948 c -0.146838,2.82507 -0.293939,5.64988 -0.441305,8.4744 1.25687002,3.53634 2.51340002,7.0722 3.76974002,10.60801 2.09219,1.68578 4.18399,3.37118 6.2756496,5.05643 5.02758,0.83417 10.05458,1.66802 15.08164,2.50166 2.50967,1.2028 5.01893,2.40527 7.52808,3.60754 2.10805,4.79334 4.21571,9.58615 6.32323,14.37897 0.682225,2.08639 1.364143,4.17239 2.045839,6.25824 2.356865,1.32133 4.713326,2.64232 7.069662,3.963122 4.009936,8.60944 8.019366,17.21809 12.028783,25.82702 -1.615778,-9.01679 -3.231718,-18.03325 -4.848024,-27.050562 -4.42508,-5.64362 -8.85015,-11.28716 -13.27575,-16.93131 -4.19052,-4.62154 -8.38104,-9.24307 -12.57209,-13.86514 -6.06044,-2.25776 -12.12078,-4.51564 -18.18174,-6.77393 C 7.8934914,57.071078 4.2923364,51.719718 0.69081938,46.367948 Z"
       sodipodi:nodetypes="ccccccccccccccc" /><path
       style="fill:#4d7600;fill-opacity:1;stroke-width:0.264583"
       d="m 23.627046,136.61114 c 0.461576,-1.57519 -3.854943,-7.70481 -6.227022,-12.66018 -2.372079,-4.95536 -2.799524,-8.73624 -3.338612,-11.51954 -0.539089,-2.7833 -1.189849,-4.56872 -1.691172,-9.04045 -0.501323,-4.47173 -0.853072,-11.629269 -1.905971,-11.555469 -1.0528999,0.0738 -2.8067941,7.379153 -3.5678784,13.331329 -0.7610844,5.95218 -0.5293905,10.55065 0.6010482,14.83542 1.1304388,4.28476 3.1593392,8.25526 6.7938582,11.73014 3.634518,3.47489 8.874173,6.45394 9.335749,4.87875 z"
       id="path12638"
       inkscape:path-effect="#path-effect12640"
       inkscape:original-d="m 28.404924,141.16526 c -4.31625,-6.12935 -8.63277,-12.25897 -12.94954,-18.38884 -0.42721,-3.78085 -0.85465,-7.56173 -1.28239,-11.34312 -0.65052,-1.78523 -1.30128,-3.57065 -1.95232,-5.35637 -0.35151,-7.157702 -0.70325,-14.315242 -1.05529,-21.473482 -1.7536996,7.30593 -3.5075996,14.61128 -5.2617996,21.916542 0.23197,4.59901 0.46366,9.19748 0.69511,13.79597 2.029286,3.971 4.0581866,7.9415 6.0869426,11.91197 5.24013,2.97943 10.479785,5.95848 15.719287,8.93733 z"
       sodipodi:nodetypes="ccccccccc" /><path
       style="fill:#4d7600;fill-opacity:1;stroke-width:0.264583"
       d="m 17.307656,157.09008 c -4.720426,1.41937 -8.6128048,3.30873 -8.3743368,5.13432 0.238468,1.82559 4.6074878,3.58704 9.4101358,3.32507 4.802648,-0.26197 10.038539,-2.54714 13.871956,-6.97131 3.833417,-4.42416 6.264081,-10.987 9.022283,-15.79038 2.758201,-4.80338 5.843548,-7.84659 8.688022,-9.22026 2.844474,-1.37368 5.447504,-1.0777 8.231784,0.62011 2.784279,1.6978 5.749631,4.79702 7.183563,8.71974 1.433931,3.92272 1.336538,8.66851 1.550092,14.20884 0.213554,5.54033 0.738009,11.87463 1.779581,16.18848 1.041572,4.31384 2.599967,6.60692 4.635413,5.68874 2.035445,-0.91819 4.547976,-5.04733 6.336807,-10.25042 1.788832,-5.20309 2.853756,-11.47968 1.786856,-12.70011 -1.0669,-1.22043 -4.265559,2.6157 -6.59975,2.05268 -2.334192,-0.56302 -3.803906,-5.52537 -4.800663,-10.08356 -0.996757,-4.55819 -1.520441,-8.71187 -4.141283,-12.12501 -2.620842,-3.41314 -7.338802,-6.08524 -12.088292,-6.78904 -4.749491,-0.7038 -9.529822,0.56101 -12.751948,2.71441 -3.222126,2.1534 -4.885445,5.195 -5.946253,9.00317 -1.060808,3.80816 -1.519007,8.3823 -4.522194,11.14406 -3.003186,2.76175 -8.551347,3.71109 -13.271773,5.13047 z"
       id="path12642"
       inkscape:path-effect="#path-effect12644"
       inkscape:original-d="m 16.479594,156.6201 c -3.89221,1.88967 -7.7845896,3.77903 -11.6773996,5.66821 4.36954,1.76181 8.7385596,3.52326 13.1075696,5.28455 5.23648,-2.28504 10.47237,-4.57021 15.70831,-6.85578 2.43108,-6.56296 4.86174,-13.1258 7.29228,-19.68929 3.0858,-3.04313 6.17115,-6.08633 9.25642,-9.12998 2.60339,0.29626 5.20642,0.59224 7.80923,0.88797 2.96578,3.09965 5.931134,6.19886 8.896394,9.29799 -0.0971,4.74633 -0.19453,9.49212 -0.29219,14.23792 0.52474,6.33483 1.0492,12.66913 1.5734,19.00331 1.55876,2.29349 3.11716,4.58657 4.67537,6.87952 2.51293,-4.12909 5.02546,-8.25823 7.53786,-12.38786 1.06525,-6.27669 2.13017,-12.55328 3.1949,-18.83052 -3.19854,3.83657 -6.3972,7.6727 -9.59619,11.50865 -1.46951,-4.96228 -2.93922,-9.92463 -4.40923,-14.88735 -0.52345,-4.15364 -1.04713,-8.30732 -1.57111,-12.46149 -4.71798,-2.672 -9.435944,-5.34409 -14.154444,-8.01661 -4.78035,1.26514 -9.56068,2.52995 -14.34155,3.79457 -1.66315,3.04204 -3.32647,6.08364 -4.99015,9.12516 -0.45796,4.57467 -0.91616,9.14881 -1.37465,13.72295 -5.54812,0.94964 -11.09628,1.89899 -16.64482,2.84808 z"
       sodipodi:nodetypes="ccccccccccccccccccccc" /><path
       style="fill:#4d7600;fill-opacity:1;stroke-width:0.264583"
       d="m 92.744486,134.32833 c -1.77037,-0.11333 0.656788,-4.08462 3.163124,-7.03854 2.506337,-2.95393 5.09167,-4.8903 7.75034,-6.39664 2.65867,-1.50635 5.39044,-2.58257 7.7164,-4.40138 2.32595,-1.81882 4.24609,-4.38016 6.71986,-5.0564 2.47377,-0.67624 5.50053,0.5326 7.86867,0.0851 2.36813,-0.44753 4.07773,-2.55132 5.49228,-3.98771 1.41454,-1.43638 2.53384,-2.2052 3.04446,-0.69514 0.51061,1.51007 0.41255,5.29855 -1.18847,8.09507 -1.60101,2.79653 -4.70489,4.60107 -9.43223,6.43912 -4.72734,1.83805 -11.07781,3.70944 -17.23711,6.51744 -6.1593,2.80801 -12.126955,6.55243 -13.897324,6.4391 z"
       id="path12646"
       inkscape:path-effect="#path-effect12648"
       inkscape:original-d="m 88.547008,138.18621 c 2.42742,-3.97102 4.85458,-7.94231 7.28147,-11.91387 2.58569,-1.93618 5.171022,-3.87255 7.756132,-5.80922 2.73214,-1.076 5.46391,-2.15222 8.19547,-3.22873 1.92051,-2.56122 3.84065,-5.12256 5.76064,-7.6843 3.0272,1.20918 6.05397,2.41802 9.08065,3.62667 1.70993,-2.10361 3.41953,-4.2074 5.12891,-6.3115 1.11963,-0.7686 2.23893,-1.53742 3.35803,-2.30655 -0.0978,3.78897 -0.19587,7.57745 -0.2942,11.36589 -3.10379,1.80491 -6.20767,3.60945 -9.31199,5.41383 -6.35045,1.87172 -12.70092,3.74311 -19.05178,5.61427 -5.96764,3.74485 -11.935292,7.48927 -17.903332,11.23351 z"
       sodipodi:nodetypes="cccccccccccc" /><path
       style="fill:#4d7600;fill-opacity:1;stroke-width:0.264583"
       d="m 82.696794,109.1564 c 1.536917,-0.42232 8.091642,-7.57561 15.696494,-13.610108 7.604852,-6.0345 16.259192,-10.949847 21.669342,-15.733724 5.41015,-4.783878 7.57555,-9.435839 7.88662,-14.655974 0.31106,-5.220136 -1.23238,-11.008016 -2.86454,-11.142441 -1.63217,-0.134424 -3.35273,5.384766 -6.51201,10.728743 -3.15929,5.343977 -7.75695,10.512244 -11.39486,13.423441 -3.63792,2.911197 -6.31589,3.565044 -6.8435,2.322861 -0.527599,-1.242184 1.09539,-4.380386 3.16073,-7.830199 2.06534,-3.449812 4.57277,-7.210773 7.98813,-11.620127 3.41537,-4.409355 7.73821,-9.466494 10.50635,-14.385524 2.76814,-4.919031 3.98125,-9.699475 3.78539,-13.093061 -0.19587,-3.393587 -1.801,-5.400017 -2.74285,-4.195409 -0.94185,1.204608 -1.22013,5.620168 -3.67856,10.978073 -2.45844,5.357905 -7.09674,11.657878 -11.08335,16.868016 -3.98662,5.210137 -7.32108,9.329825 -9.428662,14.29127 -2.107581,4.961445 -2.988033,10.763977 -3.294343,14.054915 -0.306309,3.290938 -0.03861,4.070038 -1.180556,5.551979 -1.141946,1.481941 -3.693356,3.666971 -6.70962,7.913984 -3.016263,4.247015 -6.497123,10.555605 -4.960205,10.133285 z"
       id="path12650"
       inkscape:path-effect="#path-effect12652"
       inkscape:original-d="m 77.678988,115.88736 c 6.555,-7.15303 13.10972,-14.30632 19.66418,-21.459862 8.655152,-4.91539 17.309492,-9.83074 25.964132,-14.74667 2.1658,-4.65199 4.3312,-9.30395 6.49646,-13.95645 -1.54326,-5.78797 -3.0867,-11.57585 -4.6305,-17.36434 -1.7204,5.51979 -3.44096,11.03898 -5.16189,16.55824 -4.59768,5.16884 -9.19534,10.33711 -13.79355,15.50543 -2.67782,0.65414 -5.3558,1.30798 -8.034102,1.96158 1.62334,-3.13811 3.246332,-6.27631 4.869142,-9.41496 2.50785,-3.76094 5.01528,-7.5219 7.52261,-11.28337 4.32338,-5.0572 8.64622,-10.11434 12.96908,-15.17207 1.21345,-4.780493 2.42656,-9.560937 3.63949,-14.341954 -1.60494,-2.00626 -3.21007,-4.01269 -4.8155,-6.01943 -0.27802,4.416 -0.55629,8.83156 -0.83484,13.24695 -4.63831,6.300624 -9.27661,12.600594 -13.91545,18.900684 -3.3344,4.1202 -6.66886,8.23989 -10.003792,12.35956 -0.88022,5.80303 -1.76068,11.60556 -2.64141,17.40795 0.26797,0.77939 0.53567,1.55849 0.80311,2.33733 -2.55124,2.18538 -5.10265,4.37041 -7.65437,6.55521 -3.48074,6.309112 -6.9616,12.617702 -10.4428,18.926172 z"
       sodipodi:nodetypes="cccccccccccccccccccc" /></g></svg>
